<svg width="28" height="28" viewBox="0 0 28 28" fill="none" xmlns="http://www.w3.org/2000/svg">
<path d="M14.0003 22.6719C14.4398 22.6719 14.7035 22.373 14.7035 21.9248V20.123L16.0306 20.9141C16.3822 21.1426 16.7601 21.125 16.9886 20.7734C17.182 20.457 17.0941 20.0791 16.7249 19.8594L14.7035 18.6904V17.6006L14.5101 14.5771L17.0677 16.2471L18.0081 16.7832L18.0169 19.1123C18.0169 19.543 18.307 19.8242 18.6673 19.8066C19.0892 19.7891 19.2914 19.4727 19.265 19.0508L19.2386 17.4951L20.8119 18.4092C21.1986 18.6377 21.5941 18.541 21.805 18.1719C22.0072 17.7939 21.8929 17.3896 21.5238 17.1787L19.9505 16.2734L21.3128 15.5088C21.682 15.333 21.8578 14.9814 21.6644 14.6211C21.4798 14.2959 21.1107 14.1904 20.7328 14.3926L18.7113 15.5527L17.7708 15.0078L15.0287 13.6543L17.7708 12.3008L18.7113 11.7559L20.7328 12.916C21.1019 13.127 21.4886 13.0127 21.6644 12.6875C21.8578 12.3271 21.682 11.9756 21.304 11.791L19.9593 11.0352L21.5238 10.1299C21.9105 9.91016 22.016 9.52344 21.805 9.13672C21.5941 8.78516 21.1986 8.6709 20.8119 8.89941L19.2386 9.80469L19.265 8.25781C19.2914 7.83594 19.0804 7.51074 18.6673 7.50195C18.307 7.49316 18.0169 7.76562 18.0169 8.1875L18.0081 10.5254L17.0677 11.0615L14.5101 12.7402L14.7035 9.70801V8.61816L16.7249 7.44922C17.0941 7.22949 17.1732 6.84277 16.9886 6.53516C16.7689 6.18359 16.3822 6.15723 16.0306 6.39453L14.7035 7.18555V5.38379C14.7035 4.93555 14.4398 4.62793 14.0003 4.62793C13.5785 4.62793 13.2884 4.93555 13.2884 5.38379V7.18555L11.9525 6.39453C11.6009 6.15723 11.2318 6.18359 11.0033 6.53516C10.8099 6.84277 10.8978 7.22949 11.2757 7.44922L13.2884 8.61816V9.70801L13.4818 12.749L10.933 11.0615L9.99252 10.5166L9.98373 8.1875C9.98373 7.76562 9.69369 7.49316 9.33334 7.50195C8.91147 7.51953 8.70053 7.83594 8.73569 8.25781L8.75326 9.80469L7.18002 8.89941C6.81088 8.67969 6.3978 8.78516 6.18686 9.13672C5.96713 9.52344 6.09897 9.91895 6.46811 10.1299L8.04135 11.0352L6.68783 11.791C6.31869 11.9756 6.14291 12.3096 6.33627 12.6963C6.50326 13.0127 6.88998 13.127 7.26791 12.916L9.2894 11.7559L10.221 12.3008L12.972 13.6543L10.2298 15.0078L9.28061 15.5527L7.25912 14.3926C6.88998 14.1816 6.51205 14.2959 6.34506 14.6123C6.1517 14.999 6.31869 15.3242 6.68783 15.5088L8.04135 16.2734L6.4769 17.1787C6.09897 17.3896 5.97592 17.8027 6.18686 18.1631C6.40658 18.5498 6.81088 18.6289 7.18002 18.4092L8.75326 17.5127L8.7269 19.0508C8.70053 19.4727 8.91147 19.7979 9.33334 19.8066C9.69369 19.8154 9.98373 19.543 9.98373 19.1123L10.0013 16.7832L10.933 16.2471L13.4818 14.5684L13.2884 17.6006V18.6904L11.2757 19.8594C10.8978 20.0791 10.8099 20.457 11.0033 20.7734C11.2318 21.125 11.6009 21.1426 11.9525 20.9141L13.2884 20.1143V21.9248C13.2884 22.3643 13.5785 22.6719 14.0003 22.6719Z" fill="#008375"/>
</svg>
