<svg width="31" height="32" viewBox="0 0 31 32" fill="none" xmlns="http://www.w3.org/2000/svg">
<path d="M15.1996 29.4875C22.2622 29.4875 28.1121 23.6499 28.1121 16.575C28.1121 9.51247 22.2622 3.66248 15.1871 3.66248C8.1246 3.66248 2.28711 9.51247 2.28711 16.575C2.28711 23.6499 8.13711 29.4875 15.1996 29.4875ZM15.1996 26.9501C9.4496 26.9501 4.83711 22.3249 4.83711 16.575C4.83711 10.825 9.43711 6.21248 15.1871 6.21248C20.937 6.21248 25.5746 10.825 25.5746 16.575C25.5746 22.3249 20.9497 26.9501 15.1996 26.9501ZM15.1246 12.475C16.0622 12.475 16.8121 11.7125 16.8121 10.7875C16.8121 9.83748 16.0622 9.08748 15.1246 9.08748C14.1871 9.08748 13.4371 9.83748 13.4371 10.7875C13.4371 11.7125 14.1871 12.475 15.1246 12.475ZM13.0121 23.4499H18.0495C18.5996 23.4499 19.037 23.0499 19.037 22.4875C19.037 21.9625 18.5996 21.5501 18.0495 21.5501H16.6495V15.6375C16.6495 14.9 16.2871 14.4125 15.5871 14.4125H13.2371C12.6746 14.4125 12.2496 14.8375 12.2496 15.3625C12.2496 15.925 12.6746 16.3249 13.2371 16.3249H14.4996V21.5501H13.0121C12.4621 21.5501 12.0246 21.9625 12.0246 22.4875C12.0246 23.0499 12.4621 23.4499 13.0121 23.4499Z" fill="#008375"/>
</svg>
