<svg width="220" height="180" viewBox="0 0 220 180" fill="none" xmlns="http://www.w3.org/2000/svg">
<g clip-path="url(#clip0_447_30195)">
<path d="M112.327 42.7291H111.34V15.6643C111.34 11.5099 109.69 7.52559 106.752 4.58796C103.815 1.65034 99.8306 2.04332e-09 95.6761 2.04332e-09H38.3345C36.2774 -3.32222e-05 34.2405 0.405103 32.34 1.19228C30.4395 1.97945 28.7127 3.13324 27.2581 4.58778C25.8035 6.04232 24.6496 7.76912 23.8624 9.66959C23.0752 11.5701 22.67 13.607 22.6699 15.664V164.144C22.6699 166.201 23.0751 168.238 23.8623 170.138C24.6495 172.039 25.8033 173.765 27.2579 175.22C28.7125 176.675 30.4393 177.828 32.3397 178.616C34.2402 179.403 36.2771 179.808 38.3342 179.808H95.6754C99.8298 179.808 103.814 178.158 106.752 175.22C109.689 172.282 111.34 168.298 111.34 164.144V61.9943H112.326L112.327 42.7291Z" fill="#3F3D56"/>
<path d="M108.145 14.6151V165.192C108.145 168.342 106.894 171.363 104.667 173.59C102.44 175.818 99.4192 177.07 96.2693 177.071H37.7512C34.6001 177.072 31.5779 175.82 29.3493 173.593C27.1207 171.365 25.8681 168.343 25.8672 165.192V14.6151C25.8681 11.4641 27.1206 8.44258 29.3491 6.215C31.5777 3.98741 34.5997 2.73623 37.7507 2.73663H44.8493C44.5007 3.59378 44.3681 4.52343 44.4629 5.44386C44.5578 6.36429 44.8773 7.24732 45.3934 8.01534C45.9095 8.78336 46.6063 9.41286 47.4227 9.84849C48.239 10.2841 49.1499 10.5126 50.0752 10.5137H83.4373C84.3626 10.5126 85.2735 10.2841 86.0898 9.84849C86.9062 9.41286 87.603 8.78336 88.1191 8.01534C88.6352 7.24732 88.9547 6.36429 89.0496 5.44386C89.1444 4.52343 89.0118 3.59378 88.6632 2.73663H96.267C99.4168 2.73717 102.438 3.9885 104.665 6.21554C106.892 8.44257 108.144 11.463 108.145 14.6128V14.6151Z" fill="white"/>
<path d="M94.5608 144.767H40.5177C38.5741 144.765 36.7106 143.992 35.3362 142.618C33.9618 141.243 33.1887 139.38 33.1865 137.436V61.4095C33.1865 42.9504 48.204 27.9328 66.6631 27.9328H94.5609C96.5046 27.935 98.368 28.7081 99.7424 30.0825C101.117 31.4568 101.89 33.3202 101.892 35.2639V137.436C101.89 139.38 101.117 141.243 99.7424 142.618C98.368 143.992 96.5045 144.765 94.5608 144.767Z" fill="#E6E6E6"/>
<path d="M37.2804 163.068C39.4292 163.068 41.1711 161.326 41.1711 159.177C41.1711 157.029 39.4292 155.287 37.2804 155.287C35.1316 155.287 33.3896 157.029 33.3896 159.177C33.3896 161.326 35.1316 163.068 37.2804 163.068Z" fill="#E6E6E6"/>
<path d="M97.8751 163.068C100.024 163.068 101.766 161.326 101.766 159.177C101.766 157.029 100.024 155.287 97.8751 155.287C95.7263 155.287 93.9844 157.029 93.9844 159.177C93.9844 161.326 95.7263 163.068 97.8751 163.068Z" fill="#E6E6E6"/>
<path d="M98.4021 144.618L95.99 147.246L84.7041 139.194L88.264 135.314L98.4021 144.618Z" fill="#FFB6B6"/>
<path d="M101.566 146.285L93.7887 154.761L93.6815 154.662C92.8067 153.859 92.2866 152.742 92.2356 151.556C92.1846 150.369 92.6069 149.211 93.4096 148.336L93.4098 148.336L93.6558 145.71L97.4809 143.9L98.1598 143.16L101.566 146.285Z" fill="#2F2E41"/>
<path d="M99.9792 173.95L96.4119 173.95L94.7148 160.19L99.98 160.19L99.9792 173.95Z" fill="#FFB6B6"/>
<path d="M100.889 177.408L89.3867 177.408V177.262C89.3868 176.075 89.8585 174.936 90.6982 174.096C91.5378 173.257 92.6765 172.785 93.8639 172.785H93.8642L95.9653 171.191L99.8855 172.785L100.89 172.785L100.889 177.408Z" fill="#2F2E41"/>
<path d="M82.7525 104.488C82.7525 104.488 60.9599 125.529 74.7368 132.042H78.995C78.995 132.042 80.2747 127.496 83.2042 123.662C83.6065 123.136 85.1137 123.243 85.5322 122.729C88.0879 119.596 90.8585 116.906 92.772 117.013L94.0243 131.541L93.4064 135.799C93.0175 138.48 93.1199 141.209 93.7086 143.853L93.2729 160.848L100.914 160.853C100.914 160.853 101.223 156.869 101.481 151.888C101.55 150.553 102.124 149.623 102.179 148.203C102.311 144.797 101.874 140.833 101.79 138.054L107.551 107.494L82.7525 104.488Z" fill="#2F2E41"/>
<path d="M92.8181 59.9069L89.2647 64.6604L80.748 69.6697L85.7574 82.695L85.9474 92.3864L85.4812 93.5554L86.0078 95.47C86.0078 95.47 85.7648 97.7108 84.4692 99.3744C82.2039 102.283 78.7449 105.444 82.2506 106.241C87.7614 107.494 107.3 110.249 108.301 107.995C108.648 107.215 108.605 103.917 108.4 99.9373C108.362 99.193 107.54 98.3834 107.492 97.6034C107.456 97.0181 108.196 96.4677 108.156 95.8741C107.708 89.2596 107.049 82.4448 107.049 82.4448L109.01 64.2078L101.167 62.1839L100.286 59.9392L92.8181 59.9069Z" fill="#008375"/>
<path d="M73.6904 130.792L74.8553 132.264C74.8553 132.264 85.5683 139.759 85.9362 140.459L87.6292 142.061L91.7258 137.682L89.5954 135.012C87.8906 132.875 85.6879 131.189 83.1802 130.101L79.9152 127.204L73.6904 130.792Z" fill="#2F2E41"/>
<path d="M80.4973 109.756L82.4482 90.8726L82.9631 83.1008L77.5027 82.1134C77.5027 82.1134 76.685 87.4562 75.9696 90.5915C75.2637 93.6855 76.91 109.341 76.9537 109.754C76.5526 110.113 76.2699 110.585 76.143 111.108C76.016 111.63 76.0507 112.179 76.2425 112.682C76.4343 113.185 76.7742 113.617 77.2171 113.922C77.6601 114.228 78.1853 114.391 78.7233 114.391C79.2612 114.392 79.7866 114.229 80.2299 113.924C80.6731 113.619 81.0134 113.187 81.2057 112.684C81.398 112.182 81.4332 111.633 81.3067 111.11C81.1802 110.587 80.898 110.115 80.4973 109.756Z" fill="#FFB9B9"/>
<path d="M73.4429 94.045L82.8692 96.4377L82.8038 93.792L83.5192 93.033L84.9486 85.545L86.9995 81.1586L86.4664 66.1586L81.2575 68.9212L81.2512 68.9261C80.3416 69.9268 79.5808 71.0532 78.9924 72.2707C77.0288 76.2626 75.1424 85.0554 74.155 90.1624C74.1211 90.2695 74.0556 90.3639 73.9672 90.4331C73.4774 90.8828 73.1577 91.4877 73.0622 92.1457C72.9667 92.8038 73.1011 93.4746 73.4429 94.045Z" fill="#008375"/>
<path d="M129.421 98.8661C129.421 98.8661 117.945 86.7676 117.838 86.5396C117.036 80.4522 114.731 77.767 114.385 78.0585L108.435 80.1201C108.435 80.1201 110.205 85.7252 111.403 89.0545C112.548 92.2358 125.746 100.006 125.966 100.39C125.73 100.912 125.657 101.494 125.759 102.058C125.86 102.622 126.13 103.142 126.533 103.549C126.937 103.957 127.454 104.232 128.017 104.339C128.58 104.445 129.163 104.379 129.687 104.147C130.211 103.916 130.653 103.531 130.954 103.043C131.255 102.555 131.401 101.987 131.372 101.415C131.343 100.843 131.141 100.292 130.792 99.8373C130.444 99.3821 129.966 99.0434 129.421 98.8661Z" fill="#FFB9B9"/>
<path d="M103.63 64.6242C103.63 64.6242 109.471 61.7613 111.737 67.3841C112.979 70.5585 116.156 78.2625 117.739 83.0049C117.749 83.0351 117.764 83.0637 117.782 83.0899C118.205 83.7191 118.434 84.4591 118.439 85.2174C118.438 85.2727 118.444 85.3277 118.456 85.3817C118.456 85.3817 112.037 86.6322 110.127 89.997L109.37 89.1752L109.236 88.5994L103.697 73.8217L103.63 64.6242Z" fill="#008375"/>
<path d="M199.025 87.573H130.634C130.025 87.5722 129.441 87.3299 129.01 86.899C128.579 86.4681 128.337 85.8838 128.336 85.2745V75.2581C128.337 74.6488 128.579 74.0645 129.01 73.6336C129.441 73.2027 130.025 72.9604 130.634 72.9597H199.025C199.634 72.9604 200.219 73.2027 200.65 73.6336C201.08 74.0645 201.323 74.6488 201.324 75.2581V85.2745C201.323 85.8838 201.08 86.4681 200.65 86.899C200.219 87.3299 199.634 87.5722 199.025 87.573Z" fill="#E6E6E6"/>
<path d="M192.38 86.0226H132.185C131.576 86.0219 130.992 85.7795 130.561 85.3486C130.13 84.9177 129.887 84.3335 129.887 83.7241V76.8097C129.887 76.2004 130.13 75.6161 130.561 75.1852C130.992 74.7543 131.576 74.512 132.185 74.5113H197.475C198.084 74.512 198.668 74.7543 199.099 75.1852C199.53 75.6161 199.773 76.2004 199.773 76.8097V78.6295C199.771 80.5896 198.991 82.4688 197.605 83.8548C196.219 85.2408 194.34 86.0204 192.38 86.0226Z" fill="white"/>
<path d="M171.617 79.5538H144.129C143.972 79.5538 143.821 79.4913 143.71 79.3801C143.599 79.269 143.536 79.1182 143.536 78.961C143.536 78.8038 143.599 78.653 143.71 78.5418C143.821 78.4307 143.972 78.3682 144.129 78.3682H171.617C171.774 78.3682 171.925 78.4307 172.036 78.5418C172.147 78.653 172.209 78.8038 172.209 78.961C172.209 79.1182 172.147 79.269 172.036 79.3801C171.925 79.4913 171.774 79.5538 171.617 79.5538Z" fill="#008375"/>
<path d="M185.532 81.9783H144.129C143.972 81.9783 143.821 81.9158 143.71 81.8046C143.599 81.6935 143.536 81.5427 143.536 81.3855C143.536 81.2283 143.599 81.0775 143.71 80.9663C143.821 80.8552 143.972 80.7927 144.129 80.7927H185.532C185.689 80.7927 185.84 80.8552 185.951 80.9663C186.062 81.0775 186.124 81.2283 186.124 81.3855C186.124 81.5427 186.062 81.6935 185.951 81.8046C185.84 81.9158 185.689 81.9783 185.532 81.9783Z" fill="#E6E6E6"/>
<path d="M199.025 108.825H130.634C130.025 108.824 129.441 108.582 129.01 108.151C128.579 107.72 128.337 107.136 128.336 106.526V96.5098C128.337 95.9005 128.579 95.3162 129.01 94.8853C129.441 94.4545 130.025 94.2121 130.634 94.2114H199.025C199.634 94.2121 200.219 94.4545 200.65 94.8853C201.08 95.3162 201.323 95.9005 201.324 96.5098V106.526C201.323 107.136 201.08 107.72 200.65 108.151C200.219 108.582 199.634 108.824 199.025 108.825Z" fill="#E6E6E6"/>
<path d="M192.38 107.274H132.185C131.576 107.274 130.992 107.031 130.561 106.6C130.13 106.169 129.887 105.585 129.887 104.976V98.0614C129.887 97.4521 130.13 96.8678 130.561 96.437C130.992 96.0061 131.576 95.7637 132.185 95.763H197.475C198.084 95.7637 198.668 96.0061 199.099 96.437C199.53 96.8678 199.773 97.4521 199.773 98.0614V99.8812C199.771 101.841 198.991 103.721 197.605 105.107C196.219 106.493 194.34 107.272 192.38 107.274Z" fill="white"/>
<path d="M171.617 100.806H144.129C144.051 100.806 143.974 100.79 143.902 100.76C143.83 100.731 143.765 100.687 143.71 100.632C143.655 100.577 143.611 100.511 143.581 100.44C143.551 100.368 143.536 100.291 143.536 100.213C143.536 100.135 143.551 100.058 143.581 99.9859C143.611 99.914 143.655 99.8486 143.71 99.7936C143.765 99.7385 143.83 99.6949 143.902 99.6651C143.974 99.6353 144.051 99.62 144.129 99.62H171.617C171.774 99.62 171.925 99.6824 172.036 99.7936C172.147 99.9047 172.209 100.056 172.209 100.213C172.209 100.37 172.147 100.521 172.036 100.632C171.925 100.743 171.774 100.806 171.617 100.806Z" fill="#008375"/>
<path d="M185.532 103.23H144.129C144.051 103.23 143.974 103.215 143.902 103.185C143.83 103.155 143.765 103.111 143.71 103.056C143.655 103.001 143.611 102.936 143.581 102.864C143.551 102.792 143.536 102.715 143.536 102.637C143.536 102.559 143.551 102.482 143.581 102.41C143.611 102.338 143.655 102.273 143.71 102.218C143.765 102.163 143.83 102.119 143.902 102.09C143.974 102.06 144.051 102.044 144.129 102.044H185.532C185.689 102.044 185.84 102.107 185.951 102.218C186.062 102.329 186.124 102.48 186.124 102.637C186.124 102.794 186.062 102.945 185.951 103.056C185.84 103.168 185.689 103.23 185.532 103.23Z" fill="#E6E6E6"/>
<path d="M199.025 130.076H130.634C130.025 130.076 129.441 129.833 129.01 129.402C128.579 128.972 128.337 128.387 128.336 127.778V117.762C128.337 117.152 128.579 116.568 129.01 116.137C129.441 115.706 130.025 115.464 130.634 115.463H199.025C199.634 115.464 200.219 115.706 200.65 116.137C201.08 116.568 201.323 117.152 201.324 117.762V127.778C201.323 128.387 201.08 128.972 200.65 129.402C200.219 129.833 199.634 130.076 199.025 130.076Z" fill="#E6E6E6"/>
<path d="M192.38 128.526H132.185C131.576 128.525 130.992 128.283 130.561 127.852C130.13 127.421 129.887 126.837 129.887 126.228V119.313C129.887 118.704 130.13 118.12 130.561 117.689C130.992 117.258 131.576 117.015 132.185 117.015H197.475C198.084 117.015 198.668 117.258 199.099 117.689C199.53 118.12 199.773 118.704 199.773 119.313V121.133C199.771 123.093 198.991 124.972 197.605 126.358C196.219 127.744 194.34 128.524 192.38 128.526Z" fill="white"/>
<path d="M171.617 122.057H144.129C143.972 122.057 143.821 121.995 143.71 121.884C143.599 121.772 143.536 121.622 143.536 121.464C143.536 121.307 143.599 121.156 143.71 121.045C143.821 120.934 143.972 120.872 144.129 120.872H171.617C171.774 120.872 171.925 120.934 172.036 121.045C172.147 121.156 172.209 121.307 172.209 121.464C172.209 121.622 172.147 121.772 172.036 121.884C171.925 121.995 171.774 122.057 171.617 122.057Z" fill="#008375"/>
<path d="M185.532 124.482H144.129C143.972 124.482 143.821 124.419 143.71 124.308C143.599 124.197 143.536 124.046 143.536 123.889C143.536 123.732 143.599 123.581 143.71 123.47C143.821 123.359 143.972 123.296 144.129 123.296H185.532C185.689 123.296 185.84 123.359 185.951 123.47C186.062 123.581 186.124 123.732 186.124 123.889C186.124 124.046 186.062 124.197 185.951 124.308C185.84 124.419 185.689 124.482 185.532 124.482Z" fill="#E6E6E6"/>
<path d="M96.5619 58.381C100.512 58.381 103.715 55.1786 103.715 51.2283C103.715 47.2779 100.512 44.0756 96.5619 44.0756C92.6116 44.0756 89.4092 47.2779 89.4092 51.2283C89.4092 55.1786 92.6116 58.381 96.5619 58.381Z" fill="#FFB9B9"/>
<path d="M91.3026 55.8284C91.2168 55.8288 91.1316 55.815 91.0503 55.7877C90.731 55.6478 90.4642 55.4106 90.2878 55.1099C89.0563 53.3387 88.4616 50.9773 88.5206 48.091C88.5455 46.87 88.6837 45.3088 89.5388 44.0643C90.2579 43.0179 91.7126 42.1875 93.0682 42.6043C93.0528 42.3332 93.113 42.0632 93.2421 41.8243C93.3712 41.5854 93.5641 41.3871 93.7993 41.2515C94.3128 40.937 94.9309 40.8792 95.4762 40.8279C96.8531 40.6989 98.2764 40.5655 99.6706 40.8297C101.234 41.1262 102.512 41.9319 103.177 43.0402L103.191 43.075L103.326 43.7318C103.344 43.8201 103.381 43.9034 103.435 43.976C103.488 44.0486 103.557 44.1087 103.636 44.1522C103.715 44.1958 103.802 44.2217 103.892 44.2282C103.982 44.2347 104.072 44.2216 104.157 44.1899C104.249 44.1552 104.348 44.1452 104.445 44.1607C104.543 44.1763 104.634 44.2169 104.711 44.2786C104.787 44.3402 104.847 44.4208 104.883 44.5124C104.919 44.604 104.93 44.7034 104.916 44.8007L104.878 45.062L105.271 44.9884C105.37 44.9701 105.471 44.9781 105.566 45.0118C105.66 45.0454 105.743 45.1034 105.808 45.1799C105.873 45.2564 105.916 45.3487 105.933 45.4472C105.95 45.5458 105.941 45.6472 105.906 45.7411L105.795 46.0415C105.877 46.042 105.957 46.0592 106.031 46.092C106.106 46.1248 106.173 46.1725 106.228 46.2321C106.308 46.3176 106.358 46.4264 106.371 46.5424C106.385 46.6584 106.36 46.7757 106.302 46.877C105.863 47.6285 105.24 48.2557 104.491 48.6997C104.082 48.9459 103.634 49.1218 103.167 49.2203C100.135 49.8747 97.0087 49.9687 93.9427 49.4977C94.1242 50.1024 94.1941 50.7351 94.1489 51.3648C94.0508 52.1523 93.5885 52.8021 92.9711 53.0203C92.8305 53.066 92.6866 53.1007 92.5406 53.1241C92.4011 53.1458 92.2636 53.1792 92.1297 53.2239C91.9311 53.2969 91.7553 53.4209 91.62 53.5834C91.4847 53.746 91.3946 53.9414 91.3589 54.1498C91.3232 54.3583 91.3431 54.5725 91.4166 54.7708C91.4901 54.9692 91.6146 55.1446 91.7776 55.2795L92.082 54.9622L91.983 55.3655C91.9623 55.444 91.9254 55.5173 91.8745 55.5806C91.8237 55.6439 91.7601 55.6958 91.6879 55.733C91.5694 55.7962 91.437 55.829 91.3026 55.8284Z" fill="#2F2E41"/>
<path d="M190.805 163.83L191.094 157.323C194.111 155.71 197.476 154.858 200.896 154.841C196.189 158.69 196.777 166.11 193.585 171.286C192.577 172.893 191.221 174.252 189.616 175.263C188.011 176.274 186.2 176.912 184.315 177.127L180.376 179.54C179.835 176.526 179.954 173.431 180.725 170.468C181.496 167.504 182.9 164.743 184.84 162.375C185.942 161.057 187.206 159.883 188.601 158.881C189.544 161.369 190.805 163.83 190.805 163.83Z" fill="#F2F2F2"/>
<path d="M219.012 179.699C219.012 179.739 219.004 179.778 218.989 179.814C218.974 179.851 218.952 179.884 218.924 179.912C218.896 179.94 218.862 179.962 218.826 179.977C218.789 179.992 218.75 180 218.711 180H0.301067C0.221219 180 0.144644 179.968 0.0881836 179.912C0.0317228 179.855 0 179.779 0 179.699C0 179.619 0.0317228 179.543 0.0881836 179.486C0.144644 179.43 0.221219 179.398 0.301067 179.398H218.711C218.75 179.398 218.789 179.405 218.826 179.421C218.862 179.436 218.896 179.458 218.924 179.486C218.952 179.514 218.974 179.547 218.989 179.584C219.004 179.62 219.012 179.659 219.012 179.699Z" fill="#CCCCCC"/>
</g>
<defs>
<clipPath id="clip0_447_30195">
<rect width="219.012" height="180" fill="white"/>
</clipPath>
</defs>
</svg>
