<svg width="203" height="150" viewBox="0 0 203 150" fill="none" xmlns="http://www.w3.org/2000/svg">
<path d="M183.357 149.305H140.422V147.988C140.422 146.844 140.876 145.747 141.685 144.938C142.494 144.129 143.591 143.674 144.735 143.674H179.044C180.188 143.674 181.285 144.129 182.094 144.938C182.902 145.747 183.357 146.844 183.357 147.988V149.305Z" fill="#E6E6E6"/>
<path d="M160.885 143.937L162.19 143.411C148.529 109.501 149.845 66.7198 161.393 30.0213C162.765 25.7692 162.864 21.2089 161.678 16.9014C160.492 12.5938 158.072 8.72696 154.717 5.77651C148.014 -0.205246 138.773 -1.66245 130.598 1.97317C122.53 5.5624 121.417 11.8143 121.417 18.0358H122.825C122.825 11.3947 124.244 6.34032 131.171 3.2594C138.832 -0.147851 147.495 1.2188 153.78 6.82697C156.931 9.59807 159.204 13.23 160.318 17.2758C161.432 21.3216 161.339 25.6049 160.05 29.5986C148.369 66.7209 147.13 109.796 160.885 143.937Z" fill="#E6E6E6"/>
<path d="M122.473 38.7996C125.195 38.7996 127.4 36.5937 127.4 33.8726C127.4 31.1515 125.195 28.9456 122.473 28.9456C119.752 28.9456 117.546 31.1515 117.546 33.8726C117.546 36.5937 119.752 38.7996 122.473 38.7996Z" fill="#E6E6E6"/>
<path d="M114.885 42.4616V33.1262H116.337V42.4616C116.753 42.6301 117.098 42.9381 117.312 43.3329C117.527 43.7277 117.597 44.1847 117.511 44.6256C117.425 45.0665 117.189 45.4638 116.842 45.7495C116.496 46.0351 116.06 46.1913 115.611 46.1913C115.162 46.1913 114.727 46.0351 114.38 45.7495C114.034 45.4638 113.797 45.0665 113.711 44.6256C113.626 44.1847 113.696 43.7277 113.91 43.3329C114.124 42.9381 114.469 42.6301 114.885 42.4616Z" fill="#E6E6E6"/>
<path d="M107.868 25.9541C107.871 23.8081 108.724 21.7507 110.242 20.2332C111.759 18.7158 113.817 17.8622 115.963 17.8597H129.336C131.483 17.8597 133.541 18.7125 135.059 20.2305C136.577 21.7485 137.43 23.8073 137.43 25.9541C137.43 28.1009 136.577 30.1597 135.059 31.6777C133.541 33.1957 131.483 34.0485 129.336 34.0485H115.963C113.817 34.046 111.759 33.1925 110.242 31.675C108.724 30.1575 107.871 28.1001 107.868 25.9541Z" fill="#008375"/>
<path d="M89.0259 76.0796C90.3686 58.9011 97.2338 50.7163 92.8379 45.5836C88.6271 40.667 76.7662 41.6827 69.149 46.4004C48.6034 59.1254 41.0763 109.842 67.5153 134.621C92.639 158.168 140.253 150.626 150.835 131.354C153.304 126.857 155.265 118.974 151.652 114.2C142.68 102.347 110.063 123.816 95.5607 110.388C86.9663 102.43 88.289 85.5072 89.0259 76.0796Z" fill="#3F3D56"/>
<path d="M104.731 67.5452C104.232 67.7747 103.842 68.1899 103.645 68.7025C103.447 69.215 103.457 69.7844 103.673 70.2895C103.719 70.3914 103.772 70.4895 103.834 70.5826L99.4243 76.4707L101.625 79.7596L106.794 71.0404C107.16 70.7549 107.421 70.3561 107.537 69.9063C107.653 69.4565 107.616 68.9811 107.434 68.5542C107.327 68.3123 107.174 68.0937 106.983 67.9109C106.792 67.7282 106.567 67.5848 106.321 67.4889C106.075 67.3931 105.812 67.3467 105.548 67.3524C105.284 67.3581 105.023 67.4158 104.781 67.5222C104.764 67.5296 104.748 67.5373 104.731 67.5452Z" fill="#FFB6B6"/>
<path d="M104.727 77.6972C105.016 77.9531 104.215 78.269 103.369 77.7707C103.126 77.6264 103.023 77.5665 102.996 77.6046C102.928 77.6999 103.325 78.4024 103.219 79.9626C103.154 80.8938 101.607 82.6446 99.8507 84.3519C97.4764 86.6609 94.7154 88.8882 94.7154 88.8882L93.7461 88.1121L83.5816 79.9626L81.8662 77.5883C82.0233 76.6507 82.2592 75.728 82.5714 74.83C83.0015 73.5871 83.5127 72.3737 84.1017 71.1977C84.4175 70.5579 84.7416 69.9479 85.052 69.387L90.4977 75.3882L95.0612 80.4146C95.0612 80.4146 96.39 78.2745 97.4192 77.6918C97.5505 77.6079 97.6998 77.5566 97.8549 77.542C98.895 77.493 98.9576 76.9266 97.7514 75.6932C96.5452 74.4597 98.0672 75.6115 99.14 75.2793C100.213 74.9471 99.1401 75.2793 99.3661 74.4488C99.5921 73.6184 102.601 71.952 102.601 71.952L102.726 72.0636L105 74.0704L105.65 74.6449C105.65 74.6449 104.94 76.5944 104.744 77.0056C104.548 77.4167 104.441 77.4385 104.727 77.6972Z" fill="#008375"/>
<path d="M164.663 115.522L164.773 112.519L153.242 110.662L153.078 115.094L164.663 115.522Z" fill="#FFB6B6"/>
<path d="M162.569 116.426L162.46 111.617L164.516 111.693L167.835 107.248C167.998 107.028 168.228 106.867 168.49 106.787C168.753 106.707 169.033 106.713 169.292 106.805C169.55 106.896 169.773 107.067 169.927 107.294C170.081 107.52 170.159 107.79 170.148 108.064L169.938 113.776L167.868 114.686L169.887 115.145L169.808 117.299L162.569 116.426Z" fill="#636569"/>
<path d="M99.7603 116.691L136.286 117.617C136.286 117.617 152.058 118.528 155.759 116.121L159.662 115.628L159.873 109.896C159.873 109.896 157.487 109.914 156.115 109.274C154.743 108.635 155.696 107.853 154.388 108.622C153.08 109.391 153.218 109.484 152.207 109.13C151.195 108.777 104.815 101.707 104.815 101.707L99.7603 116.691Z" fill="#636569"/>
<path d="M147.891 114.204L150.015 112.078L142.824 102.873L139.689 106.012L147.891 114.204Z" fill="#FFB6B6"/>
<path d="M145.742 112.354L148.932 108.754L150.388 110.208L155.844 109.206C156.114 109.157 156.392 109.195 156.638 109.315C156.885 109.434 157.086 109.63 157.214 109.872C157.341 110.115 157.388 110.392 157.347 110.663C157.306 110.934 157.179 111.184 156.985 111.378L152.946 115.423L150.81 114.682L151.978 116.392L150.454 117.917L145.742 112.354Z" fill="#636569"/>
<path d="M85.3501 96.6877L85.7132 105.128C86.1407 115.065 97.0837 121.079 105.569 115.891C105.726 115.795 105.882 115.696 106.04 115.594C106.04 115.594 109.257 114.73 109.159 113.362C109.061 111.994 109.847 111.328 110.543 111.701C111.238 112.074 120.344 99.1512 120.344 99.1512C120.344 99.1512 139.263 108.588 143.437 110.81C143.437 110.81 147.361 104.674 147.076 104.739C146.792 104.803 123.671 88.6208 123.671 88.6208C123.671 88.6208 119.905 84.8088 115.232 87.3257C115.135 87.6954 115.218 87.7083 115.218 87.7083L99.7838 100.285L97.603 96.1431L85.3501 96.6877Z" fill="#636569"/>
<path d="M99.9025 86.1354C99.8732 86.5253 99.8177 86.9128 99.7364 87.2953C99.6252 87.8489 99.446 88.3867 99.2028 88.8963C99.2028 88.8963 99.2027 89.4654 98.1136 91.3714C97.0245 93.2774 98.3859 92.4606 99.2028 93.8765C100.02 95.2896 99.2027 94.6389 98.296 95.5483C98.035 95.813 97.8496 96.1427 97.7591 96.5033C97.6686 96.8638 97.6763 97.242 97.7814 97.5986C97.7814 97.5986 86.084 97.6068 83.9057 96.7899C81.7274 95.9731 81.2318 91.3714 83.1841 90.9167C85.1337 90.462 82.5933 90.01 81.447 88.9617C80.3006 87.9134 82.5933 86.198 82.5933 86.198C82.5933 86.198 81.6484 84.567 81.7274 79.0913C81.7385 78.5877 81.785 78.0855 81.8663 77.5883C82.0233 76.6507 82.2592 75.728 82.5715 74.83C83.0016 73.5871 83.5128 72.3737 84.1017 71.1977C84.4176 70.5579 84.7416 69.948 85.052 69.387C85.101 69.2999 85.1473 69.2155 85.1963 69.1311C85.7872 68.0855 86.3263 67.2305 86.683 66.6833C86.958 66.2585 87.1241 66.0189 87.1241 66.0189L89.1064 62.5717L95.7229 65.6731L95.3471 70.7457L96.488 74.5714L97.0135 76.3331L97.4192 77.6918L98.0455 79.7965C98.0455 79.7965 97.874 79.8047 98.0782 80.0852C99.0187 81.3356 99.6284 82.8031 99.8507 84.3519C99.9292 84.943 99.9465 85.5407 99.9025 86.1354Z" fill="#008375"/>
<path d="M119.01 86.682L118.886 86.6419L103.05 81.5422L108.885 62.3973C109.002 62.0161 109.203 61.6662 109.474 61.3741C109.745 61.0819 110.079 60.8551 110.45 60.7107C110.822 60.5664 111.221 60.5082 111.619 60.5406C112.016 60.5731 112.4 60.6952 112.744 60.898L122.864 66.8771C123.665 67.3499 124.274 68.0891 124.586 68.9656C124.897 69.8422 124.89 70.8002 124.567 71.6724L119.01 86.682Z" fill="#636569"/>
<path d="M119.075 87.8992L103.111 82.7585L108.946 63.6136C109.063 63.2324 109.264 62.8825 109.535 62.5903C109.806 62.2982 110.14 62.0713 110.511 61.927C110.883 61.7826 111.282 61.7244 111.68 61.7569C112.077 61.7893 112.462 61.9115 112.805 62.1142L123.408 67.4081C125.001 68.349 124.964 70.7843 124.224 72.7825L119.075 87.8992Z" fill="#008375"/>
<path d="M117.476 89.2849C117.109 89.4923 116.702 89.621 116.282 89.6627C115.862 89.7045 115.438 89.6585 115.037 89.5276L104.833 86.2416C104.05 85.9859 103.398 85.4341 103.017 84.7042C102.635 83.9743 102.554 83.1242 102.791 82.3354L107.907 65.5525C108.009 65.2172 108.177 64.9057 108.401 64.6362C108.625 64.3668 108.901 64.1448 109.212 63.9833C109.523 63.8218 109.864 63.7241 110.213 63.6958C110.562 63.6676 110.914 63.7094 111.247 63.8187L121.821 67.2907C122.325 67.4561 122.79 67.7208 123.19 68.0691C123.59 68.4175 123.916 68.8424 124.149 69.3189C124.382 69.7953 124.517 70.3136 124.546 70.8431C124.575 71.3726 124.498 71.9025 124.319 72.4017L118.849 87.6507C118.603 88.3431 118.116 88.9234 117.476 89.2849Z" fill="#3F3D56"/>
<path d="M95.3489 62.6306C99.3852 62.6306 102.657 59.3585 102.657 55.3222C102.657 51.2859 99.3852 48.0138 95.3489 48.0138C91.3126 48.0138 88.0405 51.2859 88.0405 55.3222C88.0405 59.3585 91.3126 62.6306 95.3489 62.6306Z" fill="#FFB6B6"/>
<path d="M70.6353 62.7407C71.306 64.0407 72.4057 65.0688 73.7479 65.6504C74.2835 65.8945 74.8467 66.0727 75.4252 66.1813C75.5887 65.5328 75.8505 64.9132 76.2014 64.3439C76.0845 64.9856 76.0845 65.6431 76.2014 66.2847C77.0827 66.3569 77.9695 66.2468 78.8064 65.9614C79.6284 65.6818 80.3739 65.2146 80.9838 64.5967C81.5937 63.9788 82.0512 63.2273 82.3201 62.4017C82.9023 60.4645 82.2752 58.3954 82.2258 56.3733C82.1749 54.351 83.1352 51.9322 85.1427 51.682C86.6716 51.4912 86.4826 51.6393 87.5811 52.7194C86.0445 54.4264 89.7906 61.9869 91.8008 61.6528C92.9373 61.464 93.7736 60.5616 93.9984 60.5929C95.1494 63.4117 91.6871 67.4095 94.4332 68.7219L94.2294 68.4523C92.792 66.0777 97.0453 62.0671 95.6079 59.6925C95.2071 59.0282 94.7905 58.2494 95.0384 57.5145C95.2737 56.8159 96.4654 56.5947 96.7168 57.2306C96.3081 55.7731 97.4491 54.0624 98.9645 53.9136C100.311 53.7808 100.233 54.1645 101.517 54.5146C101.681 53.9617 101.917 53.4328 102.22 52.9417C102.117 53.502 102.105 54.0749 102.182 54.6391C102.645 54.6944 103.114 54.5953 103.514 54.3572C104.7 53.6465 104.735 51.8123 103.921 50.6959C103.105 49.5793 101.739 49.028 100.42 48.6108C100.408 45.8229 92.9065 44.4882 91.5268 47.0802C91.3849 44.9815 88.9792 43.5678 86.9068 43.9243C84.8343 44.2808 83.1994 45.9426 82.2026 47.7948C81.206 49.6455 80.7113 51.7178 79.9817 53.6892C79.2521 55.6605 78.2091 57.6262 76.4621 58.7958C74.7153 59.964 72.1193 60.0701 70.6607 58.556C70.3281 59.2025 70.1525 59.9183 70.148 60.6453C70.1436 61.3724 70.3105 62.0902 70.6353 62.7407Z" fill="#636569"/>
<path d="M78.1344 96.1616C78.2856 96.0407 78.4496 95.9368 78.6236 95.8517C81.4209 94.4595 90.12 90.8456 96.9221 90.9939C110.01 91.2792 126.666 105.723 122.789 115.423C119.84 122.803 105.176 127.002 94.4715 123.644C79.4758 118.939 73.5568 99.8114 78.1344 96.1616Z" fill="#3F3D56"/>
<path d="M23.802 149.333C19.5255 148.526 15.74 129.26 24.1539 119.771C27.0367 116.52 30.6325 115.105 35.4156 113.788C62.9458 106.209 83.9436 113.432 86.7654 115.196C89.5808 116.956 94.5165 143.468 88.205 147.221C84.6538 149.333 77.6152 150.389 74.1278 147.925C68.9964 144.3 77.6096 134.898 73.7759 128.569C69.4255 121.387 46.5171 118.968 35.0318 126.106C22.7783 133.721 48.0532 153.908 23.802 149.333Z" fill="#F2F2F2"/>
<path d="M52.3943 116.576H36.0564C32.0233 112.711 29.1396 108.986 31.4483 105.893C31.4483 105.005 31.8014 104.152 32.4299 103.524C33.0584 102.895 33.9108 102.542 34.7997 102.542H53.6511C54.5399 102.542 55.3923 102.895 56.0208 103.524C56.6493 104.152 57.0024 105.005 57.0024 105.893C57.8815 109.417 56.3111 112.978 52.3943 116.576Z" fill="#CCCCCC"/>
<path d="M49.46 98.323C49.305 98.3301 49.1515 98.2894 49.0204 98.2064C48.8893 98.1234 48.7869 98.0021 48.727 97.8589C48.6672 97.7158 48.6527 97.5577 48.6857 97.406C48.7187 97.2544 48.7976 97.1166 48.9115 97.0112L48.9634 96.8051C48.9565 96.7886 48.9497 96.7721 48.9428 96.7556C48.7866 96.3867 48.5249 96.0722 48.1906 95.8516C47.8562 95.631 47.4642 95.514 47.0636 95.5155C46.6631 95.517 46.2719 95.6369 45.9392 95.86C45.6065 96.0831 45.3472 96.3995 45.1937 96.7695C44.5806 98.2463 43.7999 99.7256 43.6077 101.287C43.523 101.977 43.5587 102.677 43.7132 103.355C42.2731 100.213 41.5252 96.7989 41.5204 93.343C41.5201 92.4758 41.5683 91.6092 41.6647 90.7474C41.7444 90.0408 41.855 89.3393 41.9965 88.6429C42.7684 84.8639 44.4257 81.3219 46.8323 78.3078C47.9971 77.6722 48.939 76.6949 49.5313 75.5075C49.7458 75.0807 49.8975 74.6251 49.9815 74.1548C49.8501 74.172 49.486 72.1709 49.5852 72.0481C49.402 71.7703 49.0743 71.6321 48.8743 71.361C47.8797 70.0125 46.5094 70.248 45.794 72.0804C44.2658 72.8517 44.251 74.1308 45.1887 75.361C45.7853 76.1437 45.8673 77.2027 46.3907 78.0407C46.3368 78.1096 46.2808 78.1764 46.227 78.2453C45.2426 79.5111 44.3846 80.8704 43.6653 82.3036C43.8403 80.698 43.6315 79.0738 43.0562 77.5646C42.4732 76.1582 41.3804 74.9736 40.4181 73.7577C39.2622 72.2972 36.8919 72.9346 36.6882 74.786C36.6862 74.8039 36.6843 74.8219 36.6824 74.8398C36.8254 74.9204 36.9653 75.006 37.1022 75.0965C37.2742 75.2114 37.4074 75.3756 37.4845 75.5676C37.5616 75.7595 37.5789 75.9702 37.5342 76.1722C37.4894 76.3741 37.3847 76.5578 37.2338 76.6993C37.0829 76.8407 36.8927 76.9332 36.6883 76.9647L36.6674 76.968C36.7183 77.4831 36.8083 77.9937 36.9366 78.4952C35.7021 83.2695 38.3674 85.0084 42.1731 85.0866C42.2571 85.1296 42.339 85.1727 42.423 85.2136C41.7003 87.2615 41.2471 89.3947 41.0745 91.5594C40.9769 92.8366 40.9826 94.1196 41.0918 95.3958L41.0853 95.3506C40.8096 93.9314 40.0525 92.6509 38.942 91.7253C37.2927 90.3704 34.9624 89.8715 33.183 88.7824C32.9939 88.661 32.774 88.5962 32.5493 88.5956C32.3246 88.5951 32.1044 88.6588 31.9147 88.7793C31.725 88.8998 31.5737 89.072 31.4787 89.2757C31.3837 89.4793 31.3489 89.7059 31.3784 89.9287C31.3808 89.9445 31.3832 89.9604 31.3857 89.9762C31.6509 90.0843 31.9092 90.2087 32.1589 90.3489C32.3019 90.4295 32.4418 90.5151 32.5787 90.6056C32.7507 90.7205 32.8839 90.8847 32.961 91.0767C33.0381 91.2686 33.0554 91.4793 33.0107 91.6813C32.9659 91.8832 32.8612 92.0669 32.7103 92.2084C32.5594 92.3498 32.3692 92.4423 32.1648 92.4738L32.1439 92.4771C32.1288 92.4792 32.1159 92.4814 32.1008 92.4835C32.554 93.5657 33.1901 94.5617 33.9813 95.4281C34.7532 99.5959 38.0687 99.9913 41.6152 98.7776H41.6173C42.0065 100.469 42.5703 102.114 43.2997 103.689H49.3094C49.331 103.622 49.3504 103.553 49.3698 103.486C48.8135 103.521 48.255 103.488 47.7068 103.387C48.1527 102.84 48.5986 102.289 49.0445 101.742C49.0544 101.731 49.0638 101.721 49.0725 101.709C49.2987 101.429 49.527 101.151 49.7532 100.871L49.7533 100.871C49.7653 100.013 49.6668 99.1563 49.4602 98.3231L49.46 98.323Z" fill="#CCCCCC"/>
<path d="M69.9584 115.7C70.058 115.991 70.2471 116.242 70.4985 116.418C70.7498 116.594 71.0504 116.686 71.3572 116.68L77.3508 116.526C77.6599 116.52 77.9587 116.414 78.2026 116.224C78.4465 116.034 78.6224 115.771 78.704 115.472L79.5521 106.403C79.853 106.539 80.1806 106.607 80.5109 106.6C81.0905 106.585 81.6405 106.341 82.04 105.921C82.4395 105.501 82.6557 104.94 82.6412 104.36C82.6266 103.78 82.3825 103.23 81.9624 102.831C81.5423 102.431 80.9807 102.215 80.4012 102.23C80.2692 102.229 80.1375 102.243 80.0084 102.271C79.868 102.119 79.6974 101.998 79.5074 101.916C79.3175 101.834 79.1125 101.793 78.9057 101.795L69.6862 102.033C69.6097 102.036 69.5336 102.045 69.4588 102.061C69.2566 102.099 69.0648 102.179 68.8964 102.297C68.7279 102.415 68.5867 102.568 68.4823 102.745C68.3778 102.922 68.3125 103.12 68.2908 103.324C68.269 103.529 68.2914 103.736 68.3562 103.931L69.9584 115.7ZM79.726 105.787L80.3296 103.626C80.3982 103.376 80.3998 103.113 80.3342 102.862C80.3635 102.862 80.3893 102.848 80.4186 102.848C80.8324 102.84 81.2326 102.996 81.5316 103.282C81.8306 103.568 82.0039 103.961 82.0136 104.375C82.0233 104.789 81.8685 105.189 81.5833 105.489C81.298 105.789 80.9055 105.963 80.4918 105.974C80.2243 105.983 79.9595 105.918 79.726 105.787Z" fill="#CCCCCC"/>
<path d="M69.4585 102.061C69.6549 103.184 71.8633 103.974 74.5186 103.837C76.9604 103.724 78.9569 102.867 79.3227 101.85C79.1873 101.81 79.0466 101.792 78.9054 101.795L69.6859 102.033C69.6094 102.036 69.5333 102.045 69.4585 102.061Z" fill="white"/>
<path d="M0.320985 149.758L202.171 149.841C202.256 149.841 202.338 149.807 202.398 149.747C202.458 149.687 202.492 149.605 202.492 149.52C202.492 149.435 202.458 149.353 202.398 149.293C202.338 149.233 202.256 149.199 202.171 149.199L0.320985 149.116C0.235854 149.116 0.154211 149.15 0.0940143 149.21C0.0338175 149.271 0 149.352 0 149.437C0 149.522 0.0338175 149.604 0.0940143 149.664C0.154211 149.724 0.235854 149.758 0.320985 149.758Z" fill="#CACACA"/>
<path d="M113.533 78.0211C112.984 78.0411 112.464 78.2746 112.085 78.6717C111.705 79.0689 111.496 79.5984 111.501 80.1477C111.504 80.2593 111.516 80.3706 111.537 80.4802L105.202 84.2202L105.969 88.1023L114.093 82.0408C114.541 81.9179 114.935 81.6503 115.215 81.2796C115.495 80.9089 115.644 80.4561 115.639 79.9917C115.634 79.7275 115.577 79.4669 115.471 79.2247C115.365 78.9826 115.213 78.7637 115.022 78.5806C114.832 78.3974 114.607 78.2536 114.361 78.1573C114.115 78.061 113.852 78.0141 113.588 78.0192C113.57 78.0196 113.551 78.0202 113.533 78.0211Z" fill="#FFB6B6"/>
<path d="M108.343 86.9369C108.174 86.7099 108.101 86.6148 108.062 86.6409C107.963 86.7007 108.059 87.5028 107.361 88.9007C106.379 90.8646 96.0806 93.8725 96.0806 93.8725L94.8126 91.5512L89.2355 81.3503L87.3132 73.1739C87.246 72.8888 87.2133 72.5967 87.216 72.3038C88.9299 71.0976 90.75 70.0499 92.6538 69.1736C93.4146 69.6052 93.9945 70.2961 94.2877 71.1202L98.1267 81.8844L99.6586 86.1821C99.6586 86.1821 102.361 84.2498 103.341 84.6044C104.32 84.9614 104.598 84.4609 103.958 82.8589C103.319 81.2569 104.279 82.906 105.396 83.0108C106.516 83.1171 105.396 83.0108 105.925 82.331C106.454 81.6512 109.873 81.2687 109.873 81.2687L109.946 81.4204L111.271 84.146L111.65 84.9291C111.65 84.9291 110.245 86.4531 109.906 86.7569C109.566 87.0628 109.461 87.0417 109.627 87.3902C109.792 87.7372 108.932 87.7214 108.343 86.9369Z" fill="#008375"/>
</svg>
