<svg width="32" height="32" viewBox="0 0 32 32" fill="none" xmlns="http://www.w3.org/2000/svg">
<circle cx="16" cy="16" r="16" fill="#264653"/>
<path d="M17.1756 10.0092C17.2736 10.0092 17.3338 9.94141 17.3489 9.851C17.5749 8.60045 17.5674 8.57785 18.8631 8.33677C18.9611 8.31417 19.0289 8.26144 19.0289 8.15597C19.0289 8.05804 18.9611 7.99777 18.8707 7.97517C17.5674 7.71903 17.5975 7.69643 17.3489 6.46847C17.3338 6.37054 17.2736 6.30273 17.1756 6.30273C17.0777 6.30273 17.0174 6.37054 17.0024 6.46094C16.7538 7.70396 16.7914 7.7341 15.4881 7.97517C15.3902 7.99777 15.3224 8.05804 15.3224 8.15597C15.3224 8.26144 15.3902 8.31417 15.4806 8.33677C16.7914 8.60045 16.7764 8.60798 17.0024 9.851C17.0174 9.94141 17.0777 10.0092 17.1756 10.0092ZM20.7992 15.2073C20.9499 15.2073 21.0629 15.1018 21.0855 14.9361C21.3266 12.9397 21.417 12.8795 23.451 12.5631C23.6318 12.5329 23.7373 12.435 23.7373 12.2693C23.7373 12.1186 23.6318 12.0131 23.4812 11.983C21.4245 11.5837 21.3266 11.6063 21.0855 9.60993C21.0629 9.4442 20.9499 9.33873 20.7992 9.33873C20.641 9.33873 20.528 9.4442 20.5054 9.6024C20.2493 11.6364 20.1815 11.6967 18.1098 11.983C17.9591 12.0056 17.8537 12.1186 17.8537 12.2693C17.8537 12.4275 17.9591 12.5329 18.1098 12.5631C20.189 12.9699 20.2418 12.9548 20.5054 14.9512C20.528 15.1018 20.641 15.2073 20.7992 15.2073ZM14.9683 22.5223C17.7708 22.5223 20.0911 21.0608 21.1307 18.6275C21.2663 18.296 21.2513 18.0248 21.0855 17.8591C20.9499 17.7235 20.6938 17.7009 20.4226 17.8214C19.7973 18.0776 19.0439 18.2132 18.2077 18.2132C14.8327 18.2132 12.6179 16.0737 12.6179 12.774C12.6179 11.9001 12.7912 10.9283 13.0699 10.3557C13.2206 10.0393 13.213 9.77567 13.0774 9.60993C12.9268 9.43666 12.648 9.41406 12.3015 9.54967C9.8757 10.514 8.2334 13.0226 8.2334 15.8627C8.2334 19.6747 11.0359 22.5223 14.9683 22.5223Z" fill="white"/>
</svg>
