<svg width="258" height="180" viewBox="0 0 258 180" fill="none" xmlns="http://www.w3.org/2000/svg">
<g clip-path="url(#clip0_386_24559)">
<path d="M217.361 125.002C217.095 124.708 216.896 124.358 216.779 123.978C216.662 123.599 216.63 123.198 216.685 122.804C216.739 122.411 216.88 122.034 217.096 121.701C217.312 121.367 217.598 121.085 217.935 120.874L215.78 111.46L220.481 113.218L221.807 121.889C222.123 122.478 222.212 123.163 222.058 123.814C221.903 124.465 221.515 125.036 220.967 125.42C220.419 125.804 219.749 125.973 219.085 125.896C218.42 125.819 217.807 125.501 217.361 125.002Z" fill="#FFB8B8"/>
<path d="M217.036 117.53L212.903 109.541L213.462 89.4238L213.728 89.9833C214.037 90.6351 221.287 105.984 220.77 111.123L221.599 115.818L217.036 117.53Z" fill="#3F3D56"/>
<path d="M214.341 176.571H217.655L219.231 163.791L214.341 163.791L214.341 176.571Z" fill="#FFB8B8"/>
<path d="M213.496 175.49L220.021 175.489H220.022C221.125 175.489 222.182 175.927 222.962 176.707C223.742 177.487 224.18 178.545 224.18 179.648V179.783L213.496 179.783L213.496 175.49Z" fill="#2F2E41"/>
<path d="M181.603 174.053L184.795 174.94L189.738 163.049L185.026 161.739L181.603 174.053Z" fill="#FFB8B8"/>
<path d="M181.078 172.784L187.365 174.532L187.365 174.532C188.428 174.828 189.329 175.533 189.872 176.494C190.414 177.454 190.553 178.59 190.257 179.653L190.221 179.783L179.928 176.921L181.078 172.784Z" fill="#2F2E41"/>
<path d="M211.038 171.589L204.35 123.709L189.907 171.318L178.551 167.441L194.827 103.691L194.935 103.683L211.986 102.497L224.305 167.719L211.038 171.589Z" fill="#2F2E41"/>
<path d="M209.27 81.1285C209.27 81.1285 203.054 77.8853 194.675 79.2366C194.675 79.2366 190.216 89.9952 194.675 94.278L195.892 105.047C195.892 105.047 207.243 111.804 211.027 103.966L210.486 95.0473C210.486 95.0473 213.189 90.7698 211.027 87.6383C209.731 85.7254 209.112 83.4337 209.27 81.1285Z" fill="#008375"/>
<path d="M210.057 130.112L211.148 107.472L208.061 80.5398L208.202 80.5183C212.253 79.9076 213.552 86.8857 213.605 87.183L220.656 127.044L210.057 130.112Z" fill="#3F3D56"/>
<path d="M196.311 130.348L183.848 128.963L183.851 128.827C183.895 126.981 184.968 83.5981 187.974 80.5256C190.998 77.4347 196.703 78.7721 196.945 78.8308L197.065 78.8599L196.04 97.2172L196.311 130.348Z" fill="#3F3D56"/>
<path d="M198.607 104.419C198.229 104.543 197.829 104.583 197.435 104.535C197.04 104.488 196.661 104.354 196.324 104.144C195.986 103.935 195.699 103.653 195.482 103.32C195.266 102.987 195.124 102.611 195.069 102.218L185.591 100.361L189.108 96.7803L197.569 99.0925C198.236 99.0429 198.898 99.2396 199.43 99.6455C199.962 100.051 200.326 100.638 200.454 101.295C200.582 101.951 200.464 102.632 200.124 103.208C199.784 103.784 199.244 104.215 198.607 104.419Z" fill="#FFB8B8"/>
<path d="M193.55 102.246L190.461 101.582C185.902 102.953 177.945 98.1258 174.728 95.9817C174.123 95.5784 173.927 94.779 174.145 93.6064C174.467 91.966 175.371 90.4974 176.69 89.4714L188.018 80.4898L190.877 80.0117L191.726 84.8241L184.509 92.5759L195.133 98.3585L193.55 102.246Z" fill="#3F3D56"/>
<path d="M192.328 75.1628V68.9225C192.328 66.2824 193.377 63.7503 195.244 61.8835C197.111 60.0166 199.643 58.9678 202.283 58.9678C204.923 58.9678 207.455 60.0166 209.322 61.8835C211.189 63.7503 212.238 66.2824 212.238 68.9225V75.1628C212.237 75.5174 212.096 75.8573 211.846 76.1079C211.595 76.3586 211.255 76.4997 210.9 76.5H193.665C193.311 76.4997 192.971 76.3586 192.72 76.1079C192.47 75.8573 192.329 75.5174 192.328 75.1628Z" fill="#2F2E41"/>
<path d="M201.882 76.4378C205.913 76.4378 209.181 73.1702 209.181 69.1393C209.181 65.1085 205.913 61.8408 201.882 61.8408C197.852 61.8408 194.584 65.1085 194.584 69.1393C194.584 73.1702 197.852 76.4378 201.882 76.4378Z" fill="#FFB8B8"/>
<path d="M194.384 69.1117C194.314 69.0312 194.262 68.9367 194.232 68.8345C194.202 68.7323 194.195 68.6249 194.21 68.5194L195.074 62.4991C195.091 62.3766 195.139 62.2603 195.212 62.1607C195.286 62.0612 195.383 61.9815 195.495 61.9289C199.907 59.8636 204.382 59.861 208.795 61.921C208.912 61.9765 209.013 62.0614 209.088 62.1675C209.162 62.2736 209.208 62.3971 209.22 62.5261L209.797 68.5542C209.807 68.6573 209.795 68.7613 209.762 68.8596C209.73 68.9578 209.677 69.0481 209.607 69.1248C209.538 69.2014 209.453 69.2626 209.358 69.3045C209.263 69.3464 209.161 69.368 209.057 69.3679H207.594C207.453 69.3676 207.314 69.3271 207.195 69.2513C207.076 69.1754 206.981 69.0672 206.921 68.9393L206.289 67.5859C206.248 67.4982 206.18 67.4263 206.094 67.3808C206.009 67.3354 205.911 67.319 205.816 67.334C205.72 67.349 205.632 67.3947 205.565 67.4642C205.498 67.5337 205.455 67.6231 205.443 67.7191L205.318 68.717C205.295 68.8967 205.208 69.0618 205.072 69.1817C204.937 69.3015 204.762 69.3677 204.581 69.3679H194.945C194.839 69.368 194.733 69.3451 194.636 69.3009C194.54 69.2567 194.453 69.1922 194.384 69.1117Z" fill="#2F2E41"/>
<path d="M163.734 11.9951H0V113.954H163.734V11.9951Z" fill="#E6E6E6"/>
<path d="M40.9673 31.6367H10.9795V51.1288H40.9673V31.6367Z" fill="white"/>
<path d="M78.23 31.6367H48.2422V51.1288H78.23V31.6367Z" fill="white"/>
<path d="M115.492 31.6367H85.5039V51.1288H115.492V31.6367Z" fill="white"/>
<path d="M152.754 31.6367H122.767V51.1288H152.754V31.6367Z" fill="white"/>
<path d="M40.9673 59.2256H10.9795V78.7177H40.9673V59.2256Z" fill="white"/>
<path d="M78.23 59.2256H48.2422V78.7177H78.23V59.2256Z" fill="white"/>
<path d="M115.492 59.2256H85.5039V78.7177H115.492V59.2256Z" fill="white"/>
<path d="M152.754 59.2256H122.767V78.7177H152.754V59.2256Z" fill="white"/>
<path d="M40.9673 86.8145H10.9795V106.307H40.9673V86.8145Z" fill="white"/>
<path d="M78.23 86.8145H48.2422V106.307H78.23V86.8145Z" fill="white"/>
<path d="M115.492 86.8145H85.5039V106.307H115.492V86.8145Z" fill="white"/>
<path d="M152.754 86.8145H122.767V106.307H152.754V86.8145Z" fill="white"/>
<path d="M42.8829 23.9905C45.3672 23.9905 47.3811 21.9766 47.3811 19.4923C47.3811 17.008 45.3672 14.9941 42.8829 14.9941C40.3987 14.9941 38.3848 17.008 38.3848 19.4923C38.3848 21.9766 40.3987 23.9905 42.8829 23.9905Z" fill="white"/>
<path d="M117.252 23.9905C119.736 23.9905 121.75 21.9766 121.75 19.4923C121.75 17.008 119.736 14.9941 117.252 14.9941C114.768 14.9941 112.754 17.008 112.754 19.4923C112.754 21.9766 114.768 23.9905 117.252 23.9905Z" fill="white"/>
<path d="M44.6816 0H41.083V20.6916H44.6816V0Z" fill="#E6E6E6"/>
<path d="M119.052 0H115.453V20.6916H119.052V0Z" fill="#E6E6E6"/>
<path d="M144.541 41.383C144.54 43.0115 143.95 44.5847 142.882 45.8136C141.813 47.0425 140.337 47.8445 138.725 48.0723C137.112 48.3001 135.472 47.9384 134.105 47.0535C132.737 46.1687 131.736 44.8202 131.283 43.2559C130.83 41.6916 130.958 40.0164 131.641 38.5383C132.325 37.0602 133.519 35.8784 135.004 35.21C136.489 34.5417 138.165 34.4317 139.725 34.9002C141.284 35.3688 142.622 36.3844 143.493 37.7605C144.179 38.8442 144.542 40.1005 144.541 41.383Z" fill="#008375"/>
<path d="M143.494 37.7608L136.818 44.4348C136.399 43.7853 134.062 40.7668 134.062 40.7668C134.361 40.464 134.681 40.1818 135.018 39.9222L136.957 42.5065L142.712 36.751C143.004 37.0621 143.266 37.4002 143.494 37.7608Z" fill="white"/>
<path d="M70.0167 68.9718C70.0152 70.6003 69.426 72.1736 68.3575 73.4025C67.2889 74.6314 65.8128 75.4334 64.2003 75.6612C62.5879 75.889 60.9473 75.5272 59.5802 74.6424C58.2131 73.7576 57.2112 72.4091 56.7586 70.8447C56.306 69.2804 56.4331 67.6053 57.1166 66.1272C57.8001 64.6491 58.9941 63.4673 60.4791 62.7989C61.9641 62.1305 63.6405 62.0205 65.2001 62.4891C66.7597 62.9576 68.0979 63.9733 68.9687 65.3494C69.6545 66.433 70.018 67.6894 70.0167 68.9718Z" fill="#008375"/>
<path d="M68.9693 65.3496L62.294 72.0237C61.8745 71.3742 59.5371 68.3556 59.5371 68.3556C59.8367 68.0529 60.1563 67.7707 60.4939 67.511L62.4321 70.0954L68.1876 64.3398C68.4795 64.651 68.7412 64.9891 68.9693 65.3496Z" fill="white"/>
<path d="M32.7551 68.9719C32.7535 70.6004 32.1644 72.1736 31.0958 73.4025C30.0273 74.6314 28.5512 75.4335 26.9387 75.6613C25.3262 75.8891 23.6856 75.5273 22.3185 74.6425C20.9514 73.7576 19.9495 72.4091 19.4969 70.8448C19.0443 69.2804 19.1714 67.6053 19.8549 66.1272C20.5384 64.6491 21.7324 63.4673 23.2174 62.7989C24.7024 62.1305 26.3788 62.0205 27.9384 62.4891C29.4981 62.9576 30.8362 63.9733 31.7071 65.3494C32.3928 66.4331 32.7563 67.6894 32.7551 68.9719Z" fill="#008375"/>
<path d="M31.7066 65.3496L25.0313 72.0237C24.6118 71.3742 22.2744 68.3556 22.2744 68.3556C22.574 68.0529 22.8936 67.7707 23.2312 67.511L25.1694 70.0954L30.925 64.3398C31.2168 64.651 31.4786 64.9891 31.7066 65.3496Z" fill="white"/>
<path d="M257.139 180H143.922C143.843 180 143.768 179.968 143.712 179.913C143.656 179.857 143.625 179.781 143.625 179.702C143.625 179.624 143.656 179.548 143.712 179.492C143.768 179.437 143.843 179.405 143.922 179.405H257.139C257.218 179.405 257.293 179.437 257.349 179.492C257.405 179.548 257.436 179.624 257.436 179.702C257.436 179.781 257.405 179.857 257.349 179.913C257.293 179.968 257.218 180 257.139 180Z" fill="#3F3D56"/>
</g>
<defs>
<clipPath id="clip0_386_24559">
<rect width="257.436" height="180" fill="white"/>
</clipPath>
</defs>
</svg>
