<svg width="20" height="27" viewBox="0 0 20 27" fill="none" xmlns="http://www.w3.org/2000/svg">
<path d="M9.42578 26.3164C15.7305 26.3164 19.9492 22.0625 19.9492 15.6641C19.9492 5.07031 10.8906 0.640625 4.63281 0.640625C3.4375 0.640625 2.65234 1.08594 2.65234 1.94141C2.65234 2.26953 2.80469 2.62109 3.0625 2.92578C4.50391 4.66016 5.85156 6.55859 5.86328 8.80859C5.86328 9.04297 5.85156 9.25391 5.80469 9.48828C5.11328 8.04688 3.96484 7.20312 2.92188 7.20312C2.37109 7.20312 1.99609 7.58984 1.99609 8.19922C1.99609 8.55078 2.07812 9.20703 2.07812 9.78125C2.07812 12.4648 0.0390625 13.8594 0.0390625 18.1719C0.0390625 23.0586 3.77734 26.3164 9.42578 26.3164ZM9.55469 24.3477C5.04297 24.3477 2.01953 21.8633 2.01953 18.1719C2.01953 14.4688 4.03516 13.2852 4.02344 9.96875C4.02344 9.875 4.02344 9.79297 4.01172 9.69922C4.63281 10.3906 5.07812 11.3516 5.34766 12.5586C5.40625 12.8867 5.58203 13.0391 5.83984 13.0391C6.90625 13.0391 7.62109 10.6133 7.62109 8.9375C7.62109 6.57031 6.71875 4.27344 5.21875 2.5625C12.9414 3.19531 17.8867 8.51562 17.8867 15.5938C17.8867 20.832 14.5469 24.3477 9.55469 24.3477ZM9.71875 22.707C12.4258 22.707 13.8086 20.75 13.8086 18.4297C13.8086 16.0977 12.4727 13.6133 9.95312 12.4531C9.8125 12.3945 9.69531 12.4766 9.73047 12.6406C9.92969 14.457 9.70703 16.1328 9.09766 17.0352C8.82812 16.332 8.48828 15.7461 7.97266 15.2891C7.85547 15.1836 7.73828 15.2422 7.72656 15.3828C7.53906 16.7656 6.12109 17.457 6.12109 19.4727C6.12109 21.4062 7.55078 22.707 9.71875 22.707Z" fill="#CACACA"/>
</svg>
