<svg width="32" height="32" viewBox="0 0 32 32" fill="none" xmlns="http://www.w3.org/2000/svg">
<g clip-path="url(#clip0_337_21136)">
<path d="M15.4258 28.3164C21.7305 28.3164 25.9492 24.0625 25.9492 17.6641C25.9492 7.07031 16.8906 2.64062 10.6328 2.64062C9.4375 2.64062 8.65234 3.08594 8.65234 3.94141C8.65234 4.26953 8.80469 4.62109 9.0625 4.92578C10.5039 6.66016 11.8516 8.55859 11.8633 10.8086C11.8633 11.043 11.8516 11.2539 11.8047 11.4883C11.1133 10.0469 9.96484 9.20312 8.92188 9.20312C8.37109 9.20312 7.99609 9.58984 7.99609 10.1992C7.99609 10.5508 8.07812 11.207 8.07812 11.7812C8.07812 14.4648 6.03906 15.8594 6.03906 20.1719C6.03906 25.0586 9.77734 28.3164 15.4258 28.3164ZM15.5547 26.3477C11.043 26.3477 8.01953 23.8633 8.01953 20.1719C8.01953 16.4688 10.0352 15.2852 10.0234 11.9688C10.0234 11.875 10.0234 11.793 10.0117 11.6992C10.6328 12.3906 11.0781 13.3516 11.3477 14.5586C11.4062 14.8867 11.582 15.0391 11.8398 15.0391C12.9062 15.0391 13.6211 12.6133 13.6211 10.9375C13.6211 8.57031 12.7188 6.27344 11.2188 4.5625C18.9414 5.19531 23.8867 10.5156 23.8867 17.5938C23.8867 22.832 20.5469 26.3477 15.5547 26.3477ZM15.7188 24.707C18.4258 24.707 19.8086 22.75 19.8086 20.4297C19.8086 18.0977 18.4727 15.6133 15.9531 14.4531C15.8125 14.3945 15.6953 14.4766 15.7305 14.6406C15.9297 16.457 15.707 18.1328 15.0977 19.0352C14.8281 18.332 14.4883 17.7461 13.9727 17.2891C13.8555 17.1836 13.7383 17.2422 13.7266 17.3828C13.5391 18.7656 12.1211 19.457 12.1211 21.4727C12.1211 23.4062 13.5508 24.707 15.7188 24.707Z" fill="#008375"/>
</g>
<defs>
<clipPath id="clip0_337_21136">
<rect width="32" height="32" fill="white"/>
</clipPath>
</defs>
</svg>
