<svg width="24" height="24" viewBox="0 0 24 24" fill="none" xmlns="http://www.w3.org/2000/svg">
<path d="M14.802 8.93137C15.6157 8.93137 16.3163 8.41909 16.6101 7.71094H19.0886C19.4653 7.71094 19.7817 7.37947 19.7817 6.98019C19.7817 6.58092 19.4653 6.25698 19.0886 6.25698H16.6101C16.3238 5.5413 15.6232 5.02902 14.802 5.02902C13.9809 5.02902 13.2803 5.5413 12.994 6.25698H4.92564C4.52637 6.25698 4.20996 6.58092 4.20996 6.98019C4.20996 7.37947 4.52637 7.71094 4.92564 7.71094H12.994C13.2878 8.41909 13.9884 8.93137 14.802 8.93137ZM14.802 7.90681C14.2822 7.90681 13.8754 7.49247 13.8754 6.98019C13.8754 6.45285 14.2822 6.04604 14.802 6.04604C15.3294 6.04604 15.7287 6.45285 15.7287 6.98019C15.7287 7.49247 15.3294 7.90681 14.802 7.90681ZM4.90304 10.9579C4.52637 10.9579 4.20996 11.2818 4.20996 11.6811C4.20996 12.0728 4.52637 12.4043 4.90304 12.4043H7.46443C7.75823 13.1275 8.45885 13.6323 9.27999 13.6323C10.0936 13.6323 10.7942 13.1275 11.088 12.4043H19.066C19.4653 12.4043 19.7817 12.0804 19.7817 11.6811C19.7817 11.2818 19.4653 10.9579 19.066 10.9579H11.088C10.7942 10.2422 10.0936 9.73745 9.27999 9.73745C8.45885 9.73745 7.75823 10.2422 7.46443 10.9579H4.90304ZM9.27999 12.6152C8.76018 12.6152 8.34584 12.2009 8.34584 11.6811C8.34584 11.1537 8.76018 10.7545 9.27999 10.7545C9.7998 10.7545 10.2066 11.1537 10.2066 11.6811C10.2066 12.2009 9.7998 12.6152 9.27999 12.6152ZM14.802 18.3332C15.6232 18.3332 16.3238 17.8209 16.6101 17.1052H19.0886C19.4653 17.1052 19.7817 16.7813 19.7817 16.382C19.7817 15.9752 19.4653 15.6588 19.0886 15.6588H16.6101C16.3238 14.9431 15.6232 14.4308 14.802 14.4308C13.9884 14.4308 13.2803 14.9431 12.994 15.6588H4.92564C4.52637 15.6588 4.20996 15.9827 4.20996 16.382C4.20996 16.7737 4.52637 17.1052 4.92564 17.1052H12.994C13.2803 17.8209 13.9809 18.3332 14.802 18.3332ZM14.802 17.3086C14.2822 17.3086 13.8754 16.8943 13.8754 16.382C13.8754 15.8546 14.2822 15.4554 14.802 15.4554C15.3294 15.4554 15.7287 15.8546 15.7287 16.382C15.7287 16.8943 15.3294 17.3086 14.802 17.3086Z" fill="#008375"/>
</svg>
