<svg width="222" height="180" viewBox="0 0 222 180" fill="none" xmlns="http://www.w3.org/2000/svg">
<g clip-path="url(#clip0_707_40290)">
<path d="M110.857 160.21V159.676C111.919 159.676 112.997 159.654 114.061 159.612L114.083 160.146C113.011 160.188 111.926 160.21 110.857 160.21ZM107.633 160.149C106.565 160.107 105.482 160.042 104.414 159.959L104.456 159.426C105.517 159.51 106.593 159.574 107.654 159.615L107.633 160.149ZM117.302 159.952L117.259 159.419C118.319 159.335 119.391 159.227 120.447 159.099L120.511 159.629C119.449 159.758 118.369 159.866 117.302 159.951V159.952ZM101.204 159.64C100.139 159.513 99.0647 159.362 98.01 159.193L98.0946 158.666C99.1421 158.834 100.21 158.983 101.267 159.11L101.204 159.64ZM123.704 159.179L123.619 158.651C124.666 158.482 125.727 158.289 126.77 158.076L126.877 158.599C125.826 158.813 124.758 159.008 123.704 159.179H123.704ZM94.8365 158.618C93.7855 158.404 92.727 158.168 91.6886 157.914L91.8157 157.395C92.8467 157.648 93.8984 157.883 94.9422 158.094L94.8365 158.618ZM130.024 157.893L129.896 157.374C130.931 157.12 131.972 156.84 132.991 156.547L133.14 157.06C132.113 157.357 131.065 157.638 130.024 157.894V157.893ZM88.572 157.083C87.5424 156.786 86.5058 156.465 85.4917 156.127L85.6604 155.62C86.6679 155.955 87.6972 156.275 88.7202 156.57L88.572 157.083ZM136.219 156.098L136.049 155.591C137.057 155.254 138.073 154.892 139.067 154.514L139.257 155.013C138.256 155.394 137.233 155.759 136.219 156.098L136.219 156.098ZM82.4442 155.043C81.4424 154.664 80.4333 154.258 79.4448 153.837L79.6542 153.345C80.636 153.763 81.6386 154.167 82.6338 154.543L82.4442 155.043ZM142.24 153.812L142.03 153.32C143.007 152.903 143.987 152.461 144.944 152.006L145.173 152.489C144.21 152.947 143.224 153.392 142.24 153.812ZM76.4977 152.509C75.5277 152.048 74.5552 151.562 73.6073 151.064L73.8559 150.592C74.7974 151.086 75.7632 151.569 76.7266 152.026L76.4977 152.509ZM148.052 151.047L147.803 150.574C148.744 150.079 149.686 149.56 150.603 149.029L150.87 149.491C149.947 150.025 148.998 150.549 148.051 151.047L148.052 151.047ZM70.7782 149.504C69.8477 148.966 68.9182 148.403 68.0154 147.831L68.3011 147.38C69.1975 147.948 70.1208 148.507 71.0453 149.042L70.7782 149.504ZM153.625 147.822L153.34 147.371C154.235 146.804 155.133 146.209 156.008 145.604L156.312 146.043C155.43 146.653 154.527 147.251 153.625 147.822V147.822ZM65.3228 146.049C64.4398 145.439 63.5589 144.804 62.7047 144.161L63.0251 143.734C63.8737 144.372 64.7487 145.003 65.6259 145.61L65.3228 146.049ZM158.926 144.158L158.605 143.731C159.452 143.094 160.3 142.43 161.125 141.755L161.463 142.169C160.633 142.848 159.779 143.517 158.927 144.157L158.926 144.158ZM60.1659 142.17C59.3368 141.493 58.5104 140.789 57.7094 140.079L58.0634 139.678C58.8597 140.384 59.681 141.083 60.5045 141.755L60.1659 142.17ZM163.918 140.08L163.563 139.68C164.359 138.974 165.151 138.244 165.918 137.507L166.288 137.893C165.516 138.633 164.719 139.369 163.918 140.079V140.08ZM55.3374 137.891C54.5671 137.151 53.7997 136.383 53.0563 135.611L53.4411 135.24C54.1797 136.008 54.942 136.77 55.7073 137.505L55.3374 137.891ZM168.569 135.613L168.184 135.242C168.92 134.477 169.653 133.685 170.359 132.888L170.759 133.243C170.048 134.044 169.311 134.842 168.57 135.613H168.569ZM50.8678 133.242C50.1557 132.439 49.4527 131.613 48.7768 130.787L49.1904 130.449C49.8612 131.27 50.56 132.09 51.2673 132.887L50.8678 133.242ZM172.85 130.787L172.436 130.449C173.111 129.624 173.777 128.775 174.416 127.927L174.843 128.248C174.2 129.102 173.529 129.956 172.85 130.786L172.85 130.787ZM46.7868 128.252C46.1432 127.398 45.5083 126.519 44.9 125.64L45.3393 125.336C45.9435 126.209 46.5742 127.082 47.2134 127.931L46.7868 128.252ZM176.732 125.631L176.293 125.327C176.899 124.45 177.495 123.551 178.064 122.654L178.515 122.939C177.943 123.843 177.343 124.749 176.732 125.632L176.732 125.631ZM43.1206 122.956C42.5484 122.053 41.9863 121.127 41.4504 120.202L41.9124 119.935C42.4448 120.854 43.0031 121.774 43.5713 122.67L43.1206 122.956ZM180.191 120.179L179.729 119.912C180.263 118.988 180.785 118.042 181.28 117.102L181.752 117.351C181.255 118.297 180.729 119.249 180.191 120.179L180.191 120.179ZM39.8929 117.383C39.3955 116.438 38.91 115.47 38.451 114.505L38.9332 114.276C39.3896 115.234 39.8718 116.196 40.3658 117.134L39.8929 117.383ZM183.198 114.461L182.715 114.232C183.172 113.271 183.616 112.286 184.035 111.305L184.526 111.515C184.106 112.5 183.658 113.493 183.198 114.461L183.198 114.461ZM37.125 111.573C36.7045 110.59 36.2991 109.587 35.9205 108.591L36.4195 108.401C36.7958 109.389 37.1984 110.386 37.616 111.363L37.125 111.573ZM185.734 108.515L185.235 108.326C185.614 107.327 185.977 106.309 186.313 105.3L186.821 105.469C186.481 106.485 186.115 107.51 185.734 108.515H185.734ZM34.8351 105.553C34.4952 104.539 34.1715 103.502 33.8738 102.474L34.3867 102.326C34.6829 103.346 35.0044 104.375 35.3421 105.384L34.8351 105.553ZM187.778 102.389L187.265 102.24C187.558 101.221 187.838 100.18 188.092 99.1451L188.611 99.2724C188.354 100.315 188.074 101.363 187.778 102.389H187.778ZM33.037 99.3592C32.7804 98.3192 32.5419 97.261 32.3278 96.213L32.8511 96.1061C33.0647 97.1475 33.3005 98.1988 33.5553 99.2316L33.037 99.3592ZM189.316 96.1256L188.792 96.0188C189.004 94.9775 189.197 93.9182 189.366 92.868L189.893 92.9529C189.723 94.0111 189.528 95.0787 189.316 96.1262V96.1256ZM31.7457 93.0402C31.5745 91.9861 31.4223 90.9116 31.2931 89.847L31.8231 89.7829C31.9513 90.8406 32.1027 91.9076 32.2728 92.9548L31.7457 93.0402ZM190.341 89.7578L189.811 89.6943C189.938 88.6371 190.045 87.5645 190.129 86.5066L190.661 86.5488C190.577 87.6139 190.469 88.6937 190.341 89.7578H190.341ZM30.9713 86.6385C30.8851 85.5718 30.8194 84.4888 30.7761 83.4188L31.3102 83.3972C31.3534 84.4597 31.4186 85.5357 31.5043 86.5955L30.9713 86.6385ZM190.855 83.3299L190.321 83.3088C190.363 82.2448 190.384 81.1671 190.384 80.1046V79.9276H190.918V80.1033C190.918 81.1737 190.897 82.2584 190.854 83.3299H190.855ZM31.2416 80.1941H30.7075V80.1043C30.7075 79.063 30.7278 78.0074 30.7679 76.9698L31.3019 76.9904C31.2624 78.0213 31.2421 79.0694 31.2421 80.1054L31.2416 80.1941ZM190.313 76.726C190.269 75.6657 190.203 74.5899 190.116 73.528L190.648 73.4845C190.736 74.5525 190.802 75.6363 190.847 76.7039L190.313 76.726ZM31.4886 73.7921L30.9561 73.7504C31.04 72.6823 31.1468 71.6012 31.2731 70.5406L31.8034 70.6036C31.6779 71.6572 31.5721 72.7298 31.4885 73.792L31.4886 73.7921ZM189.791 70.3409C189.662 69.2877 189.51 68.2207 189.337 67.1695L189.864 67.0832C190.037 68.1414 190.191 69.2156 190.32 70.2762L189.791 70.3409ZM32.2456 67.4304L31.7182 67.346C31.8875 66.2886 32.0805 65.2208 32.2923 64.1722L32.8156 64.279C32.6052 65.3204 32.4135 66.3813 32.2453 67.4317L32.2456 67.4304ZM188.757 64.0182C188.543 62.9747 188.304 61.9234 188.049 60.8941L188.567 60.7656C188.825 61.8025 189.064 62.8609 189.28 63.9114L188.757 64.0182ZM33.5131 61.1507L32.9943 61.0238C33.2482 59.9843 33.5283 58.9358 33.8234 57.9064L34.3366 58.0541C34.0421 59.0773 33.7654 60.1189 33.5131 61.1512L33.5131 61.1507ZM187.216 57.8001C186.918 56.7801 186.596 55.7516 186.257 54.743L186.764 54.573C187.105 55.5876 187.43 56.6237 187.729 57.6506L187.216 57.8001ZM35.285 54.9949L34.7777 54.8264C35.1157 53.8096 35.4797 52.7842 35.8597 51.7786L36.3592 51.9674C35.9822 52.966 35.6206 53.9847 35.285 54.9948L35.285 54.9949ZM185.174 51.7274C184.794 50.7341 184.391 49.7378 183.974 48.7661L184.465 48.5557C184.884 49.5338 185.291 50.5367 185.673 51.5367L185.174 51.7274ZM37.5565 48.987L37.065 48.7779C37.4847 47.7913 37.9306 46.7993 38.3902 45.83L38.8727 46.0586C38.4163 47.0217 37.9733 48.007 37.5565 48.9869L37.5565 48.987ZM182.656 45.8554C182.199 44.8981 181.716 43.9369 181.221 42.9983L181.693 42.7489C182.192 43.6936 182.678 44.6613 183.138 45.625L182.656 45.8554ZM40.3063 43.1866L39.8334 42.9385C40.3311 41.9898 40.8555 41.0376 41.3917 40.1081L41.8542 40.3751C41.3218 41.2987 40.8008 42.2445 40.3066 43.1868L40.3063 43.1866ZM179.67 40.201C179.136 39.2817 178.577 38.3621 178.008 37.4673L178.459 37.1808C179.032 38.0817 179.594 39.0075 180.132 39.9329L179.67 40.201ZM43.514 37.6307L43.0627 37.3453C43.6357 36.4396 44.2346 35.5333 44.8432 34.6519L45.2827 34.9552C44.6785 35.831 44.0835 36.7311 43.5143 37.631L43.514 37.6307ZM176.237 34.8019C175.631 33.9291 174.999 33.0565 174.36 32.2092L174.787 31.8875C175.431 32.7419 176.067 33.6188 176.676 34.4978L176.237 34.8019ZM47.1569 32.3534L46.7297 32.033C47.3732 31.1764 48.0426 30.3217 48.7195 29.492L49.1334 29.8298C48.461 30.6536 47.7959 31.5029 47.1574 32.3537L47.1569 32.3534ZM172.38 29.6928C171.706 28.871 171.006 28.0518 170.3 27.2574L170.699 26.9025C171.41 27.7022 172.114 28.527 172.793 29.3545L172.38 29.6928ZM51.2113 27.3871L50.8108 27.0333C51.5197 26.2323 52.2553 25.4342 52.9968 24.6609L53.3821 25.0307C52.6454 25.7987 51.9135 26.5917 51.2105 27.3871H51.2113ZM168.126 24.906C167.387 24.1391 166.624 23.3781 165.856 22.6436L166.226 22.258C166.998 22.9977 167.766 23.7637 168.51 24.5357L168.126 24.906ZM55.6467 22.7632L55.2764 22.3784C56.047 21.6369 56.8438 20.9005 57.6443 20.1889L57.9989 20.5894C57.2023 21.2952 56.4109 22.0268 55.6454 22.7635L55.6467 22.7632ZM163.499 20.473C162.702 19.7675 161.879 19.0696 161.056 18.3983L161.394 17.9844C162.221 18.66 163.049 19.3627 163.853 20.073L163.499 20.473ZM60.4343 18.5104L60.0958 18.0974C60.9235 17.4186 61.778 16.7486 62.63 16.1057L62.9504 16.5329C62.1042 17.1708 61.2572 17.8365 60.4343 18.5104L60.4343 18.5104ZM158.529 16.4232C157.678 15.7837 156.802 15.1538 155.927 14.5503L156.23 14.1108C157.111 14.7183 157.992 15.3524 158.85 15.9962L158.529 16.4232ZM65.5458 14.656L65.2414 14.2171C66.1226 13.6069 67.0248 13.0077 67.9258 12.4355L68.212 12.8862C67.3172 13.4545 66.4201 14.0496 65.5456 14.6558L65.5458 14.656ZM153.25 12.7829C152.35 12.2142 151.426 11.6564 150.504 11.1247L150.771 10.6623C151.699 11.1963 152.629 11.7589 153.536 12.3314L153.25 12.7829ZM70.9468 11.2262L70.6798 10.7643C71.6031 10.2289 72.551 9.70421 73.4968 9.20515L73.7462 9.6775C72.8054 10.1731 71.8639 10.694 70.9467 11.2262L70.9468 11.2262ZM147.693 9.57844C146.749 9.08419 145.783 8.60249 144.82 8.14669L145.048 7.66393C146.018 8.12293 146.991 8.60783 147.94 9.10582L147.693 9.57844ZM76.6025 8.24335L76.3726 7.76112C77.3354 7.30212 78.3218 6.85593 79.3042 6.43511L79.5143 6.92589C78.5386 7.34377 77.5587 7.78702 76.6022 8.24335H76.6025ZM141.89 6.8319C140.909 6.41509 139.906 6.01322 138.909 5.63673L139.098 5.13714C140.101 5.51577 141.111 5.92084 142.099 6.34032L141.89 6.8319ZM82.4766 5.72778L82.2865 5.22873C83.2857 4.84769 84.3073 4.48108 85.323 4.14117L85.4928 4.6485C84.4837 4.98573 83.469 5.3494 82.4765 5.72777L82.4766 5.72778ZM135.882 4.56359C134.873 4.22902 133.843 3.91047 132.822 3.61701L132.969 3.10381C133.998 3.39913 135.034 3.71982 136.05 4.05679L135.882 4.56359ZM88.5504 3.69098L88.4012 3.1783C89.4281 2.87951 90.4762 2.59754 91.5159 2.3404L91.6441 2.85869C90.6115 3.11367 89.5704 3.39377 88.5504 3.69096L88.5504 3.69098ZM129.724 2.79594C128.693 2.54441 127.642 2.3105 126.597 2.10036L126.703 1.57674C127.754 1.78821 128.812 2.02399 129.851 2.27712L129.724 2.79594ZM94.7693 2.15296L94.6624 1.62987C95.7094 1.41626 96.7767 1.21947 97.8346 1.04697L97.9206 1.57407C96.8691 1.74469 95.809 1.93961 94.769 2.15242L94.7693 2.15296ZM123.444 1.53188C122.394 1.36446 121.326 1.216 120.271 1.0913L120.333 0.561002C121.396 0.686768 122.47 0.836031 123.528 1.00479L123.444 1.53188ZM101.092 1.12254L101.027 0.592511C102.09 0.463275 103.169 0.352196 104.236 0.267017L104.279 0.799181C103.219 0.884627 102.147 0.994104 101.092 1.122V1.12254ZM117.083 0.778088C116.024 0.69558 114.946 0.633365 113.884 0.593045L113.904 0.059011C114.975 0.0995976 116.058 0.162346 117.124 0.245922L117.083 0.778088ZM107.477 0.603192L107.455 0.0691582C108.524 0.0251003 109.608 0.00186912 110.68 0V0.534034C109.616 0.535903 108.538 0.559133 107.477 0.602657L107.477 0.603192Z" fill="#CCCCCC"/>
<path d="M160.549 179.779H61.2163C56.2515 179.773 52.2081 175.968 52.2026 171.296V35.8524C52.2083 31.18 56.2518 27.3747 61.2162 27.3695H160.549C165.514 27.3748 169.557 31.18 169.563 35.8523V171.296C169.557 175.968 165.514 179.774 160.549 179.779Z" fill="#3F3D56"/>
<path d="M161.536 171.626H60.2295C58.6238 171.624 57.3159 170.463 57.314 169.038V39.0074C57.3159 37.5819 58.6238 36.421 60.2294 36.4193H161.536C163.141 36.421 164.449 37.5819 164.451 39.0073V169.038C164.449 170.463 163.141 171.624 161.536 171.626Z" fill="white"/>
<path d="M110.882 77.9671C108.779 77.9681 106.696 77.5548 104.753 76.7509C102.81 75.947 101.044 74.7682 99.5563 73.2819C98.0686 71.7955 96.8882 70.0307 96.0826 68.0882C95.2769 66.1457 94.8618 64.0635 94.8608 61.9605V61.9461C94.8608 61.9125 94.8608 61.8772 94.8627 61.8436C94.8829 58.6793 95.8397 55.592 97.6123 52.9708C99.385 50.3496 101.894 48.3121 104.823 47.1152C107.752 45.9183 110.97 45.6155 114.072 46.2452C117.173 46.8749 120.018 48.4088 122.248 50.6534C124.478 52.898 125.994 55.7528 126.604 58.8577C127.214 61.9627 126.891 65.1787 125.675 68.1002C124.46 71.0217 122.406 73.5178 119.774 75.2738C117.141 77.0297 114.048 77.9668 110.884 77.9669H110.882V77.9671ZM110.882 46.2621C106.741 46.2714 102.772 47.9143 99.8355 50.8338C96.8994 53.7533 95.2339 57.7135 95.201 61.854C95.1991 61.8898 95.1992 61.9191 95.1992 61.9458C95.1989 65.048 96.1186 68.0806 97.8419 70.6601C99.5652 73.2395 102.015 75.2501 104.881 76.4374C107.747 77.6248 110.9 77.9356 113.943 77.3306C116.986 76.7256 119.78 75.2319 121.974 73.0385C124.168 70.8451 125.662 68.0504 126.267 65.0079C126.873 61.9654 126.562 58.8117 125.375 55.9456C124.188 53.0795 122.178 50.6297 119.599 48.906C117.02 47.1824 113.987 46.2623 110.885 46.2621H110.882Z" fill="#E4E4E4"/>
<path d="M79.3506 94.0405V88.9672C79.3506 88.6814 79.2371 88.4074 79.0351 88.2053C78.833 88.0033 78.559 87.8898 78.2732 87.8898C77.9875 87.8898 77.7134 88.0033 77.5114 88.2053C77.3093 88.4074 77.1958 88.6814 77.1958 88.9672V94.0405C76.7708 94.2788 76.4367 94.6514 76.246 95.0998C76.0553 95.5482 76.0187 96.0473 76.1418 96.5187C76.265 96.9902 76.541 97.4075 76.9267 97.7054C77.3124 98.0033 77.7859 98.1648 78.2732 98.1648C78.7605 98.1648 79.2341 98.0033 79.6197 97.7054C80.0054 97.4075 80.2814 96.9902 80.4046 96.5187C80.5277 96.0473 80.4911 95.5482 80.3004 95.0998C80.1097 94.6514 79.7757 94.2788 79.3506 94.0405Z" fill="#008375"/>
<path d="M77.9004 88.9672C77.9082 88.8752 77.9503 88.7895 78.0183 88.7271C78.0863 88.6647 78.1752 88.63 78.2675 88.63C78.3598 88.63 78.4488 88.6647 78.5168 88.7271C78.5848 88.7895 78.6268 88.8752 78.6347 88.9672V92.2408H77.9004V88.9672Z" fill="white"/>
<path opacity="0.999" d="M148.026 92.6693H87.6592V93.3823H148.026V92.6693Z" fill="#E6E6E6"/>
<path d="M107.448 94.7174C108.381 94.7174 109.138 93.9606 109.138 93.0272C109.138 92.0937 108.381 91.3369 107.448 91.3369C106.514 91.3369 105.757 92.0937 105.757 93.0272C105.757 93.9606 106.514 94.7174 107.448 94.7174Z" fill="#008375"/>
<path d="M107.448 92.6693H87.6592V93.3823H107.448V92.6693Z" fill="#008375"/>
<path d="M148.026 112.697H87.6592V113.41H148.026V112.697Z" fill="#E6E6E6"/>
<path d="M122.401 114.745C123.334 114.745 124.091 113.989 124.091 113.055C124.091 112.122 123.334 111.365 122.401 111.365C121.467 111.365 120.71 112.122 120.71 113.055C120.71 113.989 121.467 114.745 122.401 114.745Z" fill="#008375"/>
<path d="M122.564 112.697H87.6592V113.41H122.564V112.697Z" fill="#008375"/>
<path d="M148.026 131.392H87.6592V132.105H148.026V131.392Z" fill="#E6E6E6"/>
<path d="M138.956 133.438C139.889 133.438 140.646 132.681 140.646 131.747C140.646 130.814 139.889 130.057 138.956 130.057C138.022 130.057 137.266 130.814 137.266 131.747C137.266 132.681 138.022 133.438 138.956 133.438Z" fill="#008375"/>
<path d="M139.119 131.392H87.6592V132.105H139.119V131.392Z" fill="#008375"/>
<path d="M148.026 149.984H87.6592V150.697H148.026V149.984Z" fill="#E6E6E6"/>
<path d="M107.448 152.03C108.381 152.03 109.138 151.273 109.138 150.339C109.138 149.406 108.381 148.649 107.448 148.649C106.514 148.649 105.757 149.406 105.757 150.339C105.757 151.273 106.514 152.03 107.448 152.03Z" fill="#008375"/>
<path d="M107.448 149.984H87.6592V150.697H107.448V149.984Z" fill="#008375"/>
<path d="M207.756 138.703C207.51 138.88 207.228 139 206.93 139.055C206.632 139.11 206.325 139.098 206.033 139.02C205.772 138.951 205.528 138.831 205.314 138.668C205.101 138.504 204.921 138.3 204.786 138.068C204.651 137.835 204.563 137.577 204.527 137.311C204.492 137.044 204.509 136.772 204.578 136.512C204.585 136.485 204.593 136.459 204.601 136.432C204.631 136.335 204.669 136.242 204.714 136.151L200.683 118.056C200.623 117.849 200.603 117.632 200.627 117.417C200.65 117.203 200.716 116.995 200.819 116.806C200.923 116.616 201.063 116.45 201.231 116.314C201.4 116.179 201.593 116.079 201.8 116.019C202.008 115.958 202.225 115.94 202.439 115.963C202.654 115.987 202.862 116.053 203.051 116.157C203.24 116.261 203.406 116.402 203.541 116.571C203.676 116.739 203.776 116.933 203.836 117.14L203.839 117.151L207.643 135.301C207.929 135.479 208.167 135.724 208.335 136.016C208.503 136.307 208.597 136.636 208.608 136.972C208.62 137.309 208.548 137.643 208.399 137.945C208.25 138.247 208.029 138.507 207.756 138.704L207.756 138.703Z" fill="#FEB8B8"/>
<path d="M213.108 177.527H210.922L209.881 169.094H213.107L213.108 177.527Z" fill="#A0616A"/>
<path d="M213.665 179.646H206.616V179.557C206.616 178.829 206.905 178.132 207.42 177.617C207.934 177.103 208.632 176.814 209.36 176.813H213.665L213.665 179.646Z" fill="#A0616A"/>
<path d="M213.108 177.527H210.922L209.881 169.094H213.107L213.108 177.527Z" fill="#FEB8B8"/>
<path d="M213.665 179.646H206.616V179.557C206.616 178.829 206.905 178.132 207.42 177.617C207.934 177.103 208.632 176.814 209.36 176.813H213.665L213.665 179.646Z" fill="#2F2E41"/>
<path d="M191.192 177.458L189.112 176.785L190.717 168.442L193.788 169.435L191.192 177.458Z" fill="#A0616A"/>
<path d="M191.07 179.645L184.364 177.476L184.39 177.391C184.614 176.698 185.104 176.123 185.752 175.792C186.4 175.461 187.153 175.401 187.845 175.625L191.941 176.95L191.07 179.645Z" fill="#A0616A"/>
<path d="M191.192 177.458L189.112 176.785L190.717 168.442L193.788 169.435L191.192 177.458Z" fill="#FEB8B8"/>
<path d="M191.07 179.645L184.364 177.476L184.39 177.391C184.614 176.698 185.104 176.123 185.752 175.792C186.4 175.461 187.153 175.401 187.845 175.625L191.941 176.95L191.07 179.645Z" fill="#2F2E41"/>
<path d="M200.669 113.173C202.706 113.173 204.357 111.521 204.357 109.484C204.357 107.448 202.706 105.796 200.669 105.796C198.632 105.796 196.981 107.448 196.981 109.484C196.981 111.521 198.632 113.173 200.669 113.173Z" fill="#FEB8B8"/>
<path d="M205.957 123.822C206.47 121.917 204.121 115.943 203.929 115.185C203.013 114.974 200.892 115.379 199.587 115.11C197.733 116.659 196.258 118.873 195.238 119.923C194.178 121.015 193.495 121.755 194.59 124.311C195.399 126.323 195.752 128.49 195.623 130.654L196.508 138.473C196.508 138.473 192.82 148.8 193.115 155.734L189.722 172.699C190.036 173.206 190.527 173.577 191.1 173.74C191.673 173.904 192.286 173.848 192.82 173.584C192.82 173.584 197.688 164.88 197.245 158.537L202.556 146.735C202.556 146.735 206.244 157.947 207.277 158.979L209.933 174.912C209.933 174.912 212.441 175.65 213.621 174.912C213.621 174.912 214.063 159.569 211.555 157.061C211.555 157.061 209.048 146.44 209.638 143.637C210.228 140.833 210.375 136.555 205.95 132.72C205.95 132.72 205.994 132.74 204.622 130.212L205.957 123.822Z" fill="#2F2E41"/>
<path d="M202.593 103.784C202.387 103.785 202.18 103.805 201.977 103.845C201.611 103.668 201.21 103.575 200.803 103.574H200.696C198.638 103.574 196.969 105.437 196.969 107.734H197.659L197.77 106.886L197.933 107.734H198.508C198.329 108.414 198.239 109.114 198.241 109.817V114.052H199.282L199.886 112.483L199.735 114.052H206.437L206.986 112.626L206.849 114.052H207.603V110.727C207.603 106.893 205.36 103.784 202.593 103.784Z" fill="#2F2E41"/>
<path d="M195.232 140.799C194.933 140.844 194.627 140.822 194.337 140.735C194.047 140.648 193.78 140.497 193.555 140.295C193.355 140.114 193.192 139.896 193.076 139.653C192.961 139.41 192.894 139.147 192.88 138.878C192.866 138.609 192.905 138.34 192.996 138.086C193.086 137.832 193.225 137.599 193.405 137.399C193.424 137.378 193.443 137.358 193.463 137.338C193.534 137.266 193.61 137.199 193.691 137.139L198.364 119.2C198.448 118.773 198.698 118.396 199.059 118.154C199.42 117.911 199.863 117.821 200.291 117.905C200.718 117.989 201.094 118.239 201.337 118.601C201.58 118.962 201.669 119.405 201.585 119.832L201.585 119.835L196.685 137.72C196.859 138.009 196.958 138.336 196.975 138.672C196.991 139.008 196.925 139.343 196.781 139.647C196.637 139.952 196.421 140.216 196.151 140.417C195.881 140.618 195.565 140.749 195.232 140.799V140.799Z" fill="#FEB8B8"/>
<path d="M22.5948 179.998C23.3114 179.998 23.8922 179.237 23.8922 178.299C23.8922 177.361 23.3114 176.6 22.5948 176.6C21.8782 176.6 21.2974 177.361 21.2974 178.299C21.2974 179.237 21.8782 179.998 22.5948 179.998Z" fill="#F0F0F0"/>
<path d="M27.4533 159.313C28.3146 158.217 28.7827 156.864 28.7827 155.47C28.7827 154.076 28.3146 152.722 27.4533 151.626L27.4528 151.624C27.6299 151.398 27.7915 151.16 27.9366 150.912L24.5242 150.349L28.2141 150.377C28.5674 149.607 28.7601 148.773 28.7804 147.926C28.8007 147.079 28.6481 146.236 28.3321 145.45L23.3859 148.019L27.9494 144.662C27.522 143.923 26.9468 143.28 26.2597 142.772C25.5727 142.265 24.7884 141.904 23.956 141.713C23.1235 141.522 22.2606 141.505 21.421 141.662C20.5815 141.819 19.7833 142.147 19.0762 142.626C18.3692 143.106 17.7684 143.725 17.3113 144.447C16.8542 145.168 16.5506 145.976 16.4195 146.82C16.2883 147.664 16.3324 148.526 16.549 149.352C16.7656 150.178 17.1501 150.951 17.6784 151.622C17.4035 151.971 17.166 152.348 16.9698 152.747L21.3985 155.048L16.676 153.475C16.3446 154.455 16.2626 155.501 16.4374 156.521C16.6122 157.54 17.0384 158.5 17.6774 159.313C17.0165 160.154 16.5836 161.151 16.4205 162.207C16.2573 163.264 16.3694 164.345 16.7459 165.345C17.1224 166.346 17.7506 167.233 18.5698 167.92C19.389 168.607 20.3716 169.071 21.4225 169.267C21.3391 169.499 21.2968 169.745 21.2973 169.991C21.294 170.356 21.388 170.714 21.5697 171.03C21.3911 171.347 21.2973 171.705 21.2973 172.069C21.2974 172.433 21.3912 172.791 21.5698 173.108C21.3914 173.425 21.2975 173.782 21.2973 174.146C21.2972 174.51 21.3907 174.867 21.5689 175.184C21.3877 175.5 21.294 175.858 21.2973 176.222C21.2973 177.16 21.8782 177.921 22.5947 177.921C23.3113 177.921 23.8921 177.16 23.8921 176.222C23.7141 175.905 23.6206 175.548 23.6206 175.184C23.6206 174.821 23.7141 174.464 23.8921 174.147C23.8955 173.783 23.8014 173.424 23.6197 173.108C23.7983 172.791 23.8921 172.433 23.8921 172.069C23.8922 171.705 23.7984 171.347 23.6198 171.03C23.8015 170.714 23.8955 170.356 23.8921 169.991C23.8927 169.74 23.8489 169.491 23.7627 169.255C24.8072 169.051 25.7818 168.581 26.5929 167.892C27.4039 167.203 28.0244 166.317 28.3949 165.319C28.7653 164.321 28.8733 163.245 28.7084 162.193C28.5435 161.142 28.1114 160.15 27.4533 159.313Z" fill="#F0F0F0"/>
<path opacity="0.05" d="M16.3496 155.468C16.347 156.862 16.8155 158.217 17.6791 159.312C16.9581 160.229 16.5097 161.331 16.3851 162.491C16.2606 163.65 16.4649 164.822 16.9748 165.871C17.4847 166.921 18.2795 167.806 19.2684 168.425C20.2573 169.043 21.4005 169.372 22.5671 169.372C23.7338 169.372 24.8769 169.043 25.8658 168.425C26.8547 167.806 27.6496 166.921 28.1594 165.871C28.6693 164.822 28.8736 163.65 28.7491 162.491C28.6245 161.331 28.1761 160.229 27.4551 159.312C28.2877 158.254 16.3496 154.77 16.3496 155.468Z" fill="black"/>
<path d="M12.0232 163.839L12.0215 163.837C12.1201 163.711 12.2102 163.578 12.291 163.44L10.3898 163.127L12.4459 163.142C12.6427 162.713 12.75 162.249 12.7613 161.777C12.7726 161.305 12.6876 160.835 12.5115 160.397L9.75594 161.828L12.2985 159.959C12.0603 159.547 11.7398 159.189 11.3571 158.906C10.9743 158.623 10.5373 158.423 10.0735 158.316C9.60971 158.21 9.12895 158.2 8.6612 158.288C8.19346 158.375 7.74876 158.558 7.35482 158.825C6.96087 159.092 6.62614 159.437 6.37147 159.839C6.1168 160.241 5.94766 160.691 5.87459 161.161C5.80152 161.632 5.82609 162.112 5.94676 162.572C6.06744 163.032 6.28163 163.463 6.57599 163.837C6.4228 164.031 6.29043 164.241 6.18107 164.464L8.64863 165.745L6.01823 164.869C5.83353 165.415 5.7878 165.998 5.88519 166.566C5.98258 167.134 6.22 167.669 6.57599 168.122C6.20754 168.59 5.96615 169.145 5.87517 169.734C5.78418 170.323 5.84669 170.925 6.05664 171.483C6.26658 172.04 6.61687 172.534 7.07359 172.917C7.53032 173.299 8.07804 173.557 8.66376 173.666C8.61643 173.796 8.59216 173.932 8.59205 174.07C8.69344 174.246 8.74681 174.446 8.74681 174.649C8.74681 174.852 8.69344 175.052 8.59205 175.228C8.69336 175.404 8.74668 175.604 8.74668 175.807C8.74668 176.01 8.69336 176.209 8.59205 176.385C8.69311 176.561 8.74629 176.761 8.74629 176.963C8.74629 177.166 8.69311 177.366 8.59205 177.542C8.69336 177.718 8.74668 177.917 8.74668 178.12C8.74668 178.323 8.69336 178.523 8.59205 178.699C8.59205 179.221 8.91565 179.645 9.31486 179.645C9.71395 179.645 10.0377 179.221 10.0377 178.699C9.93629 178.523 9.88292 178.323 9.88292 178.12C9.88292 177.917 9.93629 177.718 10.0377 177.542C9.93654 177.366 9.88331 177.166 9.88331 176.963C9.88331 176.761 9.93654 176.561 10.0377 176.385C9.93629 176.209 9.88292 176.01 9.88292 175.807C9.88292 175.604 9.93629 175.404 10.0377 175.228C9.9362 175.052 9.88279 174.852 9.88279 174.649C9.88279 174.446 9.9362 174.246 10.0377 174.07C10.0375 173.93 10.0122 173.791 9.96323 173.659C10.5456 173.547 11.0892 173.286 11.5418 172.902C11.9943 172.518 12.3407 172.025 12.5475 171.469C12.7544 170.913 12.8148 170.313 12.723 169.727C12.6312 169.141 12.3902 168.588 12.0232 168.122C12.503 167.511 12.7639 166.757 12.7639 165.981C12.7639 165.204 12.503 164.45 12.0232 163.839Z" fill="#F0F0F0"/>
<path d="M37.1314 168.455L37.1298 168.453C37.2057 168.356 37.275 168.254 37.3372 168.148L35.874 167.908L37.4564 167.92C37.6079 167.589 37.6905 167.232 37.6992 166.868C37.708 166.505 37.6426 166.144 37.5071 165.807L35.3861 166.908L37.3431 165.469C37.16 165.151 36.9135 164.875 36.6188 164.657C36.3242 164.439 35.9877 164.284 35.6305 164.202C35.2733 164.12 34.903 164.112 34.5427 164.179C34.1825 164.247 33.8399 164.388 33.5365 164.593C33.2331 164.799 32.9753 165.065 32.7793 165.375C32.5832 165.684 32.4531 166.031 32.3971 166.393C32.341 166.755 32.3603 167.125 32.4536 167.48C32.5468 167.834 32.7122 168.166 32.9393 168.453C32.8213 168.603 32.7195 168.765 32.6354 168.936L34.5343 169.922L32.5098 169.248C32.3677 169.668 32.3325 170.117 32.4075 170.554C32.4825 170.991 32.6652 171.403 32.9393 171.752C32.6556 172.112 32.4698 172.54 32.3997 172.993C32.3296 173.446 32.3777 173.909 32.5393 174.339C32.7009 174.768 32.9705 175.148 33.3221 175.442C33.6736 175.737 34.0952 175.936 34.5461 176.019C34.5096 176.119 34.4909 176.224 34.4908 176.331C34.569 176.466 34.6101 176.62 34.6101 176.776C34.6101 176.933 34.569 177.086 34.4908 177.222C34.5689 177.357 34.61 177.511 34.61 177.667C34.61 177.824 34.5689 177.977 34.4908 178.113C34.5686 178.248 34.6096 178.401 34.6096 178.558C34.6096 178.714 34.5686 178.867 34.4908 179.002C34.4908 179.405 34.74 179.731 35.0473 179.731C35.3547 179.731 35.6037 179.405 35.6037 179.002C35.526 178.867 35.4851 178.714 35.4851 178.558C35.4851 178.401 35.526 178.248 35.6037 178.113C35.5257 177.977 35.4847 177.824 35.4847 177.667C35.4847 177.511 35.5257 177.357 35.6037 177.222C35.5257 177.086 35.4846 176.933 35.4846 176.776C35.4846 176.62 35.5257 176.466 35.6037 176.331C35.6036 176.223 35.5842 176.115 35.5464 176.014C35.9946 175.927 36.413 175.726 36.7613 175.431C37.1095 175.136 37.3761 174.756 37.5352 174.328C37.6944 173.9 37.7408 173.438 37.6701 172.987C37.5994 172.536 37.4139 172.111 37.1314 171.752C37.5008 171.282 37.7016 170.701 37.7016 170.104C37.7016 169.506 37.5008 168.925 37.1314 168.455Z" fill="#F0F0F0"/>
<path d="M110.75 33.8644C110.267 33.8622 109.8 33.6926 109.428 33.3845C109.056 33.0764 108.802 32.6489 108.71 32.1749C108.618 31.7008 108.693 31.2095 108.923 30.7846C109.152 30.3597 109.522 30.0276 109.969 29.8448C110.416 29.6619 110.913 29.6397 111.374 29.7819C111.836 29.9241 112.234 30.2219 112.5 30.6246C112.767 31.0272 112.885 31.5099 112.836 31.9903C112.787 32.4706 112.572 32.9191 112.229 33.2591C112.035 33.4523 111.804 33.6052 111.55 33.7091C111.296 33.8129 111.024 33.8657 110.75 33.8644Z" fill="white"/>
<path d="M221.438 179.998H0.297913C0.260391 180.003 0.222423 179.999 0.186483 179.987C0.150544 179.976 0.117443 179.957 0.0893344 179.931C0.0612254 179.906 0.0387425 179.875 0.0233501 179.841C0.0079578 179.806 0 179.769 0 179.731C0 179.694 0.0079578 179.656 0.0233501 179.622C0.0387425 179.587 0.0612254 179.557 0.0893344 179.531C0.117443 179.506 0.150544 179.487 0.186483 179.476C0.222423 179.464 0.260391 179.46 0.297913 179.464H221.438C221.476 179.46 221.513 179.464 221.549 179.476C221.585 179.487 221.618 179.506 221.647 179.531C221.675 179.557 221.697 179.587 221.713 179.622C221.728 179.656 221.736 179.694 221.736 179.731C221.736 179.769 221.728 179.806 221.713 179.841C221.697 179.875 221.675 179.906 221.647 179.931C221.618 179.957 221.585 179.976 221.549 179.987C221.513 179.999 221.476 180.003 221.438 179.998Z" fill="#E6E6E6"/>
<path d="M78.2731 97.0186C78.863 97.0186 79.3412 96.5404 79.3412 95.9505C79.3412 95.3606 78.863 94.8824 78.2731 94.8824C77.6833 94.8824 77.2051 95.3606 77.2051 95.9505C77.2051 96.5404 77.6833 97.0186 78.2731 97.0186Z" fill="white"/>
<path d="M80.8189 111.972C80.8365 112.28 80.7909 112.59 80.6849 112.881C80.5788 113.171 80.4145 113.437 80.202 113.662C79.9895 113.887 79.7333 114.066 79.4491 114.189C79.1649 114.311 78.8587 114.375 78.5492 114.375C78.2398 114.375 77.9335 114.311 77.6494 114.189C77.3652 114.066 77.109 113.887 76.8965 113.662C76.684 113.437 76.5197 113.171 76.4136 112.881C76.3075 112.59 76.2619 112.28 76.2796 111.972C76.2796 110.644 78.4157 109.301 78.4157 106.898C78.4157 105.645 80.8189 110.644 80.8189 111.972Z" fill="#008375"/>
<path d="M79.9112 111.932C79.9218 112.117 79.8944 112.303 79.8308 112.477C79.7671 112.652 79.6685 112.811 79.541 112.946C79.4135 113.081 79.2598 113.189 79.0892 113.262C78.9187 113.336 78.7349 113.374 78.5492 113.374C78.3635 113.374 78.1798 113.336 78.0093 113.262C77.8387 113.189 77.685 113.081 77.5575 112.946C77.43 112.811 77.3314 112.652 77.2677 112.477C77.2041 112.303 77.1767 112.117 77.1873 111.932C77.1873 111.135 78.4691 110.329 78.4691 108.887C78.4691 108.135 79.9112 111.135 79.9112 111.932Z" fill="white"/>
<path d="M78.2718 127.341C76.4427 127.341 74.9688 128.716 74.9688 130.417C74.9726 130.924 75.1036 131.422 75.35 131.866C75.5963 132.309 75.95 132.683 76.3786 132.954V133.95C76.3828 134.071 76.4349 134.185 76.5234 134.268C76.6119 134.351 76.7296 134.395 76.8507 134.391L76.8512 134.391H79.6923C79.8133 134.395 79.9311 134.351 80.0197 134.268C80.1083 134.186 80.1606 134.072 80.1649 133.95L80.1649 133.95V132.954C80.5943 132.684 80.9488 132.31 81.1957 131.866C81.4425 131.423 81.5738 130.925 81.5774 130.417C81.5774 128.716 80.1008 127.341 78.2718 127.341Z" fill="#008375"/>
<path d="M78.2719 128.15C76.8627 128.15 75.7271 129.21 75.7271 130.52C75.73 130.911 75.831 131.295 76.0208 131.636C76.2106 131.978 76.4831 132.266 76.8133 132.475V133.242C76.8149 133.288 76.8255 133.334 76.8447 133.376C76.8638 133.418 76.891 133.456 76.9248 133.487C76.9586 133.519 76.9982 133.543 77.0415 133.559C77.0848 133.576 77.1308 133.583 77.177 133.582H77.1774H79.3663C79.4596 133.585 79.5503 133.551 79.6186 133.487C79.6869 133.424 79.7271 133.336 79.7304 133.242V133.242V132.475C80.0613 132.266 80.3344 131.978 80.5246 131.637C80.7148 131.295 80.816 130.911 80.8187 130.52C80.8188 129.21 79.6811 128.15 78.2719 128.15Z" fill="white"/>
<path d="M76.9472 134.801C76.8764 134.801 76.8085 134.83 76.7584 134.88C76.7083 134.93 76.6802 134.998 76.6802 135.068C76.6802 135.139 76.7083 135.207 76.7584 135.257C76.8085 135.307 76.8764 135.335 76.9472 135.335H79.6174C79.6882 135.335 79.7561 135.307 79.8062 135.257C79.8563 135.207 79.8844 135.139 79.8844 135.068C79.8844 134.998 79.8563 134.93 79.8062 134.88C79.7561 134.83 79.6882 134.801 79.6174 134.801H76.9472Z" fill="#008375"/>
<path d="M76.9472 135.87C76.8764 135.87 76.8085 135.898 76.7584 135.948C76.7083 135.998 76.6802 136.066 76.6802 136.137C76.6802 136.207 76.7083 136.275 76.7584 136.325C76.8085 136.375 76.8764 136.404 76.9472 136.404H79.6174C79.6882 136.404 79.7561 136.375 79.8062 136.325C79.8563 136.275 79.8844 136.207 79.8844 136.137C79.8844 136.066 79.8563 135.998 79.8062 135.948C79.7561 135.898 79.6882 135.87 79.6174 135.87H76.9472Z" fill="#008375"/>
<path d="M80.1364 146.417L80.2156 146.219C80.2444 146.147 80.2552 146.069 80.2469 145.992C80.2386 145.915 80.2115 145.841 80.168 145.777C80.1246 145.712 80.066 145.66 79.9976 145.623C79.9291 145.587 79.8527 145.568 79.7752 145.568H76.5447C76.4189 145.568 76.2982 145.618 76.2093 145.707C76.1203 145.796 76.0703 145.917 76.0703 146.043V146.417H80.1364Z" fill="#008375"/>
<path d="M79.7085 149.237H79.7084C79.6309 149.237 79.5545 149.218 79.4861 149.182C79.4176 149.145 79.359 149.093 79.3156 149.028C79.2721 148.964 79.245 148.89 79.2367 148.813C79.2284 148.736 79.2392 148.658 79.268 148.586L79.8158 147.218H76.0703V150.231C76.0703 150.293 76.0826 150.355 76.1064 150.413C76.1303 150.47 76.1652 150.523 76.2093 150.567C76.2533 150.611 76.3056 150.646 76.3632 150.669C76.4208 150.693 76.4824 150.706 76.5447 150.706H77.0645C77.1903 150.706 77.311 150.756 77.3999 150.844C77.4889 150.933 77.5389 151.054 77.5389 151.18V153.102C77.5389 153.208 77.575 153.312 77.6413 153.396C77.7076 153.48 77.8003 153.539 77.9043 153.563C78.0084 153.588 78.1176 153.577 78.2144 153.531C78.3112 153.486 78.3899 153.409 78.4377 153.314L80.1328 149.924C80.1689 149.851 80.186 149.771 80.1824 149.69C80.1788 149.609 80.1545 149.531 80.112 149.462C80.0695 149.393 80.0101 149.336 79.9395 149.297C79.8689 149.258 79.7893 149.237 79.7085 149.237Z" fill="#008375"/>
<path d="M76.5465 114.775C76.4403 114.775 76.3384 114.817 76.2633 114.892C76.1882 114.968 76.146 115.069 76.146 115.176C76.146 115.282 76.1882 115.384 76.2633 115.459C76.3384 115.534 76.4403 115.576 76.5465 115.576H80.2848C80.391 115.576 80.4929 115.534 80.568 115.459C80.6431 115.384 80.6853 115.282 80.6853 115.176C80.6853 115.069 80.6431 114.968 80.568 114.892C80.4929 114.817 80.391 114.775 80.2848 114.775H76.5465Z" fill="#008375"/>
<path d="M76.5465 116.377C76.4403 116.377 76.3384 116.42 76.2633 116.495C76.1882 116.57 76.146 116.672 76.146 116.778C76.146 116.884 76.1882 116.986 76.2633 117.061C76.3384 117.136 76.4403 117.178 76.5465 117.178H80.2848C80.391 117.178 80.4929 117.136 80.568 117.061C80.6431 116.986 80.6853 116.884 80.6853 116.778C80.6853 116.672 80.6431 116.57 80.568 116.495C80.4929 116.42 80.391 116.377 80.2848 116.377H76.5465Z" fill="#008375"/>
<path d="M112.06 66.5786C112.207 66.5786 112.327 66.459 112.327 66.3116C112.327 66.1641 112.207 66.0446 112.06 66.0446C111.913 66.0446 111.793 66.1641 111.793 66.3116C111.793 66.459 111.913 66.5786 112.06 66.5786Z" fill="#008375"/>
<path d="M118.016 61.4845L111.063 55.0657C111.013 55.0202 110.949 54.9949 110.881 54.9949C110.814 54.9949 110.75 55.0202 110.7 55.0657L107.521 58.0016V56.699C107.521 56.6282 107.493 56.5602 107.443 56.5102C107.393 56.4601 107.325 56.432 107.254 56.432H106.72C106.649 56.432 106.581 56.4601 106.531 56.5102C106.481 56.5602 106.453 56.6282 106.453 56.699V58.9878L103.749 61.4845C103.709 61.521 103.682 61.5685 103.67 61.6208C103.658 61.6732 103.662 61.7279 103.681 61.7779C103.701 61.828 103.735 61.8709 103.78 61.9012C103.824 61.9315 103.876 61.9477 103.93 61.9477H105.269C105.339 61.9477 105.407 61.9759 105.457 62.0259C105.508 62.076 105.536 62.1439 105.536 62.2147V68.7273C105.536 68.7981 105.564 68.866 105.614 68.9161C105.664 68.9662 105.732 68.9943 105.803 68.9943H115.96C116.031 68.9943 116.099 68.9662 116.149 68.9161C116.199 68.866 116.227 68.7981 116.227 68.7273V62.2147C116.227 62.1439 116.255 62.076 116.305 62.0259C116.355 61.9758 116.423 61.9477 116.494 61.9477H117.835C117.889 61.9477 117.941 61.9315 117.986 61.9012C118.03 61.8709 118.064 61.828 118.084 61.7779C118.103 61.7279 118.107 61.6731 118.095 61.6208C118.083 61.5684 118.056 61.5209 118.016 61.4845ZM109.386 64.2948H112.377C112.447 64.2948 112.515 64.323 112.565 64.373C112.616 64.4231 112.644 64.491 112.644 64.5618V68.4603H109.119V64.5618C109.119 64.491 109.147 64.4231 109.197 64.373C109.247 64.323 109.315 64.2948 109.386 64.2948Z" fill="#008375"/>
</g>
<defs>
<clipPath id="clip0_707_40290">
<rect width="221.736" height="180" fill="white"/>
</clipPath>
</defs>
</svg>
