<svg width="28" height="28" viewBox="0 0 28 28" fill="none" xmlns="http://www.w3.org/2000/svg">
<g clip-path="url(#clip0_410_33157)">
<path d="M13.9941 25.9882C20.5556 25.9882 25.9882 20.5439 25.9882 13.9941C25.9882 7.43262 20.5439 2 13.9823 2C7.43262 2 2 7.43262 2 13.9941C2 20.5439 7.44438 25.9882 13.9941 25.9882ZM13.9941 23.9892C8.4439 23.9892 4.01078 19.5443 4.01078 13.9941C4.01078 8.4439 8.43214 3.99902 13.9823 3.99902C19.5326 3.99902 23.9892 8.4439 23.9892 13.9941C23.9892 19.5443 19.5443 23.9892 13.9941 23.9892ZM8.50269 15.6991C9.4434 15.6991 10.2077 14.9348 10.2077 13.9823C10.2077 13.0416 9.43164 12.2773 8.50269 12.2773C7.55021 12.2773 6.78588 13.0416 6.78588 13.9823C6.78588 14.9348 7.55021 15.6991 8.50269 15.6991ZM13.9823 15.6991C14.9231 15.6991 15.6991 14.9348 15.6991 13.9823C15.6991 13.0416 14.9231 12.2773 13.9823 12.2773C13.0416 12.2773 12.2656 13.0416 12.2656 13.9823C12.2656 14.9348 13.0416 15.6991 13.9823 15.6991ZM19.4738 15.6991C20.4145 15.6991 21.1788 14.9348 21.1788 13.9823C21.1788 13.0416 20.4145 12.2773 19.4738 12.2773C18.5212 12.2773 17.7569 13.0416 17.7569 13.9823C17.7569 14.9348 18.5212 15.6991 19.4738 15.6991Z" fill="#008375"/>
</g>
<defs>
<clipPath id="clip0_410_33157">
<rect width="23.9882" height="24" fill="white" transform="translate(2 2)"/>
</clipPath>
</defs>
</svg>
