<svg width="40" height="40" viewBox="0 0 40 40" fill="none" xmlns="http://www.w3.org/2000/svg">
<path d="M8.22754 30.3308C8.22754 32.6889 9.38966 33.8736 11.7252 33.8736H22.3309C24.6664 33.8736 25.8286 32.6776 25.8286 30.3308V28.2435H27.803C30.1273 28.2435 31.3007 27.0476 31.3007 24.7008V15.5392C31.3007 14.1514 31.0186 13.2714 30.1724 12.4026L24.4746 6.6146C23.6736 5.79096 22.7258 5.48633 21.5186 5.48633H17.1973C14.873 5.48633 13.6996 6.68229 13.6996 9.0291V11.1164H11.7252C9.40094 11.1164 8.22754 12.3011 8.22754 14.6592V30.3308ZM24.7567 18.5178L18.5399 12.1883C17.6824 11.3082 16.9716 11.1164 15.708 11.1164H15.5162V9.06294C15.5162 7.94596 16.1141 7.30284 17.2875 7.30284H22.2745V13.0909C22.2745 14.3997 22.9063 15.0202 24.2038 15.0202H29.4841V24.6669C29.4841 25.7952 28.8749 26.427 27.7015 26.427H25.8286V21.519C25.8286 20.0749 25.6593 19.443 24.7567 18.5178ZM23.9105 12.8201V8.19418L29.0103 13.3842H24.4633C24.0685 13.3842 23.9105 13.215 23.9105 12.8201ZM10.0441 30.297V14.6817C10.0441 13.576 10.642 12.9329 11.8154 12.9329H15.5162V19.4769C15.5162 20.8985 16.2383 21.6093 17.6373 21.6093H24.012V30.297C24.012 31.4253 23.4028 32.0571 22.2407 32.0571H11.8042C10.642 32.0571 10.0441 31.4253 10.0441 30.297ZM17.8517 19.9056C17.4004 19.9056 17.2199 19.7251 17.2199 19.2738V13.3504L23.6623 19.9056H17.8517Z" fill="#008375"/>
</svg>
