<svg width="32" height="32" viewBox="0 0 32 32" fill="none" xmlns="http://www.w3.org/2000/svg">
<path d="M16.1417 27.7828C16.4337 27.7828 16.7135 27.7585 17.0177 27.7341L17.699 29.0238C17.845 29.3523 18.1735 29.5104 18.5506 29.4618C18.9035 29.4009 19.1468 29.1333 19.1955 28.7683L19.4023 27.3205C19.9741 27.1745 20.5338 26.9555 21.0691 26.7243L22.1398 27.6855C22.3953 27.941 22.7481 27.9775 23.1009 27.795C23.4051 27.6125 23.5268 27.284 23.4659 26.919L23.1618 25.5076C23.6363 25.167 24.0986 24.7898 24.5366 24.3762L25.8506 24.9237C26.2034 25.0697 26.5319 24.9845 26.7996 24.6803C27.0185 24.4248 27.055 24.0598 26.8604 23.7435L26.0939 22.5147C26.4224 22.0402 26.7022 21.517 26.9577 20.9695L28.4177 21.0425C28.7705 21.0669 29.0869 20.86 29.2085 20.5194C29.3302 20.1787 29.2085 19.8259 28.9287 19.6069L27.7972 18.7066C27.9432 18.1469 28.0527 17.5629 28.1014 16.9546L29.4762 16.5166C29.829 16.3949 30.048 16.1151 30.048 15.7501C30.048 15.3851 29.829 15.1053 29.4762 14.9836L28.1014 14.5456C28.0527 13.9373 27.931 13.3654 27.7972 12.7936L28.9287 11.8933C29.2085 11.6865 29.318 11.3458 29.2085 11.0051C29.0869 10.6523 28.7705 10.4455 28.4177 10.4698L26.9577 10.5185C26.7022 9.98314 26.4224 9.47215 26.0939 8.98549L26.8604 7.7445C27.0429 7.4525 27.0185 7.08751 26.7996 6.83201C26.5319 6.52785 26.2034 6.44268 25.8506 6.58868L24.5244 7.12401C24.0986 6.72251 23.6363 6.33318 23.1618 6.00469L23.4659 4.59337C23.5268 4.2162 23.4051 3.88771 23.0888 3.71738C22.7481 3.53488 22.3953 3.55921 22.1398 3.82687L21.0691 4.77586C20.5338 4.53253 19.9741 4.33787 19.4023 4.1797L19.1955 2.75622C19.1468 2.39122 18.9035 2.12356 18.5506 2.05056C18.1735 2.00189 17.8571 2.16006 17.699 2.46422L17.0177 3.76604C16.7135 3.74171 16.4337 3.72954 16.1417 3.72954C15.8253 3.72954 15.5455 3.74171 15.2413 3.76604L14.56 2.46422C14.414 2.16006 14.0855 2.00189 13.7084 2.06273C13.3555 2.12356 13.1122 2.39122 13.0635 2.75622L12.8567 4.1797C12.297 4.33787 11.7374 4.53253 11.1899 4.77586L10.1314 3.82687C9.86373 3.57138 9.5109 3.53488 9.17024 3.71738C8.86607 3.88771 8.73224 4.2162 8.79308 4.59337L9.09724 6.00469C8.62274 6.33318 8.16042 6.72251 7.73459 7.12401L6.40843 6.58868C6.06777 6.44268 5.72711 6.52785 5.47161 6.83201C5.24045 7.08751 5.21611 7.4525 5.39861 7.7445L6.17727 8.98549C5.84877 9.47215 5.56894 9.98314 5.30128 10.5185L3.85346 10.4698C3.48846 10.4455 3.17213 10.6523 3.06264 11.0051C2.94097 11.3458 3.0383 11.6865 3.3303 11.8933L4.47395 12.7936C4.32796 13.3654 4.20629 13.9373 4.16979 14.5456L2.79497 14.9836C2.42998 15.1053 2.22314 15.3729 2.22314 15.7501C2.22314 16.1151 2.42998 16.3949 2.79497 16.5166L4.16979 16.9546C4.20629 17.5629 4.32796 18.1469 4.47395 18.7066L3.34247 19.6069C3.05047 19.8137 2.95314 20.1665 3.06264 20.5072C3.17213 20.86 3.48846 21.0669 3.85346 21.0425L5.30128 20.9695C5.55678 21.517 5.84877 22.0402 6.17727 22.5147L5.39861 23.7557C5.20395 24.0598 5.24045 24.4248 5.47161 24.6803C5.72711 24.9845 6.06777 25.0697 6.40843 24.9237L7.73459 24.3762C8.16042 24.7898 8.62274 25.167 9.09724 25.5076L8.79308 26.919C8.73224 27.284 8.85391 27.6125 9.17024 27.795C9.5109 27.9775 9.86373 27.941 10.1314 27.6855L11.1899 26.7243C11.7374 26.9555 12.2849 27.1745 12.8567 27.3326L13.0635 28.7683C13.1122 29.1333 13.3555 29.4009 13.7205 29.4618C14.0855 29.5104 14.414 29.3523 14.56 29.0359L15.2413 27.7341C15.5455 27.7585 15.8253 27.7828 16.1417 27.7828ZM19.3171 14.7889C18.721 13.2194 17.5043 12.3678 16.0687 12.3678C15.8618 12.3678 15.6428 12.3921 15.2657 12.4773L11.9807 6.83201C13.2339 6.24802 14.633 5.91952 16.1295 5.91952C21.2759 5.91952 25.3152 9.78848 25.7776 14.7889H19.3171ZM6.44493 15.7622C6.44493 12.5016 7.94142 9.64248 10.3139 7.854L13.6232 13.5114C12.9784 14.2171 12.6742 14.9958 12.6742 15.7987C12.6742 16.5652 12.954 17.2952 13.6232 18.0374L10.2166 23.5975C7.90492 21.809 6.44493 18.9742 6.44493 15.7622ZM14.6087 15.7866C14.6087 14.9593 15.3022 14.3266 16.0808 14.3266C16.896 14.3266 17.5651 14.9593 17.5651 15.7866C17.5651 16.5896 16.896 17.2587 16.0808 17.2587C15.3022 17.2587 14.6087 16.5896 14.6087 15.7866ZM16.1295 25.5928C14.5965 25.5928 13.1609 25.2521 11.8834 24.6317L15.2535 19.108C15.6185 19.181 15.8618 19.2054 16.0687 19.2054C17.5165 19.2054 18.721 18.3294 19.3171 16.7234H25.7776C25.3152 21.7239 21.2759 25.5928 16.1295 25.5928Z" fill="#008375"/>
</svg>
