<svg width="40" height="40" viewBox="0 0 40 40" fill="none" xmlns="http://www.w3.org/2000/svg">
<path d="M20.0003 19.7824C23.0388 19.7824 25.4997 17.0954 25.4997 13.8058C25.4997 10.5664 23.0388 7.99247 20.0003 7.99247C16.9743 7.99247 14.4883 10.6041 14.5008 13.8309C14.5134 17.108 16.9618 19.7824 20.0003 19.7824ZM20.0003 17.5851C18.2676 17.5851 16.7985 15.9403 16.7985 13.8309C16.786 11.7718 18.255 10.1897 20.0003 10.1897C21.7581 10.1897 23.202 11.7467 23.202 13.8058C23.202 15.9152 21.7455 17.5851 20.0003 17.5851ZM12.1655 31.4593H27.8225C29.9947 31.4593 31.0368 30.7687 31.0368 29.2871C31.0368 25.8343 26.7302 21.2388 20.0003 21.2388C13.2704 21.2388 8.95117 25.8343 8.95117 29.2871C8.95117 30.7687 9.9933 31.4593 12.1655 31.4593ZM11.7762 29.262C11.4749 29.262 11.3619 29.1616 11.3619 28.9356C11.3619 27.0145 14.4632 23.4361 20.0003 23.4361C25.5248 23.4361 28.6261 27.0145 28.6261 28.9356C28.6261 29.1616 28.5131 29.262 28.2118 29.262H11.7762Z" fill="#008375"/>
</svg>
