<svg width="239" height="150" viewBox="0 0 239 150" fill="none" xmlns="http://www.w3.org/2000/svg">
<path d="M183.382 113.3C193.182 88.798 190.217 61.4392 177.578 40.4272L45.2663 58.7472L172.063 32.322C118.623 -34.3174 14.6115 9.88371 24.6377 94.0206L183.382 113.3Z" fill="#F8F8F8"/>
<path d="M189.217 86.2154H20.6504V138.706H189.217V86.2154Z" fill="#636569"/>
<path d="M67.6619 79.8141C69.1743 80.9886 69.7273 81.3677 70.0494 81.3196C85.6542 85.8638 71.9743 91.1892 64.3923 82.1495L67.6619 79.8141Z" fill="#FFB8B8"/>
<path d="M16.1697 127.823V138.492L23.851 138.066L21.7175 126.97L16.1697 127.823Z" fill="#FFB8B8"/>
<path d="M58.8445 127.823V138.492L51.1628 138.066L53.2967 126.97L58.8445 127.823Z" fill="#FFB8B8"/>
<path d="M35.3733 72.7727L46.8955 72.3459C73.4759 100.212 63.4237 93.856 62.6853 132.091L48.6025 127.823L51.5898 101.365C51.5913 101.364 52.3778 100.84 51.724 100.828C47.6354 102.233 44.6523 84.8361 35.8 86.8555C25.7266 86.3736 24.0867 101.317 20.0102 101.365L22.9975 127.823L8.91475 132.091C7.33799 90.0747 -0.389776 99.5662 24.7045 72.3459L35.3733 72.7727Z" fill="black"/>
<path d="M18.3033 135.078C18.3033 135.078 16.5963 131.664 14.4625 133.371C12.3288 135.078 7.20776 140.199 7.20776 140.199C7.20776 140.199 -5.16799 145.747 2.51351 149.161C10.195 152.575 16.5963 144.467 16.5963 144.467C23.9128 142.941 28.133 141.964 24.2529 133.984C22.0501 134.937 18.9327 136.04 18.3033 135.078Z" fill="#2F2E41"/>
<path d="M56.7109 135.078C56.7109 135.078 58.4179 131.664 60.5516 133.371C62.6854 135.078 67.8064 140.199 67.8064 140.199C67.8064 140.199 80.1821 145.747 72.5006 149.161C64.8191 152.575 58.4179 144.467 58.4179 144.467C51.1014 142.941 46.8812 141.964 50.7612 133.984C52.9641 134.937 56.0815 136.04 56.7109 135.078Z" fill="#2F2E41"/>
<path d="M46.8954 24.5501C46.2607 35.1736 31.7619 34.2383 31.5325 24.55C32.1671 13.9265 46.6659 14.8618 46.8954 24.5501Z" fill="#FFB8B8"/>
<path d="M35.8 30.0977C39.5333 41.381 30.7192 35.238 43.0548 44.1804L47.7491 34.7919C47.7491 34.7919 44.3351 33.5117 44.7618 28.8174L35.8 30.0977Z" fill="#FFB8B8"/>
<path d="M58.8445 36.4989L46.1232 33.5953C46.481 41.2658 38.2952 39.722 36.8669 35.8635L24.7045 42.9002C29.8094 61.9131 28.5156 62.6976 21.7172 74.9064C19.1227 77.2757 23.0029 78.6336 26.3808 77.3371C28.9572 75.747 30.2657 74.3339 33.0263 74.6935C46.0712 77.4097 56.9309 78.0508 58.6495 76.9895C59.2645 76.1093 58.6317 36.6517 58.8445 36.4989Z" fill="#008375"/>
<path d="M55.4304 37.3526C55.8572 37.3526 58.0554 36.319 58.0554 36.319C64.451 36.2112 68.7428 79.2314 69.0864 80.4543L64.8189 83.4416L57.9909 65.9448L55.4304 37.3526Z" fill="#008375"/>
<path d="M25.5581 87.2823C25.7763 88.8928 26.1476 106.98 32.6267 98.5308C33.4768 92.3669 30.5867 90.5268 29.8256 86.4288L25.5581 87.2823Z" fill="#FFB8B8"/>
<path d="M27.2651 42.9001L25.9576 42.1752C22.4521 42.06 23.5569 51.3393 22.0737 58.1349C20.8621 66.0516 21.2071 74.781 22.6286 86.4516C22.7529 90.7343 30.4236 88.0363 31.5326 87.7089C31.5326 87.7089 28.9721 70.2121 30.2524 67.2249C31.5326 64.2376 27.2651 42.9001 27.2651 42.9001Z" fill="#008375"/>
<path d="M46.5598 17.1033C45.3747 15.1789 43.5197 13.7608 41.3518 13.1219L39.7595 14.3958L40.3786 12.91C39.858 12.8306 39.3311 12.8001 38.8048 12.819L37.3722 14.661L37.9651 12.8821C31.8176 13.5422 28.1804 20.5993 31.3719 25.5384C31.8642 24.0255 32.4618 22.6059 32.9541 21.0929C33.341 21.1457 33.7332 21.1476 34.1206 21.0986L34.7196 19.701L34.8869 21.0395C36.7433 20.8777 39.497 20.5227 41.257 20.1973L41.0859 19.1705L42.1098 20.0238C42.649 19.8996 42.9692 19.7871 42.9427 19.701C44.2517 21.8112 45.5486 23.1591 46.8576 25.2693C47.3545 22.2928 48.2316 19.8186 46.5598 17.1033Z" fill="#2F2E41"/>
<path d="M179.128 92.5473H141.9V110.207H179.128V92.5473Z" fill="white"/>
<path d="M172.088 96.2462H148.94V98.3637H172.088V96.2462Z" fill="#E6E6E6"/>
<path d="M172.088 100.318H148.94V102.436H172.088V100.318Z" fill="#E6E6E6"/>
<path d="M172.088 104.39H148.94V106.508H172.088V104.39Z" fill="#E6E6E6"/>
<path d="M109.48 96.742L108.269 94.6448L107.059 92.5473L105.848 94.6448L104.637 96.742H105.938V102.816H108.179V96.742H109.48Z" fill="white"/>
<path d="M191.533 139.958C197.04 139.958 201.504 135.494 201.504 129.987C201.504 124.48 197.04 120.016 191.533 120.016C186.026 120.016 181.562 124.48 181.562 129.987C181.562 135.494 186.026 139.958 191.533 139.958Z" fill="#3F3D56"/>
<path d="M193.346 134.405C195.786 134.405 197.765 132.427 197.765 129.987C197.765 127.546 195.786 125.568 193.346 125.568C190.905 125.568 188.927 127.546 188.927 129.987C188.927 132.427 190.905 134.405 193.346 134.405Z" fill="#E6E6E6"/>
<path d="M185.245 136.955L207 146.019L206.32 148.172L193.799 146.756L172.611 137.352L184.395 138.711L185.245 136.955Z" fill="#3F3D56"/>
<path d="M204.475 145.611L231.532 56.8552L238.121 45.154L238.144 45.0411C238.165 44.9378 238.649 42.4921 237.459 40.7209C237.159 40.2806 236.771 39.9068 236.321 39.6229C235.87 39.3389 235.365 39.1509 234.839 39.0704C231.202 38.3886 223.067 38.0526 222.722 38.0386L222.657 38.036L222.593 38.0448C222.371 38.0751 217.171 38.8351 215.996 43.3752L210.34 53.67L210.317 53.7433L184.71 137.93L186.119 138.359L211.704 54.2452L217.38 43.9157L217.403 43.8208C218.234 40.4042 222.207 39.6049 222.736 39.5135C223.567 39.549 231.213 39.8892 234.567 40.5182C234.9 40.5636 235.22 40.6776 235.507 40.8531C235.794 41.0285 236.041 41.2616 236.233 41.5375C236.966 42.6235 236.783 44.2223 236.718 44.6426L230.17 56.2722L230.146 56.3489L203.066 145.181L204.475 145.611Z" fill="#3F3D56"/>
<path d="M208.431 62.182L208.169 63.6315L227.71 67.1609L227.972 65.7113L208.431 62.182Z" fill="#3F3D56"/>
<path d="M204.781 74.2369L204.487 75.6801L223.889 79.6399L224.183 78.1966L204.781 74.2369Z" fill="#3F3D56"/>
<path d="M198.283 95.7964L197.877 97.2125L216.82 102.633L217.225 101.216L198.283 95.7964Z" fill="#3F3D56"/>
<path d="M211.093 137.584L211.63 136.212L193.244 129.013L192.342 119.238L209.502 125.647L215.061 133.691L216.273 132.854L210.451 124.429L190.659 117.036L191.861 130.054L211.093 137.584Z" fill="#3F3D56"/>
<path d="M217.48 149.475C222.987 149.475 227.451 145.011 227.451 139.504C227.451 133.998 222.987 129.533 217.48 129.533C211.973 129.533 207.509 133.998 207.509 139.504C207.509 145.011 211.973 149.475 217.48 149.475Z" fill="#3F3D56"/>
<path d="M220.086 144.377C222.527 144.377 224.505 142.398 224.505 139.958C224.505 137.517 222.527 135.539 220.086 135.539C217.646 135.539 215.667 137.517 215.667 139.958C215.667 142.398 217.646 144.377 220.086 144.377Z" fill="#E6E6E6"/>
</svg>
