<svg width="233" height="180" viewBox="0 0 233 180" fill="none" xmlns="http://www.w3.org/2000/svg">
<g clip-path="url(#clip0_343_19691)">
<path d="M178.04 163.848C184.879 163.848 190.423 152.535 190.423 138.58C190.423 124.625 184.879 113.312 178.04 113.312C171.2 113.312 165.656 124.625 165.656 138.58C165.656 152.535 171.2 163.848 178.04 163.848Z" fill="#3F3D56"/>
<path d="M176.896 179.94C181.856 150.182 176.946 120.532 176.896 120.236L175.931 120.399C175.981 120.694 180.863 150.188 175.931 179.78L176.896 179.94Z" fill="#CACACA"/>
<path d="M167.136 133.147L166.675 134.01L177.873 140L178.335 139.137L167.136 133.147Z" fill="#CACACA"/>
<path d="M189.692 136.147L178.495 142.141L178.957 143.003L190.154 137.01L189.692 136.147Z" fill="#CACACA"/>
<path d="M207.794 148.011C221.171 148.011 232.015 125.885 232.015 98.5904C232.015 71.2959 221.171 49.1694 207.794 49.1694C194.417 49.1694 183.573 71.2959 183.573 98.5904C183.573 125.885 194.417 148.011 207.794 148.011Z" fill="#E6E6E6"/>
<path d="M205.096 179.408C214.784 121.281 205.194 63.3668 205.096 62.7886L204.131 62.952C204.229 63.5288 213.791 121.288 204.131 179.247L205.096 179.408Z" fill="#CACACA"/>
<path d="M186.249 88.3758L185.787 89.2388L207.69 100.954L208.152 100.091L186.249 88.3758Z" fill="#CACACA"/>
<path d="M230.806 94.2447L208.906 105.966L209.368 106.829L231.267 95.1076L230.806 94.2447Z" fill="#CACACA"/>
<path d="M151.54 179.563H22.7067C22.2328 179.563 21.7786 179.374 21.4435 179.039C21.1085 178.704 20.92 178.25 20.9194 177.776V96.3683C20.92 95.8945 21.1084 95.4402 21.4435 95.1051C21.7786 94.7701 22.2328 94.5816 22.7067 94.5811H151.54C152.014 94.5816 152.469 94.7701 152.804 95.1051C153.139 95.4402 153.327 95.8945 153.328 96.3683V177.776C153.327 178.25 153.139 178.704 152.804 179.039C152.469 179.374 152.014 179.563 151.54 179.563Z" fill="#E4E4E4"/>
<path d="M34.5545 104.446C34.3515 104.446 34.1568 104.527 34.0132 104.67C33.8696 104.814 33.7888 105.009 33.7886 105.212V168.932C33.7888 169.136 33.8696 169.33 34.0132 169.474C34.1568 169.617 34.3515 169.698 34.5545 169.698H139.692C139.895 169.698 140.09 169.617 140.234 169.474C140.377 169.33 140.458 169.136 140.458 168.932V105.212C140.458 105.009 140.377 104.814 140.234 104.67C140.09 104.527 139.895 104.446 139.692 104.446H34.5545Z" fill="white"/>
<path d="M140.714 120.858V116.82H125.845V104.19H121.808V116.82H95.3371V104.19H91.2993V116.82H50.4721V104.19H46.4342V116.82H32.3164V120.858H46.4342V136.561H32.3164V140.598H46.4342V157.423H32.3164V161.461H68.1938V169.954H72.2317V161.461H91.2993V169.954H95.3371V161.461H140.714V157.423H95.3371V140.598H140.714V136.561H125.845V120.858H140.714ZM91.2993 120.858V125.793H50.4721V120.858H91.2993ZM50.4721 129.831H91.2993V136.561H50.4721V129.831ZM50.4721 157.423V140.598H68.1938V157.423H50.4721ZM91.2993 157.423H72.2317V140.598H91.2993V157.423ZM121.808 136.561H95.3371V120.858H121.808V136.561Z" fill="#E6E6E6"/>
<path d="M93.3182 144.25C96.1677 144.25 98.4776 141.94 98.4776 139.09C98.4776 136.241 96.1677 133.931 93.3182 133.931C90.4687 133.931 88.1587 136.241 88.1587 139.09C88.1587 141.94 90.4687 144.25 93.3182 144.25Z" fill="#008375"/>
<path d="M232.473 180H0V179.443H232.574L232.473 180Z" fill="#CACACA"/>
<path d="M93.9365 108.44C111.514 108.44 125.764 94.1908 125.764 76.6132C125.764 59.0356 111.514 44.7861 93.9365 44.7861C76.3588 44.7861 62.1094 59.0356 62.1094 76.6132C62.1094 94.1908 76.3588 108.44 93.9365 108.44Z" fill="#008375"/>
<path d="M94.2478 128.352L84.1927 111.175L74.1377 93.9988L94.0404 93.879L113.943 93.7593L104.095 111.055L94.2478 128.352Z" fill="#008375"/>
<path d="M94.192 87.8323C100.499 87.8323 105.611 82.7198 105.611 76.4132C105.611 70.1066 100.499 64.9941 94.192 64.9941C87.8854 64.9941 82.7729 70.1066 82.7729 76.4132C82.7729 82.7198 87.8854 87.8323 94.192 87.8323Z" fill="white"/>
<path d="M93.2004 0.163539C93.2004 0.163539 86.39 -1.75487 84.3757 7.54938C82.3614 16.8536 83.6408 15.6813 83.6408 15.6813L98.8441 13.9068C98.8441 13.9068 103.416 2.99318 93.2004 0.163539Z" fill="#2F2E41"/>
<path d="M83.296 40.9814C83.296 40.9814 73.0215 41.457 74.8008 45.4901C74.9266 45.7752 75.0437 46.0423 75.1521 46.2914C76.4239 49.2126 77.8879 52.0463 79.5344 54.7739L85.8492 65.2369L88.1471 63.9603L81.6806 47.1508L87.493 46.6763L83.296 40.9814Z" fill="#FFB6B6"/>
<path d="M110.387 45.2528L113.708 52.4885C113.708 52.4885 116.199 54.9795 118.927 64.9435C121.655 74.9074 122.248 74.5516 122.248 74.5516L119.552 75.4497L108.489 55.3354L103.032 48.4555L104.693 44.7783L110.387 45.2528Z" fill="#FFB6B6"/>
<path d="M106.354 36.9494L111.126 45.8324C111.126 45.8324 121.947 67.0947 120.828 67.024C119.571 66.9447 116.04 68.41 114.956 69.8326C114.433 70.5192 106.786 53.7474 104.1 49.9975L98.2876 45.49C98.2876 45.49 81.7846 48.2676 81.7644 47.3644C81.7545 46.9219 87.2282 57.5369 86.1049 57.0665C84.8252 56.5307 81.8148 59.1381 80.4878 58.5985C79.9403 58.3758 76.0714 48.9955 74.5052 45.1517C74.3088 44.6719 74.2986 44.136 74.4766 43.649C74.6546 43.1621 75.0081 42.7591 75.4677 42.5192C76.6447 41.9071 92.9985 38.1728 92.9985 38.1728L92.7125 36.7122L93.8987 34.3398L106.354 36.9494Z" fill="#2F2E41"/>
<path d="M96.5667 10.7638C96.9759 8.24182 95.2632 5.86562 92.7413 5.45637C90.2193 5.04712 87.8431 6.7598 87.4339 9.28175C87.0246 11.8037 88.7373 14.1799 91.2593 14.5892C93.7812 14.9984 96.1574 13.2857 96.5667 10.7638Z" fill="#FFB6B6"/>
<path d="M106.786 37.6624C107.041 38.4288 105.387 38.869 103.081 38.4384C101.086 38.0659 98.902 37.6235 97.1797 37.2652C95.3351 36.8809 94.0173 36.5939 94.0173 36.5939C94.0173 36.5939 93.5428 39.5593 92.0008 39.2035C90.6723 38.8974 86.7021 25.0297 85.6286 21.1972C85.5501 20.9173 85.5653 20.6195 85.6717 20.3491C85.7781 20.0786 85.97 19.8503 86.2181 19.699L91.671 16.3694C91.671 16.3694 95.4288 15.0788 96.7989 15.042C98.1689 15.0053 100.541 14.6494 100.541 14.6494C100.541 14.6494 103.27 14.8867 103.744 16.9032C104.219 18.9197 106.198 30.8758 106.235 33.747C106.275 36.8965 106.02 35.3645 106.786 37.6624Z" fill="#CACACA"/>
<path d="M93.7301 4.08081C93.7301 4.08081 91.8117 9.16458 87.1116 11.2748L86.3442 6.76657L93.7301 4.08081Z" fill="#2F2E41"/>
<path d="M96.5084 9.48952C96.8687 9.48952 97.1608 8.9319 97.1608 8.24403C97.1608 7.55616 96.8687 6.99854 96.5084 6.99854C96.148 6.99854 95.856 7.55616 95.856 8.24403C95.856 8.9319 96.148 9.48952 96.5084 9.48952Z" fill="#FFB6B6"/>
<path d="M90.0593 66.4232L80.889 70.6392L80.8357 70.5232C80.4005 69.5765 80.3592 68.4958 80.7208 67.5187C81.0824 66.5416 81.8173 65.7481 82.7639 65.3128L82.7641 65.3127L88.365 62.7378L90.0593 66.4232Z" fill="#2F2E41"/>
<path d="M118.185 74.8458L123.81 72.3242L123.81 72.324C124.761 71.8979 125.842 71.867 126.815 72.2379C127.789 72.6088 128.575 73.3513 129.002 74.302L129.054 74.4185L119.844 78.5471L118.185 74.8458Z" fill="#2F2E41"/>
<path opacity="0.2" d="M102.956 26.6836L101.882 38.495L103.791 38.5851L102.956 26.6836Z" fill="black"/>
<path d="M95.4701 48.7491C95.6976 48.4951 95.8667 48.1943 95.9654 47.8678C96.0641 47.5414 96.09 47.1974 96.0413 46.8598C95.9927 46.5223 95.8706 46.1996 95.6837 45.9143C95.4968 45.6291 95.2497 45.3883 94.9596 45.2089L90.834 24.3682L86.0962 26.1807L91.6414 46.0966C91.3723 46.6038 91.2986 47.192 91.4343 47.7499C91.57 48.3078 91.9056 48.7965 92.3776 49.1234C92.8495 49.4504 93.425 49.5929 93.995 49.5239C94.5649 49.4549 95.0898 49.1792 95.4701 48.7491Z" fill="#FFB6B6"/>
<path d="M91.8777 27.8803L86.6755 28.7966C86.5274 28.8227 86.3755 28.8166 86.2301 28.7786C86.0847 28.7407 85.9491 28.6719 85.8327 28.5768C85.7162 28.4818 85.6217 28.3628 85.5554 28.2279C85.4891 28.093 85.4526 27.9454 85.4485 27.7952L85.305 22.5308C85.1758 21.7727 85.3525 20.9943 85.7964 20.3663C86.2403 19.7383 86.9151 19.3119 87.6729 19.1808C88.4306 19.0496 89.2095 19.2243 89.8387 19.6665C90.4678 20.1087 90.8959 20.7824 91.0291 21.5399L92.6886 26.52C92.7361 26.6626 92.7523 26.8137 92.7361 26.9631C92.7199 27.1126 92.6716 27.2567 92.5947 27.3858C92.5177 27.5149 92.4138 27.6259 92.2901 27.7113C92.1664 27.7966 92.0257 27.8543 91.8777 27.8803H91.8777Z" fill="#CACACA"/>
<path d="M99.4586 48.3823C99.7555 48.2147 100.012 47.984 100.21 47.7065C100.408 47.4289 100.543 47.1113 100.605 46.776C100.668 46.4407 100.655 46.0959 100.57 45.7658C100.484 45.4357 100.327 45.1284 100.11 44.8655L102.885 23.8022L97.8164 23.9999L96.6825 44.6422C96.2651 45.0363 96.0067 45.5699 95.9563 46.1418C95.9059 46.7137 96.0671 47.2842 96.4093 47.7453C96.7515 48.2063 97.2509 48.5258 97.8129 48.6432C98.3749 48.7606 98.9604 48.6678 99.4586 48.3823Z" fill="#FFB6B6"/>
<path d="M102.748 27.4636L97.5266 26.6634C97.378 26.6406 97.2361 26.5861 97.1105 26.5035C96.9849 26.4209 96.8786 26.3123 96.7988 26.1849C96.719 26.0576 96.6676 25.9145 96.648 25.7655C96.6285 25.6165 96.6413 25.465 96.6856 25.3214L98.2377 20.2889C98.3584 19.5294 98.7754 18.8488 99.3972 18.3963C100.019 17.9439 100.795 17.7564 101.555 17.8752C102.315 17.9939 102.996 18.4091 103.45 19.0297C103.905 19.6503 104.094 20.4257 103.977 21.1858L103.952 26.4351C103.952 26.5854 103.918 26.7338 103.855 26.8701C103.792 27.0064 103.7 27.1275 103.586 27.2251C103.471 27.3227 103.337 27.3946 103.193 27.4357C103.048 27.4769 102.897 27.4864 102.748 27.4636Z" fill="#CACACA"/>
</g>
<defs>
<clipPath id="clip0_343_19691">
<rect width="232.574" height="180" fill="white"/>
</clipPath>
</defs>
</svg>
