<svg width="40" height="40" viewBox="0 0 40 40" fill="none" xmlns="http://www.w3.org/2000/svg">
<path d="M4.64453 18.8784C4.64453 19.5313 5.14676 20.0963 5.95033 20.0963C6.33956 20.0963 6.69113 19.8829 7.00502 19.6317L8.43638 18.4264V30.1033C8.43638 31.9615 9.55385 33.0665 11.4749 33.0665H28.4629C30.3714 33.0665 31.5014 31.9615 31.5014 30.1033V18.3636L33.0081 19.6317C33.3094 19.8829 33.661 20.0963 34.0502 20.0963C34.791 20.0963 35.356 19.6317 35.356 18.9035C35.356 18.4766 35.1928 18.1376 34.8663 17.8614L31.5014 15.0238V9.675C31.5014 9.10999 31.1373 8.75842 30.5723 8.75842H28.8396C28.2871 8.75842 27.9104 9.10999 27.9104 9.675V12.0104L21.7958 6.87505C20.7034 5.95848 19.3223 5.95848 18.2299 6.87505L5.14676 17.8614C4.80776 18.1376 4.64453 18.5143 4.64453 18.8784ZM23.6164 22.3438C23.6164 21.7537 23.2397 21.377 22.6496 21.377H17.3761C16.786 21.377 16.3968 21.7537 16.3968 22.3438V30.5679H12.1403C11.3619 30.5679 10.935 30.1284 10.935 29.3374V16.3296L19.4604 9.17276C19.8119 8.87143 20.2137 8.87143 20.5653 9.17276L28.9902 16.2542V29.3374C28.9902 30.1284 28.5633 30.5679 27.7849 30.5679H23.6164V22.3438Z" fill="#008375"/>
</svg>
