<svg width="32" height="32" viewBox="0 0 32 32" fill="none" xmlns="http://www.w3.org/2000/svg">
<circle cx="16" cy="16" r="16" fill="#E9C46A"/>
<path d="M7.90918 11.9601C7.90918 17.6403 11.3294 21.377 16.5652 21.377C18.5465 21.377 20.2114 20.6839 21.3339 19.5237C21.7407 20.3599 21.9365 21.3166 22.2831 22.409C22.4036 22.7932 22.6748 22.959 22.9837 22.959C23.5939 22.959 24.0911 22.394 24.0911 21.716C24.0911 20.7968 23.172 19.2675 22.3282 18.0698C22.6672 17.3465 22.8481 16.5254 22.8481 15.6364C22.8481 12.4045 20.2189 10.0692 16.5953 10.0692C15.3522 10.0692 14.1092 10.4157 12.7457 10.4157C11.6006 10.4157 10.6363 10.0692 9.83022 9.15761C9.32547 8.57 8.36872 8.57753 8.14272 9.51169C7.95438 10.25 7.90918 11.5457 7.90918 11.9601ZM12.3313 13.7907C12.7909 15.1994 14.2223 15.8474 16.0529 16.2843C18.4937 16.8568 19.6163 17.3314 20.5504 18.371C19.6841 19.4107 18.2828 20.0284 16.5652 20.0284C12.0903 20.0284 9.25767 16.8945 9.25767 11.9601C9.25767 11.5382 9.26521 11.0636 9.31794 10.717C9.33301 10.604 9.39327 10.589 9.47614 10.6568C10.3124 11.3649 11.578 11.7642 12.7457 11.7642C13.5668 11.7642 14.3126 11.6587 14.9756 11.5683C15.5707 11.4855 16.0981 11.4177 16.5953 11.4177C19.4731 11.4177 21.4996 13.173 21.4996 15.6364C21.4996 16.0884 21.4318 16.5254 21.3188 16.9246C20.2565 16.0432 18.6971 15.5008 16.4823 15.1543C14.9605 14.9057 13.7326 14.5365 12.919 13.4894C12.6402 13.1353 12.2033 13.3764 12.3313 13.7907Z" fill="white"/>
</svg>
