<svg width="48" height="48" viewBox="0 0 48 48" fill="none" xmlns="http://www.w3.org/2000/svg">
<rect width="48" height="48" rx="12" fill="#008375"/>
<path d="M34.2058 28.6574C34.2058 26.0759 31.9357 24.5792 27.9078 23.3538C27.8977 23.2031 27.8877 23.0625 27.8576 22.9219H31.9457C33.8743 22.9219 34.9491 21.8873 34.9491 20.019C34.9491 16.7444 31.9859 13.3996 29.0428 13.3996C26.4714 13.3996 24.9647 15.6696 23.7393 19.6875C23.5986 19.6975 23.458 19.7176 23.3174 19.7377V15.6496C23.3174 13.731 22.2727 12.6562 20.4145 12.6562C17.1299 12.6663 13.7951 15.6194 13.7951 18.5525C13.7951 21.1339 16.0551 22.6406 20.083 23.8661C20.0931 24.0067 20.1131 24.1473 20.1332 24.2779H16.0451C14.1165 24.2779 13.0518 25.3225 13.0518 27.1908C13.0518 30.4654 16.0049 33.8203 18.9379 33.8203C21.5194 33.8203 23.0261 31.5402 24.2515 27.5123C24.3922 27.5022 24.5428 27.4821 24.6835 27.4621V31.5603C24.6835 33.4788 25.7181 34.5536 27.5763 34.5536C30.8509 34.5536 34.2058 31.6004 34.2058 28.6574ZM15.583 18.5525C15.583 16.5938 18.1143 14.4542 20.3944 14.4542C21.2281 14.4542 21.5194 14.7556 21.5194 15.6496V20.5714C21.0473 20.9531 20.6656 21.4554 20.4145 22.0179C17.2504 21.0536 15.583 20.1496 15.583 18.5525ZM29.0428 15.1875C31.0015 15.1875 33.1511 17.7288 33.1511 20.0089C33.1511 20.8426 32.8397 21.1239 31.9457 21.1239H27.0239C26.6422 20.6518 26.1399 20.2701 25.5774 20.019C26.5518 16.865 27.4558 15.1875 29.0428 15.1875ZM23.9904 25.7444C22.8152 25.7444 21.8509 24.7902 21.8509 23.6049C21.8509 22.4196 22.8152 21.4453 23.9904 21.4453C25.1756 21.4453 26.15 22.4196 26.15 23.6049C26.15 24.7902 25.1756 25.7444 23.9904 25.7444ZM23.9904 24.9911C24.7638 24.9911 25.3866 24.3783 25.3866 23.6049C25.3866 22.8315 24.7638 22.1987 23.9904 22.1987C23.2169 22.1987 22.5942 22.8214 22.5942 23.6049C22.5942 24.3884 23.2169 24.9911 23.9904 24.9911ZM26.4714 31.5603L26.4814 26.6384C26.9535 26.2467 27.3352 25.7545 27.5864 25.192C30.7404 26.1563 32.4078 27.0703 32.4078 28.6574C32.4078 30.6161 29.8765 32.7656 27.5964 32.7556C26.7527 32.7556 26.4714 32.4542 26.4714 31.5603ZM14.8497 27.2009C14.8497 26.3672 15.1511 26.0759 16.0451 26.0759L20.9569 26.0859C21.3486 26.558 21.8408 26.9397 22.4134 27.1908C21.439 30.3449 20.535 32.0123 18.9379 32.0123C16.9893 32.0123 14.8497 29.481 14.8497 27.2009Z" fill="white"/>
</svg>
