<svg width="180" height="178" viewBox="0 0 180 178" fill="none" xmlns="http://www.w3.org/2000/svg">
<path d="M81.1321 93.9542C81.1321 93.9542 83.8572 85.1427 84.4809 83.0563C84.4809 83.0563 73.0896 27.1477 29.7759 25.0551C29.7759 25.0551 6.38585 22.9887 1.31009 43.139C-2.86147 59.6862 2.75906 78.246 20.62 91.3643C20.62 91.3643 37.7333 106.034 77.2511 106.034L78.8917 101.106C78.8917 101.106 25.7421 99.5597 17.0471 67.4771C13.0847 52.8496 20.7052 41.8415 34.0164 42.2473C40.9944 42.4552 50.0464 43.3982 60.1779 54.7582C70.3319 66.1421 75.8673 75.3731 81.1321 93.9542Z" fill="#008375"/>
<path d="M104.63 101.105C104.63 101.105 103.959 103.578 103.065 106.033C103.065 106.033 131.814 107.191 151.016 98.7043C167.842 91.2716 185.479 68.8434 178.391 44.6781C175.964 36.3963 165.666 22.5153 146.911 25.2529C136.709 26.7395 108.553 32.1559 95.3328 75.4432C83.9464 112.727 85.9564 108.266 77.2489 134.61C70.7968 154.141 57.8099 165.801 45.3253 161.403C39.1312 159.223 33.3717 148.53 44.5125 134.677C52.7718 124.406 60.6114 119.201 73.5595 116.077L74.9809 112.771C74.9809 112.771 50.649 113.247 36.4186 128.653C36.4186 128.653 19.9503 142.494 25.0849 162.141C25.0849 162.141 27.0949 173.754 39.82 176.655C39.82 176.655 63.9352 182.237 76.8832 159.241C76.8832 159.241 84.8456 143.987 90.0341 123.889C94.6114 106.162 94.942 103.518 105.94 73.0588C114.375 49.6875 131.224 40.1671 147.802 42.886C160.691 45.0037 168.769 60.2961 161.078 77.2178C156.36 87.5922 141.916 99.0725 104.63 101.105Z" fill="#008375"/>
<path d="M100.939 116.076L101.944 112.73C101.944 112.73 116.547 112.906 129.943 118.266C143.856 123.829 164.139 143.249 153.087 165.353C150.11 171.301 140.775 182.722 119.858 174.569C109.071 170.366 96.4908 156.263 95.0944 138.079C95.0944 138.079 96.1727 133.816 98.6674 123.668C98.6674 123.668 103.059 161.499 128.381 162.528C139.042 162.965 144.143 152.197 140.884 142.03C136.861 129.478 126.764 121.434 100.939 116.076Z" fill="#008375"/>
<path d="M90.0001 34.4708C83.0909 34.4708 77.0083 30.844 77.0083 23.2861C77.0083 12.3519 86.1542 0 90.0001 0C93.8473 0 102.992 12.3519 102.992 23.2861C102.992 30.844 96.9093 34.4708 90.0001 34.4708Z" fill="#008375"/>
</svg>
