<svg width="40" height="40" viewBox="0 0 40 40" fill="none" xmlns="http://www.w3.org/2000/svg">
<path d="M19.9876 32.4888C27.1067 32.4888 32.9828 26.6127 32.9828 19.5061C32.9828 12.3996 27.0942 6.52344 19.975 6.52344C12.8684 6.52344 7.00488 12.3996 7.00488 19.5061C7.00488 26.6127 12.881 32.4888 19.9876 32.4888ZM19.9876 29.9023C14.2245 29.9023 9.61649 25.2693 9.61649 19.5061C9.61649 13.743 14.2245 9.12249 19.975 9.12249C25.7381 9.12249 30.3712 13.743 30.3838 19.5061C30.3963 25.2693 25.7507 29.9023 19.9876 29.9023ZM15.2289 20.7115H24.7337C25.487 20.7115 26.0269 20.272 26.0269 19.5438C26.0269 18.803 25.5121 18.351 24.7337 18.351H15.2289C14.463 18.351 13.9357 18.803 13.9357 19.5438C13.9357 20.272 14.4756 20.7115 15.2289 20.7115Z" fill="#E0E0E0"/>
</svg>
