<svg width="30" height="31" viewBox="0 0 30 31" fill="none" xmlns="http://www.w3.org/2000/svg">
<path d="M3.05529 9.05529V22.4147H27.7188V9.05529H3.05529ZM3.05529 7H27.7188C28.8539 7 29.7741 7.92019 29.7741 9.05529V22.4147C29.7741 23.5498 28.8539 24.47 27.7188 24.47H3.05529C1.92019 24.47 1 23.5498 1 22.4147V9.05529C1 7.92019 1.92019 7 3.05529 7ZM7.67971 13.1659C7.11215 13.1659 6.65206 12.7058 6.65206 12.1382C6.65206 11.5707 7.11215 11.1106 7.67971 11.1106H9.735C10.3026 11.1106 10.7626 11.5707 10.7626 12.1382C10.7626 12.7058 10.3026 13.1659 9.735 13.1659H7.67971ZM12.8179 13.1659C12.2504 13.1659 11.7903 12.7058 11.7903 12.1382C11.7903 11.5707 12.2504 11.1106 12.8179 11.1106H23.0944C23.662 11.1106 24.1221 11.5707 24.1221 12.1382C24.1221 12.7058 23.662 13.1659 23.0944 13.1659H12.8179ZM2.02765 16.2488V15.2212H28.7465V16.2488H2.02765Z" fill="#008375"/>
</svg>
