<svg width="32" height="32" viewBox="0 0 32 32" fill="none" xmlns="http://www.w3.org/2000/svg">
<path d="M26.2058 20.6574C26.2058 18.0759 23.9357 16.5792 19.9078 15.3538C19.8977 15.2031 19.8877 15.0625 19.8576 14.9219H23.9457C25.8743 14.9219 26.9491 13.8873 26.9491 12.019C26.9491 8.74442 23.9859 5.39955 21.0428 5.39955C18.4714 5.39955 16.9647 7.66964 15.7393 11.6875C15.5986 11.6975 15.458 11.7176 15.3174 11.7377V7.64955C15.3174 5.73103 14.2727 4.65625 12.4145 4.65625C9.12988 4.66629 5.79506 7.61942 5.79506 10.5525C5.79506 13.1339 8.05511 14.6406 12.083 15.8661C12.0931 16.0067 12.1131 16.1473 12.1332 16.2779H8.04506C6.11649 16.2779 5.05176 17.3225 5.05176 19.1908C5.05176 22.4654 8.00488 25.8203 10.9379 25.8203C13.5194 25.8203 15.0261 23.5402 16.2515 19.5123C16.3922 19.5022 16.5428 19.4821 16.6835 19.4621V23.5603C16.6835 25.4788 17.7181 26.5536 19.5763 26.5536C22.8509 26.5536 26.2058 23.6004 26.2058 20.6574ZM7.58301 10.5525C7.58301 8.59375 10.1143 6.45424 12.3944 6.45424C13.2281 6.45424 13.5194 6.75558 13.5194 7.64955V12.5714C13.0473 12.9531 12.6656 13.4554 12.4145 14.0179C9.25042 13.0536 7.58301 12.1496 7.58301 10.5525ZM21.0428 7.1875C23.0015 7.1875 25.1511 9.7288 25.1511 12.0089C25.1511 12.8426 24.8397 13.1239 23.9457 13.1239H19.0239C18.6422 12.6518 18.1399 12.2701 17.5774 12.019C18.5518 8.86496 19.4558 7.1875 21.0428 7.1875ZM15.9904 17.7444C14.8152 17.7444 13.8509 16.7902 13.8509 15.6049C13.8509 14.4196 14.8152 13.4453 15.9904 13.4453C17.1756 13.4453 18.15 14.4196 18.15 15.6049C18.15 16.7902 17.1756 17.7444 15.9904 17.7444ZM15.9904 16.9911C16.7638 16.9911 17.3866 16.3783 17.3866 15.6049C17.3866 14.8315 16.7638 14.1987 15.9904 14.1987C15.2169 14.1987 14.5942 14.8214 14.5942 15.6049C14.5942 16.3884 15.2169 16.9911 15.9904 16.9911ZM18.4714 23.5603L18.4814 18.6384C18.9535 18.2467 19.3352 17.7545 19.5864 17.192C22.7404 18.1563 24.4078 19.0703 24.4078 20.6574C24.4078 22.6161 21.8765 24.7656 19.5964 24.7556C18.7527 24.7556 18.4714 24.4542 18.4714 23.5603ZM6.84975 19.2009C6.84975 18.3672 7.15109 18.0759 8.04506 18.0759L12.9569 18.0859C13.3486 18.558 13.8408 18.9397 14.4134 19.1908C13.439 22.3449 12.535 24.0123 10.9379 24.0123C8.98926 24.0123 6.84975 21.481 6.84975 19.2009Z" fill="#CACACA"/>
</svg>
