<svg width="16" height="20" viewBox="0 0 16 20" fill="none" xmlns="http://www.w3.org/2000/svg">
<path d="M0 13.4339C0 17.6683 2.97518 20 6.91107 20C10.1599 20 12.3458 18.6333 13.6365 15.6542C14.319 14.2125 14.867 12.5826 15.4369 10.7746C15.6348 10.1667 15.8918 9.44006 15.8918 9.09523C15.8918 8.60464 15.5022 8.29434 14.9654 8.29434C14.4241 8.29434 14.0481 8.59846 13.6758 9.34069L12.2993 12.1948C12.1389 12.5585 11.9291 12.6698 11.732 12.6698C11.4738 12.6698 11.2782 12.5261 11.2782 12.1278V2.47619C11.2782 1.95868 10.8182 1.53117 10.2542 1.53117C9.69036 1.53117 9.23027 1.95868 9.23027 2.47619V9.32224C8.92936 9.2063 8.60067 9.11839 8.25453 9.05241V0.951587C8.25453 0.43409 7.7913 0 7.23059 0C6.66666 0 6.19631 0.43409 6.19631 0.951587V8.94175C5.83172 8.96377 5.4568 9.0113 5.1018 9.06777V1.86128C5.1018 1.34378 4.64177 0.916259 4.07785 0.916259C3.51393 0.916259 3.0539 1.34378 3.0539 1.86128V9.6769C2.67186 9.84103 2.34317 10.0206 2.05502 10.2067V4.78413C2.05502 4.26368 1.59499 3.83911 1.03107 3.83911C0.467148 3.83911 0 4.26368 0 4.78413V13.4339Z" fill="#636569"/>
</svg>
