<svg width="40" height="40" viewBox="0 0 40 40" fill="none" xmlns="http://www.w3.org/2000/svg">
<path d="M4.64453 18.8783C4.64453 19.5312 5.14676 20.0963 5.95033 20.0963C6.33956 20.0963 6.69113 19.8828 7.00502 19.6317L8.43638 18.4263V30.1032C8.43638 31.9615 9.55385 33.0664 11.4749 33.0664H28.4629C30.3714 33.0664 31.5014 31.9615 31.5014 30.1032V18.3636L33.0081 19.6317C33.3094 19.8828 33.661 20.0963 34.0502 20.0963C34.791 20.0963 35.356 19.6317 35.356 18.9035C35.356 18.4766 35.1928 18.1375 34.8663 17.8613L31.5014 15.0237V9.67494C31.5014 9.10992 31.1373 8.75836 30.5723 8.75836H28.8396C28.2871 8.75836 27.9104 9.10992 27.9104 9.67494V12.0103L21.7958 6.87499C20.7034 5.95842 19.3223 5.95842 18.2299 6.87499L5.14676 17.8613C4.80776 18.1375 4.64453 18.5142 4.64453 18.8783ZM23.6164 22.3437C23.6164 21.7536 23.2397 21.3769 22.6496 21.3769H17.3761C16.786 21.3769 16.3968 21.7536 16.3968 22.3437V30.5678H12.1403C11.3619 30.5678 10.935 30.1283 10.935 29.3373V16.3295L19.4604 9.1727C19.8119 8.87136 20.2137 8.87136 20.5653 9.1727L28.9902 16.2542V29.3373C28.9902 30.1283 28.5633 30.5678 27.7849 30.5678H23.6164V22.3437Z" fill="#636569"/>
</svg>
