<svg width="32" height="32" viewBox="0 0 32 32" fill="none" xmlns="http://www.w3.org/2000/svg">
<path d="M6.90911 23.6908C8.87786 23.6908 10.1837 22.9977 12.8555 21.712C13.8198 21.2499 14.5631 20.8783 15.1859 20.6071C15.9292 23.6908 18.7317 25.9609 22.1368 25.9609C26.1044 25.9609 29.2685 22.8571 29.2685 18.9799C29.2685 16.8403 28.2038 14.731 27.2897 13.0234L23.6435 6.20307C23.2919 5.5803 22.7797 5.26892 22.1368 5.26892C21.4738 5.26892 20.9616 5.5803 20.6301 6.20307L18.7718 9.66847C18.5408 9.63834 18.2997 9.6283 18.0587 9.6283C16.0698 9.6283 14.7439 10.3314 12.0721 11.6171C9.36001 12.9229 8.42586 13.4252 6.90911 13.4252C5.92474 13.4252 5.04081 13.1841 4.04639 12.5814C3.58434 12.3203 3.12228 12.481 2.88121 12.8426C2.61001 13.2544 2.66023 13.8571 3.25286 14.1986C4.29751 14.8314 5.52295 15.2232 6.90911 15.2232C8.87786 15.2232 10.1837 14.5301 12.8555 13.2444C15.427 12.0089 16.4214 11.4866 17.8276 11.4363L16.9738 13.0234C16.8031 13.3448 16.6223 13.6863 16.4515 14.0379C15.1859 14.3191 13.9705 14.9319 12.0721 15.8459C9.36001 17.1517 8.42586 17.654 6.90911 17.654C5.92474 17.654 5.04081 17.4129 4.04639 16.8203C3.58434 16.5591 3.12228 16.7098 2.88121 17.0714C2.61001 17.4933 2.65019 18.0758 3.25286 18.4274C4.29751 19.0602 5.52295 19.452 6.90911 19.452C8.87786 19.452 10.1837 18.7589 12.8555 17.4832C13.9906 16.9308 14.8142 16.529 15.4973 16.2377C15.2261 17.0412 15.0352 17.885 15.0051 18.7287C14.1714 19.0602 13.2573 19.5122 12.0721 20.0747C9.36001 21.3805 8.42586 21.8928 6.90911 21.8928C5.92474 21.8928 5.04081 21.6517 4.04639 21.0491C3.57429 20.7778 3.10219 20.9587 2.86112 21.3303C2.61001 21.7421 2.67027 22.3247 3.25286 22.6662C4.29751 23.289 5.52295 23.6908 6.90911 23.6908ZM22.1368 23.962C19.6256 23.962 17.5564 22.2645 17.0843 19.9743C17.4058 19.914 17.7171 19.8939 18.0587 19.8939C19.1435 19.8939 20.0475 20.1953 20.9817 20.7578C21.4337 21.0189 21.9058 20.8582 22.1468 20.4966C22.418 20.0848 22.3578 19.4821 21.7752 19.1406C20.6401 18.4475 19.3946 18.0959 18.0587 18.0959C17.7071 18.0959 17.3756 18.116 17.0542 18.1562C17.1848 17.3225 17.4962 16.4988 17.8879 15.6651C17.9482 15.6651 17.9984 15.6651 18.0587 15.6651C19.1435 15.6651 20.0475 15.9564 20.9817 16.5189C21.4437 16.7901 21.9158 16.6194 22.1569 16.2477C22.418 15.8359 22.3578 15.2433 21.7752 14.9017C20.8511 14.3392 19.8567 14.0078 18.7919 13.8973L19.937 11.7778C20.2886 11.9084 20.6301 12.0792 20.9817 12.2901C21.4337 12.5513 21.8957 12.3906 22.1468 12.039C22.4281 11.6272 22.3779 11.0245 21.7752 10.6729C21.4538 10.4821 21.1323 10.3113 20.7908 10.1707L22.0363 7.86044C22.0866 7.74995 22.1971 7.75999 22.2473 7.86044L25.5118 13.9676C26.4259 15.6752 27.2797 17.2823 27.2797 18.9799C27.2797 21.7622 24.9895 23.962 22.1368 23.962Z" fill="#CACACA"/>
</svg>
