<svg width="30" height="30" viewBox="0 0 30 30" fill="none" xmlns="http://www.w3.org/2000/svg">
<rect width="30" height="30" rx="7" fill="#008375"/>
<path d="M5.78662 14.3271C5.78662 14.7189 6.08796 15.0579 6.5701 15.0579C6.80364 15.0579 7.01458 14.9298 7.20292 14.7791L8.06173 14.0559V21.062C8.06173 22.177 8.73221 22.8399 9.88484 22.8399H20.0776C21.2227 22.8399 21.9007 22.177 21.9007 21.062V14.0182L22.8048 14.7791C22.9856 14.9298 23.1965 15.0579 23.43 15.0579C23.8745 15.0579 24.2135 14.7791 24.2135 14.3422C24.2135 14.086 24.1156 13.8826 23.9197 13.7169L21.9007 12.0143V8.80507C21.9007 8.46606 21.6823 8.25513 21.3433 8.25513H20.3036C19.9722 8.25513 19.7462 8.46606 19.7462 8.80507V10.2063L16.0774 7.1251C15.4219 6.57516 14.5933 6.57516 13.9378 7.1251L6.08796 13.7169C5.88456 13.8826 5.78662 14.1086 5.78662 14.3271ZM17.1697 16.4064C17.1697 16.0523 16.9437 15.8263 16.5896 15.8263H13.4256C13.0715 15.8263 12.838 16.0523 12.838 16.4064V21.3408H10.2841C9.81703 21.3408 9.5609 21.0771 9.5609 20.6025V12.7978L14.6761 8.50373C14.8871 8.32293 15.1281 8.32293 15.3391 8.50373L20.394 12.7526V20.6025C20.394 21.0771 20.1379 21.3408 19.6708 21.3408H17.1697V16.4064Z" fill="#F8F8F8"/>
</svg>
