<svg width="121" height="40" viewBox="0 0 121 40" fill="none" xmlns="http://www.w3.org/2000/svg">
<path d="M49.8898 18.4473H47.562V29.5795H49.8898V18.4473Z" fill="#636569"/>
<path d="M58.861 18.2138C58.1777 18.2138 57.4969 18.3787 56.8375 18.7043C56.3047 18.9677 55.878 19.3303 55.5646 19.7855V18.4473H53.213V29.5795H55.5646V23.5814C55.5646 22.5465 55.8538 21.7694 56.4247 21.2727C56.9996 20.7724 57.7092 20.5182 58.534 20.5182C59.2529 20.5182 59.8013 20.7571 60.2104 21.2482C60.6193 21.7389 60.8266 22.4296 60.8266 23.301V29.5795H63.1779V23.1612C63.1779 21.5986 62.8032 20.3717 62.0645 19.5139C61.3216 18.6512 60.2435 18.2138 58.861 18.2138Z" fill="#636569"/>
<path d="M72.009 18.2138C71.3254 18.2138 70.6446 18.3787 69.9855 18.7043C69.4527 18.9675 69.026 19.3303 68.7123 19.7855V18.4473H66.361V29.5795H68.7123V23.5814C68.7123 22.5465 69.002 21.7694 69.573 21.2727C70.1473 20.7724 70.8572 20.5182 71.682 20.5182C72.4009 20.5182 72.9493 20.7571 73.3584 21.2482C73.7673 21.7389 73.9746 22.4296 73.9746 23.301V29.5795H76.3256V23.1612C76.3256 21.5986 75.9509 20.3717 75.2125 19.5139C74.4693 18.6512 73.3915 18.2138 72.009 18.2138Z" fill="#636569"/>
<path d="M87.0746 26.5477C86.4065 27.2009 85.5729 27.5318 84.5962 27.5318C83.6192 27.5318 82.7856 27.2009 82.1181 26.5477C81.4512 25.8966 81.1129 25.032 81.1129 23.9782C81.1129 22.9413 81.4506 22.0967 82.1167 21.4679C82.7842 20.8379 83.6184 20.5183 84.5962 20.5183C85.5738 20.5183 86.4079 20.8379 87.076 21.4679C87.7421 22.097 88.0798 22.9416 88.0798 23.9782C88.0798 25.0317 87.7415 25.896 87.0746 26.5477ZM84.5962 18.2139C82.97 18.2139 81.5805 18.7507 80.4665 19.8093C79.3506 20.8699 78.785 22.2724 78.785 23.9782C78.785 25.6998 79.3549 27.1179 80.4781 28.1931C81.5997 29.2681 82.9853 29.8131 84.5962 29.8131C86.2068 29.8131 87.5964 29.2644 88.7264 28.1818C89.8573 27.0978 90.4308 25.6837 90.4308 23.9782C90.4308 22.2724 89.861 20.8699 88.7372 19.8093C87.6156 18.7507 86.2224 18.2139 84.5962 18.2139Z" fill="#636569"/>
<path d="M97.0668 26.4551L93.8271 18.4474H91.3397L95.9641 29.5795H98.0949V29.4762L98.1756 29.5101L102.795 18.4474H100.284L97.0668 26.4551Z" fill="#636569"/>
<path d="M113.045 23.9783C113.045 25.0612 112.704 25.9292 112.03 26.5583C111.355 27.1883 110.516 27.5079 109.538 27.5079C108.577 27.5079 107.756 27.1733 107.096 26.5137C106.436 25.8546 106.102 25.0019 106.102 23.9783C106.102 22.9561 106.432 22.1152 107.083 21.4785C107.736 20.8414 108.561 20.5184 109.538 20.5184C110.455 20.5184 111.279 20.8313 111.986 21.4483C112.689 22.0607 113.045 22.9121 113.045 23.9783ZM113.068 18.4475V19.8204C112.722 19.3598 112.247 18.9891 111.652 18.7149C110.932 18.3826 110.158 18.2137 109.351 18.2137C107.787 18.2137 106.44 18.7511 105.349 19.8102C104.257 20.8711 103.703 22.2812 103.703 24.0017C103.703 25.7067 104.257 27.1163 105.349 28.1918C106.439 29.2676 107.786 29.8132 109.351 29.8132C110.159 29.8132 110.929 29.6404 111.642 29.3001C112.234 29.0169 112.712 28.6337 113.068 28.1582V29.5794H115.396V18.4475H113.068Z" fill="#636569"/>
<path d="M18.2931 21.1841C18.2931 21.1841 18.9075 19.1973 19.0481 18.7269C19.0481 18.7269 16.4797 6.12108 6.71366 5.64923C6.71366 5.64923 1.43984 5.18332 0.29539 9.72666C-0.645184 13.4576 0.622092 17.6423 4.64925 20.6002C4.64925 20.6002 8.50784 23.9078 17.418 23.9078L17.7879 22.7967C17.7879 22.7967 5.80414 22.448 3.84365 15.2142C2.95023 11.9162 4.66845 9.43412 7.66976 9.52561C9.24313 9.57248 11.2841 9.78511 13.5685 12.3465C15.8579 14.9132 17.106 16.9946 18.2931 21.1841Z" fill="#008375"/>
<path d="M23.5912 22.7964C23.5912 22.7964 23.4399 23.3541 23.2383 23.9076C23.2383 23.9076 29.7204 24.1687 34.0499 22.2551C37.8439 20.5793 41.8205 15.5223 40.2223 10.0737C39.675 8.20638 37.3531 5.07659 33.1243 5.69385C30.8242 6.02902 24.4756 7.25027 21.4949 17.0104C18.9276 25.4168 19.3808 24.411 17.4175 30.351C15.9627 34.7545 13.0346 37.3837 10.2196 36.392C8.82302 35.9004 7.5244 33.4895 10.0364 30.3659C11.8986 28.0502 13.6662 26.8767 16.5856 26.1722L16.9061 25.4267C16.9061 25.4267 11.42 25.534 8.2114 29.0077C8.2114 29.0077 4.49824 32.1285 5.65596 36.5583C5.65596 36.5583 6.10916 39.1767 8.97832 39.831C8.97832 39.831 14.4156 41.0895 17.3351 35.9046C17.3351 35.9046 19.1304 32.4651 20.3002 27.9336C21.3323 23.9366 21.4068 23.3406 23.8866 16.4728C25.7884 11.2032 29.5874 9.05659 33.3254 9.66962C36.2315 10.1471 38.0528 13.5951 36.3188 17.4105C35.2548 19.7497 31.9982 22.3381 23.5912 22.7964Z" fill="#008375"/>
<path d="M22.759 26.1719L22.9855 25.4176C22.9855 25.4176 26.2782 25.4572 29.2987 26.6657C32.4356 27.92 37.0088 32.2987 34.5169 37.2826C33.8457 38.6238 31.7409 41.1987 27.0248 39.3605C24.5924 38.4129 21.756 35.2331 21.4412 31.1331C21.4412 31.1331 21.6843 30.1719 22.2468 27.8839C22.2468 27.8839 23.2371 36.4137 28.9463 36.6455C31.3501 36.7441 32.5002 34.3163 31.7655 32.024C30.8585 29.1938 28.5818 27.3801 22.759 26.1719Z" fill="#008375"/>
<path d="M20.2926 7.77223C18.7347 7.77223 17.3633 6.95449 17.3633 5.25039C17.3633 2.78501 19.4254 0 20.2926 0C21.16 0 23.2219 2.78501 23.2219 5.25039C23.2219 6.95449 21.8504 7.77223 20.2926 7.77223Z" fill="#008375"/>
</svg>
