<svg width="203" height="140" viewBox="0 0 203 140" fill="none" xmlns="http://www.w3.org/2000/svg">
<path d="M183.357 139.202H140.422V137.973C140.422 136.907 140.876 135.884 141.685 135.13C142.494 134.376 143.591 133.952 144.735 133.952H179.044C180.188 133.952 181.285 134.376 182.094 135.13C182.902 135.884 183.357 136.907 183.357 137.973V139.202Z" fill="#E6E6E6"/>
<path d="M160.885 134.197L162.19 133.707C148.529 102.091 149.845 62.205 161.393 27.9898C162.765 24.0255 162.864 19.7737 161.678 15.7577C160.492 11.7416 158.072 8.13641 154.717 5.38562C148.014 -0.191357 138.773 -1.54996 130.598 1.83965C122.53 5.186 121.417 11.0148 121.417 16.8153H122.825C122.825 10.6236 124.244 5.91128 131.171 3.03884C138.832 -0.137846 147.495 1.13632 153.78 6.365C156.931 8.94858 159.204 12.3347 160.318 16.1067C161.432 19.8788 161.339 23.8722 160.05 27.5956C148.369 62.2059 147.13 102.366 160.885 134.197Z" fill="#E6E6E6"/>
<path d="M122.473 36.1741C125.195 36.1741 127.4 34.1174 127.4 31.5805C127.4 29.0435 125.195 26.9869 122.473 26.9869C119.752 26.9869 117.546 29.0435 117.546 31.5805C117.546 34.1174 119.752 36.1741 122.473 36.1741Z" fill="#E6E6E6"/>
<path d="M114.885 39.5883V30.8846H116.337V39.5883C116.753 39.7454 117.098 40.0325 117.312 40.4006C117.527 40.7687 117.597 41.1948 117.511 41.6058C117.425 42.0169 117.189 42.3873 116.842 42.6536C116.496 42.92 116.06 43.0656 115.611 43.0656C115.162 43.0656 114.727 42.92 114.38 42.6536C114.034 42.3873 113.797 42.0169 113.711 41.6058C113.626 41.1948 113.696 40.7687 113.91 40.4006C114.124 40.0325 114.469 39.7454 114.885 39.5883Z" fill="#E6E6E6"/>
<path d="M107.868 24.1978C107.871 22.197 108.724 20.2788 110.242 18.8641C111.759 17.4493 113.817 16.6535 115.963 16.6512H129.336C131.483 16.6512 133.541 17.4463 135.059 18.8615C136.577 20.2768 137.43 22.1963 137.43 24.1978C137.43 26.1993 136.577 28.1188 135.059 29.5341C133.541 30.9493 131.483 31.7444 129.336 31.7444H115.963C113.817 31.7422 111.759 30.9463 110.242 29.5316C108.724 28.1168 107.871 26.1986 107.868 24.1978Z" fill="#008375"/>
<path d="M89.0259 70.9314C90.3686 54.9153 97.2338 47.2844 92.8379 42.499C88.6271 37.9151 76.7662 38.862 69.149 43.2606C48.6034 55.1244 41.0763 102.409 67.5153 125.511C92.639 147.464 140.253 140.433 150.835 122.465C153.304 118.273 155.265 110.923 151.652 106.472C142.68 95.4212 110.063 115.437 95.5607 102.918C86.9663 95.4985 88.289 79.721 89.0259 70.9314Z" fill="#3F3D56"/>
<path d="M104.731 62.9744C104.232 63.1885 103.842 63.5756 103.645 64.0534C103.447 64.5313 103.457 65.0621 103.673 65.533C103.719 65.6281 103.772 65.7195 103.834 65.8063L99.4243 71.296L101.625 74.3623L106.794 66.2332C107.16 65.9669 107.421 65.5951 107.537 65.1758C107.653 64.7565 107.616 64.3132 107.434 63.9152C107.327 63.6897 107.174 63.4859 106.983 63.3155C106.792 63.1451 106.567 63.0114 106.321 62.922C106.075 62.8327 105.812 62.7894 105.548 62.7947C105.284 62.8001 105.023 62.8539 104.781 62.9531C104.764 62.96 104.748 62.9671 104.731 62.9744Z" fill="#FFB6B6"/>
<path d="M104.727 72.4395C105.016 72.6781 104.215 72.9726 103.369 72.508C103.126 72.3735 103.023 72.3176 102.996 72.3532C102.928 72.442 103.325 73.097 103.219 74.5516C103.154 75.4198 101.607 77.0521 99.8507 78.6438C97.4764 80.7966 94.7154 82.8732 94.7154 82.8732L93.7461 82.1496L83.5816 74.5516L81.8662 72.3379C82.0233 71.4638 82.2592 70.6035 82.5714 69.7663C83.0015 68.6075 83.5127 67.4762 84.1017 66.3798C84.4175 65.7832 84.7416 65.2146 85.052 64.6917L90.4977 70.2867L95.0612 74.973C95.0612 74.973 96.39 72.9777 97.4192 72.4344C97.5505 72.3563 97.6998 72.3084 97.8549 72.2948C98.895 72.2491 98.9576 71.7211 97.7514 70.5711C96.5452 69.4211 98.0672 70.4949 99.14 70.1852C100.213 69.8755 99.1401 70.1852 99.3661 69.4109C99.5921 68.6366 102.601 67.083 102.601 67.083L102.726 67.1871L105 69.0581L105.65 69.5937C105.65 69.5937 104.94 71.4114 104.744 71.7947C104.548 72.178 104.441 72.1983 104.727 72.4395Z" fill="#008375"/>
<path d="M164.663 107.705L164.773 104.905L153.242 103.174L153.078 107.306L164.663 107.705Z" fill="#FFB6B6"/>
<path d="M162.569 108.548L162.46 104.064L164.516 104.135L167.835 99.9904C167.998 99.7857 168.228 99.6352 168.49 99.5608C168.753 99.4865 169.033 99.4922 169.292 99.5772C169.55 99.6621 169.773 99.8219 169.927 100.033C170.081 100.244 170.159 100.496 170.148 100.751L169.938 106.077L167.868 106.925L169.887 107.354L169.808 109.362L162.569 108.548Z" fill="#2F2E41"/>
<path d="M99.7603 108.795L136.286 109.658C136.286 109.658 152.058 110.508 155.759 108.263L159.662 107.804L159.873 102.459C159.873 102.459 157.487 102.476 156.115 101.88C154.743 101.284 155.696 100.555 154.388 101.272C153.08 101.989 153.218 102.075 152.207 101.745C151.195 101.416 104.815 94.8249 104.815 94.8249L99.7603 108.795Z" fill="#2F2E41"/>
<path d="M147.891 106.476L150.015 104.493L142.824 95.9119L139.689 98.838L147.891 106.476Z" fill="#FFB6B6"/>
<path d="M145.742 104.751L148.932 101.395L150.388 102.75L155.844 101.816C156.114 101.77 156.392 101.806 156.638 101.917C156.885 102.029 157.086 102.211 157.214 102.437C157.341 102.664 157.388 102.922 157.347 103.174C157.306 103.427 157.179 103.661 156.985 103.841L152.946 107.612L150.81 106.921L151.978 108.516L150.454 109.938L145.742 104.751Z" fill="#2F2E41"/>
<path d="M85.3501 90.1449L85.7132 98.0145C86.1407 107.279 97.0837 112.886 105.569 108.049C105.726 107.96 105.882 107.867 106.04 107.772C106.04 107.772 109.257 106.966 109.159 105.691C109.061 104.415 109.847 103.794 110.543 104.142C111.238 104.49 120.344 92.4417 120.344 92.4417C120.344 92.4417 139.263 101.24 143.437 103.311C143.437 103.311 147.361 97.5912 147.076 97.6511C146.792 97.7111 123.671 82.6239 123.671 82.6239C123.671 82.6239 119.905 79.0698 115.232 81.4164C115.135 81.7611 115.218 81.7731 115.218 81.7731L99.7838 93.4986L97.603 89.6372L85.3501 90.1449Z" fill="#2F2E41"/>
<path d="M99.9025 80.3066C99.8732 80.6702 99.8177 81.0315 99.7364 81.3881C99.6252 81.9043 99.446 82.4056 99.2028 82.8808C99.2028 82.8808 99.2027 83.4114 98.1136 85.1884C97.0245 86.9654 98.3859 86.2038 99.2028 87.5239C100.02 88.8414 99.2027 88.2347 98.296 89.0826C98.035 89.3294 97.8496 89.6368 97.7591 89.973C97.6686 90.3091 97.6763 90.6617 97.7814 90.9942C97.7814 90.9942 86.084 91.0018 83.9057 90.2402C81.7274 89.4786 81.2318 85.1884 83.1841 84.7644C85.1337 84.3405 82.5933 83.9191 81.447 82.9417C80.3006 81.9643 82.5933 80.365 82.5933 80.365C82.5933 80.365 81.6484 78.8444 81.7274 73.7393C81.7385 73.2697 81.785 72.8015 81.8663 72.338C82.0233 71.4638 82.2592 70.6035 82.5715 69.7663C83.0016 68.6075 83.5128 67.4763 84.1017 66.3798C84.4176 65.7833 84.7416 65.2146 85.052 64.6917C85.101 64.6104 85.1473 64.5317 85.1963 64.453C85.7872 63.4782 86.3263 62.6811 86.683 62.1708C86.958 61.7748 87.1241 61.5514 87.1241 61.5514L89.1064 58.3375L95.7229 61.229L95.3471 65.9584L96.488 69.5252L97.0135 71.1677L97.4192 72.4344L98.0455 74.3968C98.0455 74.3968 97.874 74.4044 98.0782 74.6658C99.0187 75.8316 99.6284 77.1999 99.8507 78.6438C99.9292 79.195 99.9465 79.7522 99.9025 80.3066Z" fill="#008375"/>
<path d="M119.01 80.8163L118.886 80.7789L103.05 76.0243L108.885 58.1749C109.002 57.8195 109.203 57.4933 109.474 57.2209C109.745 56.9485 110.079 56.7371 110.45 56.6025C110.822 56.4679 111.221 56.4136 111.619 56.4439C112.016 56.4741 112.4 56.588 112.744 56.777L122.864 62.3516C123.665 62.7923 124.274 63.4816 124.586 64.2988C124.897 65.116 124.89 66.0092 124.567 66.8224L119.01 80.8163Z" fill="#2F2E41"/>
<path d="M119.075 81.9511L103.111 77.1583L108.946 59.3089C109.063 58.9535 109.264 58.6273 109.535 58.3549C109.806 58.0825 110.14 57.871 110.511 57.7364C110.883 57.6018 111.282 57.5476 111.68 57.5778C112.077 57.6081 112.462 57.722 112.805 57.911L123.408 62.8467C125.001 63.7239 124.964 65.9944 124.224 67.8573L119.075 81.9511Z" fill="#008375"/>
<path d="M117.476 83.2431C117.109 83.4364 116.702 83.5564 116.282 83.5953C115.862 83.6343 115.438 83.5914 115.037 83.4693L104.833 80.4057C104.05 80.1673 103.398 79.6528 103.017 78.9724C102.635 78.2919 102.554 77.4993 102.791 76.7638L107.907 61.1166C108.009 60.804 108.177 60.5136 108.401 60.2624C108.625 60.0111 108.901 59.8042 109.212 59.6536C109.523 59.5031 109.864 59.4119 110.213 59.3856C110.562 59.3592 110.914 59.3982 111.247 59.5002L121.821 62.7372C122.325 62.8914 122.79 63.1382 123.19 63.463C123.59 63.7877 123.916 64.1839 124.149 64.6281C124.382 65.0723 124.517 65.5555 124.546 66.0492C124.575 66.5428 124.498 67.0369 124.319 67.5023L118.849 81.7194C118.603 82.365 118.116 82.9061 117.476 83.2431Z" fill="#3F3D56"/>
<path d="M95.3489 58.3925C99.3852 58.3925 102.657 55.3418 102.657 51.5786C102.657 47.8154 99.3852 44.7648 95.3489 44.7648C91.3126 44.7648 88.0405 47.8154 88.0405 51.5786C88.0405 55.3418 91.3126 58.3925 95.3489 58.3925Z" fill="#FFB6B6"/>
<path d="M70.6353 58.4951C71.306 59.7072 72.4057 60.6656 73.7479 61.2079C74.2835 61.4354 74.8467 61.6016 75.4252 61.7029C75.5887 61.0983 75.8505 60.5206 76.2014 59.9898C76.0845 60.588 76.0845 61.2011 76.2014 61.7993C77.0827 61.8666 77.9695 61.7639 78.8064 61.4978C79.6284 61.2372 80.3739 60.8016 80.9838 60.2255C81.5937 59.6494 82.0512 58.9487 82.3201 58.1791C82.9023 56.3729 82.2752 54.4438 82.2258 52.5586C82.1749 50.6731 83.1352 48.418 85.1427 48.1847C86.6716 48.0068 86.4826 48.145 87.5811 49.1519C86.0445 50.7434 89.7906 57.7923 91.8008 57.4808C92.9373 57.3047 93.7736 56.4635 93.9984 56.4927C95.1494 59.1207 91.6871 62.848 94.4332 64.0715L94.2294 63.8202C92.792 61.6062 97.0453 57.867 95.6079 55.6531C95.2071 55.0338 94.7905 54.3077 95.0384 53.6226C95.2737 52.9712 96.4654 52.765 96.7168 53.3579C96.3081 51.999 97.4491 50.404 98.9645 50.2653C100.311 50.1415 100.233 50.4993 101.517 50.8257C101.681 50.3101 101.917 49.817 102.22 49.3592C102.117 49.8815 102.105 50.4157 102.182 50.9418C102.645 50.9933 103.114 50.9008 103.514 50.6789C104.7 50.0163 104.735 48.3062 103.921 47.2653C103.105 46.2243 101.739 45.7103 100.42 45.3213C100.408 42.7221 92.9065 41.4778 91.5268 43.8944C91.3849 41.9377 88.9792 40.6196 86.9068 40.952C84.8343 41.2844 83.1994 42.8337 82.2026 44.5605C81.206 46.286 80.7113 48.2181 79.9817 50.0561C79.2521 51.894 78.2091 53.7267 76.4621 54.8172C74.7153 55.9063 72.1193 56.0052 70.6607 54.5936C70.3281 55.1963 70.1525 55.8637 70.148 56.5415C70.1436 57.2194 70.3105 57.8886 70.6353 58.4951Z" fill="#2F2E41"/>
<path d="M78.1344 89.6544C78.2856 89.5417 78.4496 89.4448 78.6236 89.3655C81.4209 88.0675 90.12 84.6982 96.9221 84.8364C110.01 85.1024 126.666 98.569 122.789 107.612C119.84 114.493 105.176 118.408 94.4715 115.277C79.4758 110.891 73.5568 93.0572 78.1344 89.6544Z" fill="#3F3D56"/>
<path d="M23.802 139.228C19.5255 138.476 15.74 120.513 24.1539 111.666C27.0367 108.635 30.6325 107.316 35.4156 106.088C62.9458 99.0218 83.9436 105.756 86.7654 107.401C89.5808 109.041 94.5165 133.76 88.205 137.259C84.6538 139.228 77.6152 140.212 74.1278 137.915C68.9964 134.536 77.6096 125.77 73.7759 119.869C69.4255 113.173 46.5171 110.918 35.0318 117.572C22.7783 124.672 48.0532 143.493 23.802 139.228Z" fill="#F2F2F2"/>
<path d="M52.3943 108.687H36.0564C32.0233 105.084 29.1396 101.611 31.4483 98.7277C31.4483 97.899 31.8014 97.1042 32.4299 96.5183C33.0584 95.9323 33.9108 95.6031 34.7997 95.6031H53.6511C54.5399 95.6031 55.3923 95.9323 56.0208 96.5183C56.6493 97.1042 57.0024 97.899 57.0024 98.7277C57.8815 102.013 56.3111 105.333 52.3943 108.687Z" fill="#CCCCCC"/>
<path d="M49.46 91.6696C49.305 91.6762 49.1515 91.6383 49.0204 91.5609C48.8893 91.4835 48.7869 91.3704 48.727 91.2369C48.6672 91.1034 48.6527 90.956 48.6857 90.8146C48.7187 90.6733 48.7976 90.5448 48.9115 90.4466L48.9634 90.2543C48.9565 90.239 48.9497 90.2236 48.9428 90.2082C48.7866 89.8643 48.5249 89.5711 48.1906 89.3654C47.8562 89.1597 47.4642 89.0507 47.0636 89.0521C46.6631 89.0535 46.2719 89.1652 45.9392 89.3732C45.6065 89.5812 45.3472 89.8762 45.1937 90.2212C44.5806 91.598 43.7999 92.9773 43.6077 94.4331C43.523 95.0766 43.5587 95.7289 43.7132 96.361C42.2731 93.432 41.5252 90.2486 41.5204 87.0265C41.5201 86.218 41.5683 85.4101 41.6647 84.6066C41.7444 83.9478 41.855 83.2938 41.9965 82.6445C42.7684 79.1212 44.4257 75.8189 46.8323 73.0087C47.9971 72.4162 48.939 71.505 49.5313 70.398C49.7458 70 49.8975 69.5752 49.9815 69.1368C49.8501 69.1528 49.486 67.2871 49.5852 67.1727C49.402 66.9136 49.0743 66.7848 48.8743 66.532C47.8797 65.2748 46.5094 65.4943 45.794 67.2028C44.2658 67.9219 44.251 69.1145 45.1887 70.2614C45.7853 70.9911 45.8673 71.9785 46.3907 72.7597C46.3368 72.824 46.2808 72.8862 46.227 72.9505C45.2426 74.1307 44.3846 75.3979 43.6653 76.7341C43.8403 75.2372 43.6315 73.7229 43.0562 72.3159C42.4732 71.0046 41.3804 69.9002 40.4181 68.7666C39.2622 67.4049 36.8919 67.9992 36.6882 69.7253C36.6862 69.742 36.6843 69.7587 36.6824 69.7754C36.8254 69.8506 36.9653 69.9304 37.1022 70.0148C37.2742 70.1219 37.4074 70.275 37.4845 70.4539C37.5616 70.6329 37.5789 70.8294 37.5342 71.0177C37.4894 71.2059 37.3847 71.3772 37.2338 71.5091C37.0829 71.6409 36.8927 71.7272 36.6883 71.7566L36.6674 71.7596C36.7183 72.2399 36.8083 72.7159 36.9366 73.1835C35.7021 77.6347 38.3674 79.256 42.1731 79.3288C42.2571 79.369 42.339 79.4091 42.423 79.4473C41.7003 81.3566 41.2471 83.3454 41.0745 85.3637C40.9769 86.5544 40.9826 87.7506 41.0918 88.9404L41.0853 88.8983C40.8096 87.5751 40.0525 86.3813 38.942 85.5183C37.2927 84.2551 34.9624 83.7899 33.183 82.7746C32.9939 82.6614 32.774 82.6009 32.5493 82.6004C32.3246 82.5999 32.1044 82.6593 31.9147 82.7717C31.725 82.884 31.5737 83.0446 31.4787 83.2345C31.3837 83.4243 31.3489 83.6356 31.3784 83.8433C31.3808 83.858 31.3832 83.8728 31.3857 83.8876C31.6509 83.9883 31.9092 84.1044 32.1589 84.235C32.3019 84.3102 32.4418 84.39 32.5787 84.4744C32.7507 84.5815 32.8839 84.7346 32.961 84.9136C33.0381 85.0925 33.0554 85.289 33.0107 85.4773C32.9659 85.6656 32.8612 85.8368 32.7103 85.9687C32.5594 86.1006 32.3692 86.1868 32.1648 86.2162L32.1439 86.2192C32.1288 86.2212 32.1159 86.2232 32.1008 86.2252C32.554 87.2342 33.1901 88.1628 33.9813 88.9705C34.7532 92.8563 38.0687 93.225 41.6152 92.0934H41.6173C42.0065 93.6699 42.5703 95.2045 43.2997 96.6723H49.3094C49.331 96.61 49.3504 96.5458 49.3698 96.4835C48.8135 96.5161 48.255 96.4851 47.7068 96.3911C48.1527 95.881 48.5986 95.3669 49.0445 94.8568C49.0544 94.8473 49.0638 94.8372 49.0725 94.8267C49.2987 94.5656 49.527 94.3065 49.7532 94.0455L49.7533 94.0451C49.7653 93.2449 49.6668 92.4465 49.4602 91.6697L49.46 91.6696Z" fill="#CCCCCC"/>
<path d="M69.9584 107.871C70.058 108.142 70.2471 108.376 70.4985 108.54C70.7498 108.704 71.0504 108.79 71.3572 108.785L77.3508 108.641C77.6599 108.635 77.9587 108.536 78.2026 108.359C78.4465 108.182 78.6224 107.936 78.704 107.658L79.5521 99.2027C79.853 99.3298 80.1806 99.3926 80.5109 99.3864C81.0905 99.3729 81.6405 99.1452 82.04 98.7536C82.4395 98.3619 82.6557 97.8384 82.6412 97.298C82.6266 96.7577 82.3825 96.2449 81.9624 95.8725C81.5423 95.5 80.9807 95.2984 80.4012 95.3119C80.2692 95.3115 80.1375 95.3243 80.0084 95.35C79.868 95.2084 79.6974 95.0958 79.5074 95.0193C79.3175 94.9429 79.1125 94.9045 78.9057 94.9064L69.6862 95.1284C69.6097 95.131 69.5336 95.1398 69.4588 95.1547C69.2566 95.1898 69.0648 95.2649 68.8964 95.375C68.7279 95.485 68.5867 95.6274 68.4823 95.7926C68.3778 95.9578 68.3125 96.1419 68.2908 96.3326C68.269 96.5232 68.2914 96.716 68.3562 96.898L69.9584 107.871ZM79.726 98.6286L80.3296 96.6136C80.3982 96.3809 80.3998 96.1353 80.3342 95.9018C80.3635 95.9017 80.3893 95.8888 80.4186 95.8887C80.8324 95.8808 81.2326 96.0262 81.5316 96.293C81.8306 96.5598 82.0039 96.9262 82.0136 97.312C82.0233 97.6977 81.8685 98.0713 81.5833 98.3508C81.298 98.6304 80.9055 98.793 80.4918 98.8032C80.2243 98.811 79.9595 98.7507 79.726 98.6286Z" fill="#CCCCCC"/>
<path d="M69.4585 95.1548C69.6549 96.2019 71.8633 96.938 74.5186 96.81C76.9604 96.7051 78.9569 95.9057 79.3227 94.9583C79.1873 94.921 79.0466 94.9035 78.9054 94.9065L69.6859 95.1284C69.6094 95.1311 69.5333 95.1399 69.4585 95.1548Z" fill="white"/>
<path d="M0.320985 139.624L202.171 139.702C202.256 139.702 202.338 139.67 202.398 139.614C202.458 139.558 202.492 139.482 202.492 139.402C202.492 139.323 202.458 139.247 202.398 139.191C202.338 139.135 202.256 139.103 202.171 139.103L0.320985 139.026C0.235854 139.026 0.154211 139.057 0.0940143 139.113C0.0338175 139.17 0 139.246 0 139.325C0 139.404 0.0338175 139.481 0.0940143 139.537C0.154211 139.593 0.235854 139.624 0.320985 139.624Z" fill="#CACACA"/>
<path d="M113.533 72.7415C112.984 72.7601 112.464 72.9778 112.085 73.3481C111.705 73.7184 111.496 74.2121 111.501 74.7242C111.504 74.8283 111.516 74.9319 111.537 75.0342L105.202 78.5211L105.969 82.1405L114.093 76.4891C114.541 76.3746 114.935 76.1251 115.215 75.7795C115.495 75.4339 115.644 75.0117 115.639 74.5787C115.634 74.3324 115.577 74.0894 115.471 73.8637C115.365 73.6379 115.213 73.4339 115.022 73.2631C114.832 73.0923 114.607 72.9582 114.361 72.8684C114.115 72.7786 113.852 72.7349 113.588 72.7397C113.57 72.7401 113.551 72.7407 113.533 72.7415Z" fill="#FFB6B6"/>
<path d="M108.343 81.0539C108.174 80.8423 108.101 80.7537 108.062 80.778C107.963 80.8338 108.059 81.5816 107.361 82.8849C106.379 84.7159 96.0806 87.5202 96.0806 87.5202L94.8126 85.356L89.2355 75.8454L87.3132 68.2223C87.246 67.9565 87.2133 67.6841 87.216 67.411C88.9299 66.2865 90.75 65.3097 92.6538 64.4927C93.4146 64.8951 93.9945 65.5393 94.2877 66.3075L98.1267 76.3433L99.6586 80.3502C99.6586 80.3502 102.361 78.5487 103.341 78.8793C104.32 79.2121 104.598 78.7455 103.958 77.252C103.319 75.7584 104.279 77.2958 105.396 77.3935C106.516 77.4927 105.396 77.3935 105.925 76.7597C106.454 76.1259 109.873 75.7693 109.873 75.7693L109.946 75.9108L111.271 78.4519L111.65 79.182C111.65 79.182 110.245 80.6029 109.906 80.8861C109.566 81.1714 109.461 81.1516 109.627 81.4766C109.792 81.8001 108.932 81.7854 108.343 81.0539Z" fill="#008375"/>
</svg>
