<svg width="38" height="38" viewBox="0 0 38 38" fill="none" xmlns="http://www.w3.org/2000/svg">
<path d="M18.9999 30.769C19.5963 30.769 19.9541 30.3634 19.9541 29.7551V27.3098L21.7553 28.3834C22.2324 28.6935 22.7453 28.6696 23.0554 28.1925C23.3178 27.7631 23.1986 27.2502 22.6976 26.952L19.9541 25.3656V23.8865L19.6917 19.7833L23.1628 22.0496L24.4391 22.7772L24.451 25.9381C24.451 26.5226 24.8446 26.9043 25.3337 26.8804C25.9062 26.8566 26.1806 26.4272 26.1448 25.8546L26.109 23.7434L28.2441 24.9839C28.7689 25.294 29.3057 25.1628 29.592 24.6618C29.8663 24.1489 29.7113 23.6002 29.2103 23.314L27.0752 22.0854L28.924 21.0476C29.425 20.8091 29.6635 20.332 29.4011 19.8429C29.1506 19.4016 28.6497 19.2584 28.1368 19.5328L25.3933 21.1073L24.117 20.3677L20.3955 18.5308L24.117 16.6939L25.3933 15.9544L28.1368 17.5289C28.6377 17.8152 29.1626 17.6601 29.4011 17.2188C29.6635 16.7297 29.425 16.2526 28.9121 16.0021L27.0871 14.9763L29.2103 13.7477C29.7351 13.4495 29.8782 12.9247 29.592 12.3998C29.3057 11.9227 28.7689 11.7676 28.2441 12.0778L26.109 13.3064L26.1448 11.207C26.1806 10.6345 25.8943 10.1932 25.3337 10.1812C24.8446 10.1693 24.451 10.5391 24.451 11.1116L24.4391 14.2845L23.1628 15.0121L19.6917 17.2903L19.9541 13.1752V11.6961L22.6976 10.1097C23.1986 9.81145 23.3059 9.28662 23.0554 8.86914C22.7572 8.39202 22.2324 8.35624 21.7553 8.67829L19.9541 9.75181V7.30657C19.9541 6.69824 19.5963 6.28076 18.9999 6.28076C18.4274 6.28076 18.0337 6.69824 18.0337 7.30657V9.75181L16.2207 8.67829C15.7435 8.35624 15.2426 8.39202 14.9324 8.86914C14.67 9.28662 14.7893 9.81145 15.3022 10.1097L18.0337 11.6961V13.1752L18.2961 17.3022L14.837 15.0121L13.5607 14.2725L13.5488 11.1116C13.5488 10.5391 13.1552 10.1693 12.6661 10.1812C12.0936 10.2051 11.8073 10.6345 11.855 11.207L11.8789 13.3064L9.74376 12.0778C9.24278 11.7796 8.68216 11.9227 8.39589 12.3998C8.09769 12.9247 8.27661 13.4614 8.77759 13.7477L10.9127 14.9763L9.07579 16.0021C8.57481 16.2526 8.33625 16.7058 8.59867 17.2307C8.8253 17.6601 9.35013 17.8152 9.86304 17.5289L12.6065 15.9544L13.8709 16.6939L17.6043 18.5308L13.8828 20.3677L12.5946 21.1073L9.85111 19.5328C9.35013 19.2465 8.83723 19.4016 8.6106 19.831C8.34818 20.3558 8.57481 20.7972 9.07579 21.0476L10.9127 22.0854L8.78952 23.314C8.27661 23.6002 8.10962 24.1609 8.39589 24.6499C8.69409 25.1747 9.24278 25.2821 9.74376 24.9839L11.8789 23.7672L11.8431 25.8546C11.8073 26.4272 12.0936 26.8685 12.6661 26.8804C13.1552 26.8924 13.5488 26.5226 13.5488 25.9381L13.5727 22.7772L14.837 22.0496L18.2961 19.7713L18.0337 23.8865V25.3656L15.3022 26.952C14.7893 27.2502 14.67 27.7631 14.9324 28.1925C15.2426 28.6696 15.7435 28.6935 16.2207 28.3834L18.0337 27.2979V29.7551C18.0337 30.3515 18.4274 30.769 18.9999 30.769Z" fill="#CACACA"/>
</svg>
