<svg width="24" height="24" viewBox="0 0 24 24" fill="none" xmlns="http://www.w3.org/2000/svg">
<path d="M2.78662 11.3271C2.78662 11.7189 3.08796 12.0579 3.5701 12.0579C3.80364 12.0579 4.01458 11.9298 4.20292 11.7791L5.06173 11.0559V18.062C5.06173 19.177 5.73221 19.8399 6.88484 19.8399H17.0776C18.2227 19.8399 18.9007 19.177 18.9007 18.062V11.0182L19.8048 11.7791C19.9856 11.9298 20.1965 12.0579 20.43 12.0579C20.8745 12.0579 21.2135 11.7791 21.2135 11.3422C21.2135 11.086 21.1156 10.8826 20.9197 10.7169L18.9007 9.01433V5.80507C18.9007 5.46606 18.6823 5.25513 18.3433 5.25513H17.3036C16.9722 5.25513 16.7462 5.46606 16.7462 5.80507V7.2063L13.0774 4.1251C12.4219 3.57516 11.5933 3.57516 10.9378 4.1251L3.08796 10.7169C2.88456 10.8826 2.78662 11.1086 2.78662 11.3271ZM14.1697 13.4064C14.1697 13.0523 13.9437 12.8263 13.5896 12.8263H10.4256C10.0715 12.8263 9.83796 13.0523 9.83796 13.4064V18.3408H7.28411C6.81703 18.3408 6.5609 18.0771 6.5609 17.6025V9.79782L11.6761 5.50373C11.8871 5.32293 12.1281 5.32293 12.3391 5.50373L17.394 9.75262V17.6025C17.394 18.0771 17.1379 18.3408 16.6708 18.3408H14.1697V13.4064Z" fill="#008375"/>
</svg>
