<svg width="48" height="48" viewBox="0 0 48 48" fill="none" xmlns="http://www.w3.org/2000/svg">
<rect width="48" height="48" rx="12" fill="url(#paint0_linear_2002_19504)"/>
<g clip-path="url(#clip0_2002_19504)">
<path d="M23.4258 36.3164C17.7773 36.3164 14.0391 33.0586 14.0391 28.1719C14.0391 23.8594 16.0781 22.4648 16.0781 19.7812C16.0781 19.207 15.9961 18.5508 15.9961 18.1992C15.9961 17.5898 16.3711 17.2031 16.9219 17.2031C17.9648 17.2031 19.1133 18.0469 19.8047 19.4883C19.8516 19.2539 19.8633 19.043 19.8633 18.8086C19.8516 16.5586 18.5039 14.6602 17.0625 12.9258C16.8047 12.6211 16.6523 12.2695 16.6523 11.9414C16.6523 11.0859 17.4375 10.6406 18.6328 10.6406C24.8906 10.6406 33.9492 15.0703 33.9492 25.6641C33.9492 32.0625 29.7305 36.3164 23.4258 36.3164ZM23.5547 34.3477C28.5469 34.3477 31.8867 30.832 31.8867 25.5938C31.8867 18.5156 26.9414 13.1953 19.2188 12.5625C20.7188 14.2734 21.6211 16.5703 21.6211 18.9375C21.6211 20.6133 20.9062 23.0391 19.8398 23.0391C19.582 23.0391 19.4062 22.8867 19.3477 22.5586C19.0781 21.3516 18.6328 20.3906 18.0117 19.6992C18.0234 19.793 18.0234 19.875 18.0234 19.9688C18.0352 23.2852 16.0195 24.4688 16.0195 28.1719C16.0195 31.8633 19.043 34.3477 23.5547 34.3477ZM23.7188 32.707C21.5508 32.707 20.1211 31.4062 20.1211 29.4727C20.1211 27.457 21.5391 26.7656 21.7266 25.3828C21.7383 25.2422 21.8555 25.1836 21.9727 25.2891C22.4883 25.7461 22.8281 26.332 23.0977 27.0352C23.707 26.1328 23.9297 24.457 23.7305 22.6406C23.6953 22.4766 23.8125 22.3945 23.9531 22.4531C26.4727 23.6133 27.8086 26.0977 27.8086 28.4297C27.8086 30.75 26.4258 32.707 23.7188 32.707Z" fill="#CACACA"/>
</g>
<defs>
<linearGradient id="paint0_linear_2002_19504" x1="24" y1="1.45985e-07" x2="28.8491" y2="47.5169" gradientUnits="userSpaceOnUse">
<stop stop-color="#F8F8F8"/>
<stop offset="1" stop-color="#F8F8F8" stop-opacity="0.5"/>
</linearGradient>
<clipPath id="clip0_2002_19504">
<rect width="32" height="32" fill="white" transform="translate(8 8)"/>
</clipPath>
</defs>
</svg>
