<svg width="28" height="28" viewBox="0 0 28 28" fill="none" xmlns="http://www.w3.org/2000/svg">
<path d="M18.0557 7.58594C18.4951 7.58594 18.8555 7.2168 18.8555 6.78613V4.9668C18.8555 4.52734 18.4951 4.16699 18.0557 4.16699C17.6162 4.16699 17.2559 4.52734 17.2559 4.9668V6.78613C17.2559 7.2168 17.6162 7.58594 18.0557 7.58594ZM12.835 9.28223C13.1514 9.59863 13.6699 9.59863 13.9688 9.29102C14.2676 8.9834 14.2676 8.48242 13.96 8.16602L12.668 6.87402C12.3604 6.55762 11.8506 6.56641 11.5518 6.87402C11.2441 7.17285 11.2441 7.68262 11.5518 7.99902L12.835 9.28223ZM22.1514 9.29102C22.4502 9.59863 22.9775 9.59863 23.2852 9.28223L24.5684 7.99902C24.876 7.69141 24.876 7.18164 24.5684 6.87402C24.2607 6.56641 23.7598 6.56641 23.4521 6.87402L22.1514 8.16602C21.8438 8.47363 21.8525 8.9834 22.1514 9.29102ZM20.4111 17.1309C21.668 16.2783 22.459 14.9248 22.459 13.3779C22.459 10.9346 20.499 8.97461 18.0645 8.97461C16.4561 8.97461 15.0586 9.83594 14.3291 11.1016C14.707 11.4795 15.0322 11.9102 15.3047 12.4287C18.1523 12.6396 20.1123 14.4766 20.4111 17.1309ZM5.03906 22.2725H14.8213C17.3262 22.2725 19.2598 20.3652 19.2598 17.8779C19.2598 15.3818 17.2646 13.501 14.584 13.4922C13.5908 11.6025 11.7891 10.3633 9.49512 10.3633C6.56836 10.3633 4.10742 12.6133 3.84375 15.5576C2.31445 15.9971 1.33887 17.2891 1.33887 18.8799C1.33887 20.8926 2.8418 22.2725 5.03906 22.2725ZM24.6387 14.1777H26.458C26.8975 14.1777 27.249 13.8174 27.249 13.3779C27.2578 12.9385 26.8975 12.5781 26.458 12.5781H24.6387C24.208 12.5781 23.8389 12.9385 23.8389 13.3779C23.8389 13.8174 24.208 14.1777 24.6387 14.1777ZM23.4434 19.8994C23.7598 20.207 24.2607 20.1982 24.5684 19.8906C24.876 19.583 24.876 19.082 24.5684 18.7744L23.2764 17.4824C22.9688 17.1836 22.459 17.1748 22.1514 17.4824C21.8438 17.79 21.8438 18.2998 22.1514 18.6074L23.4434 19.8994Z" fill="url(#paint0_linear_286_4409)"/>
<defs>
<linearGradient id="paint0_linear_286_4409" x1="14.294" y1="4.16699" x2="14.294" y2="22.2725" gradientUnits="userSpaceOnUse">
<stop stop-color="#008368"/>
<stop offset="1" stop-color="#359D91"/>
</linearGradient>
</defs>
</svg>
