<svg width="207" height="110" viewBox="0 0 207 110" fill="none" xmlns="http://www.w3.org/2000/svg">
<path d="M56.4584 89.7029C62.072 89.7029 66.6228 84.8594 66.6228 78.8848C66.6228 72.9101 62.072 68.0667 56.4584 68.0667C50.8447 68.0667 46.2939 72.9101 46.2939 78.8848C46.2939 84.8594 50.8447 89.7029 56.4584 89.7029Z" fill="#E4E4E4"/>
<path opacity="0.2" d="M48.953 71.6591C48.0049 74.0195 47.8763 76.6619 48.5901 79.1139C49.304 81.566 50.8138 83.668 52.8498 85.0444C54.8858 86.4207 57.3153 86.9817 59.7041 86.6271C62.093 86.2725 64.2855 85.0254 65.8899 83.1087C65.3107 84.5508 64.4439 85.8417 63.3495 86.8918C62.255 87.942 60.9591 88.7264 59.5516 89.1906C58.144 89.6548 56.6585 89.7878 55.1978 89.5803C53.7372 89.3728 52.3364 88.8298 51.0926 87.9889C49.8487 87.148 48.7915 86.0294 47.9941 84.7105C47.1968 83.3915 46.6784 81.9039 46.4749 80.3506C46.2713 78.7973 46.3876 77.2154 46.8155 75.7146C47.2434 74.2139 47.9727 72.8301 48.953 71.6591Z" fill="black"/>
<path d="M56.4863 78.8847H56.514L57.0168 109.556H55.9556L56.4863 78.8847Z" fill="#3F3D56"/>
<path d="M35.8927 69.5286C47.2109 69.5286 56.386 59.7634 56.386 47.7173C56.386 35.6713 47.2109 25.9061 35.8927 25.9061C24.5746 25.9061 15.3994 35.6713 15.3994 47.7173C15.3994 59.7634 24.5746 69.5286 35.8927 69.5286Z" fill="#E4E4E4"/>
<path opacity="0.2" d="M20.7612 33.1491C18.8496 37.9082 18.5903 43.2356 20.0296 48.1794C21.4689 53.1232 24.5129 57.3613 28.6178 60.1363C32.7228 62.9112 37.621 64.0423 42.4374 63.3274C47.2537 62.6124 51.6742 60.098 54.9091 56.2335C53.7414 59.1411 51.9936 61.7438 49.787 63.8611C47.5804 65.9784 44.9677 67.5599 42.1298 68.4958C39.2919 69.4318 36.2968 69.6998 33.3519 69.2815C30.407 68.8631 27.5828 67.7684 25.0749 66.073C22.567 64.3776 20.4354 62.1222 18.8279 59.463C17.2203 56.8039 16.1751 53.8045 15.7648 50.6727C15.3544 47.5409 15.5888 44.3517 16.4515 41.3258C17.3142 38.3 18.7848 35.51 20.7612 33.1491Z" fill="black"/>
<path d="M35.949 47.717H36.0054L37.0189 109.556H34.8794L35.949 47.717Z" fill="#3F3D56"/>
<path d="M171.006 77.5485H77.0732V107.185H171.006V77.5485Z" fill="#F0F0F0"/>
<path d="M129.516 83.6733H118.563V107.185H129.516V83.6733Z" fill="#CACACA"/>
<path d="M165.529 42.5777H82.5493V69.8432H165.529V42.5777Z" fill="#F0F0F0"/>
<path d="M173.942 44.257H74.1366C73.97 44.257 73.8072 44.204 73.6691 44.1047C73.531 44.0055 73.424 43.8645 73.3617 43.7C73.2995 43.5355 73.2849 43.355 73.3198 43.1816C73.3548 43.0082 73.4376 42.8498 73.5577 42.727L100.835 14.822V2.66728C100.835 2.43156 100.923 2.20557 101.08 2.03889C101.236 1.87221 101.448 1.77845 101.67 1.77819H107.053C107.275 1.77844 107.487 1.8722 107.644 2.03888C107.8 2.20556 107.889 2.43155 107.889 2.66728V7.60552L109.949 5.49779C113.32 2.04868 117.793 0.0854791 122.469 0.00272624C127.145 -0.0800266 131.677 1.7238 135.154 5.05169L174.5 42.7067C174.626 42.827 174.714 42.985 174.754 43.1598C174.793 43.3347 174.782 43.5182 174.722 43.6862C174.661 43.8541 174.554 43.9986 174.415 44.1005C174.276 44.2024 174.111 44.257 173.942 44.257V44.257Z" fill="#CACACA"/>
<path d="M104.455 49.4927C105.149 49.4927 105.837 49.6384 106.479 49.9214C107.121 50.2043 107.704 50.6191 108.196 51.142C108.687 51.6649 109.077 52.2856 109.343 52.9688C109.609 53.652 109.745 54.3842 109.745 55.1236V62.7303H99.1641V55.1236C99.1641 54.3842 99.3009 53.652 99.5668 52.9688C99.8327 52.2856 100.222 51.6649 100.714 51.142C101.205 50.6191 101.788 50.2043 102.43 49.9214C103.072 49.6384 103.76 49.4927 104.455 49.4927Z" fill="white"/>
<path d="M124.039 49.5914C125.442 49.5914 126.788 50.1847 127.78 51.2407C128.772 52.2967 129.33 53.7289 129.33 55.2223V62.829H118.749V55.2223C118.749 53.7289 119.306 52.2967 120.298 51.2407C121.29 50.1847 122.636 49.5914 124.039 49.5914Z" fill="white"/>
<path d="M143.624 49.6904C145.027 49.6904 146.373 50.2836 147.365 51.3396C148.357 52.3956 148.915 53.8279 148.915 55.3213V62.928H138.333V55.3213C138.333 53.8279 138.891 52.3956 139.883 51.3396C140.875 50.2836 142.221 49.6904 143.624 49.6904Z" fill="white"/>
<path d="M151.421 83.3771C152.824 83.3771 154.169 83.9703 155.162 85.0263C156.154 86.0823 156.711 87.5146 156.711 89.008V96.6147H146.13V89.008C146.13 87.5146 146.687 86.0823 147.679 85.0263C148.672 83.9703 150.017 83.3771 151.421 83.3771Z" fill="white"/>
<path d="M99.0709 83.3771C100.474 83.3771 101.82 83.9703 102.812 85.0263C103.804 86.0823 104.362 87.5146 104.362 89.008V96.6147H93.7803V89.008C93.7803 88.2685 93.9171 87.5363 94.183 86.8531C94.4489 86.17 94.8386 85.5492 95.3299 85.0263C95.8212 84.5034 96.4044 84.0887 97.0463 83.8057C97.6882 83.5227 98.3762 83.3771 99.0709 83.3771Z" fill="white"/>
<path d="M184.729 78.0114L167.108 69.7132C167.013 69.6687 166.911 69.6456 166.807 69.6456H82.8303C82.7345 69.6456 82.6395 69.6654 82.5507 69.7038L63.3706 78.002C63.2111 78.071 63.0791 78.1969 62.9971 78.3581C62.9152 78.5193 62.8885 78.7059 62.9215 78.8857C62.9546 79.0656 63.0453 79.2277 63.1782 79.3442C63.3112 79.4607 63.478 79.5244 63.6503 79.5244H68.6266V106.79H68.0697V109.556H180.009V106.79H179.081V79.5244H184.428C184.598 79.5244 184.763 79.4621 184.896 79.348C185.028 79.2339 185.119 79.0748 185.155 78.8975C185.19 78.7202 185.167 78.5354 185.089 78.3741C185.012 78.2128 184.884 78.0847 184.729 78.0114ZM177.596 106.79H70.1117V79.5244H177.596V106.79Z" fill="#CACACA"/>
<path d="M111.045 61.6438H97.4932V64.0147H111.045V61.6438Z" fill="#CACACA"/>
<path d="M130.908 61.6438H117.356V64.0147H130.908V61.6438Z" fill="#CACACA"/>
<path d="M150.771 61.6438H137.22V64.0147H150.771V61.6438Z" fill="#CACACA"/>
<path d="M158.197 95.8244H144.645V98.1953H158.197V95.8244Z" fill="#CACACA"/>
<path d="M105.661 95.8244H92.1099V98.1953H105.661V95.8244Z" fill="#CACACA"/>
<path d="M206.554 109.677H0.227482C0.16715 109.677 0.109289 109.651 0.0666279 109.606C0.0239667 109.56 0 109.499 0 109.435C0 109.37 0.0239667 109.309 0.0666279 109.264C0.109289 109.218 0.16715 109.193 0.227482 109.193H206.554C206.614 109.193 206.672 109.218 206.715 109.264C206.758 109.309 206.781 109.37 206.781 109.435C206.781 109.499 206.758 109.56 206.715 109.606C206.672 109.651 206.614 109.677 206.554 109.677Z" fill="#3F3D56"/>
<path d="M154.657 42.1712C154.657 42.3262 154.655 42.4835 154.653 42.6385C154.651 42.8249 154.646 43.0089 154.639 43.1953C154.632 43.3576 154.626 43.5174 154.617 43.6771C154.589 44.2122 154.546 44.7449 154.487 45.28C154.473 45.4155 154.457 45.5487 154.439 45.6843C154.425 45.7884 154.412 45.8949 154.396 46.0015C154.38 46.1201 154.364 46.2387 154.346 46.3574C154.309 46.6092 154.268 46.861 154.223 47.1127C154.2 47.2386 154.177 47.3645 154.152 47.4904C154.105 47.7398 154.052 47.9916 153.998 48.241C153.993 48.2604 153.989 48.2821 153.984 48.3015C153.957 48.425 153.93 48.5461 153.9 48.6695C153.891 48.7058 153.884 48.7398 153.873 48.7761C153.852 48.8681 153.829 48.9601 153.807 49.0521C153.775 49.1804 153.743 49.3063 153.709 49.4346C153.654 49.6331 153.6 49.8293 153.543 50.0278C153.536 50.0484 153.53 50.0694 153.525 50.0907C153.415 50.466 153.299 50.8364 153.172 51.2044C153.106 51.3981 153.036 51.5942 152.965 51.7879C152.894 51.9816 152.822 52.1753 152.747 52.3666C152.674 52.553 152.599 52.7394 152.524 52.9234C152.505 52.967 152.487 53.0106 152.467 53.0542C152.387 53.2454 152.305 53.4319 152.221 53.6183C152.219 53.6207 152.219 53.6256 152.217 53.628C152.151 53.7781 152.08 53.9282 152.01 54.0759C152.009 54.0804 152.008 54.0847 152.005 54.088C151.937 54.2333 151.866 54.3785 151.793 54.5214L151.677 54.7562L151.664 54.7829C151.518 55.071 151.368 55.3567 151.209 55.6399C151.175 55.7029 151.141 55.7658 151.106 55.8263C151.072 55.8893 151.036 55.9522 151 56.0128C150.977 56.0564 150.952 56.1 150.924 56.1435C150.877 56.2258 150.829 56.3106 150.779 56.3929C150.77 56.4098 150.758 56.4268 150.749 56.4437C150.663 56.5866 150.576 56.727 150.49 56.8698C150.383 57.0417 150.274 57.2112 150.162 57.3807L147.692 61.5886L147.585 61.4942L147.555 61.4651H147.553L147.455 61.378L147.187 61.1359C147.105 61.2206 147.025 61.3053 146.943 61.3877C146.912 61.4215 146.878 61.453 146.846 61.4869C146.821 61.5111 146.798 61.5353 146.773 61.5595C142.502 65.9986 136.821 68.5692 130.854 68.7624H130.847C126.33 68.8944 121.858 67.7712 117.874 65.5036C117.785 65.4551 117.698 65.4067 117.612 65.351C117.093 65.0508 116.586 64.7336 116.088 64.3946C116.086 64.3922 116.083 64.3922 116.081 64.3898C115.503 63.954 114.939 63.4891 114.389 62.9952C111.435 60.3457 109.099 57.0041 107.562 53.2324C106.026 49.4606 105.331 45.3613 105.533 41.256C105.539 41.0938 105.549 40.934 105.56 40.7717C105.596 40.1858 105.652 39.6023 105.728 39.0213C105.749 38.8591 105.772 38.6968 105.794 38.537H154.425C154.521 39.2779 154.587 40.0228 154.623 40.7717C154.646 41.2391 154.657 41.704 154.657 42.1712Z" fill="#F0F0F0"/>
<path d="M154.426 38.537C153.55 32.3402 150.614 26.6835 146.152 22.5952C141.69 18.5069 135.998 16.2583 130.11 16.2583C124.222 16.2583 118.53 18.5069 114.068 22.5952C109.606 26.6835 106.67 32.3402 105.794 38.537C105.772 38.6968 105.749 38.859 105.728 39.0212C105.653 39.6023 105.597 40.1858 105.56 40.7717H154.623C154.587 40.0236 154.521 39.2787 154.426 38.537Z" fill="#008375"/>
<path d="M131.703 65.5027H117.613V53.5069C117.873 48.0248 122.276 47.5821 126.412 47.8763C127.107 47.8762 127.795 48.0219 128.437 48.3048C129.079 48.5877 129.662 49.0025 130.153 49.5253C130.645 50.0482 131.034 50.6689 131.3 51.3521C131.566 52.0353 131.703 52.7675 131.703 53.5069V65.5027Z" fill="#008375"/>
<path d="M117.612 56.9741V56.9765C117.612 56.9789 117.614 56.9789 117.616 56.9789L117.612 56.9741ZM111.945 38.5372C111.936 38.5977 111.925 38.6583 111.916 38.7188C111.925 38.6583 111.936 38.5977 111.948 38.5372H111.945ZM111.663 40.7719C111.656 40.8639 111.65 40.9559 111.645 41.0479C111.65 40.9559 111.656 40.8639 111.666 40.7719C111.665 40.7549 111.666 40.7379 111.668 40.7211C111.666 40.738 111.666 40.755 111.663 40.7719ZM117.612 56.9765C117.612 56.9789 117.614 56.9789 117.616 56.9789L117.612 56.9741V56.9765ZM111.945 38.5372C111.936 38.5977 111.925 38.6583 111.916 38.7188C111.925 38.6583 111.936 38.5977 111.948 38.5372H111.945ZM111.645 41.0479C111.65 40.9559 111.656 40.8639 111.666 40.7719C111.665 40.7549 111.666 40.7379 111.668 40.7211C111.666 40.738 111.666 40.755 111.663 40.7719C111.656 40.8639 111.65 40.9559 111.645 41.0479ZM181.923 85.5869C181.879 85.537 181.832 85.4901 181.782 85.4465L181.78 85.444L170.515 75.3262L170.224 75.0647L169.116 74.0696L168.839 73.8202L167.26 72.4015L166.828 72.0141L165.934 71.2103L165.477 70.7987L161.163 66.9273L158.691 64.7071L158.359 64.4093L151.072 57.865C151.184 57.6956 151.293 57.5261 151.4 57.3542C151.486 57.2113 151.573 57.0709 151.659 56.9281C151.668 56.9111 151.68 56.8942 151.689 56.8772C151.739 56.7949 151.787 56.7102 151.834 56.6278C151.862 56.5843 151.887 56.5407 151.909 56.4971C151.946 56.4366 151.982 56.3736 152.016 56.3107C152.05 56.2502 152.085 56.1872 152.119 56.1243C152.278 55.841 152.428 55.5553 152.574 55.2672L152.587 55.2405L152.703 55.0057C152.776 54.8628 152.847 54.7176 152.915 54.5723C152.918 54.569 152.919 54.5647 152.919 54.5602C152.99 54.4125 153.061 54.2624 153.126 54.1123C153.129 54.1099 153.129 54.1051 153.131 54.1026C153.215 53.9162 153.297 53.7298 153.377 53.5385C153.397 53.4949 153.415 53.4514 153.434 53.4078C153.509 53.2238 153.584 53.0374 153.657 52.8509C153.732 52.6597 153.804 52.466 153.875 52.2722C153.945 52.0786 154.016 51.8825 154.082 51.6888C154.207 51.3183 154.325 50.9471 154.435 50.5751C154.44 50.5537 154.446 50.5327 154.453 50.5121C154.51 50.3136 154.564 50.1175 154.619 49.9189C154.653 49.7906 154.685 49.6647 154.717 49.5364C154.739 49.4444 154.762 49.3524 154.783 49.2604C154.794 49.2241 154.801 49.1902 154.81 49.1539C154.839 49.0304 154.867 48.9093 154.894 48.7859C154.899 48.7665 154.903 48.7447 154.908 48.7253C154.962 48.476 155.015 48.2241 155.062 47.9748C155.087 47.8489 155.11 47.723 155.133 47.5971C155.176 47.3453 155.219 47.0935 155.256 46.8417C155.274 46.7231 155.29 46.6044 155.306 46.4858C155.322 46.3793 155.335 46.2727 155.349 46.1686C155.367 46.033 155.383 45.8999 155.397 45.7643C155.456 45.2292 155.499 44.6966 155.526 44.1615C155.535 44.0017 155.542 43.8419 155.549 43.6797C155.556 43.4933 155.561 43.3093 155.563 43.1228C155.565 42.9679 155.567 42.8105 155.567 42.6555C155.567 42.1883 155.556 41.7234 155.533 41.2561C155.497 40.508 155.431 39.7631 155.335 39.0214C154.52 32.6816 151.589 26.8657 147.077 22.6368C142.565 18.4079 136.773 16.0484 130.761 15.9896C124.749 15.9309 118.918 18.1768 114.334 22.3168C109.75 26.4568 106.718 32.2144 105.794 38.5372C105.771 38.697 105.749 38.8592 105.728 39.0214C105.653 39.6025 105.597 40.186 105.56 40.7719C105.549 40.9341 105.539 41.0939 105.533 41.2561C105.331 45.3615 106.026 49.4608 107.562 53.2325C109.099 57.0043 111.435 60.3459 114.389 62.9954C114.939 63.4893 115.503 63.9542 116.081 64.39C116.083 64.3924 116.086 64.3924 116.088 64.3948C116.281 64.5401 116.474 64.6829 116.67 64.8234C116.982 65.0413 117.296 65.2543 117.612 65.4577C117.637 65.4722 117.662 65.4892 117.687 65.5037C117.96 65.678 118.235 65.8451 118.51 66.0073H118.513C119.537 66.6069 120.601 67.1279 121.695 67.5665C124.906 68.8522 128.33 69.424 131.757 69.2467H131.764C135.763 69.0409 139.657 67.8144 143.117 65.6708C143.62 65.3609 144.116 65.0292 144.6 64.6757C144.721 64.5885 144.844 64.4989 144.962 64.4094C145.108 64.3004 145.253 64.1866 145.399 64.0728C145.401 64.0728 145.401 64.0704 145.403 64.0704C145.414 64.0607 145.426 64.0518 145.438 64.0438C145.535 63.9638 145.635 63.884 145.731 63.8065C145.756 63.7871 145.781 63.7677 145.806 63.746C145.813 63.741 145.819 63.7353 145.824 63.729C145.881 63.6854 145.936 63.637 145.993 63.591C146.049 63.545 146.104 63.4966 146.161 63.4482C146.171 63.4417 146.18 63.4344 146.188 63.4264C146.252 63.3707 146.316 63.3174 146.379 63.2617C146.445 63.206 146.509 63.1479 146.57 63.0922C146.634 63.0365 146.696 62.9809 146.759 62.9228C146.814 62.8743 146.871 62.8235 146.925 62.7702C146.943 62.7557 146.959 62.7388 146.978 62.7218C146.985 62.7146 146.992 62.7081 147 62.7024C147.075 62.6346 147.148 62.5644 147.221 62.4942C147.239 62.4773 147.255 62.4603 147.273 62.4433C147.385 62.3368 147.496 62.2303 147.605 62.1189C147.63 62.0947 147.658 62.0681 147.683 62.0439C147.708 62.0196 147.731 61.9954 147.756 61.9712C147.787 61.9374 147.822 61.9059 147.853 61.872C147.935 61.7897 148.015 61.7049 148.097 61.6202L148.365 61.8623L148.463 61.9495H148.465L148.495 61.9785L148.602 62.073L150.19 63.5014L150.224 63.5329L150.251 63.5547L150.431 63.7169L150.79 64.0413L151.15 64.3633L151.202 64.4093L152.874 65.9104L153.106 66.1187L154.719 67.5665L163.067 75.0647L163.359 75.3262L174.785 85.5869L177.715 88.2187L178.805 89.1968C179.036 89.4051 179.304 89.5629 179.592 89.661C179.881 89.7591 180.185 89.7958 180.487 89.7688C180.789 89.7418 181.082 89.6517 181.352 89.5038C181.621 89.3558 181.86 89.1527 182.055 88.9063C182.219 88.7018 182.349 88.4693 182.44 88.2187C182.605 87.7743 182.644 87.2882 182.552 86.8204C182.461 86.3526 182.242 85.9238 181.923 85.5869ZM116.029 29.4628C118.311 26.5845 121.312 24.452 124.684 23.3117C128.057 22.1715 131.664 22.07 135.088 23.0189C138.513 23.9679 141.615 25.9286 144.037 28.6746C146.459 31.4206 148.101 34.8398 148.775 38.5372C148.804 38.6994 148.832 38.8592 148.857 39.0214C148.95 39.6001 149.018 40.186 149.059 40.7719C149.07 40.9341 149.082 41.0939 149.089 41.2561C149.109 41.6193 149.118 41.9849 149.118 42.3481C149.12 44.551 148.777 46.7389 148.104 48.8221V48.8246C147.352 51.1604 146.197 53.3264 144.698 55.2115C144.666 55.2502 144.635 55.2914 144.6 55.3302C144.3 55.7078 143.984 56.071 143.659 56.4172C143.656 56.4197 143.654 56.4245 143.652 56.4269C143.54 56.5456 143.427 56.6666 143.313 56.778C143.081 57.0177 142.844 57.2452 142.603 57.4632C142.241 57.7997 141.871 58.1152 141.491 58.4098C141.363 58.5091 141.236 58.6059 141.106 58.7028C140.979 58.7996 140.849 58.8916 140.72 58.9836C140.46 59.1676 140.196 59.3444 139.93 59.5114C139.798 59.5961 139.662 59.6785 139.528 59.7584C139.393 59.8407 139.257 59.9182 139.12 59.9932C138.984 60.0707 138.847 60.1457 138.709 60.2184C138.433 60.3661 138.156 60.5041 137.874 60.6324C137.733 60.7002 137.592 60.7631 137.451 60.8212C137.362 60.86 137.275 60.8987 137.187 60.9326C137.152 60.9497 137.116 60.9642 137.08 60.9762C137.032 60.998 136.984 61.0174 136.937 61.0343C136.921 61.0418 136.905 61.0483 136.889 61.0537C136.791 61.0948 136.695 61.1312 136.595 61.1675C136.452 61.2232 136.309 61.274 136.163 61.3224C136.018 61.3733 135.874 61.4217 135.729 61.4653C135.583 61.5137 135.435 61.5573 135.29 61.5984C135.142 61.642 134.996 61.6832 134.848 61.7195C134.691 61.7631 134.534 61.8018 134.375 61.8381C134.236 61.8721 134.1 61.9011 133.961 61.9277C133.831 61.9568 133.699 61.981 133.57 62.0052C133.388 62.0391 133.206 62.0706 133.022 62.0972C132.921 62.1142 132.824 62.1287 132.724 62.1383C132.68 62.1456 132.639 62.1505 132.598 62.1553C132.471 62.1747 132.344 62.1892 132.219 62.2013C132.184 62.2037 132.153 62.2086 132.121 62.211C131.982 62.2255 131.841 62.2376 131.702 62.2497C131.404 62.2715 131.108 62.286 130.81 62.2933C130.66 62.2957 130.508 62.2981 130.358 62.2981C130.208 62.2981 130.057 62.2957 129.907 62.2909C129.907 62.2909 129.907 62.2933 129.905 62.2909C129.903 62.2933 129.903 62.2933 129.9 62.2909C129.9 62.2912 129.9 62.2915 129.899 62.2916C129.899 62.2918 129.899 62.2919 129.898 62.2919C129.898 62.2919 129.897 62.2918 129.897 62.2916C129.897 62.2915 129.896 62.2912 129.896 62.2909C129.889 62.2933 129.881 62.2933 129.873 62.2909C129.766 62.2909 129.659 62.286 129.555 62.2788C129.477 62.2764 129.398 62.2739 129.318 62.2667C129.211 62.2618 129.104 62.2546 128.997 62.2449C128.963 62.2449 128.929 62.2401 128.895 62.2376C128.879 62.2372 128.863 62.2356 128.847 62.2328C128.738 62.2231 128.627 62.2134 128.517 62.2013C128.463 62.1965 128.406 62.1916 128.351 62.1844C128.185 62.165 128.019 62.1432 127.855 62.119C127.669 62.0948 127.482 62.0657 127.298 62.0294C127.212 62.0173 127.127 62.0004 127.043 61.9834C126.932 61.964 126.82 61.9422 126.709 61.918C126.593 61.8938 126.477 61.8696 126.361 61.8405C126.268 61.8188 126.172 61.797 126.079 61.7728C126.033 61.7631 125.988 61.751 125.945 61.7389C125.706 61.6784 125.469 61.613 125.235 61.5403C125.087 61.4968 124.939 61.4508 124.794 61.4023C124.593 61.337 124.395 61.2668 124.198 61.1917C124.12 61.1651 124.045 61.136 123.968 61.1045C123.89 61.0779 123.815 61.0464 123.738 61.015C123.667 60.9883 123.597 60.9593 123.529 60.9302C123.415 60.8842 123.303 60.8358 123.192 60.7874C122.962 60.6881 122.737 60.584 122.512 60.4727C122.384 60.4073 122.257 60.3443 122.132 60.279C121.638 60.0247 121.152 59.7423 120.674 59.4316C120.555 59.3565 120.437 59.2766 120.319 59.1967C120.171 59.0999 120.028 58.9982 119.884 58.8965C119.805 58.8384 119.727 58.7827 119.65 58.7246C119.507 58.6181 119.366 58.5091 119.227 58.4001C119.154 58.3445 119.081 58.2864 119.011 58.2282C118.758 58.0249 118.51 57.8118 118.267 57.5939C118.151 57.4898 118.035 57.3833 117.921 57.2743C117.874 57.2307 117.826 57.1847 117.778 57.1387C117.723 57.0855 117.669 57.0347 117.616 56.979L117.612 56.9741C117.532 56.8991 117.453 56.8191 117.375 56.7393C117.255 56.6182 117.136 56.4947 117.023 56.3689C116.904 56.2454 116.791 56.1171 116.679 55.9911C116.565 55.8652 116.456 55.7369 116.349 55.6062C116.24 55.4779 116.133 55.3471 116.029 55.214C115.926 55.0881 115.826 54.9573 115.731 54.829C115.499 54.5239 115.277 54.2132 115.066 53.8969C114.969 53.7516 114.875 53.6063 114.784 53.4586C114.686 53.3085 114.593 53.156 114.504 53.0034C114.411 52.8509 114.322 52.696 114.236 52.5386C114.234 52.5332 114.231 52.5283 114.227 52.5241C114.056 52.2166 113.893 51.9067 113.74 51.5919C113.583 51.2724 113.435 50.9495 113.297 50.6235C113.226 50.4613 113.158 50.2966 113.094 50.132C112.962 49.8003 112.839 49.4686 112.726 49.1321C112.669 48.9699 112.616 48.8076 112.564 48.643C112.562 48.6321 112.559 48.6215 112.555 48.6115C112.45 48.2774 112.355 47.9409 112.271 47.6019C112.268 47.5971 112.268 47.5923 112.266 47.5874C112.223 47.4204 112.182 47.2533 112.146 47.0838C112.109 46.9361 112.077 46.7884 112.048 46.6383C112.014 46.4713 111.979 46.3042 111.95 46.1348C111.934 46.0476 111.918 45.9604 111.904 45.8732C111.891 45.8006 111.879 45.7256 111.868 45.6529C111.857 45.5803 111.845 45.5052 111.834 45.4302C111.811 45.2825 111.791 45.1348 111.772 44.9871C111.75 44.8128 111.731 44.6385 111.713 44.4617C111.693 44.2511 111.675 44.0404 111.659 43.8274C111.647 43.6845 111.64 43.5393 111.634 43.394C111.627 43.2609 111.62 43.1277 111.618 42.9945C111.615 42.9875 111.615 42.9798 111.618 42.9727C111.617 42.9724 111.617 42.9721 111.617 42.9716C111.617 42.9712 111.617 42.9708 111.617 42.9703C111.617 42.9699 111.617 42.9694 111.617 42.969C111.617 42.9686 111.617 42.9682 111.618 42.9679C111.615 42.9655 111.615 42.9655 111.618 42.9631C111.617 42.9627 111.617 42.9624 111.617 42.962C111.617 42.9615 111.617 42.9611 111.617 42.9606C111.617 42.9602 111.617 42.9597 111.617 42.9593C111.617 42.9589 111.617 42.9585 111.618 42.9582C111.615 42.905 111.613 42.8517 111.613 42.7984C111.609 42.6411 111.606 42.4837 111.606 42.3263C111.606 42.1835 111.609 42.043 111.611 41.9002C111.615 41.7017 111.622 41.5031 111.631 41.3046C111.631 41.261 111.636 41.2199 111.638 41.1763C111.64 41.1327 111.643 41.0915 111.645 41.048C111.65 40.956 111.656 40.864 111.666 40.772C111.665 40.755 111.666 40.738 111.668 40.7211C111.675 40.617 111.684 40.5129 111.693 40.4088C111.711 40.2006 111.734 39.9899 111.759 39.7817C111.772 39.6776 111.784 39.5735 111.8 39.4694C111.809 39.3968 111.82 39.3217 111.832 39.2466C111.841 39.1716 111.852 39.0965 111.866 39.0215C111.882 38.9222 111.898 38.8205 111.916 38.7188C111.925 38.6583 111.936 38.5978 111.948 38.5373C111.991 38.2951 112.039 38.053 112.091 37.8109C112.143 37.5664 112.202 37.3243 112.266 37.0822C112.327 36.8376 112.396 36.5931 112.469 36.3486C112.503 36.2251 112.539 36.104 112.58 35.983C112.655 35.7384 112.735 35.4963 112.823 35.2566C112.864 35.138 112.908 35.0169 112.955 34.8983C113.046 34.6586 113.142 34.4189 113.24 34.1841C113.29 34.0654 113.34 33.9468 113.394 33.8282C113.497 33.5933 113.604 33.3585 113.72 33.1285C113.831 32.8936 113.952 32.6636 114.075 32.436C114.197 32.2084 114.325 31.9808 114.459 31.7557C114.52 31.6443 114.589 31.5305 114.659 31.4216C114.796 31.1988 114.939 30.9761 115.085 30.7582C115.378 30.3175 115.694 29.8841 116.029 29.4628ZM111.663 40.7719C111.656 40.8639 111.65 40.9559 111.645 41.0479C111.65 40.9559 111.656 40.8639 111.666 40.7719C111.665 40.7549 111.666 40.7379 111.668 40.7211C111.666 40.738 111.666 40.755 111.663 40.7719ZM111.945 38.5372C111.936 38.5977 111.925 38.6583 111.916 38.7188C111.925 38.6583 111.936 38.5977 111.948 38.5372H111.945ZM117.612 56.9741V56.9765C117.612 56.9789 117.614 56.9789 117.616 56.9789L117.612 56.9741Z" fill="#3F3D56"/>
<path opacity="0.3" d="M118.268 57.5934C114.669 54.3617 112.345 49.808 111.755 44.8366C111.166 39.8651 112.354 34.8395 115.085 30.7576C114.726 31.142 114.38 31.5445 114.045 31.9653C112.456 33.9688 111.254 36.2857 110.507 38.7837C109.76 41.2816 109.483 43.9118 109.69 46.5239C109.898 49.136 110.588 51.679 111.719 54.0076C112.85 56.3362 114.401 58.4048 116.284 60.0954C120.086 63.5096 125.006 65.1767 129.963 64.7298C134.92 64.2828 139.506 61.7585 142.714 57.7122C143.048 57.291 143.363 56.8595 143.658 56.4179C140.337 59.9696 135.882 62.062 131.178 62.2798C126.475 62.4975 121.866 60.8247 118.268 57.5934Z" fill="black"/>
</svg>
