<svg width="28" height="28" viewBox="0 0 28 28" fill="none" xmlns="http://www.w3.org/2000/svg">
<path d="M21.4091 20.2197C21.6903 20.4922 22.1385 20.4834 22.4022 20.2197C22.6747 19.9385 22.6747 19.499 22.4022 19.2353L6.58191 3.41504C6.30945 3.14258 5.86121 3.13379 5.58875 3.41504C5.31628 3.67871 5.32507 4.13574 5.58875 4.39941L21.4091 20.2197ZM13.7538 9.05761C13.8593 9.04004 13.9823 9.03125 14.0966 9.03125C17.3397 9.09277 20.0731 10.3408 22.2352 12.5557C22.4198 12.7402 22.701 12.7314 22.8856 12.5381L24.1161 11.2988C24.3007 11.123 24.2919 10.8945 24.1512 10.7275C21.9979 8.14355 18.0868 6.24512 13.9999 6.24512C13.1034 6.24512 12.2069 6.33301 11.2401 6.53515L13.7538 9.05761ZM7.48718 7.87109C6.0282 8.62695 4.77136 9.61133 3.83972 10.7275C3.6991 10.8945 3.6991 11.123 3.87488 11.2988L5.10535 12.5381C5.29871 12.7314 5.58875 12.7314 5.77332 12.5293C6.87195 11.3691 8.12 10.4902 9.53504 9.91015L7.48718 7.87109ZM20.0731 15.3682L20.5917 14.8496C20.7675 14.6826 20.7762 14.4717 20.6268 14.2959C19.7216 13.1797 18.1747 12.2217 16.5048 11.7998L20.0731 15.3682ZM11.4423 11.8086C9.74597 12.2744 8.30457 13.1797 7.36414 14.2959C7.21472 14.4717 7.2323 14.6914 7.39929 14.8496L8.77918 16.2031C8.99011 16.4053 9.27136 16.3877 9.47351 16.168C10.5194 15.0254 12.1542 14.2432 13.8329 14.1992L11.4423 11.8086ZM13.9999 16.5811C12.743 16.5811 11.6093 17.2402 11.0028 18.0664C10.8973 18.2246 10.9413 18.418 11.0995 18.5674L13.2528 20.6416C13.6044 20.9844 13.7889 21.0811 13.9999 21.0811C14.2196 21.0811 14.4042 20.9756 14.7557 20.6416L16.9091 18.5674C17.0673 18.418 17.1024 18.1719 16.9618 17.9961C16.3466 17.2139 15.2391 16.5811 13.9999 16.5811Z" fill="#636569"/>
</svg>
