<svg width="249" height="200" viewBox="0 0 249 200" fill="none" xmlns="http://www.w3.org/2000/svg">
<g clip-path="url(#clip0_410_26154)">
<path d="M246.823 115.934H56.9574C56.469 115.933 56.0007 115.739 55.6554 115.393C55.31 115.048 55.1158 114.58 55.1152 114.091V1.84217C55.1158 1.35376 55.31 0.885504 55.6554 0.540146C56.0007 0.194789 56.469 0.00053317 56.9574 0H246.823C247.312 0.000533171 247.78 0.194789 248.125 0.540147C248.471 0.885505 248.665 1.35376 248.665 1.84217V114.091C248.665 114.58 248.471 115.048 248.125 115.393C247.78 115.739 247.312 115.933 246.823 115.934ZM56.9574 0.736866C56.6644 0.737185 56.3834 0.853739 56.1762 1.06095C55.969 1.26817 55.8524 1.54912 55.8521 1.84217V114.091C55.8524 114.384 55.969 114.665 56.1762 114.873C56.3834 115.08 56.6644 115.196 56.9574 115.197H246.823C247.116 115.196 247.397 115.08 247.604 114.873C247.812 114.665 247.928 114.384 247.929 114.091V1.84217C247.928 1.54912 247.812 1.26817 247.604 1.06095C247.397 0.85374 247.116 0.737185 246.823 0.736866H56.9574Z" fill="#E6E6E6"/>
<path d="M133.589 8.96505C133.205 8.97146 132.84 9.12816 132.572 9.40135C132.303 9.67455 132.152 10.0424 132.152 10.4255C132.152 10.8087 132.303 11.1765 132.572 11.4497C132.84 11.7229 133.205 11.8796 133.589 11.886H170.207C170.594 11.8917 170.967 11.7439 171.245 11.4751C171.523 11.2062 171.682 10.8381 171.689 10.4516C171.696 10.065 171.55 9.69153 171.282 9.41289C171.014 9.13426 170.646 8.97324 170.26 8.96512L170.255 8.96505C170.239 8.96478 170.223 8.96478 170.207 8.96505H133.589Z" fill="#3F3D56"/>
<path d="M178.511 8.5578C178.457 8.61169 178.427 8.68479 178.427 8.761C178.427 8.83722 178.457 8.91032 178.511 8.96422L179.745 10.198H176.703C176.626 10.1982 176.554 10.2286 176.5 10.2824C176.446 10.3363 176.416 10.4093 176.416 10.4854C176.416 10.5614 176.446 10.6344 176.5 10.6883C176.554 10.7421 176.626 10.7725 176.703 10.7728H179.745L178.511 12.0065C178.484 12.0332 178.463 12.0648 178.449 12.0997C178.434 12.1346 178.427 12.172 178.427 12.2097C178.427 12.2474 178.434 12.2848 178.449 12.3197C178.463 12.3545 178.484 12.3862 178.511 12.4129C178.538 12.4396 178.569 12.4608 178.604 12.4752C178.639 12.4897 178.677 12.4971 178.714 12.4971C178.752 12.4971 178.789 12.4897 178.824 12.4752C178.859 12.4608 178.891 12.4396 178.917 12.4129L180.642 10.6886C180.696 10.6347 180.726 10.5616 180.726 10.4854C180.726 10.4091 180.696 10.336 180.642 10.2821L178.917 8.5578C178.891 8.53112 178.859 8.50995 178.824 8.49551C178.789 8.48107 178.752 8.47363 178.714 8.47363C178.677 8.47363 178.639 8.48107 178.604 8.49551C178.569 8.50995 178.538 8.53112 178.511 8.5578Z" fill="#E6E6E6"/>
<path d="M125.269 8.55781C125.323 8.6117 125.353 8.68479 125.353 8.76101C125.353 8.83723 125.323 8.91033 125.269 8.96422L124.035 10.198H127.077C127.115 10.1978 127.152 10.2051 127.187 10.2195C127.222 10.2338 127.254 10.255 127.281 10.2816C127.308 10.3083 127.329 10.34 127.344 10.3749C127.358 10.4098 127.366 10.4472 127.366 10.485C127.366 10.5228 127.358 10.5603 127.344 10.5952C127.329 10.6301 127.308 10.6619 127.281 10.6886C127.255 10.7153 127.223 10.7365 127.188 10.751C127.153 10.7654 127.116 10.7728 127.078 10.7728H124.035L125.269 12.0065C125.295 12.0332 125.316 12.0649 125.331 12.0997C125.345 12.1346 125.353 12.172 125.353 12.2097C125.353 12.2474 125.345 12.2848 125.331 12.3197C125.317 12.3546 125.295 12.3862 125.269 12.4129C125.242 12.4396 125.21 12.4608 125.175 12.4752C125.141 12.4897 125.103 12.4971 125.065 12.4971C125.028 12.4971 124.99 12.4897 124.955 12.4752C124.921 12.4608 124.889 12.4396 124.862 12.4129L123.138 10.6886C123.084 10.6347 123.054 10.5616 123.054 10.4854C123.054 10.4091 123.084 10.336 123.138 10.2821L124.862 8.55781C124.916 8.50392 124.989 8.47364 125.065 8.47363C125.142 8.47363 125.215 8.50392 125.269 8.55781Z" fill="#E6E6E6"/>
<path d="M55.005 122.116C53.3401 122.116 51.7125 121.623 50.3282 120.698C48.9438 119.773 47.8649 118.458 47.2277 116.92C46.5906 115.382 46.4239 113.689 46.7487 112.056C47.0735 110.423 47.8752 108.923 49.0525 107.746C50.2298 106.569 51.7298 105.767 53.3627 105.442C54.9957 105.117 56.6883 105.284 58.2265 105.921C59.7647 106.558 61.0794 107.637 62.0044 109.022C62.9294 110.406 63.4231 112.033 63.4231 113.698C63.4231 115.931 62.5362 118.072 60.9575 119.651C59.3788 121.23 57.2376 122.116 55.005 122.116Z" fill="#008375"/>
<path d="M58.327 112.868H55.8359V110.377C55.8359 110.157 55.7484 109.946 55.5927 109.79C55.4369 109.634 55.2257 109.547 55.0055 109.547C54.7853 109.547 54.574 109.634 54.4183 109.79C54.2626 109.946 54.1751 110.157 54.1751 110.377V112.868H51.6839C51.4637 112.868 51.2525 112.956 51.0967 113.112C50.941 113.267 50.8535 113.479 50.8535 113.699C50.8535 113.919 50.941 114.13 51.0967 114.286C51.2525 114.442 51.4637 114.529 51.6839 114.529H54.1751V117.02C54.1751 117.241 54.2626 117.452 54.4183 117.608C54.574 117.763 54.7852 117.851 55.0055 117.851C55.2257 117.851 55.4369 117.763 55.5927 117.608C55.7484 117.452 55.8359 117.241 55.8359 117.02V114.529H58.327C58.5473 114.529 58.7585 114.442 58.9142 114.286C59.0699 114.13 59.1574 113.919 59.1574 113.699C59.1574 113.479 59.0699 113.267 58.9142 113.112C58.7585 112.956 58.5473 112.868 58.327 112.868Z" fill="white"/>
<path d="M95.7659 23.918H70.4668V41.1115H95.7659V23.918Z" fill="#F1F1F1"/>
<path d="M130.153 23.918H104.854V41.1115H130.153V23.918Z" fill="#F1F1F1"/>
<path d="M164.539 23.918H139.24V41.1115H164.539V23.918Z" fill="#F1F1F1"/>
<path d="M198.927 23.918H173.628V41.1115H198.927V23.918Z" fill="#F1F1F1"/>
<path d="M233.314 23.918H208.015V41.1115H233.314V23.918Z" fill="#F1F1F1"/>
<path d="M95.8587 54.1299H70.5596V71.3234H95.8587V54.1299Z" fill="#F1F1F1"/>
<path d="M130.245 54.1299H104.946V71.3234H130.245V54.1299Z" fill="#F1F1F1"/>
<path d="M164.632 54.1299H139.333V71.3234H164.632V54.1299Z" fill="#F1F1F1"/>
<path d="M199.02 54.1299H173.721V71.3234H199.02V54.1299Z" fill="#F1F1F1"/>
<path d="M233.406 54.1299H208.107V71.3234H233.406V54.1299Z" fill="#F1F1F1"/>
<path d="M95.9514 84.3408H70.6523V101.534H95.9514V84.3408Z" fill="#F1F1F1"/>
<path d="M130.338 84.3408H105.039V101.534H130.338V84.3408Z" fill="#F1F1F1"/>
<path d="M164.725 84.3408H139.426V101.534H164.725V84.3408Z" fill="#F1F1F1"/>
<path d="M199.113 84.3408H173.813V101.534H199.113V84.3408Z" fill="#F1F1F1"/>
<path d="M233.499 84.3408H208.2V101.534H233.499V84.3408Z" fill="#F1F1F1"/>
<path d="M144.491 32.5151C146.254 32.5151 147.684 31.0855 147.684 29.322C147.684 27.5585 146.254 26.1289 144.491 26.1289C142.727 26.1289 141.298 27.5585 141.298 29.322C141.298 31.0855 142.727 32.5151 144.491 32.5151Z" fill="#008375"/>
<path d="M109.613 62.726C111.376 62.726 112.806 61.2964 112.806 59.5329C112.806 57.7694 111.376 56.3398 109.613 56.3398C107.85 56.3398 106.42 57.7694 106.42 59.5329C106.42 61.2964 107.85 62.726 109.613 62.726Z" fill="#008375"/>
<path d="M144.491 92.9379C146.254 92.9379 147.684 91.5083 147.684 89.7448C147.684 87.9814 146.254 86.5518 144.491 86.5518C142.727 86.5518 141.298 87.9814 141.298 89.7448C141.298 91.5083 142.727 92.9379 144.491 92.9379Z" fill="#008375"/>
<path d="M179.615 62.726C181.378 62.726 182.808 61.2964 182.808 59.5329C182.808 57.7694 181.378 56.3398 179.615 56.3398C177.851 56.3398 176.422 57.7694 176.422 59.5329C176.422 61.2964 177.851 62.726 179.615 62.726Z" fill="#3F3D56"/>
<path d="M213.757 62.726C215.52 62.726 216.95 61.2964 216.95 59.5329C216.95 57.7694 215.52 56.3398 213.757 56.3398C211.993 56.3398 210.563 57.7694 210.563 59.5329C210.563 61.2964 211.993 62.726 213.757 62.726Z" fill="#3F3D56"/>
<path d="M109.613 92.9379C111.376 92.9379 112.806 91.5083 112.806 89.7448C112.806 87.9814 111.376 86.5518 109.613 86.5518C107.85 86.5518 106.42 87.9814 106.42 89.7448C106.42 91.5083 107.85 92.9379 109.613 92.9379Z" fill="#3F3D56"/>
<path d="M25.8926 120.242C29.168 120.242 31.8233 117.587 31.8233 114.312C31.8233 111.036 29.168 108.381 25.8926 108.381C22.6172 108.381 19.9619 111.036 19.9619 114.312C19.9619 117.587 22.6172 120.242 25.8926 120.242Z" fill="#FFB8B8"/>
<path d="M23.7518 149.405C23.6771 149.405 23.6021 149.401 23.5267 149.395C23.1537 149.364 22.7915 149.254 22.4638 149.073C22.1361 148.892 21.8504 148.644 21.6252 148.345C21.4001 148.046 21.2407 147.703 21.1575 147.338C21.0742 146.973 21.069 146.595 21.1422 146.228C21.1595 146.142 21.1813 146.058 21.2074 145.975L12.4543 135.623C12.169 135.283 12.001 134.86 11.9752 134.417C11.9493 133.974 12.067 133.534 12.3107 133.164L12.3266 133.144L20.2055 125.375C20.6357 124.952 21.2165 124.716 21.8203 124.721C22.424 124.725 23.0013 124.969 23.4252 125.399C23.8491 125.829 24.0849 126.41 24.0809 127.013C24.0768 127.617 23.8332 128.195 23.4036 128.619C23.3937 128.629 23.3838 128.638 23.3737 128.648L17.6673 134.073L23.9144 144.099C24.0327 144.106 24.1505 144.12 24.2667 144.143C24.913 144.272 25.4882 144.636 25.8807 145.165C26.2733 145.695 26.4551 146.351 26.3909 147.007C26.3267 147.663 26.0211 148.271 25.5334 148.714C25.0457 149.157 24.4108 149.404 23.7518 149.405Z" fill="#FFB8B8"/>
<path d="M35.6607 196.852H38.6212L40.0294 185.434L35.6602 185.434L35.6607 196.852Z" fill="#FFB8B8"/>
<path d="M34.9053 195.886L40.7352 195.886C41.2231 195.886 41.7064 195.982 42.1572 196.168C42.608 196.355 43.0175 196.629 43.3625 196.974C43.7075 197.319 43.9812 197.728 44.1679 198.179C44.3546 198.63 44.4507 199.113 44.4508 199.601V199.722L34.9054 199.722L34.9053 195.886Z" fill="#2F2E41"/>
<path d="M6.23633 192.759L8.77991 194.274L15.832 185.183L12.0778 182.948L6.23633 192.759Z" fill="#FFB8B8"/>
<path d="M6.08161 191.542L11.0909 194.524C11.9375 195.029 12.5494 195.848 12.7916 196.804C13.0338 197.759 12.8867 198.771 12.3826 199.618L12.3208 199.721L4.11914 194.838L6.08161 191.542Z" fill="#2F2E41"/>
<path d="M39.3194 192.819H36.0045C35.7361 192.82 35.4771 192.72 35.2775 192.541C35.0779 192.361 34.952 192.114 34.9241 191.847L31.5821 160.433C31.5737 160.354 31.5395 160.28 31.4848 160.222C31.43 160.165 31.3578 160.127 31.2793 160.114C31.2008 160.101 31.1203 160.115 31.0503 160.153C30.9803 160.19 30.9246 160.25 30.8918 160.323L24.8629 173.672L14.1891 191.077C14.0509 191.3 13.837 191.466 13.5866 191.545C13.3361 191.623 13.0658 191.608 12.8252 191.504L8.56106 189.628C8.42006 189.565 8.29388 189.474 8.19087 189.36C8.08785 189.245 8.01036 189.11 7.96354 188.963C7.91671 188.816 7.90162 188.661 7.91926 188.508C7.9369 188.355 7.98687 188.208 8.06586 188.075L17.878 171.646L20.8874 157.803C19.9409 151.8 23.9984 142.875 24.0395 142.785L24.0596 142.741L35.2361 138.373L35.2922 138.442C39.6999 152.906 42.3857 168.472 40.4026 191.824C40.3781 192.094 40.2536 192.347 40.0534 192.531C39.8531 192.715 39.5914 192.818 39.3194 192.819Z" fill="#2F2E41"/>
<path d="M23.6088 144.204L23.5567 144.095C23.5318 144.042 21.0466 138.801 19.1309 133.199C18.7627 132.115 18.6235 130.967 18.7222 129.828C18.8208 128.688 19.1551 127.581 19.7039 126.577C20.2598 125.562 21.0203 124.674 21.9372 123.969C22.8542 123.264 23.9076 122.757 25.0307 122.48C26.9805 122.013 29.0333 122.262 30.8151 123.181C32.5969 124.1 33.9892 125.629 34.7382 127.489C36.2578 131.289 35.7735 135.345 35.3177 138.535L35.3086 138.599L35.2505 138.627L23.6088 144.204Z" fill="#008375"/>
<path d="M33.0832 110.961H23.666V106.856C25.733 106.035 27.7556 105.337 28.9783 106.856C30.067 106.856 31.1111 107.289 31.8809 108.059C32.6507 108.829 33.0832 109.873 33.0832 110.961Z" fill="#2F2E41"/>
<path d="M23.145 106.133C17.5152 106.133 15.9395 113.19 15.9395 117.171C15.9395 119.391 16.9435 120.185 18.5213 120.454L19.0785 117.482L20.3836 120.581C20.8268 120.584 21.2924 120.575 21.7751 120.566L22.2176 119.655L23.2043 120.55C27.1563 120.556 30.3505 121.132 30.3505 117.171C30.3505 113.19 28.9685 106.133 23.145 106.133Z" fill="#2F2E41"/>
<path d="M48.1684 114.03C48.2042 114.095 48.2373 114.163 48.2677 114.232C48.4192 114.574 48.4966 114.945 48.495 115.319C48.4934 115.693 48.4127 116.063 48.2582 116.404C48.1037 116.745 47.879 117.049 47.5986 117.297C47.3183 117.545 46.9887 117.731 46.6315 117.843C46.5483 117.869 46.4639 117.89 46.3786 117.907L41.4902 130.552C41.3286 130.965 41.038 131.315 40.6616 131.551C40.2853 131.786 39.8431 131.893 39.4008 131.857L39.3763 131.852L28.781 128.663C28.2026 128.489 27.7171 128.092 27.4313 127.56C27.1455 127.028 27.0827 126.404 27.2569 125.825C27.4311 125.247 27.8278 124.761 28.36 124.476C28.8921 124.19 29.516 124.127 30.0944 124.301C30.1076 124.305 30.1208 124.309 30.1339 124.313L37.6307 126.72L43.4346 116.431C43.3833 116.324 43.3396 116.214 43.3037 116.101C43.1071 115.472 43.1512 114.792 43.4275 114.194C43.7038 113.596 44.1925 113.122 44.7988 112.864C45.4051 112.606 46.0857 112.582 46.7083 112.797C47.331 113.013 47.8514 113.452 48.1684 114.03Z" fill="#FFB8B8"/>
<path d="M49.3974 200H0.255945C0.188064 200 0.122963 199.973 0.0749644 199.925C0.0269654 199.877 0 199.812 0 199.744C0 199.676 0.0269654 199.611 0.0749644 199.563C0.122963 199.515 0.188064 199.488 0.255945 199.488H49.3974C49.4653 199.488 49.5304 199.515 49.5784 199.563C49.6264 199.611 49.6534 199.676 49.6534 199.744C49.6534 199.812 49.6264 199.877 49.5784 199.925C49.5304 199.973 49.4653 200 49.3974 200Z" fill="#CCCCCC"/>
</g>
<defs>
<clipPath id="clip0_410_26154">
<rect width="248.665" height="200" fill="white"/>
</clipPath>
</defs>
</svg>
