<svg width="263" height="197" viewBox="0 0 263 197" fill="none" xmlns="http://www.w3.org/2000/svg">
<path d="M105.046 40.9917H104.088V15.2393C104.088 13.282 103.695 11.3438 102.932 9.53547C102.168 7.72713 101.05 6.08404 99.6394 4.7C98.2292 3.31596 96.5549 2.21808 94.7123 1.46904C92.8697 0.720001 90.8948 0.334474 88.9004 0.334473H33.306C29.2781 0.334465 25.4151 1.90478 22.5669 4.69996C19.7188 7.49515 18.1187 11.2862 18.1187 15.2392V156.519C18.1187 158.476 18.5115 160.415 19.2747 162.223C20.038 164.031 21.1566 165.674 22.5669 167.058C23.9772 168.442 25.6514 169.54 27.494 170.289C29.3367 171.038 31.3116 171.424 33.306 171.424H88.9003C92.9282 171.424 96.7912 169.854 99.6394 167.058C102.488 164.263 104.088 160.472 104.088 156.519V59.3227H105.046V40.9917Z" fill="#3F3D56"/>
<path d="M89.5636 4.21216H82.3067C82.6405 5.01512 82.7679 5.88631 82.6777 6.74898C82.5875 7.61164 82.2826 8.43931 81.7897 9.15907C81.2968 9.87882 80.6311 10.4686 79.8513 10.8764C79.0715 11.2842 78.2014 11.4975 77.3178 11.4976H45.4685C44.5849 11.4975 43.7149 11.2842 42.935 10.8764C42.1552 10.4686 41.4895 9.87882 40.9966 9.15907C40.5037 8.43932 40.1988 7.61165 40.1086 6.74898C40.0185 5.88632 40.1458 5.01512 40.4796 4.21216H33.7016C32.2122 4.21216 30.7374 4.50006 29.3613 5.05943C27.9853 5.6188 26.735 6.43869 25.6818 7.47227C24.6286 8.50585 23.7932 9.7329 23.2232 11.0833C22.6532 12.4338 22.3599 13.8812 22.3599 15.3429V156.415C22.3599 157.877 22.6532 159.324 23.2232 160.675C23.7932 162.025 24.6286 163.252 25.6818 164.286C26.735 165.32 27.9853 166.139 29.3613 166.699C30.7374 167.258 32.2122 167.546 33.7016 167.546H89.5636C91.0531 167.546 92.5279 167.258 93.9039 166.699C95.28 166.139 96.5303 165.32 97.5835 164.286C98.6367 163.252 99.4721 162.025 100.042 160.675C100.612 159.324 100.905 157.877 100.905 156.415V15.3429C100.905 13.8812 100.612 12.4338 100.042 11.0833C99.4721 9.7329 98.6367 8.50585 97.5835 7.47227C96.5303 6.43869 95.28 5.6188 93.9039 5.05943C92.5279 4.50006 91.0531 4.21216 89.5636 4.21216Z" fill="white"/>
<path d="M122.887 171.447H0.321693C0.236375 171.447 0.154551 171.413 0.0942215 171.354C0.0338923 171.295 0 171.214 0 171.131C0 171.047 0.0338923 170.966 0.0942215 170.907C0.154551 170.848 0.236375 170.814 0.321693 170.814H122.887C122.972 170.814 123.054 170.848 123.114 170.907C123.175 170.966 123.208 171.047 123.208 171.131C123.208 171.214 123.175 171.295 123.114 171.354C123.054 171.413 122.972 171.447 122.887 171.447Z" fill="#CBCBCB"/>
<path d="M61.5945 109.467C76.5977 109.467 88.7602 97.5309 88.7602 82.8068C88.7602 68.0827 76.5977 56.1465 61.5945 56.1465C46.5912 56.1465 34.4287 68.0827 34.4287 82.8068C34.4287 97.5309 46.5912 109.467 61.5945 109.467Z" fill="#008375"/>
<path d="M58.9262 92.9786C58.315 92.9796 57.7201 92.7856 57.2312 92.4258L57.2008 92.4035L50.8165 87.6105C50.5208 87.3881 50.2727 87.1106 50.0863 86.794C49.8999 86.4774 49.7788 86.1279 49.73 85.7654C49.6812 85.4029 49.7056 85.0345 49.8019 84.6813C49.8982 84.3281 50.0644 83.9969 50.2911 83.7067C50.5178 83.4166 50.8005 83.173 51.1231 82.9901C51.4457 82.8071 51.8018 82.6883 52.1712 82.6404C52.5405 82.5926 52.9159 82.6165 53.2758 82.711C53.6358 82.8055 53.9732 82.9686 54.2689 83.1911L58.4041 86.3032L68.1759 73.792C68.4025 73.5019 68.6851 73.2585 69.0076 73.0756C69.33 72.8927 69.686 72.774 70.0552 72.7261C70.4244 72.6783 70.7997 72.7022 71.1594 72.7967C71.5192 72.8911 71.8565 73.0542 72.1521 73.2766L72.1529 73.2772L72.0922 73.3598L72.1545 73.2772C72.7508 73.7269 73.1409 74.3905 73.2393 75.1222C73.3376 75.8539 73.1362 76.594 72.6791 77.1801L61.1853 91.8895C60.9194 92.2284 60.5775 92.5027 60.1862 92.691C59.7948 92.8793 59.3645 92.9766 58.9287 92.9753L58.9262 92.9786Z" fill="white"/>
<path d="M223.333 174.066C223.664 173.542 224.053 173.055 224.493 172.615C224.675 172.43 224.866 172.256 225.064 172.087C226.265 171.038 227.729 170.321 229.306 170.011C230.883 169.702 232.515 169.81 234.035 170.324C235.555 170.839 236.908 171.742 237.955 172.94C239.002 174.138 239.705 175.587 239.991 177.14C241.318 172.325 237.864 167.582 234.392 163.939C230.918 160.297 226.947 156.301 226.967 151.311C226.976 148.534 228.361 146.057 230.45 144.22C230.515 144.164 230.579 144.109 230.645 144.055C233.171 141.93 236.421 140.819 239.745 140.943C245.921 141.268 251.314 145.341 255.059 150.174C261.087 157.949 263.729 168.862 259.509 177.713C255.797 185.497 247.88 190.12 239.8 193.836C238.672 194.355 237.546 194.858 236.422 195.346C236.415 195.348 236.407 195.353 236.399 195.355C236.345 195.378 236.291 195.402 236.24 195.426C236.008 195.526 235.776 195.627 235.546 195.726L235.653 195.794L235.985 196.005C235.87 195.937 235.756 195.87 235.641 195.802C235.607 195.781 235.57 195.762 235.536 195.741C231.568 193.404 227.544 190.932 224.803 187.284C221.96 183.496 220.816 178.07 223.333 174.066Z" fill="#F1F1F1"/>
<path d="M249.815 165.269C250.694 167.231 251.276 169.308 251.544 171.435C251.755 173.331 251.676 175.248 251.309 177.122C250.521 180.972 248.802 184.579 246.298 187.642C244.408 189.967 242.227 192.048 239.805 193.836C238.677 194.355 237.551 194.858 236.427 195.346C236.42 195.348 236.412 195.353 236.404 195.355C236.35 195.378 236.296 195.402 236.246 195.426C236.014 195.526 235.782 195.627 235.552 195.726L235.658 195.794L235.99 196.005C235.875 195.937 235.761 195.87 235.646 195.802C235.612 195.781 235.576 195.762 235.542 195.741C236.415 192.743 236.543 189.583 235.916 186.527C235.289 183.47 233.924 180.605 231.936 178.173C229.938 175.771 227.389 173.867 224.499 172.615C224.68 172.43 224.872 172.256 225.069 172.087C226.183 172.589 227.249 173.186 228.255 173.872C231.854 176.313 234.556 179.827 235.962 183.893C237.217 187.581 237.374 191.545 236.414 195.318C236.613 195.19 236.813 195.059 237.008 194.928C240.705 192.481 244.112 189.543 246.678 185.94C248.892 182.894 250.308 179.362 250.803 175.652C251.295 171.601 250.262 167.616 248.418 164.001C246.383 160.133 243.818 156.557 240.796 153.371C237.759 150.098 234.327 147.201 230.573 144.745C230.489 144.689 230.429 144.604 230.408 144.506C230.386 144.408 230.403 144.306 230.456 144.22C230.496 144.142 230.566 144.083 230.65 144.055C230.693 144.045 230.738 144.044 230.782 144.052C230.825 144.061 230.866 144.079 230.901 144.105C231.364 144.409 231.824 144.715 232.278 145.03C236.057 147.656 239.49 150.733 242.496 154.19C245.401 157.523 248.045 161.225 249.815 165.269Z" fill="white"/>
<path d="M168.903 12.7133C172.089 12.7133 174.672 10.1783 174.672 7.05133C174.672 3.92434 172.089 1.3894 168.903 1.3894C165.716 1.3894 163.133 3.92434 163.133 7.05133C163.133 10.1783 165.716 12.7133 168.903 12.7133Z" fill="#F1F1F1"/>
<path d="M240.635 88.4818C242.578 88.4818 244.152 86.9363 244.152 85.0298C244.152 83.1234 242.578 81.5779 240.635 81.5779C238.692 81.5779 237.118 83.1234 237.118 85.0298C237.118 86.9363 238.692 88.4818 240.635 88.4818Z" fill="#F1F1F1"/>
<path d="M137.703 97.953C139.646 97.953 141.221 96.4075 141.221 94.501C141.221 92.5946 139.646 91.0491 137.703 91.0491C135.761 91.0491 134.186 92.5946 134.186 94.501C134.186 96.4075 135.761 97.953 137.703 97.953Z" fill="#F1F1F1"/>
<path d="M139.695 196.386H262.26C262.346 196.386 262.427 196.353 262.488 196.294C262.548 196.234 262.582 196.154 262.582 196.07C262.582 195.986 262.548 195.906 262.488 195.847C262.427 195.787 262.346 195.754 262.26 195.754H139.695C139.61 195.754 139.528 195.787 139.468 195.847C139.407 195.906 139.374 195.986 139.374 196.07C139.374 196.154 139.407 196.234 139.468 196.294C139.528 196.353 139.61 196.386 139.695 196.386Z" fill="#CBCBCB"/>
<path d="M248.735 30.8427C248.896 29.7214 248.632 28.581 247.994 27.6378C247.355 26.6945 246.386 26.0139 245.27 25.7249C244.155 25.436 242.97 25.5586 241.94 26.0698C240.91 26.5809 240.108 27.445 239.684 28.4982L229.738 39.6883L232.656 47.6873L242.658 34.6121C243.311 34.8173 244.002 34.8796 244.682 34.7945C245.361 34.7094 246.014 34.4791 246.593 34.1197C247.173 33.7603 247.665 33.2806 248.035 32.7145C248.405 32.1483 248.644 31.5094 248.735 30.8427Z" fill="#FFB7B7"/>
<path d="M207.492 74.383L240.508 39.8038L236.054 32.8557L194.645 67.2249L207.492 74.383Z" fill="#3F3D56"/>
<path d="M200.124 53.3731C206.52 53.3731 211.705 48.2846 211.705 42.0076C211.705 35.7306 206.52 30.6421 200.124 30.6421C193.728 30.6421 188.543 35.7306 188.543 42.0076C188.543 48.2846 193.728 53.3731 200.124 53.3731Z" fill="#2F2E41"/>
<path d="M201.064 35.5872C203.556 33.1072 206.572 31.1934 209.899 29.9805C212.035 29.2041 214.359 28.7243 216.592 29.1653C218.825 29.6062 220.936 31.1221 221.559 33.2719C222.068 35.0299 221.542 36.9227 220.752 38.5776C219.962 40.2324 218.906 41.767 218.267 43.4836C217.615 45.2352 217.419 47.1189 217.696 48.9637C217.974 50.8085 218.717 52.5561 219.857 54.0477C220.998 55.5393 222.5 56.7278 224.227 57.5052C225.954 58.2826 227.852 58.6244 229.748 58.4994C227.554 58.7881 225.532 59.7998 223.388 60.3384C221.244 60.8769 218.713 60.8404 217.119 59.3328C215.433 57.7377 215.399 55.1442 215.481 52.8474C215.602 49.433 215.723 46.0186 215.845 42.6042C215.906 40.863 215.959 39.0659 215.319 37.4407C214.679 35.8154 213.159 34.3923 211.383 34.4071C210.038 34.4183 208.847 35.2182 207.768 36.0071C206.689 36.796 205.547 37.6376 204.207 37.755C202.867 37.8723 201.336 36.8989 201.437 35.5821L201.064 35.5872Z" fill="#2F2E41"/>
<path d="M156.157 118.32C155.045 118.623 153.859 118.515 152.823 118.017C151.786 117.519 150.972 116.665 150.534 115.618C150.097 114.57 150.066 113.401 150.448 112.332C150.829 111.264 151.597 110.37 152.606 109.819L162.611 98.6802L171.073 100.474L159.171 111.915C159.464 112.523 159.617 113.187 159.62 113.86C159.623 114.532 159.475 115.197 159.188 115.808C158.901 116.419 158.48 116.96 157.957 117.394C157.433 117.828 156.819 118.144 156.157 118.32H156.157Z" fill="#FFB7B7"/>
<path d="M189.051 78.4409L164.115 109.159L156.514 105.734L185.823 60.9529L189.051 78.4409Z" fill="#3F3D56"/>
<path d="M169.156 171.196L163.213 171.104L163.928 190.983H169.155L169.156 171.196Z" fill="#FFB7B7"/>
<path d="M170.487 189.308L160.192 189.308H160.192C158.452 189.308 156.783 189.986 155.553 191.193C154.323 192.401 153.631 194.038 153.631 195.746V195.955L170.486 195.956L170.487 189.308Z" fill="#2F2E41"/>
<path d="M208.522 165.924L202.03 170.014L215.016 185.346L219.415 182.575L208.522 165.924Z" fill="#FFB7B7"/>
<path d="M219.593 180.458L210.93 185.916L210.929 185.916C209.465 186.839 208.435 188.294 208.064 189.962C207.694 191.631 208.013 193.375 208.953 194.812L209.069 194.988L223.252 186.052L219.593 180.458Z" fill="#2F2E41"/>
<path d="M210.833 105.225C210.833 105.225 196.408 58.2073 191.773 57.5719C187.137 56.9365 179.668 69.6361 179.668 69.6361C169.984 81.7618 159.999 121.04 159.999 121.04C159.999 121.04 176.645 122.062 188.814 128.416C200.982 134.77 215.343 128.094 215.343 128.094L210.833 105.225Z" fill="#3F3D56"/>
<path opacity="0.1" d="M210.833 105.225C210.833 105.225 196.408 58.2075 191.773 57.5722C187.137 56.9368 181.565 69.7652 181.565 69.7652C176.74 89.3391 159.999 121.04 159.999 121.04C159.999 121.04 176.645 122.062 188.814 128.416C200.982 134.77 215.343 128.095 215.343 128.095L210.833 105.225Z" fill="black"/>
<path d="M198.979 91.1561V114.782L201.813 149.006L215.967 174.894L209.212 179.63L189.91 155.005L182.276 130.553L170.287 184.681L161.279 184.05L167.535 109.002L179.406 87.8784L198.979 91.1561Z" fill="#2F2E41"/>
<path d="M184.453 68.3061C179.949 72.726 184.131 77.4616 184.131 77.4616L178.984 88.8271L199.251 94.1942L206.333 63.1353L201.508 58.084C191.857 57.7683 191.852 57.572 191.852 57.572C190.161 59.196 184.453 68.3061 184.453 68.3061Z" fill="#008375"/>
<path d="M207.136 59.9169C206.216 59.2501 205.17 58.7692 204.058 58.5019C202.947 58.2347 201.793 58.1865 200.663 58.3602C199.532 58.5338 198.448 58.9258 197.474 59.5135C196.499 60.1011 195.652 60.8728 194.984 61.7837C189.889 68.7458 185.178 79.9878 191.669 94.0086C202.091 116.522 211.161 128.047 214.848 128.045C215.009 128.047 215.169 128.022 215.322 127.972C217.592 127.217 220.873 123.447 221.467 120.126C221.68 118.937 221.629 117.281 220.181 116.144C216.019 112.878 208.549 102.707 206.219 89.3205C204.931 81.9235 207.428 75.1856 209.75 70.8358C210.731 69.036 211.018 66.9496 210.558 64.959C210.099 62.9685 208.924 61.2071 207.248 59.9979L207.136 59.9169Z" fill="#3F3D56"/>
<path d="M200.736 52.2568C204.868 50.0404 206.386 44.9571 204.128 40.9027C201.869 36.8484 196.69 35.3584 192.558 37.5747C188.427 39.791 186.909 44.8743 189.167 48.9287C191.426 52.983 196.605 54.4731 200.736 52.2568Z" fill="#FFB7B7"/>
<path d="M184.647 44.2833H196.957L197.083 42.5488L197.714 44.2833H199.61L199.86 40.8457L201.111 44.2833H204.778V44.113C204.776 41.7197 203.806 39.4253 202.081 37.733C200.357 36.0408 198.019 35.0889 195.58 35.0862H193.845C191.406 35.0889 189.068 36.0408 187.344 37.733C185.62 39.4253 184.65 41.7197 184.647 44.113V44.2833Z" fill="#2F2E41"/>
<path d="M202.915 50.5171L208.168 48.8443V36.3247H198.246L198.491 36.5654C201.909 39.9154 205.71 51.8006 202.915 50.5171Z" fill="#2F2E41"/>
</svg>
