<svg width="24" height="24" viewBox="0 0 24 24" fill="none" xmlns="http://www.w3.org/2000/svg">
<path d="M19.6541 15.493C19.6541 13.5569 17.9515 12.4344 14.9306 11.5153C14.9231 11.4023 14.9155 11.2969 14.8929 11.1914H17.9591C19.4055 11.1914 20.2116 10.4155 20.2116 9.01423C20.2116 6.55831 17.9892 4.04967 15.7819 4.04967C13.8533 4.04967 12.7233 5.75223 11.8042 8.76562C11.6987 8.77316 11.5933 8.78823 11.4878 8.80329V5.73717C11.4878 4.29827 10.7043 3.49219 9.31062 3.49219C6.84717 3.49972 4.34605 5.71456 4.34605 7.91434C4.34605 9.85045 6.04109 10.9805 9.06201 11.8996C9.06955 12.005 9.08461 12.1105 9.09968 12.2084H6.03355C4.58712 12.2084 3.78857 12.9919 3.78857 14.3931C3.78857 16.8491 6.00342 19.3652 8.2032 19.3652C10.1393 19.3652 11.2693 17.6551 12.1884 14.6342C12.2939 14.6267 12.4069 14.6116 12.5123 14.5965V17.6702C12.5123 19.1091 13.2883 19.9152 14.682 19.9152C17.1379 19.9152 19.6541 17.7003 19.6541 15.493ZM5.68701 7.91434C5.68701 6.44531 7.58545 4.84068 9.29555 4.84068C9.92083 4.84068 10.1393 5.06669 10.1393 5.73717V9.42857C9.78523 9.71484 9.49895 10.0915 9.31062 10.5134C6.93757 9.79018 5.68701 9.11217 5.68701 7.91434ZM15.7819 5.39062C17.2509 5.39062 18.8631 7.2966 18.8631 9.0067C18.8631 9.63198 18.6295 9.84291 17.9591 9.84291H14.2676C13.9814 9.48884 13.6047 9.20257 13.1828 9.01423C13.9136 6.64872 14.5916 5.39062 15.7819 5.39062ZM11.9925 13.3083C11.1111 13.3083 10.3879 12.5926 10.3879 11.7037C10.3879 10.8147 11.1111 10.084 11.9925 10.084C12.8815 10.084 13.6122 10.8147 13.6122 11.7037C13.6122 12.5926 12.8815 13.3083 11.9925 13.3083ZM11.9925 12.7433C12.5726 12.7433 13.0397 12.2838 13.0397 11.7037C13.0397 11.1236 12.5726 10.649 11.9925 10.649C11.4125 10.649 10.9454 11.1161 10.9454 11.7037C10.9454 12.2913 11.4125 12.7433 11.9925 12.7433ZM13.8533 17.6702L13.8608 13.9788C14.2149 13.685 14.5012 13.3158 14.6895 12.894C17.055 13.6172 18.3056 14.3027 18.3056 15.493C18.3056 16.9621 16.4072 18.5742 14.6971 18.5667C14.0642 18.5667 13.8533 18.3407 13.8533 17.6702ZM5.13707 14.4007C5.13707 13.7754 5.36307 13.5569 6.03355 13.5569L9.71743 13.5645C10.0112 13.9185 10.3804 14.2048 10.8098 14.3931C10.079 16.7586 9.40102 18.0092 8.2032 18.0092C6.7417 18.0092 5.13707 16.1108 5.13707 14.4007Z" fill="#008375"/>
</svg>
