<svg width="32" height="32" viewBox="0 0 32 32" fill="none" xmlns="http://www.w3.org/2000/svg">
<circle cx="16" cy="16" r="16" fill="#D03E1A"/>
<path d="M21.4086 11.07C21.597 11.07 21.7401 10.9043 21.7175 10.7084L21.6572 10.0907L22.177 10.4523C22.3202 10.5578 22.5311 10.5201 22.629 10.3619C22.7345 10.2037 22.6592 9.97768 22.4708 9.90234L21.9209 9.63867L22.4859 9.36747C22.6592 9.29213 22.7345 9.08873 22.6366 8.92299C22.5537 8.75725 22.3202 8.71959 22.162 8.83259L21.6648 9.18666L21.7175 8.58398C21.7401 8.38811 21.6045 8.21484 21.4086 8.21484C21.2128 8.21484 21.0696 8.37305 21.0922 8.57645L21.145 9.1942L20.6327 8.83259C20.4745 8.71959 20.2635 8.75725 20.1731 8.92299C20.0752 9.08873 20.143 9.29213 20.3238 9.375L20.8888 9.63867L20.3313 9.90234C20.143 9.97768 20.0677 10.1886 20.1731 10.3619C20.256 10.5201 20.4745 10.5578 20.6327 10.4448L21.145 10.0907L21.0998 10.7084C21.0847 10.9118 21.2203 11.07 21.4086 11.07ZM8.92564 14.1738C10.0105 13.8348 11.133 13.6616 12.2027 13.6616C13.5813 13.6616 14.5984 13.88 15.9092 13.88C17.2878 13.88 18.1768 12.9308 18.1768 11.6953C18.1768 10.4297 17.22 9.51814 16.0071 9.51814C15.1408 9.51814 14.3648 10.053 14.0258 10.7913C13.8827 11.0776 13.9429 11.4015 14.2367 11.5522C14.508 11.7028 14.847 11.6124 15.0278 11.2734C15.186 10.9194 15.5702 10.6406 16.0071 10.6406C16.6023 10.6406 17.0618 11.0474 17.0618 11.6953C17.0618 12.3432 16.6098 12.7575 15.9092 12.7575C14.6737 12.7575 13.6341 12.5391 12.2027 12.5391C10.9748 12.5391 9.72419 12.7575 8.58664 13.1041C8.23256 13.202 8.08943 13.5109 8.1723 13.8122C8.2627 14.1136 8.54897 14.2793 8.92564 14.1738ZM20.7457 17.7899C22.5311 17.7899 23.8043 16.6448 23.8043 15.0477C23.8043 13.4807 22.5989 12.3281 21.0847 12.3281C19.7437 12.3281 18.7041 13.2397 18.4781 14.4676C18.4028 14.8066 18.5836 15.108 18.8849 15.1682C19.1938 15.236 19.4876 15.0552 19.578 14.671C19.7136 13.9403 20.3464 13.4431 21.0847 13.4431C21.9736 13.4431 22.6818 14.0985 22.6818 15.0477C22.6818 16.012 21.9209 16.6749 20.7457 16.6749C18.448 16.6749 15.9468 15.3641 12.9259 15.3641C11.3665 15.3641 9.94266 15.6127 8.5791 16.0798C8.2401 16.1928 8.08943 16.4941 8.1723 16.7955C8.2627 17.0968 8.56404 17.2701 8.92564 17.142C10.1687 16.69 11.4569 16.4866 12.9259 16.4866C15.9167 16.4866 18.1768 17.7899 20.7457 17.7899ZM15.9242 23.1839C17.1145 23.1839 18.0487 22.2874 18.0487 21.0218C18.0487 19.1987 16.1879 18.1892 12.7903 18.1892C11.3966 18.1892 9.87486 18.4528 8.58664 18.8898C8.2401 19.0103 8.08943 19.3117 8.1723 19.6055C8.2627 19.9143 8.56404 20.0876 8.92564 19.9595C10.1235 19.5377 11.4494 19.3041 12.7903 19.3041C15.4722 19.3041 16.9262 19.9746 16.9262 21.0218C16.9262 21.6696 16.4817 22.0614 15.9242 22.0614C15.3743 22.0614 15.0353 21.6998 14.9223 21.1197C14.8394 20.8108 14.5833 20.5924 14.2367 20.6526C13.8827 20.7054 13.7395 21.0368 13.8149 21.3758C14.0107 22.3929 14.7942 23.1839 15.9242 23.1839ZM21.4086 22.1292C21.597 22.1292 21.7401 21.971 21.7175 21.7751L21.6572 21.1574L22.177 21.5114C22.3202 21.6169 22.5311 21.5868 22.629 21.4286C22.7345 21.2628 22.6592 21.0444 22.4708 20.969L21.9209 20.7054L22.4859 20.4342C22.6592 20.3588 22.7345 20.1554 22.6366 19.9821C22.5537 19.8239 22.3202 19.7787 22.162 19.8993L21.6648 20.2533L21.7175 19.6431C21.7401 19.4473 21.6045 19.2815 21.4086 19.2815C21.2128 19.2815 21.0696 19.4397 21.0922 19.6431L21.145 20.2609L20.6327 19.8993C20.4745 19.7863 20.2635 19.8164 20.1731 19.9821C20.0752 20.1554 20.143 20.3588 20.3238 20.4342L20.8888 20.7054L20.3313 20.969C20.143 21.0444 20.0677 21.2553 20.1731 21.4286C20.256 21.5868 20.4745 21.6244 20.6327 21.5114L21.145 21.1574L21.0998 21.7751C21.0847 21.971 21.2203 22.1292 21.4086 22.1292Z" fill="white"/>
</svg>
