<svg width="48" height="48" viewBox="0 0 48 48" fill="none" xmlns="http://www.w3.org/2000/svg">
<rect width="48" height="48" rx="12" fill="url(#paint0_linear_400_8420)"/>
<path d="M23.8453 35.6323C30.5577 35.6323 36.098 30.0919 36.098 23.3914C36.098 16.6909 30.5458 11.1506 23.8335 11.1506C17.133 11.1506 11.6045 16.6909 11.6045 23.3914C11.6045 30.0919 17.1448 35.6323 23.8453 35.6323ZM23.8453 33.1936C18.4115 33.1936 14.0669 28.8252 14.0669 23.3914C14.0669 17.9576 18.4115 13.6011 23.8335 13.6011C29.2673 13.6011 33.6356 17.9576 33.6475 23.3914C33.6593 28.8252 29.2791 33.1936 23.8453 33.1936ZM20.0807 28.9436C20.6135 28.9436 20.9686 28.6713 21.1699 27.9965L21.8802 25.8893H25.7868L26.5089 27.9965C26.6984 28.6595 27.0535 28.9436 27.5981 28.9436C28.2492 28.9436 28.6517 28.5411 28.6517 27.9373C28.6517 27.7361 28.6043 27.523 28.4978 27.2034L25.5027 18.9757C25.2186 18.147 24.6503 17.7445 23.8216 17.7445C23.0048 17.7445 22.4602 18.147 22.1761 18.9757L19.1692 27.2034C19.0626 27.523 19.0153 27.7361 19.0153 27.9373C19.0153 28.5529 19.4296 28.9436 20.0807 28.9436ZM22.3774 24.2319L23.7743 19.982H23.9045L25.2896 24.2319H22.3774Z" fill="#CACACA"/>
<defs>
<linearGradient id="paint0_linear_400_8420" x1="24" y1="1.45985e-07" x2="28.8491" y2="47.5169" gradientUnits="userSpaceOnUse">
<stop stop-color="#F8F8F8"/>
<stop offset="1" stop-color="#F8F8F8" stop-opacity="0.5"/>
</linearGradient>
</defs>
</svg>
