<svg width="48" height="48" viewBox="0 0 48 48" fill="none" xmlns="http://www.w3.org/2000/svg">
<rect width="48" height="48" rx="12" fill="url(#paint0_linear_248_18310)"/>
<path d="M23.9999 35.769C24.5963 35.769 24.9541 35.3634 24.9541 34.7551V32.3098L26.7553 33.3834C27.2324 33.6935 27.7453 33.6696 28.0554 33.1925C28.3178 32.7631 28.1986 32.2502 27.6976 31.952L24.9541 30.3656V28.8865L24.6917 24.7833L28.1628 27.0496L29.4391 27.7772L29.451 30.9381C29.451 31.5226 29.8446 31.9043 30.3337 31.8804C30.9062 31.8566 31.1806 31.4272 31.1448 30.8546L31.109 28.7434L33.2441 29.9839C33.7689 30.294 34.3057 30.1628 34.592 29.6618C34.8663 29.1489 34.7113 28.6002 34.2103 28.314L32.0752 27.0854L33.924 26.0476C34.425 25.8091 34.6635 25.332 34.4011 24.8429C34.1506 24.4016 33.6497 24.2584 33.1368 24.5328L30.3933 26.1073L29.117 25.3677L25.3955 23.5308L29.117 21.6939L30.3933 20.9544L33.1368 22.5289C33.6377 22.8152 34.1626 22.6601 34.4011 22.2188C34.6635 21.7297 34.425 21.2526 33.9121 21.0021L32.0871 19.9763L34.2103 18.7477C34.7351 18.4495 34.8782 17.9247 34.592 17.3998C34.3057 16.9227 33.7689 16.7676 33.2441 17.0778L31.109 18.3064L31.1448 16.207C31.1806 15.6345 30.8943 15.1932 30.3337 15.1812C29.8446 15.1693 29.451 15.5391 29.451 16.1116L29.4391 19.2845L28.1628 20.0121L24.6917 22.2903L24.9541 18.1752V16.6961L27.6976 15.1097C28.1986 14.8115 28.3059 14.2866 28.0554 13.8691C27.7572 13.392 27.2324 13.3562 26.7553 13.6783L24.9541 14.7518V12.3066C24.9541 11.6982 24.5963 11.2808 23.9999 11.2808C23.4274 11.2808 23.0337 11.6982 23.0337 12.3066V14.7518L21.2207 13.6783C20.7435 13.3562 20.2426 13.392 19.9324 13.8691C19.67 14.2866 19.7893 14.8115 20.3022 15.1097L23.0337 16.6961V18.1752L23.2961 22.3022L19.837 20.0121L18.5607 19.2725L18.5488 16.1116C18.5488 15.5391 18.1552 15.1693 17.6661 15.1812C17.0936 15.2051 16.8073 15.6345 16.855 16.207L16.8789 18.3064L14.7438 17.0778C14.2428 16.7796 13.6822 16.9227 13.3959 17.3998C13.0977 17.9247 13.2766 18.4614 13.7776 18.7477L15.9127 19.9763L14.0758 21.0021C13.5748 21.2526 13.3363 21.7058 13.5987 22.2307C13.8253 22.6601 14.3501 22.8152 14.863 22.5289L17.6065 20.9544L18.8709 21.6939L22.6043 23.5308L18.8828 25.3677L17.5946 26.1073L14.8511 24.5328C14.3501 24.2465 13.8372 24.4016 13.6106 24.831C13.3482 25.3558 13.5748 25.7972 14.0758 26.0476L15.9127 27.0854L13.7895 28.314C13.2766 28.6002 13.1096 29.1609 13.3959 29.6499C13.6941 30.1747 14.2428 30.2821 14.7438 29.9839L16.8789 28.7672L16.8431 30.8546C16.8073 31.4272 17.0936 31.8685 17.6661 31.8804C18.1552 31.8924 18.5488 31.5226 18.5488 30.9381L18.5727 27.7772L19.837 27.0496L23.2961 24.7713L23.0337 28.8865V30.3656L20.3022 31.952C19.7893 32.2502 19.67 32.7631 19.9324 33.1925C20.2426 33.6696 20.7435 33.6935 21.2207 33.3834L23.0337 32.2979V34.7551C23.0337 35.3515 23.4274 35.769 23.9999 35.769Z" fill="#CACACA"/>
<defs>
<linearGradient id="paint0_linear_248_18310" x1="24" y1="1.45985e-07" x2="28.8491" y2="47.5169" gradientUnits="userSpaceOnUse">
<stop stop-color="#F8F8F8"/>
<stop offset="1" stop-color="#F8F8F8" stop-opacity="0.5"/>
</linearGradient>
</defs>
</svg>
