<svg width="24" height="24" viewBox="0 0 24 24" fill="none" xmlns="http://www.w3.org/2000/svg">
<path d="M8.54185 19.5159H15.4651C16.6253 19.5159 17.3711 18.8153 17.4314 17.6551L17.9361 6.80692H18.7648C19.149 6.80692 19.4428 6.50558 19.4428 6.12891C19.4428 5.75224 19.1415 5.46596 18.7648 5.46596H15.4199V4.33594C15.4199 3.17579 14.6816 2.49777 13.4235 2.49777H10.5608C9.30273 2.49777 8.56445 3.17579 8.56445 4.33594V5.46596H5.23465C4.85798 5.46596 4.55664 5.75977 4.55664 6.12891C4.55664 6.51312 4.85798 6.80692 5.23465 6.80692H6.06334L6.56808 17.6551C6.62835 18.8228 7.36663 19.5159 8.54185 19.5159ZM9.97321 4.40374C9.97321 4.01954 10.2444 3.77093 10.6588 3.77093H13.3256C13.74 3.77093 14.0112 4.01954 14.0112 4.40374V5.46596H9.97321V4.40374ZM8.69252 18.1674C8.27818 18.1674 7.97684 17.8585 7.95424 17.4141L7.4495 6.80692H16.5273L16.0377 17.4141C16.0226 17.8661 15.7288 18.1674 15.2994 18.1674H8.69252ZM9.77734 16.9545C10.1013 16.9545 10.3047 16.7511 10.2972 16.4498L10.0711 8.56976C10.0636 8.26842 9.85268 8.07255 9.54381 8.07255C9.2274 8.07255 9.024 8.27595 9.03153 8.57729L9.25753 16.4573C9.26507 16.7587 9.47601 16.9545 9.77734 16.9545ZM11.9997 16.9545C12.3161 16.9545 12.5346 16.7587 12.5346 16.4573V8.57729C12.5346 8.27595 12.3161 8.07255 11.9997 8.07255C11.6833 8.07255 11.4724 8.27595 11.4724 8.57729V16.4573C11.4724 16.7587 11.6833 16.9545 11.9997 16.9545ZM14.2221 16.9621C14.5234 16.9621 14.7344 16.7587 14.7419 16.4573L14.9679 8.57729C14.9754 8.27595 14.772 8.08008 14.4556 8.08008C14.1468 8.08008 13.9358 8.27595 13.9283 8.57729L13.7023 16.4573C13.6948 16.7511 13.8982 16.9621 14.2221 16.9621Z" fill="#008375"/>
</svg>
