<svg width="30" height="30" viewBox="0 0 30 30" fill="none" xmlns="http://www.w3.org/2000/svg">
<rect width="30" height="30" rx="7" fill="#F4A261"/>
<path d="M14.013 23.7514C16.2882 23.7514 18.1339 21.9132 18.1339 19.6306C18.1339 18.4629 17.6592 17.4383 16.7628 16.6097C16.6046 16.4665 16.5669 16.3761 16.5669 16.1652L16.5744 9.56585C16.5744 7.87835 15.5423 6.75586 14.013 6.75586C12.4687 6.75586 11.4215 7.87835 11.4215 9.56585L11.4366 16.1652C11.4366 16.3761 11.3989 16.4665 11.2407 16.6097C10.3367 17.4308 9.86963 18.4629 9.86963 19.6306C9.86963 21.9132 11.7153 23.7514 14.013 23.7514ZM14.013 22.4406C12.4461 22.4406 11.188 21.1749 11.188 19.6155C11.188 18.6588 11.64 17.8301 12.431 17.2952C12.6646 17.1445 12.755 17.0014 12.755 16.7001V9.61858C12.755 8.6769 13.2597 8.07422 14.013 8.07422C14.7438 8.07422 15.2485 8.6769 15.2485 9.61858V16.7001C15.2485 17.0014 15.3389 17.1445 15.5725 17.2952C16.3635 17.8301 16.8155 18.6588 16.8155 19.6155C16.8155 21.1749 15.5574 22.4406 14.013 22.4406ZM18.0133 9.70145H19.6632C19.9494 9.70145 20.1302 9.49051 20.1302 9.24191C20.1302 8.9933 19.9494 8.78237 19.6632 8.78237H18.0133C17.7271 8.78237 17.5387 8.9933 17.5387 9.24191C17.5387 9.49051 17.7271 9.70145 18.0133 9.70145ZM18.0133 11.7882H19.6632C19.9494 11.7882 20.1302 11.5773 20.1302 11.3287C20.1302 11.0801 19.9494 10.8691 19.6632 10.8691H18.0133C17.7271 10.8691 17.5387 11.0801 17.5387 11.3287C17.5387 11.5773 17.7271 11.7882 18.0133 11.7882ZM18.0133 13.8901H19.6632C19.9494 13.8901 20.1302 13.6791 20.1302 13.4305C20.1302 13.1819 19.9494 12.971 19.6632 12.971H18.0133C17.7271 12.971 17.5387 13.1819 17.5387 13.4305C17.5387 13.6791 17.7271 13.8901 18.0133 13.8901ZM13.998 21.4235C14.9999 21.4235 15.806 20.6175 15.806 19.608C15.806 18.9149 15.4143 18.3348 14.8342 18.0259C14.5931 17.8979 14.5178 17.8075 14.5178 17.4459V13.5963C14.5178 13.2121 14.2918 12.971 13.998 12.971C13.7117 12.971 13.4857 13.2121 13.4857 13.5963V17.4459C13.4857 17.8075 13.4104 17.8979 13.1693 18.0259C12.5892 18.3348 12.1975 18.9149 12.1975 19.608C12.1975 20.6175 13.0036 21.4235 13.998 21.4235ZM18.0133 15.9844H19.6632C19.9494 15.9844 20.1302 15.7734 20.1302 15.5248C20.1302 15.2762 19.9494 15.0653 19.6632 15.0653H18.0133C17.7271 15.0653 17.5387 15.2762 17.5387 15.5248C17.5387 15.7734 17.7271 15.9844 18.0133 15.9844Z" fill="white"/>
</svg>
