<svg width="24" height="24" viewBox="0 0 24 24" fill="none" xmlns="http://www.w3.org/2000/svg">
<path d="M11.9999 11.8693C13.823 11.8693 15.2996 10.2572 15.2996 8.28341C15.2996 6.33977 13.823 4.79541 11.9999 4.79541C10.1919 4.79541 8.70026 6.36237 8.70026 8.29848C8.7078 10.2647 10.1768 11.8693 11.9999 11.8693ZM11.9999 10.551C10.9603 10.551 10.0789 9.5641 10.0789 8.29848C10.0789 7.06299 10.9528 6.11377 11.9999 6.11377C13.0546 6.11377 13.921 7.04792 13.921 8.28341C13.921 9.54904 13.0471 10.551 11.9999 10.551ZM11.9999 12.7432C10.6816 12.7432 9.52895 13.037 8.5722 13.5192C8.94134 13.8055 9.26528 14.152 9.52895 14.5513C10.222 14.2499 11.0507 14.0616 11.9999 14.0616C15.3147 14.0616 17.1754 16.2086 17.1754 17.3613C17.1754 17.4969 17.1076 17.5571 16.9268 17.5571H10.5309C10.5234 18.0242 10.4631 18.431 10.32 18.8755H16.6933C17.9966 18.8755 18.6219 18.4611 18.6219 17.5722C18.6219 15.5005 16.0379 12.7432 11.9999 12.7432ZM5.5814 21.3389C7.69078 21.3389 9.46868 19.5761 9.46868 17.4517C9.46868 15.3272 7.71338 13.5719 5.5814 13.5719C3.45696 13.5719 1.70166 15.3272 1.70166 17.4517C1.70166 19.5836 3.45696 21.3389 5.5814 21.3389ZM3.12549 17.4517C3.11795 17.1428 3.32889 16.9394 3.63776 16.9394H5.06913V15.5156C5.06913 15.2067 5.27253 14.9957 5.5814 14.9957C5.89781 14.9957 6.10121 15.2067 6.10121 15.5156V16.9394H7.53258C7.83391 16.9394 8.04485 17.1428 8.04485 17.4517C8.04485 17.7681 7.83391 17.9715 7.53258 17.9715H6.10121V19.4028C6.10121 19.7117 5.89781 19.9151 5.5814 19.9151C5.27253 19.9151 5.06913 19.7117 5.06913 19.4028V17.9715H3.63776C3.33643 17.9715 3.12549 17.7681 3.12549 17.4517Z" fill="#008375"/>
</svg>
