<svg width="28" height="28" viewBox="0 0 28 28" fill="none" xmlns="http://www.w3.org/2000/svg">
<path d="M6.50488 16.0625L13.1934 9.22461C13.4219 8.97852 13.6943 8.86426 14.002 8.86426C14.3096 8.86426 14.5908 8.9873 14.8193 9.22461L21.499 16.0625C21.6924 16.2559 21.7979 16.502 21.7979 16.792C21.7979 17.3809 21.3408 17.8379 20.7607 17.8379C20.4795 17.8379 20.207 17.7324 20.0049 17.5215L14.0107 11.3604L7.99902 17.5215C7.80566 17.7236 7.5332 17.8379 7.24316 17.8379C6.66309 17.8379 6.20605 17.3809 6.20605 16.792C6.20605 16.5107 6.31152 16.2559 6.50488 16.0625Z" fill="#CACACA"/>
</svg>
