<svg width="32" height="32" viewBox="0 0 32 32" fill="none" xmlns="http://www.w3.org/2000/svg">
<circle cx="16" cy="16" r="16" fill="#008375"/>
<path d="M6.95201 22.2274H7.41908C7.81836 22.2274 8.08203 21.9713 8.08203 21.5645V20.4796C8.17243 20.5022 8.43611 20.5173 8.62444 20.5173H23.3675C23.5558 20.5173 23.8195 20.5022 23.9099 20.4796V21.5645C23.9099 21.9713 24.1735 22.2274 24.5728 22.2274H25.0399C25.4392 22.2274 25.7028 21.9713 25.7028 21.5645V16.2835C25.7028 14.9199 25.0173 14.1289 23.7517 14.0008V11.3491C23.7517 9.91769 22.9833 9.17188 21.582 9.17188H10.4099C9.00865 9.17188 8.24023 9.91769 8.24023 11.3491V14.0008C6.97461 14.1289 6.28906 14.9199 6.28906 16.2835V21.5645C6.28906 21.9713 6.55273 22.2274 6.95201 22.2274ZM10.2667 12.5996C10.2667 11.8764 10.666 11.4771 11.4043 11.4771H14.1164C14.8471 11.4771 15.2464 11.8764 15.2464 12.5996V13.9858H10.2667V12.5996ZM16.7455 12.5996C16.7455 11.8764 17.1448 11.4771 17.8756 11.4771H20.5876C21.3259 11.4771 21.7252 11.8764 21.7252 12.5996V13.9858H16.7455V12.5996ZM8.0067 19.2291C7.83343 19.2291 7.73549 19.1161 7.73549 18.9277V16.1931C7.73549 15.6356 8.10463 15.274 8.66211 15.274H23.3298C23.8873 15.274 24.2564 15.6356 24.2564 16.1931V18.9277C24.2564 19.1161 24.1585 19.2291 23.9852 19.2291H8.0067Z" fill="white"/>
</svg>
