<svg width="180" height="188" viewBox="0 0 180 188" fill="none" xmlns="http://www.w3.org/2000/svg">
<g clip-path="url(#clip0_186_12589)">
<path d="M159.919 142.578L159.915 142.662L164.141 187.349H133.304L129.307 159.904L127.547 186.645L95.8796 186.293L99.2434 151.184L102.104 134.911V134.907L102.533 132.458H159.078L159.152 133.345L159.919 142.578Z" fill="#2F2E41"/>
<path d="M78.4242 168.483C81.6901 169.078 85.0956 165.4 86.0306 160.268C86.44 158.021 86.3078 155.868 85.7561 154.108L86.2569 151.149L94.6606 111.35C94.6606 111.35 110.136 80.3952 110.135 75.0212C110.135 69.6472 105.659 67.0118 105.659 67.0118L99.6016 67.0684L80.6071 113.46L77.1862 147.742L76.6328 152.446C75.4957 153.899 74.6129 155.866 74.2038 158.113C73.2687 163.245 75.1583 167.888 78.4242 168.483Z" fill="#FFB6B6"/>
<path d="M140.038 47.8352L134.409 34.8163L116.112 37.9831L114.88 53.3002L140.038 47.8352Z" fill="#FFB6B6"/>
<path opacity="0.1" d="M140.038 47.8352L134.409 34.8163L116.112 37.9831L114.88 53.3002L140.038 47.8352Z" fill="black"/>
<path d="M179.799 74.9287C179.799 74.9287 166.78 50.6501 164.317 48.1871C163.22 47.0906 161.497 47.0754 159.921 47.3949L141.798 41.1498L135.655 37.6983L135.25 44.2648L115.083 47.8846C115.195 43.8801 115.76 42.3569 115.76 42.3569L108.371 51.002L93.9443 58.0393L93.9522 58.1026C92.8935 58.4722 91.8898 59.1045 91.1294 60.1504C88.3145 64.0209 80.5735 111.171 80.5735 111.171L97.111 114.689L99.3617 100.566L100.982 113.282L102.213 137.033C102.213 137.033 124.732 156.385 135.64 149.348C146.548 142.31 159.919 142.662 159.919 142.662L160.252 131.653C160.49 131.274 160.622 131.051 160.622 131.051L160.27 91.9996V81.6083C162.951 85.3428 166.186 88.5545 169.947 90.0588C182.262 94.9849 179.799 74.9287 179.799 74.9287V74.9287Z" fill="#E6E6E6"/>
<path d="M123.348 40.2737C132.644 40.2737 140.18 32.7375 140.18 23.4411C140.18 14.1447 132.644 6.60849 123.348 6.60849C114.051 6.60849 106.515 14.1447 106.515 23.4411C106.515 32.7375 114.051 40.2737 123.348 40.2737Z" fill="#FFB6B6"/>
<path d="M135.423 28.1981C135.423 28.1981 136.887 23.0752 140.18 23.4411C143.474 23.807 144.205 20.8796 143.474 19.4159C142.742 17.9522 141.278 10.6337 141.278 10.6337C141.278 10.6337 142.01 5.51072 137.619 4.77887C133.228 4.04701 131.764 3.31516 131.032 1.85146C130.3 0.387751 119.323 -1.07595 115.663 1.11961C112.004 3.31516 109.077 7.52763 106.515 8.71473C103.954 9.90183 101.758 12.0974 103.222 15.7566C104.685 19.4159 106.808 26.5726 106.808 26.5726C106.808 26.5726 110.54 25.2707 111.272 27.4663C112.004 29.6618 109.077 26.7344 112.736 20.8796C116.395 15.0248 116.395 9.16998 122.25 11.3655C128.105 13.5611 134.691 12.8292 133.96 17.2203C133.228 21.6115 135.423 28.1981 135.423 28.1981V28.1981Z" fill="#2F2E41"/>
<path d="M134.394 161.64H6.55634C2.9411 161.64 0 158.699 0 155.084V87.1769C0 83.5619 2.9411 80.6205 6.55634 80.6205H134.394C138.009 80.6205 140.95 83.5619 140.95 87.1769V155.084C140.95 158.699 138.009 161.64 134.394 161.64Z" fill="white"/>
<path d="M134.394 161.64H6.55634C2.9411 161.64 0 158.699 0 155.084V87.1769C0 83.5619 2.9411 80.6205 6.55634 80.6205H134.394C138.009 80.6205 140.95 83.5619 140.95 87.1769V155.084C140.95 158.699 138.009 161.64 134.394 161.64ZM6.55634 81.7154C3.54494 81.7154 1.09486 84.1655 1.09486 87.1769V155.084C1.09486 158.095 3.54494 160.545 6.55634 160.545H134.394C137.405 160.545 139.855 158.095 139.855 155.084V87.1769C139.855 84.1655 137.405 81.7154 134.394 81.7154H6.55634Z" fill="#3F3D56"/>
<path d="M124.527 88.832C125.434 88.832 126.17 88.0967 126.17 87.1897C126.17 86.2827 125.434 85.5474 124.527 85.5474C123.62 85.5474 122.885 86.2827 122.885 87.1897C122.885 88.0967 123.62 88.832 124.527 88.832Z" fill="#3F3D56"/>
<path d="M128.907 88.832C129.814 88.832 130.549 88.0967 130.549 87.1897C130.549 86.2827 129.814 85.5474 128.907 85.5474C128 85.5474 127.264 86.2827 127.264 87.1897C127.264 88.0967 128 88.832 128.907 88.832Z" fill="#3F3D56"/>
<path d="M133.286 88.832C134.193 88.832 134.929 88.0967 134.929 87.1897C134.929 86.2827 134.193 85.5474 133.286 85.5474C132.379 85.5474 131.644 86.2827 131.644 87.1897C131.644 88.0967 132.379 88.832 133.286 88.832Z" fill="#3F3D56"/>
<path d="M9.30638 113.74C8.85357 113.74 8.48523 114.108 8.48523 114.561C8.48523 114.782 8.5705 114.986 8.72526 115.137C8.88137 115.297 9.08585 115.382 9.30638 115.382H132.191C132.644 115.382 133.013 115.014 133.013 114.561C133.013 114.34 132.927 114.136 132.772 113.985C132.616 113.826 132.412 113.74 132.191 113.74H9.30638Z" fill="#E6E6E6"/>
<path d="M116.863 113.466V115.656H9.30629C9.00521 115.656 8.73149 115.536 8.53443 115.333C8.33184 115.136 8.21143 114.862 8.21143 114.561C8.21143 113.959 8.70413 113.466 9.30629 113.466H116.863Z" fill="#008375"/>
<path d="M130.823 109.361H119.874C118.667 109.361 117.684 108.379 117.684 107.171C117.684 105.963 118.667 104.981 119.874 104.981H130.823C132.03 104.981 133.012 105.963 133.012 107.171C133.012 108.379 132.03 109.361 130.823 109.361Z" fill="#E6E6E6"/>
<path d="M59.1093 97.8646H10.1275C8.92007 97.8646 7.93774 96.8826 7.93774 95.6749C7.93774 94.4672 8.92007 93.4852 10.1275 93.4852H59.1093C60.3167 93.4852 61.299 94.4672 61.299 95.6749C61.299 96.8826 60.3167 97.8646 59.1093 97.8646Z" fill="#E6E6E6"/>
<path d="M9.30638 138.375C8.85357 138.375 8.48523 138.743 8.48523 139.196C8.48523 139.416 8.5705 139.621 8.72526 139.771C8.88137 139.931 9.08585 140.017 9.30638 140.017H132.191C132.644 140.017 133.013 139.648 133.013 139.196C133.013 138.975 132.927 138.771 132.772 138.62C132.616 138.46 132.412 138.375 132.191 138.375H9.30638Z" fill="#E6E6E6"/>
<path d="M74.7111 138.101V140.291H9.30629C9.00521 140.291 8.73149 140.17 8.53443 139.968C8.33184 139.77 8.21143 139.497 8.21143 139.196C8.21143 138.593 8.70413 138.101 9.30629 138.101H74.7111Z" fill="#008375"/>
<path d="M130.823 133.995H119.874C118.667 133.995 117.684 133.013 117.684 131.805C117.684 130.598 118.667 129.616 119.874 129.616H130.823C132.03 129.616 133.012 130.598 133.012 131.805C133.012 133.013 132.03 133.995 130.823 133.995Z" fill="#E6E6E6"/>
<path d="M149.99 41.5693C159.459 41.5693 167.135 34.055 167.135 24.7855C167.135 15.5161 159.459 8.00174 149.99 8.00174C140.521 8.00174 132.845 15.5161 132.845 24.7855C132.845 34.055 140.521 41.5693 149.99 41.5693Z" fill="#008375"/>
<path d="M155.809 16.3197C153.527 20.4759 151.244 24.6322 148.962 28.7885C147.507 26.2181 146.06 23.6433 144.602 21.0749C144.098 20.1879 142.728 20.9857 143.233 21.8749C144.923 24.8522 146.596 27.8394 148.287 30.8167C148.576 31.3258 149.37 31.3376 149.656 30.8167C152.163 26.251 154.67 21.6854 157.178 17.1197C157.669 16.2251 156.301 15.4243 155.809 16.3197Z" fill="white"/>
<path d="M173.658 69.0256L156.576 60.8542C156.576 60.8542 155.89 55.3849 152.686 53.4341C152.142 52.1349 151.515 50.7075 150.946 49.5765C149.539 46.7797 151.65 41.5017 149.89 41.5017C148.131 41.5017 145.53 47.0525 145.668 48.539C145.774 49.68 146.717 51.6722 146.912 53.4161C144.766 54.2252 143.036 55.612 141.898 56.7162C140.913 57.6718 140.547 59.0975 140.932 60.4146C142.047 64.2313 144.835 72.1138 148.835 72.1138C154.113 72.1138 155.52 71.0582 155.52 71.0582C155.52 71.0582 166.428 84.7809 174.521 85.8365C182.614 86.892 173.658 69.0256 173.658 69.0256V69.0256Z" fill="#FFB6B6"/>
</g>
<defs>
<clipPath id="clip0_186_12589">
<rect width="180" height="187.349" fill="white"/>
</clipPath>
</defs>
</svg>
