<svg width="48" height="48" viewBox="0 0 48 48" fill="none" xmlns="http://www.w3.org/2000/svg">
<rect width="48" height="48" rx="12" fill="url(#paint0_linear_248_18325)"/>
<path d="M14.9091 31.6908C16.8779 31.6908 18.1837 30.9977 20.8555 29.712C21.8198 29.2499 22.5631 28.8783 23.1859 28.6071C23.9292 31.6908 26.7317 33.9609 30.1368 33.9609C34.1044 33.9609 37.2685 30.8571 37.2685 26.9799C37.2685 24.8403 36.2038 22.731 35.2897 21.0234L31.6435 14.2031C31.2919 13.5803 30.7797 13.2689 30.1368 13.2689C29.4738 13.2689 28.9616 13.5803 28.6301 14.2031L26.7718 17.6685C26.5408 17.6383 26.2997 17.6283 26.0587 17.6283C24.0698 17.6283 22.7439 18.3314 20.0721 19.6171C17.36 20.9229 16.4259 21.4252 14.9091 21.4252C13.9247 21.4252 13.0408 21.1841 12.0464 20.5814C11.5843 20.3203 11.1223 20.481 10.8812 20.8426C10.61 21.2544 10.6602 21.8571 11.2529 22.1986C12.2975 22.8314 13.523 23.2232 14.9091 23.2232C16.8779 23.2232 18.1837 22.5301 20.8555 21.2444C23.427 20.0089 24.4214 19.4866 25.8276 19.4363L24.9738 21.0234C24.8031 21.3448 24.6223 21.6863 24.4515 22.0379C23.1859 22.3191 21.9705 22.9319 20.0721 23.8459C17.36 25.1517 16.4259 25.654 14.9091 25.654C13.9247 25.654 13.0408 25.4129 12.0464 24.8203C11.5843 24.5591 11.1223 24.7098 10.8812 25.0714C10.61 25.4933 10.6502 26.0758 11.2529 26.4274C12.2975 27.0602 13.523 27.452 14.9091 27.452C16.8779 27.452 18.1837 26.7589 20.8555 25.4832C21.9906 24.9308 22.8142 24.529 23.4973 24.2377C23.2261 25.0412 23.0352 25.885 23.0051 26.7287C22.1714 27.0602 21.2573 27.5122 20.0721 28.0747C17.36 29.3805 16.4259 29.8928 14.9091 29.8928C13.9247 29.8928 13.0408 29.6517 12.0464 29.0491C11.5743 28.7778 11.1022 28.9587 10.8611 29.3303C10.61 29.7421 10.6703 30.3247 11.2529 30.6662C12.2975 31.289 13.523 31.6908 14.9091 31.6908ZM30.1368 31.962C27.6256 31.962 25.5564 30.2645 25.0843 27.9743C25.4058 27.914 25.7171 27.8939 26.0587 27.8939C27.1435 27.8939 28.0475 28.1953 28.9817 28.7578C29.4337 29.0189 29.9058 28.8582 30.1468 28.4966C30.418 28.0848 30.3578 27.4821 29.7752 27.1406C28.6401 26.4475 27.3946 26.0959 26.0587 26.0959C25.7071 26.0959 25.3756 26.116 25.0542 26.1562C25.1848 25.3225 25.4962 24.4988 25.8879 23.6651C25.9482 23.6651 25.9984 23.6651 26.0587 23.6651C27.1435 23.6651 28.0475 23.9564 28.9817 24.5189C29.4437 24.7901 29.9158 24.6194 30.1569 24.2477C30.418 23.8359 30.3578 23.2433 29.7752 22.9017C28.8511 22.3392 27.8567 22.0078 26.7919 21.8973L27.937 19.7778C28.2886 19.9084 28.6301 20.0792 28.9817 20.2901C29.4337 20.5513 29.8957 20.3906 30.1468 20.039C30.4281 19.6272 30.3779 19.0245 29.7752 18.6729C29.4538 18.4821 29.1323 18.3113 28.7908 18.1707L30.0363 15.8604C30.0866 15.7499 30.1971 15.76 30.2473 15.8604L33.5118 21.9676C34.4259 23.6752 35.2797 25.2823 35.2797 26.9799C35.2797 29.7622 32.9895 31.962 30.1368 31.962Z" fill="#CACACA"/>
<defs>
<linearGradient id="paint0_linear_248_18325" x1="24" y1="1.45985e-07" x2="28.8491" y2="47.5169" gradientUnits="userSpaceOnUse">
<stop stop-color="#F8F8F8"/>
<stop offset="1" stop-color="#F8F8F8" stop-opacity="0.5"/>
</linearGradient>
</defs>
</svg>
