<svg width="28" height="28" viewBox="0 0 28 28" fill="none" xmlns="http://www.w3.org/2000/svg">
<path d="M21.7247 9.60796H6.46667C5.66022 9.60796 5.0957 9.10796 5.0957 8.33376C5.0957 7.5757 5.66022 7.05957 6.46667 7.05957H21.7247C22.5312 7.05957 23.0957 7.5757 23.0957 8.33376C23.0957 9.10796 22.5312 9.60796 21.7247 9.60796Z" fill="#008375"/>
<path d="M21.7247 14.9305H6.46667C5.66022 14.9305 5.0957 14.4305 5.0957 13.6563C5.0957 12.8983 5.66022 12.3821 6.46667 12.3821H21.7247C22.5312 12.3821 23.0957 12.8983 23.0957 13.6563C23.0957 14.4305 22.5312 14.9305 21.7247 14.9305Z" fill="#008375"/>
<path d="M21.7247 20.2692H6.46667C5.66022 20.2692 5.0957 19.7531 5.0957 18.9951C5.0957 18.2209 5.66022 17.7047 6.46667 17.7047H21.7247C22.5312 17.7047 23.0957 18.2209 23.0957 18.9951C23.0957 19.7531 22.5312 20.2692 21.7247 20.2692Z" fill="#008375"/>
</svg>
