<svg width="178" height="150" viewBox="0 0 178 150" fill="none" xmlns="http://www.w3.org/2000/svg">
<path d="M136.475 139.153H55.9988C55.4998 139.153 55.0215 138.954 54.6688 138.602C54.316 138.25 54.1175 137.772 54.117 137.274V82.3942C54.1175 81.896 54.316 81.4183 54.6688 81.066C55.0215 80.7137 55.4998 80.5155 55.9988 80.5149H136.475C136.974 80.5155 137.452 80.7137 137.805 81.066C138.158 81.4183 138.356 81.896 138.357 82.3942V137.274C138.356 137.772 138.158 138.25 137.805 138.602C137.452 138.954 136.974 139.153 136.475 139.153Z" fill="white"/>
<path d="M136.475 139.153H55.9988C55.4998 139.153 55.0215 138.954 54.6688 138.602C54.316 138.25 54.1175 137.772 54.117 137.274V82.3942C54.1175 81.896 54.316 81.4183 54.6688 81.066C55.0215 80.7137 55.4998 80.5155 55.9988 80.5149H136.475C136.974 80.5155 137.452 80.7137 137.805 81.066C138.158 81.4183 138.356 81.896 138.357 82.3942V137.274C138.356 137.772 138.158 138.25 137.805 138.602C137.452 138.954 136.974 139.153 136.475 139.153ZM55.9988 80.9325C55.6107 80.933 55.2387 81.0871 54.9643 81.3611C54.6899 81.6352 54.5356 82.0067 54.5351 82.3942V137.274C54.5356 137.661 54.6899 138.033 54.9643 138.307C55.2387 138.581 55.6107 138.735 55.9988 138.736H136.475C136.863 138.735 137.235 138.581 137.51 138.307C137.784 138.033 137.938 137.661 137.939 137.274V82.3942C137.938 82.0067 137.784 81.6352 137.51 81.3611C137.235 81.0871 136.863 80.933 136.475 80.9325H55.9988Z" fill="#3F3D56"/>
<path d="M105.553 138.823H86.9212V108.019C86.9221 107.289 87.213 106.588 87.7303 106.072C88.2476 105.555 88.949 105.265 89.6805 105.264H102.793C103.525 105.265 104.226 105.555 104.744 106.072C105.261 106.588 105.552 107.289 105.553 108.019V138.823Z" fill="#E6E6E6"/>
<path d="M132.086 68.8168H121.446V51.0588C121.447 50.5605 121.645 50.0829 121.998 49.7306C122.351 49.3783 122.829 49.1801 123.328 49.1795H130.204C130.703 49.1801 131.182 49.3783 131.534 49.7306C131.887 50.0829 132.086 50.5605 132.086 51.0588V68.8168Z" fill="white"/>
<path d="M132.086 68.8168H121.446V51.0588C121.447 50.5605 121.645 50.0829 121.998 49.7306C122.351 49.3783 122.829 49.1801 123.328 49.1795H130.204C130.703 49.1801 131.182 49.3783 131.534 49.7306C131.887 50.0829 132.086 50.5605 132.086 51.0588V68.8168ZM121.864 68.3992H131.668V51.0588C131.668 50.6713 131.513 50.2997 131.239 50.0257C130.964 49.7517 130.592 49.5976 130.204 49.5971H123.328C122.94 49.5976 122.568 49.7517 122.293 50.0257C122.019 50.2997 121.865 50.6713 121.864 51.0588V68.3992Z" fill="#3F3D56"/>
<path d="M72.0975 76.2945C83.4132 76.2945 92.5863 67.1335 92.5863 55.8329C92.5863 44.5323 83.4132 35.3713 72.0975 35.3713C60.7819 35.3713 51.6087 44.5323 51.6087 55.8329C51.6087 67.1335 60.7819 76.2945 72.0975 76.2945Z" fill="#F2F2F2"/>
<path d="M127.085 46.0663C125.24 46.0084 123.597 44.3277 123.584 42.484C123.571 40.6404 125.189 38.9364 127.033 38.8522C131.14 38.6646 134.502 34.2637 133.598 30.2589C132.695 26.2541 127.767 23.7186 123.977 25.308C121.07 26.5273 118.132 22.6856 118.869 19.6236C119.606 16.5617 122.394 14.5055 124.974 12.6949C127.554 10.8843 130.314 8.75848 130.937 5.67135C131.56 2.58422 128.372 -1.11381 125.563 0.317198" fill="#E6E6E6"/>
<path d="M79.0519 114.212H63.3138C62.686 114.211 62.0841 113.962 61.6402 113.518C61.1963 113.075 60.9466 112.474 60.9459 111.847V98.8895C60.9467 98.2626 61.1964 97.6615 61.6403 97.2182C62.0841 96.7749 62.686 96.5256 63.3137 96.5249H79.0519C79.6796 96.5256 80.2814 96.7749 80.7253 97.2182C81.1692 97.6615 81.4189 98.2626 81.4196 98.8895V111.847C81.4189 112.474 81.1693 113.075 80.7254 113.518C80.2815 113.962 79.6796 114.211 79.0519 114.212Z" fill="#E6E6E6"/>
<path d="M129.524 114.212H113.786C113.158 114.211 112.557 113.962 112.113 113.518C111.669 113.075 111.419 112.474 111.418 111.847V98.8895C111.419 98.2626 111.669 97.6615 112.113 97.2182C112.557 96.7749 113.158 96.5256 113.786 96.5249H129.524C130.152 96.5256 130.754 96.7749 131.198 97.2182C131.642 97.6615 131.891 98.2626 131.892 98.8895V111.847C131.891 112.474 131.642 113.075 131.198 113.518C130.754 113.962 130.152 114.211 129.524 114.212Z" fill="#E6E6E6"/>
<path d="M48.1085 81.6437V73.2C48.1085 72.5514 48.2802 71.9143 48.6062 71.3532C48.9321 70.7922 49.4008 70.3272 49.9647 70.0054L96.9415 43.1914C97.5247 42.8585 98.1878 42.6912 98.8592 42.7075C99.5307 42.7238 100.185 42.923 100.751 43.2837L142.662 69.98C143.184 70.3125 143.614 70.7711 143.912 71.3133C144.209 71.8555 144.365 72.4639 144.365 73.0823V81.6437C144.365 82.6195 143.977 83.5555 143.286 84.2455C142.595 84.9356 141.658 85.3232 140.681 85.3232H51.793C50.8158 85.3232 49.8786 84.9356 49.1877 84.2455C48.4967 83.5555 48.1085 82.6195 48.1085 81.6437Z" fill="#008375"/>
<path d="M140.681 81.564H51.793C50.8158 81.564 49.8786 81.1763 49.1877 80.4862C48.4967 79.7962 48.1085 78.8603 48.1085 77.8844V81.2253C48.1085 82.2012 48.4967 83.1371 49.1877 83.8272C49.8786 84.5172 50.8158 84.9049 51.793 84.9049H140.681C141.658 84.9049 142.595 84.5172 143.286 83.8272C143.977 83.1371 144.365 82.2012 144.365 81.2253V77.8844C144.365 78.8603 143.977 79.7962 143.286 80.4862C142.595 81.1763 141.658 81.564 140.681 81.564Z" fill="black"/>
<path d="M147.898 110.458C147.898 103.983 153.154 88.6181 159.638 88.6181C166.121 88.6181 171.378 103.983 171.378 110.458C171.378 113.568 170.141 116.55 167.939 118.748C165.737 120.947 162.751 122.182 159.638 122.182C156.524 122.182 153.538 120.947 151.337 118.748C149.135 116.55 147.898 113.568 147.898 110.458Z" fill="#F2F2F2"/>
<path d="M159.638 138.904C159.582 138.904 159.529 138.882 159.49 138.843C159.451 138.804 159.429 138.751 159.429 138.695V96.597C159.429 96.5416 159.451 96.4884 159.49 96.4493C159.529 96.4101 159.582 96.3881 159.638 96.3881C159.693 96.3881 159.746 96.4101 159.786 96.4493C159.825 96.4884 159.847 96.5416 159.847 96.597V138.695C159.847 138.751 159.825 138.804 159.786 138.843C159.746 138.882 159.693 138.904 159.638 138.904Z" fill="#3F3D56"/>
<path d="M159.638 115.266C159.597 115.266 159.557 115.254 159.523 115.231C159.488 115.209 159.462 115.177 159.446 115.139C159.429 115.102 159.425 115.06 159.432 115.02C159.439 114.98 159.458 114.942 159.486 114.913L165.454 108.659C165.473 108.639 165.496 108.623 165.521 108.612C165.546 108.601 165.573 108.595 165.601 108.594C165.628 108.593 165.655 108.598 165.681 108.608C165.707 108.618 165.73 108.633 165.75 108.652C165.77 108.67 165.786 108.693 165.797 108.718C165.808 108.743 165.814 108.77 165.815 108.798C165.815 108.825 165.811 108.852 165.801 108.878C165.791 108.904 165.776 108.927 165.757 108.947L159.789 115.201C159.77 115.221 159.746 115.238 159.72 115.249C159.694 115.26 159.666 115.266 159.638 115.266Z" fill="#3F3D56"/>
<path d="M159.638 104.721C159.585 104.721 159.535 104.702 159.497 104.667L154.339 99.9575C154.319 99.939 154.302 99.9167 154.291 99.8918C154.279 99.867 154.272 99.84 154.271 99.8126C154.27 99.7852 154.274 99.7578 154.283 99.7319C154.293 99.7061 154.307 99.6824 154.326 99.6621C154.344 99.6418 154.367 99.6254 154.392 99.6138C154.416 99.6022 154.443 99.5956 154.471 99.5944C154.498 99.5932 154.526 99.5975 154.552 99.6069C154.578 99.6163 154.601 99.6308 154.621 99.6494L159.779 104.358C159.81 104.387 159.832 104.424 159.841 104.465C159.851 104.506 159.848 104.549 159.833 104.588C159.817 104.627 159.791 104.661 159.756 104.685C159.721 104.709 159.68 104.721 159.638 104.721Z" fill="#3F3D56"/>
<path d="M4.60578 97.575C4.60578 88.0499 12.3377 65.4473 21.8754 65.4473C31.4132 65.4473 39.1451 88.0499 39.1451 97.575C39.1451 102.149 37.3256 106.536 34.0869 109.77C30.8482 113.005 26.4556 114.822 21.8754 114.822C17.2952 114.822 12.9026 113.005 9.66394 109.77C6.42525 106.536 4.60578 102.149 4.60578 97.575Z" fill="#008375"/>
<path d="M21.8755 139.322C21.82 139.322 21.7668 139.3 21.7276 139.26C21.6884 139.221 21.6664 139.168 21.6664 139.113V77.1845C21.6664 77.1291 21.6884 77.076 21.7276 77.0368C21.7668 76.9977 21.82 76.9757 21.8755 76.9757C21.9309 76.9757 21.9841 76.9977 22.0233 77.0368C22.0625 77.076 22.0845 77.1291 22.0845 77.1845V139.113C22.0845 139.168 22.0625 139.221 22.0233 139.26C21.9841 139.3 21.9309 139.322 21.8755 139.322Z" fill="#3F3D56"/>
<path d="M21.8754 104.549C21.8345 104.549 21.7945 104.537 21.7603 104.514C21.7261 104.492 21.6993 104.46 21.6832 104.422C21.6671 104.384 21.6624 104.343 21.6697 104.303C21.6769 104.263 21.6958 104.225 21.7241 104.196L30.503 94.9956C30.5412 94.9555 30.5939 94.9322 30.6493 94.9309C30.7047 94.9296 30.7584 94.9503 30.7986 94.9885C30.8387 95.0267 30.862 95.0793 30.8634 95.1346C30.8647 95.19 30.844 95.2436 30.8057 95.2837L22.0268 104.484C22.0073 104.504 21.9838 104.521 21.9578 104.532C21.9317 104.543 21.9037 104.549 21.8754 104.549Z" fill="#3F3D56"/>
<path d="M21.8754 89.0374C21.8232 89.0375 21.7728 89.018 21.7343 88.9827L14.1476 82.0554C14.1067 82.018 14.0823 81.966 14.0798 81.9106C14.0774 81.8553 14.097 81.8013 14.1344 81.7604C14.1718 81.7195 14.224 81.6952 14.2794 81.6927C14.3348 81.6902 14.3889 81.7098 14.4298 81.7472L22.0165 88.6745C22.0476 88.7029 22.0694 88.7401 22.079 88.7811C22.0886 88.822 22.0856 88.865 22.0703 88.9042C22.0551 88.9434 22.0283 88.9772 21.9935 89.0009C21.9587 89.0247 21.9175 89.0374 21.8754 89.0374Z" fill="#3F3D56"/>
<path d="M151.437 138.883C151.457 138.899 151.478 138.912 151.498 138.927H168.498C168.832 137.579 168.949 136.23 168.452 135.058C167.743 133.389 165.644 132.346 163.976 133.063C163.581 133.238 163.237 133.51 162.976 133.854C162.324 132.688 161.155 131.81 159.805 131.811C158.114 131.812 156.708 133.193 156.249 134.788C155.51 133.543 154.051 132.672 152.624 133.047C150.239 133.673 149.485 137.377 151.437 138.883Z" fill="#E6E6E6"/>
<path d="M5.38209 139.256C5.42201 139.287 5.46417 139.315 5.5046 139.345H39.8247C40.4972 136.624 40.7347 133.9 39.7302 131.534C38.299 128.164 34.0633 126.06 30.6959 127.507C29.898 127.859 29.203 128.408 28.6762 129.103C27.3603 126.75 24.9997 124.977 22.2749 124.979C18.8612 124.981 16.0229 127.769 15.0966 130.989C13.6051 128.475 10.659 126.718 7.77935 127.474C2.96309 128.738 1.44179 136.215 5.38209 139.256Z" fill="#E6E6E6"/>
<path d="M177.717 138.737L0 139.073L0.000791233 139.49L177.717 139.154L177.717 138.737Z" fill="#3F3D56"/>
<path d="M59.9692 130.238C60.0116 130.073 60.0173 129.901 59.9858 129.733C59.9543 129.566 59.8865 129.407 59.787 129.269C59.6875 129.131 59.5589 129.016 59.4101 128.932C59.2613 128.849 59.096 128.799 58.9258 128.786L52.2858 120.496L50.6429 122.025L57.6573 129.944C57.6548 130.231 57.7578 130.509 57.9468 130.725C58.1357 130.941 58.3975 131.081 58.6825 131.117C58.9675 131.153 59.2559 131.084 59.493 130.922C59.7302 130.76 59.8996 130.517 59.9692 130.238Z" fill="#FFB8B8"/>
<path d="M53.5596 121.813L51.4612 123.417C51.4015 123.463 51.3326 123.495 51.2593 123.512C51.186 123.529 51.1099 123.53 51.0363 123.514C50.9627 123.499 50.8932 123.468 50.8327 123.423C50.7721 123.379 50.7219 123.322 50.6854 123.256L49.4071 120.955C49.175 120.648 49.074 120.263 49.1262 119.882C49.1785 119.501 49.3797 119.157 49.6858 118.924C49.992 118.691 50.378 118.589 50.7593 118.641C51.1406 118.692 51.4861 118.892 51.72 119.197L53.6058 121.023C53.6598 121.075 53.7019 121.138 53.7292 121.208C53.7564 121.278 53.7683 121.353 53.7639 121.428C53.7595 121.503 53.739 121.576 53.7037 121.643C53.6685 121.709 53.6194 121.767 53.5596 121.813Z" fill="#3F3D56"/>
<path d="M50.0355 116.808C51.5093 116.808 52.704 115.614 52.704 114.143C52.704 112.671 51.5093 111.478 50.0355 111.478C48.5617 111.478 47.367 112.671 47.367 114.143C47.367 115.614 48.5617 116.808 50.0355 116.808Z" fill="#FFB8B8"/>
<path d="M55.7316 148.71H57.0637L56.9368 146.221H54.971L55.7316 148.71Z" fill="#FFB8B8"/>
<path d="M55.3919 148.276L58.015 148.276C58.2346 148.276 58.4521 148.319 58.6549 148.403C58.8577 148.487 59.042 148.61 59.1972 148.765C59.3524 148.92 59.4756 149.104 59.5596 149.307C59.6436 149.509 59.6868 149.726 59.6868 149.946V150L55.392 150L55.3919 148.276Z" fill="#2F2E41"/>
<path d="M41.5302 146.827L42.6635 147.526L43.8657 145.342L42.4945 144.485L41.5302 146.827Z" fill="#FFB8B8"/>
<path d="M41.4697 146.279L43.7014 147.656C43.8882 147.771 44.0505 147.922 44.1789 148.1C44.3073 148.278 44.3993 148.479 44.4498 148.693C44.5003 148.906 44.5082 149.127 44.4731 149.344C44.4379 149.56 44.3605 149.767 44.2451 149.954L44.2166 150L40.5626 147.746L41.4697 146.279Z" fill="#2F2E41"/>
<path d="M55.6354 147.981C55.5363 147.981 55.4397 147.95 55.3582 147.894C55.2768 147.838 55.2144 147.758 55.1793 147.666L50.3613 136.162C50.3509 136.134 50.333 136.109 50.3094 136.09C50.2859 136.072 50.2577 136.06 50.228 136.056C50.1982 136.053 50.168 136.057 50.1407 136.07C50.1134 136.082 50.0901 136.102 50.0733 136.127L43.4542 146.54C43.3895 146.637 43.292 146.707 43.1796 146.739C43.0672 146.77 42.9472 146.76 42.8416 146.71L41.9359 146.288C41.8199 146.233 41.7299 146.136 41.6852 146.016C41.6405 145.896 41.6446 145.763 41.6966 145.646L47.1194 133.574C47.001 133.286 45.8461 130.332 47.6206 128.873L47.633 128.865L52.4449 126.722L52.5662 130.408L57.3623 147.027C57.3804 147.089 57.3857 147.155 57.3781 147.219C57.3704 147.284 57.3499 147.346 57.3177 147.403C57.2855 147.46 57.2423 147.509 57.1907 147.549C57.139 147.589 57.0799 147.618 57.0169 147.634L55.7607 147.964C55.7198 147.975 55.6777 147.981 55.6354 147.981Z" fill="#2F2E41"/>
<path d="M52.5177 121.329C52.3344 120.595 52.0747 119.855 51.7266 119.513C51.5987 119.388 51.4784 119.256 51.3665 119.117C51.1324 118.822 50.8379 118.581 50.5027 118.41C50.6253 118.342 50.6972 118.261 50.6972 118.173C50.6972 117.933 50.1622 117.739 49.5021 117.739C48.8421 117.739 48.307 117.933 48.307 118.173C48.3086 118.201 48.3157 118.228 48.3279 118.253C48.3401 118.278 48.3571 118.301 48.378 118.319C47.947 118.495 47.5725 118.785 47.2952 119.158C47.018 119.532 46.8487 119.974 46.8057 120.437C46.6514 122.088 46.6063 124.198 47.1472 125.533C47.601 126.637 47.6371 127.868 47.2488 128.996C47.2224 129.075 47.2192 129.159 47.2395 129.24C47.2598 129.32 47.3027 129.393 47.3631 129.449C47.4236 129.506 47.4991 129.544 47.5807 129.56C47.6622 129.575 47.7464 129.566 47.8233 129.535L52.598 127.614C52.6784 127.581 52.7472 127.526 52.7957 127.454C52.8442 127.382 52.8701 127.298 52.8701 127.211V124.293C52.874 123.294 52.7556 122.299 52.5177 121.329Z" fill="#3F3D56"/>
<path d="M43.3821 133.349C43.5484 133.311 43.7041 133.236 43.8383 133.131C43.9726 133.026 44.0822 132.893 44.1593 132.741C44.2364 132.589 44.2792 132.422 44.2847 132.251C44.2901 132.081 44.2582 131.912 44.191 131.755L47.9267 121.916L46.0323 121.428L42.5769 131.165C42.3209 131.295 42.1216 131.515 42.0168 131.782C41.9119 132.049 41.9088 132.345 42.0081 132.614C42.1074 132.884 42.3021 133.107 42.5553 133.243C42.8085 133.378 43.1027 133.416 43.3821 133.349Z" fill="#FFB8B8"/>
<path d="M47.9112 123.783L45.5173 122.664C45.4492 122.632 45.3888 122.586 45.3401 122.529C45.2915 122.472 45.2557 122.405 45.2354 122.332C45.215 122.26 45.2105 122.184 45.2222 122.11C45.2338 122.036 45.2613 121.965 45.3028 121.902L46.7576 119.708C46.9231 119.362 47.2192 119.095 47.5813 118.966C47.9434 118.837 48.3419 118.856 48.6897 119.02C49.0374 119.184 49.3059 119.478 49.4366 119.839C49.5672 120.201 49.5493 120.599 49.3867 120.946L48.6344 123.46C48.6128 123.532 48.576 123.598 48.5264 123.655C48.4768 123.711 48.4156 123.756 48.3469 123.787C48.2783 123.818 48.2038 123.833 48.1287 123.832C48.0534 123.832 47.9793 123.815 47.9112 123.783Z" fill="#3F3D56"/>
<path d="M52.4866 113.487C52.607 113.501 52.7289 113.479 52.8367 113.424C53.0335 113.295 53.0141 113.003 52.9475 112.777C52.7815 112.237 52.482 111.747 52.0765 111.353C51.6711 110.959 51.1728 110.674 50.6277 110.523C50.2477 110.422 49.7671 110.426 49.5497 110.753C49.0036 110.39 48.3452 110.234 47.6938 110.314C47.0425 110.394 46.4414 110.704 45.9995 111.188C45.5677 111.694 45.2799 112.307 45.166 112.962C44.938 114.077 43.9615 116.379 44.5024 117.381C44.8624 118.048 46.5189 117.528 47.2197 117.819C47.5687 117.971 47.9497 118.034 48.3291 118.003C48.7084 117.973 49.0744 117.849 49.3945 117.644C49.7078 117.428 49.9433 117.117 50.0662 116.757C50.1891 116.397 50.1929 116.008 50.077 115.646C49.9544 115.379 49.8129 115.122 49.6538 114.876C49.494 114.627 49.4288 114.329 49.47 114.036C49.5681 113.59 51.6743 113.47 52.4866 113.487Z" fill="#2F2E41"/>
</svg>
