<svg width="24" height="24" viewBox="0 0 24 24" fill="none" xmlns="http://www.w3.org/2000/svg">
<path d="M4.53418 16.2163H5.93541V17.3539C5.93541 18.9661 6.78669 19.8098 8.42146 19.8098H19.458C21.0852 19.8098 21.9441 18.9661 21.9441 17.3539V9.66221C21.9441 8.05005 21.0852 7.2063 19.458 7.2063H18.0568V6.07628C18.0568 4.46411 17.2055 3.62036 15.5783 3.62036H4.53418C2.89941 3.62036 2.05566 4.46411 2.05566 6.07628V13.7604C2.05566 15.3801 2.89941 16.2163 4.53418 16.2163ZM4.63211 14.7172C3.93903 14.7172 3.55483 14.3556 3.55483 13.6248V6.21188C3.55483 5.48113 3.93903 5.12706 4.63211 5.12706H15.4803C16.1659 5.12706 16.5576 5.48113 16.5576 6.21188V7.2063H8.42146C6.78669 7.2063 5.93541 8.05005 5.93541 9.66221V14.7172H4.63211ZM8.51939 18.3031C7.81878 18.3031 7.4421 17.9415 7.4421 17.2183V9.79782C7.4421 9.0746 7.81878 8.713 8.51939 8.713H19.3601C20.0532 8.713 20.4374 9.0746 20.4374 9.79782V17.2183C20.4374 17.9415 20.0532 18.3031 19.3601 18.3031H8.51939Z" fill="#008375"/>
</svg>
