<svg width="181" height="120" viewBox="0 0 181 120" fill="none" xmlns="http://www.w3.org/2000/svg">
<g clip-path="url(#clip0_311_21075)">
<path d="M64.7698 69.061C70.9579 58.1755 82.7618 49.8172 95.2572 50.6224C86.0403 60.6454 80.6656 73.6057 80.0843 87.21C79.8791 92.4574 80.1973 98.3152 76.7132 102.244C74.5453 104.689 71.2317 105.873 67.9736 106.122C64.7154 106.37 61.458 105.781 58.2434 105.195L57.4636 105.435C57.1667 92.9166 58.5817 79.9466 64.7698 69.061Z" fill="#F0F0F0"/>
<path d="M95.2758 50.8845C86.0356 55.3328 78.1566 62.7618 73.32 71.8221C72.2743 73.7809 71.384 75.859 70.9957 78.0562C70.6071 80.2543 70.8785 82.3468 71.6293 84.4346C72.3157 86.3433 73.2388 88.2161 73.4493 90.2584C73.6711 92.411 72.8791 94.4238 71.4533 96.0213C69.7089 97.9758 67.3662 99.187 65.0341 100.292C62.4447 101.518 59.7358 102.751 57.9017 105.041C57.6795 105.318 57.2621 104.957 57.484 104.68C60.6748 100.697 66.1368 99.9484 69.9244 96.7398C71.6917 95.2426 73.0186 93.2037 72.9348 90.8147C72.8616 88.7256 71.9113 86.7934 71.1996 84.8669C70.4524 82.844 70.0797 80.81 70.3477 78.6533C70.6218 76.447 71.4327 74.3298 72.4238 72.3528C74.6587 67.8943 77.7174 63.801 81.2212 60.2627C85.2481 56.1954 89.9411 52.847 95.0971 50.3623C95.4163 50.2086 95.5929 50.7319 95.2758 50.8845Z" fill="white"/>
<path d="M74.7365 68.7942C73.32 67.7584 72.3177 66.2528 71.9088 64.5463C71.4998 62.8398 71.7108 61.0435 72.504 59.4781C72.6656 59.162 73.1645 59.3982 73.0027 59.7148C72.2614 61.1711 72.065 62.8444 72.4491 64.4327C72.8332 66.021 73.7723 67.4198 75.0971 68.3764C75.3848 68.5847 75.0225 69.0013 74.7365 68.7942Z" fill="white"/>
<path d="M71.1537 83.5127C74.7033 82.994 77.9269 81.1565 80.1819 78.3667C80.4051 78.0901 80.8226 78.451 80.5997 78.7273C78.2477 81.6261 74.8891 83.5315 71.1942 84.0631C70.8419 84.1135 70.8034 83.5628 71.1537 83.5127V83.5127Z" fill="white"/>
<path d="M85.5205 56.8745C85.9851 57.3895 86.5703 57.781 87.2236 58.0139C87.8769 58.2468 88.5778 58.3138 89.2634 58.2089C89.6148 58.154 89.6529 58.7047 89.3038 58.7593C88.5458 58.8717 87.7718 58.7967 87.0494 58.541C86.3271 58.2853 85.6783 57.8565 85.1599 57.2922C85.1066 57.2431 85.0739 57.1756 85.0686 57.1033C85.0633 57.031 85.0857 56.9594 85.1313 56.9031C85.1793 56.848 85.2472 56.8141 85.32 56.8087C85.3929 56.8034 85.4649 56.827 85.5205 56.8745Z" fill="white"/>
<path d="M120.119 84.9623C119.901 85.0028 119.682 85.0433 119.462 85.088C116.528 85.6477 113.644 86.4449 110.839 87.4716C110.621 87.5475 110.401 87.6277 110.186 87.7098C103.454 90.2554 97.254 94.0286 91.9 98.8377C89.7713 100.753 87.7914 102.828 85.9775 105.044C83.4725 108.104 81 111.622 77.7267 113.618C77.3875 113.83 77.0355 114.02 76.6728 114.189L57.816 106.367C57.7821 106.328 57.7461 106.293 57.712 106.254L56.9448 105.976C57.0304 105.855 57.1217 105.732 57.2073 105.611C57.2567 105.54 57.3102 105.472 57.3596 105.402C57.3938 105.355 57.4282 105.309 57.4565 105.265C57.4678 105.25 57.4794 105.234 57.4889 105.223C57.5172 105.18 57.548 105.142 57.5745 105.102C58.0832 104.411 58.5976 103.722 59.1178 103.035C59.1196 103.03 59.1196 103.031 59.1256 103.028C63.1025 97.8047 67.5505 92.8675 72.6064 88.7625C72.7585 88.639 72.9123 88.5111 73.073 88.3913C75.3623 86.5535 77.7979 84.906 80.3555 83.4651C81.7585 82.6806 83.2004 81.9676 84.6755 81.3289C88.4902 79.6859 92.5395 78.6531 96.6751 78.2685C104.919 77.5029 113.317 79.3826 119.64 84.5619C119.802 84.6945 119.959 84.8254 120.119 84.9623Z" fill="#F0F0F0"/>
<path d="M119.978 85.184C109.922 83.1725 99.1579 84.3605 89.8412 88.6826C87.8269 89.617 85.865 90.7402 84.232 92.2608C82.5984 93.7819 81.5552 95.6161 80.8977 97.7351C80.2966 99.6723 79.9061 101.723 78.8445 103.481C77.7256 105.333 75.8814 106.463 73.7812 106.88C71.2116 107.391 68.6119 106.947 66.0847 106.425C63.2787 105.846 60.3733 105.199 57.5306 105.923C57.1862 106.011 57.0702 105.471 57.4142 105.384C62.36 104.124 67.1719 106.815 72.1279 106.534C74.4404 106.402 76.7274 105.573 78.0989 103.615C79.2982 101.903 79.7027 99.7883 80.2944 97.8215C80.9157 95.7565 81.8427 93.9081 83.3552 92.3474C84.9024 90.7509 86.8246 89.5486 88.8061 88.5668C93.2749 86.3525 98.1815 84.9258 103.109 84.2101C108.773 83.3871 114.537 83.5391 120.149 84.6595C120.497 84.729 120.323 85.2531 119.978 85.184V85.184Z" fill="white"/>
<path d="M92.7955 87.1179C92.2881 85.438 92.3943 83.6325 93.0953 82.0237C93.7962 80.415 95.0461 79.1077 96.6219 78.3354C96.9413 78.1803 97.1974 78.6693 96.8776 78.8247C95.4089 79.5411 94.2447 80.7589 93.5951 82.2583C92.9454 83.7577 92.8532 85.44 93.335 87.0015C93.4393 87.3409 92.8992 87.4554 92.7955 87.1179Z" fill="white"/>
<path d="M81.0731 96.7128C84.2194 98.4357 87.8996 98.9095 91.3798 98.0396C91.7245 97.9531 91.8406 98.4926 91.4962 98.579C87.873 99.4775 84.0442 98.9767 80.774 97.1766C80.4624 97.0048 80.7632 96.5419 81.0731 96.7128Z" fill="white"/>
<path d="M108.582 84.0934C108.643 84.7843 108.875 85.4493 109.256 86.0286C109.637 86.6079 110.157 87.0834 110.767 87.4124C111.081 87.5801 110.78 88.0428 110.468 87.8761C109.795 87.5095 109.222 86.9837 108.8 86.3446C108.377 85.7055 108.117 84.9726 108.043 84.2099C108.03 84.1386 108.044 84.065 108.084 84.0041C108.123 83.9432 108.184 83.8995 108.254 83.8819C108.326 83.8669 108.4 83.8806 108.462 83.9202C108.523 83.9598 108.566 84.0221 108.582 84.0934Z" fill="white"/>
<path d="M84.1985 97.8663C81.5576 85.0973 78.2566 80.8401 78.2566 80.8401L76.9955 79.8622L75.4789 78.6842L75.4863 78.5327L75.1266 78.4105L75.0421 78.3448L74.9036 78.2385L74.8813 78.2624L74.8343 78.3111L67.9717 75.9784L59.2653 73.0211L55.2337 67.7808C54.5771 66.9274 53.7318 66.2376 52.764 65.7655C51.7962 65.2934 50.7322 65.0519 49.6554 65.0599L36.7797 65.1552C35.0388 65.168 33.3657 65.8317 32.0892 67.0157L23.6263 74.8657L10.4393 81.1637L10.4171 81.1414L10.2786 81.2403L8.2411 82.2146L8.32518 82.6522L7.06409 83.5622C7.06409 83.5622 3.76304 87.5235 1.12218 99.4048C0.450381 102.428 0.119695 108.913 0.000335426 116.904C-0.00566001 117.309 0.0687706 117.71 0.219297 118.085C0.369824 118.461 0.593446 118.802 0.877158 119.09C1.16087 119.378 1.49901 119.607 1.87193 119.763C2.24484 119.919 2.64508 120 3.04938 120H73.4834V120H82.2745C82.6785 120 83.0784 119.919 83.4511 119.763C83.8238 119.607 84.1618 119.379 84.4454 119.091C84.7291 118.803 84.9528 118.462 85.1035 118.087C85.2542 117.713 85.329 117.312 85.3235 116.908C85.207 108.212 84.8764 101.145 84.1985 97.8663Z" fill="#3F3D56"/>
<path d="M93.2356 11.1355C90.4953 11.1355 87.8673 12.2241 85.9296 14.1618C83.9919 16.0994 82.9033 18.7275 82.9033 21.4678C82.9033 24.2081 83.9919 26.8361 85.9296 28.7738C87.8673 30.7115 90.4953 31.8001 93.2356 31.8001H170.236C172.976 31.8001 175.604 30.7115 177.542 28.7738C179.48 26.8361 180.568 24.2081 180.568 21.4678C180.568 18.7275 179.48 16.0994 177.542 14.1618C175.604 12.2241 172.976 11.1355 170.236 11.1355H93.2356Z" fill="#E5E5E5"/>
<path d="M93.2354 13.2266C91.0497 13.2266 88.9535 14.0948 87.4079 15.6404C85.8624 17.1859 84.9941 19.2821 84.9941 21.4678C84.9941 23.6535 85.8624 25.7497 87.4079 27.2952C88.9535 28.8408 91.0497 29.709 93.2354 29.709H170.236C172.421 29.709 174.517 28.8408 176.063 27.2952C177.609 25.7497 178.477 23.6535 178.477 21.4678C178.477 19.2821 177.609 17.1859 176.063 15.6404C174.517 14.0948 172.421 13.2266 170.236 13.2266H93.2354Z" fill="white"/>
<path d="M45.2395 60.2228C54.5556 60.2228 62.1078 52.6706 62.1078 43.3544C62.1078 34.0383 54.5556 26.4861 45.2395 26.4861C35.9233 26.4861 28.3711 34.0383 28.3711 43.3544C28.3711 52.6706 35.9233 60.2228 45.2395 60.2228Z" fill="#FFB6B6"/>
<path d="M40.9241 59.3968C40.852 59.2382 40.7802 59.0789 40.7085 58.9192C40.7361 58.9201 40.7635 58.924 40.7911 58.9248L40.9241 59.3968Z" fill="#2F2E41"/>
<path d="M27.9022 27.2532C28.7553 26.5726 29.7525 25.9464 30.8433 25.9816C31.934 26.0167 33.0402 27.0019 32.8142 28.0696C34.8177 24.5221 38.0067 21.7938 41.8215 20.3633C45.6363 18.9329 49.833 18.8918 53.675 20.2473C56.3861 21.2038 59.0446 23.1173 59.6674 25.9239C59.8273 26.6443 59.8616 27.4343 60.3114 28.0193C60.8786 28.7569 61.9638 28.9238 62.8573 28.6643C62.8663 28.6617 62.8752 28.6591 62.8841 28.6564C63.035 28.6049 63.198 28.5998 63.3518 28.6419C63.5057 28.6839 63.6434 28.7712 63.7471 28.8924C63.8509 29.0136 63.9158 29.1631 63.9337 29.3216C63.9515 29.4801 63.9213 29.6403 63.8471 29.7815L63.08 31.2121C64.047 31.4277 65.0517 31.4063 66.0086 31.1498C66.1676 31.1081 66.3356 31.1167 66.4895 31.1742C66.6434 31.2318 66.7758 31.3355 66.8684 31.4713C66.9611 31.607 67.0094 31.7681 67.0069 31.9324C67.0044 32.0967 66.951 32.2562 66.8543 32.3891C64.3249 35.8617 60.0991 38.1042 55.7869 38.0779C52.722 38.0592 49.6255 37.0029 46.6427 37.7077C45.4887 37.9803 44.4105 38.5079 43.487 39.2516C42.5635 39.9954 41.8183 40.9364 41.3059 42.0057C40.7936 43.0751 40.5272 44.2455 40.5262 45.4312C40.5252 46.6169 40.7897 47.7878 41.3003 48.858C40.3839 47.8557 38.6125 48.093 37.6752 49.0757C36.7379 50.0585 36.4952 51.5252 36.5897 52.88C36.7341 54.9521 37.5459 56.9046 38.4018 58.8048C31.2262 58.579 24.4392 53.5454 22.1547 46.7373C19.8607 39.9008 22.2649 31.7502 27.9022 27.2532Z" fill="#2F2E41"/>
<path opacity="0.2" d="M16.603 94.0112L21.3342 119.753L24.173 120L16.603 94.0112Z" fill="black"/>
<path opacity="0.2" d="M68.718 92.0699L63.9868 119.734L61.1479 120L68.718 92.0699Z" fill="black"/>
<path d="M31.9373 18.5899C31.0301 18.9687 30.0836 18.5536 29.6866 17.6029C29.2835 16.6377 29.66 15.6579 30.5817 15.273C31.5034 14.8881 32.4331 15.3043 32.8427 16.285C33.2461 17.2511 32.8737 18.1989 31.9373 18.5899ZM30.1996 13.3732L29.4783 13.6744C29.2981 13.7487 29.0966 13.7527 28.9136 13.6856C28.7306 13.6185 28.5794 13.4851 28.49 13.3119L28.4544 13.2421C27.6783 11.8425 27.5894 10.1414 28.1916 8.18879C28.7495 6.43722 28.9813 5.20535 28.5153 4.08934C27.9765 2.79902 26.8259 2.39483 25.3588 2.98035C24.7897 3.21796 24.6087 3.21417 24.1609 3.6584C24.0634 3.75621 23.9473 3.8334 23.8195 3.88536C23.6916 3.93733 23.5545 3.96301 23.4165 3.96088C23.2831 3.95931 23.1513 3.93088 23.0291 3.8773C22.9069 3.82372 22.7968 3.74607 22.7052 3.64899C22.5288 3.46192 22.43 3.21488 22.4287 2.95777C22.4274 2.70066 22.5237 2.45263 22.6982 2.26378C23.4509 1.47586 24.3588 0.852522 25.3645 0.433089C28.5168 -0.883211 30.1037 1.06012 30.8299 2.79921C31.5401 4.50025 31.1406 6.07852 30.4986 8.12254C29.9606 9.821 29.992 11.0795 30.6031 12.3309C30.6472 12.4255 30.6717 12.5281 30.6752 12.6324C30.6787 12.7367 30.6611 12.8407 30.6234 12.938C30.5857 13.0354 30.5288 13.1241 30.4559 13.1989C30.3831 13.2736 30.2959 13.3329 30.1996 13.3732L30.1996 13.3732Z" fill="#008375"/>
<path d="M110.244 26.3956H94.9238C94.8751 26.396 94.8268 26.3867 94.7818 26.3683C94.7367 26.3499 94.6957 26.3227 94.6612 26.2884C94.6267 26.2541 94.5993 26.2133 94.5806 26.1684C94.5619 26.1235 94.5522 26.0753 94.5522 26.0266C94.5522 25.9779 94.5619 25.9297 94.5806 25.8848C94.5993 25.8399 94.6267 25.7991 94.6612 25.7648C94.6957 25.7305 94.7367 25.7034 94.7818 25.685C94.8268 25.6666 94.8751 25.6573 94.9238 25.6576H110.244C110.341 25.6583 110.435 25.6974 110.503 25.7666C110.572 25.8357 110.61 25.9292 110.61 26.0266C110.61 26.124 110.572 26.2175 110.503 26.2867C110.435 26.3558 110.341 26.395 110.244 26.3956Z" fill="#008375"/>
<path d="M129.679 26.5187H114.358C114.31 26.519 114.261 26.5097 114.216 26.4913C114.171 26.4729 114.13 26.4458 114.096 26.4115C114.061 26.3772 114.034 26.3364 114.015 26.2915C113.996 26.2465 113.987 26.1983 113.987 26.1497C113.987 26.101 113.996 26.0528 114.015 26.0079C114.034 25.9629 114.061 25.9221 114.096 25.8878C114.13 25.8535 114.171 25.8264 114.216 25.808C114.261 25.7896 114.31 25.7803 114.358 25.7806H129.679C129.727 25.7803 129.775 25.7896 129.821 25.808C129.866 25.8264 129.907 25.8535 129.941 25.8878C129.976 25.9221 130.003 25.9629 130.022 26.0079C130.04 26.0528 130.05 26.101 130.05 26.1497C130.05 26.1983 130.04 26.2465 130.022 26.2915C130.003 26.3364 129.976 26.3772 129.941 26.4115C129.907 26.4458 129.866 26.4729 129.821 26.4913C129.775 26.5097 129.727 26.519 129.679 26.5187Z" fill="#008375"/>
<path d="M149.113 26.6416H133.793C133.695 26.6409 133.602 26.6018 133.533 26.5326C133.465 26.4635 133.426 26.37 133.426 26.2726C133.426 26.1751 133.465 26.0817 133.533 26.0125C133.602 25.9434 133.695 25.9042 133.793 25.9036H149.113C149.162 25.9032 149.21 25.9125 149.255 25.9309C149.3 25.9493 149.341 25.9765 149.376 26.0108C149.41 26.0451 149.437 26.0859 149.456 26.1308C149.475 26.1757 149.484 26.2239 149.484 26.2726C149.484 26.3213 149.475 26.3694 149.456 26.4144C149.437 26.4593 149.41 26.5001 149.376 26.5344C149.341 26.5687 149.3 26.5958 149.255 26.6142C149.21 26.6326 149.162 26.6419 149.113 26.6416H149.113Z" fill="#008375"/>
<path d="M168.548 26.7646H153.227C153.13 26.764 153.037 26.7248 152.968 26.6557C152.899 26.5865 152.861 26.4931 152.861 26.3956C152.861 26.2982 152.899 26.2047 152.968 26.1356C153.037 26.0664 153.13 26.0273 153.227 26.0266H168.548C168.645 26.0273 168.738 26.0664 168.807 26.1356C168.876 26.2047 168.914 26.2982 168.914 26.3956C168.914 26.4931 168.876 26.5865 168.807 26.6557C168.738 26.7248 168.645 26.764 168.548 26.7646Z" fill="#008375"/>
<path d="M102.55 22.9996C104.123 22.9996 105.397 21.7247 105.397 20.1522C105.397 18.5796 104.123 17.3048 102.55 17.3048C100.977 17.3048 99.7026 18.5796 99.7026 20.1522C99.7026 21.7247 100.977 22.9996 102.55 22.9996Z" fill="#008375"/>
<path d="M122.102 22.9996C123.674 22.9996 124.949 21.7247 124.949 20.1522C124.949 18.5796 123.674 17.3048 122.102 17.3048C120.529 17.3048 119.254 18.5796 119.254 20.1522C119.254 21.7247 120.529 22.9996 122.102 22.9996Z" fill="#008375"/>
<path d="M141.654 22.9996C143.227 22.9996 144.501 21.7247 144.501 20.1522C144.501 18.5796 143.227 17.3048 141.654 17.3048C140.081 17.3048 138.807 18.5796 138.807 20.1522C138.807 21.7247 140.081 22.9996 141.654 22.9996Z" fill="#008375"/>
<path d="M161.206 22.9996C162.778 22.9996 164.053 21.7247 164.053 20.1522C164.053 18.5796 162.778 17.3048 161.206 17.3048C159.633 17.3048 158.358 18.5796 158.358 20.1522C158.358 21.7247 159.633 22.9996 161.206 22.9996Z" fill="#008375"/>
</g>
<defs>
<clipPath id="clip0_311_21075">
<rect width="180.568" height="120" fill="white"/>
</clipPath>
</defs>
</svg>
