<svg width="32" height="32" viewBox="0 0 32 32" fill="none" xmlns="http://www.w3.org/2000/svg">
<circle cx="16" cy="16" r="16" fill="#F4A261"/>
<path d="M15.9701 9.70006C16.9721 9.70006 17.7857 8.87137 17.7857 7.90709C17.7857 6.8976 16.9721 6.08398 15.9701 6.08398C14.9682 6.08398 14.1772 6.8976 14.1772 7.90709C14.1772 8.87137 14.9682 9.70006 15.9701 9.70006ZM18.5391 24.0513C18.9685 24.0513 19.3527 23.7349 19.3527 23.2076C19.3527 23.0117 19.2999 22.8309 19.1945 22.62L17.5823 19.3504C17.4392 19.0566 17.2734 18.793 17.1228 18.582L16.1359 17.1808L16.1961 16.9925C16.4674 16.1261 16.5728 15.5988 16.6331 14.7701L16.7988 12.4422C16.8817 11.2972 16.2188 10.363 15.0209 10.363C14.147 10.363 13.5142 10.8376 12.7006 11.6286L11.4651 12.8566C11.0432 13.2709 10.9076 13.6099 10.87 14.1373L10.7118 16.0508C10.6741 16.5706 10.9679 16.9096 11.435 16.9397C11.8795 16.9699 12.2109 16.7062 12.2637 16.1487L12.4369 14.0544L13.1677 13.4065C13.3033 13.286 13.4992 13.3538 13.4841 13.5572L13.3485 15.4406C13.2807 16.3521 13.68 17.0151 14.132 17.5801L15.7441 19.6066C15.9023 19.8025 15.9249 19.8778 16.0003 20.0209L17.7179 23.5089C17.9213 23.9157 18.2227 24.0513 18.5391 24.0513ZM18.8931 15.1543H20.7162C21.2436 15.1543 21.5751 14.8454 21.5751 14.3783C21.5751 13.9113 21.236 13.6024 20.7087 13.6024H18.8027L17.4768 12.1635L17.3337 14.2352L17.8987 14.8002C18.1699 15.0714 18.4261 15.1543 18.8931 15.1543ZM11.2316 24.0513C11.4953 24.0513 11.7288 23.9308 11.8945 23.7349L14.3203 20.8496C14.5689 20.5483 14.5991 20.4729 14.7045 20.1791C14.7648 19.9833 14.8175 19.7949 14.8627 19.6141L13.4766 17.8814L13.0698 19.7723L10.772 22.4994C10.5611 22.7405 10.418 22.9515 10.418 23.2528C10.418 23.7199 10.772 24.0513 11.2316 24.0513Z" fill="white"/>
</svg>
