<svg width="84" height="80" viewBox="0 0 84 80" fill="none" xmlns="http://www.w3.org/2000/svg">
<path d="M63.6812 79.9999L64.2584 69.2626C64.2584 69.2626 83.193 65.3372 83.193 54.0226C83.193 42.7081 52.2512 41.3226 49.1339 46.5181C49.1027 46.57 49.0717 46.622 49.041 46.6739C45.1907 53.1673 47.3645 61.5975 53.9164 65.3474C56.1568 66.6297 58.828 67.7269 61.9493 68.339L61.7295 79.7454" fill="#CCCCCC"/>
<path d="M46.121 21.3787C52.0245 21.3787 56.8103 16.5929 56.8103 10.6893C56.8103 4.78578 52.0245 0 46.121 0C40.2174 0 35.4316 4.78578 35.4316 10.6893C35.4316 16.5929 40.2174 21.3787 46.121 21.3787Z" fill="#FF6884"/>
<path d="M30.3488 77.455L18.293 76.6865L17.6429 22.4762C17.6272 21.1604 18.1518 19.8719 19.0823 18.9414L31.9978 6.02587C33.8058 4.21806 36.6515 4.08741 38.6173 5.72273L52.6334 17.3823C53.7769 18.3335 54.4227 19.732 54.4051 21.2193L53.9235 61.9882L60.0154 70.4491L60.0283 70.467L61.0605 79.4127L30.3488 77.455H30.3488Z" fill="#E6E6E6"/>
<path d="M42.668 22.8075V20.2937C42.668 19.6302 43.2078 19.0903 43.8713 19.0903H47.4032C48.0667 19.0903 48.6065 19.6302 48.6065 20.2937V22.8075C48.6065 23.471 48.0667 24.0108 47.4032 24.0108H43.8713C43.2078 24.0108 42.668 23.471 42.668 22.8075Z" fill="#008375"/>
<path d="M36.7279 59.9312C36.096 59.9088 35.5864 59.396 35.5676 58.7639L35.3033 49.7744C35.292 49.3907 35.4581 49.0341 35.759 48.7957C36.0599 48.5574 36.4452 48.4779 36.8162 48.5763L37.0806 48.6469C37.6065 48.7872 37.9739 49.2652 37.9739 49.8095V58.7286C37.9739 59.058 37.8433 59.3655 37.6063 59.5943C37.3798 59.8131 37.0849 59.9319 36.7717 59.9319C36.7572 59.9319 36.7426 59.9317 36.7279 59.9312H36.7279Z" fill="#3F3D56"/>
<path d="M25.7617 58.691V49.3634C25.7617 48.7049 26.2774 48.1765 26.9358 48.1603L31.688 48.0444C32.3467 48.0353 32.9009 48.5523 32.9202 49.2126L33.194 58.656C33.2034 58.984 33.0828 59.2941 32.8541 59.5294C32.6256 59.7647 32.3191 59.8943 31.9911 59.8943H26.9651C26.3016 59.8943 25.7617 59.3545 25.7617 58.691H25.7617Z" fill="#3F3D56"/>
<path d="M53.8505 65.0646L57.5752 71.6863L58.0028 79.1332L60.9687 79.3215L59.9506 70.4986L53.8425 62.015C53.3153 62.9639 53.3183 64.1185 53.8505 65.0646Z" fill="#CCCCCC"/>
<path d="M57.8838 77.0017L45.7949 77.167L45.7972 77.3367L57.8861 77.1714L57.8838 77.0017Z" fill="#3F3D56"/>
<path d="M57.1457 75.5041L45.6836 75.5936L45.6849 75.7633L57.1471 75.6738L57.1457 75.5041Z" fill="#3F3D56"/>
<path d="M56.554 73.974L45.5898 74.1881L45.5932 74.3578L56.5573 74.1436L56.554 73.974Z" fill="#3F3D56"/>
<path d="M56.2127 72.4522L45.6836 72.8018L45.6892 72.9714L56.2183 72.6218L56.2127 72.4522Z" fill="#3F3D56"/>
<path d="M55.7041 71.0971L45.5879 71.4528L45.5939 71.6224L55.7101 71.2668L55.7041 71.0971Z" fill="#3F3D56"/>
<path d="M55.0288 69.9052H45.1758V70.0748H55.0288V69.9052Z" fill="#3F3D56"/>
<path d="M54.517 68.7141L44.9414 68.8263L44.9434 68.996L54.519 68.8838L54.517 68.7141Z" fill="#3F3D56"/>
<path d="M54.0071 67.5274L44.7285 67.8354L44.7341 68.0051L54.0128 67.697L54.0071 67.5274Z" fill="#3F3D56"/>
<path d="M53.6722 66.346L44.5098 66.5071L44.5127 66.6767L53.6752 66.5157L53.6722 66.346Z" fill="#3F3D56"/>
<path d="M52.9879 65.1709L44.2148 65.4451L44.2201 65.6147L52.9932 65.3406L52.9879 65.1709Z" fill="#3F3D56"/>
<path d="M52.6537 64.1363L43.958 64.2212L43.9597 64.3909L52.6554 64.3059L52.6537 64.1363Z" fill="#3F3D56"/>
<path d="M43.3203 60.6422V49.1358C43.3203 48.4722 43.8601 47.9324 44.5237 47.9324H50.0916C50.7551 47.9324 51.2949 48.4722 51.2949 49.1358V60.6422C51.2949 61.3056 50.7551 61.8455 50.0916 61.8455H44.5237C43.8602 61.8455 43.3203 61.3056 43.3203 60.6422Z" fill="#008375"/>
<path d="M30.3488 77.4548L20.4925 76.827L20.4131 76.8219V69.1939C20.4131 68.2292 21.1979 67.4443 22.1626 67.4443H31.898C32.8627 67.4443 33.6475 68.2292 33.6475 69.1939V77.455H33.5627L30.3488 77.4548H30.3488Z" fill="#CCCCCC"/>
<path d="M44.002 39.7729V30.9812C44.002 30.3177 44.5418 29.7778 45.2053 29.7778H47.0405C47.704 29.7778 48.2438 30.3177 48.2438 30.9812V39.7729C48.2438 40.4364 47.704 40.9762 47.0405 40.9762H45.2053C44.5418 40.9762 44.002 40.4364 44.002 39.7729Z" fill="#3F3D56"/>
<path d="M45.8669 78.3034L45.3579 70.8378L43.8308 63.7116L43.4066 61.7604C42.535 61.1676 41.3612 61.827 41.4138 62.8798L41.4554 63.7116L42.9825 70.8378L43.4915 78.3034" fill="#CCCCCC"/>
<path d="M32.3146 18.7298V36.715C32.3146 38.3055 31.0207 39.5994 29.4302 39.5994H11.445C9.85446 39.5994 8.56055 38.3055 8.56055 36.715V18.7298C8.56055 17.1393 9.85446 15.8453 11.445 15.8453H29.4302C31.0207 15.8453 32.3146 17.1393 32.3146 18.7298ZM28.3145 39.2601C30.3363 39.2601 31.9753 37.6211 31.9753 35.5993V27.6476C31.9753 21.3168 26.8432 16.1847 20.5124 16.1847H11.445C10.0394 16.1847 8.8999 17.3242 8.8999 18.7298V34.2056C8.8999 36.9971 11.1628 39.2601 13.9543 39.2601H28.3145V39.2601H28.3145H28.3145Z" fill="#3F3D56"/>
<path d="M22.8305 23.1908H17.0243C16.8779 23.1908 16.7588 23.0717 16.7588 22.9253C16.7588 22.779 16.8779 22.6599 17.0243 22.6599H22.8305C22.9769 22.6599 23.096 22.779 23.096 22.9253C23.096 23.0717 22.9769 23.1908 22.8305 23.1908V23.1908Z" fill="#008375"/>
<path d="M22.8305 28.8516H17.0243C16.8779 28.8516 16.7588 28.7325 16.7588 28.5861C16.7588 28.4397 16.8779 28.3207 17.0243 28.3207H22.8305C22.9769 28.3207 23.096 28.4397 23.096 28.5861C23.096 28.7325 22.9769 28.8516 22.8305 28.8516V28.8516Z" fill="#008375"/>
<path d="M19.9477 36.6565H14.1415C13.9951 36.6565 13.876 36.5374 13.876 36.391C13.876 36.2447 13.9951 36.1256 14.1415 36.1256H19.9477C20.0941 36.1256 20.2132 36.2447 20.2132 36.391C20.2132 36.5374 20.0941 36.6565 19.9477 36.6565V36.6565Z" fill="#008375"/>
<path d="M25.9477 26.0229H13.91C13.7636 26.0229 13.6445 25.9038 13.6445 25.7574C13.6445 25.611 13.7636 25.4919 13.91 25.4919H25.9477C26.0941 25.4919 26.2131 25.611 26.2131 25.7574C26.2131 25.9038 26.0941 26.0229 25.9477 26.0229V26.0229Z" fill="#008375"/>
<path d="M27.0304 57.4328C12.1257 57.4328 0 45.307 0 30.4025C0 15.498 12.1257 3.37231 27.0304 3.37231C41.935 3.37231 54.0605 15.498 54.0605 30.4025C54.0605 45.307 41.9348 57.4328 27.0304 57.4328ZM27.0304 3.71166C10.9554 37.8879 0.224545 18.5754 0.339342 30.4025C0.482187 45.1193 12.3128 57.0934 27.0304 57.0934C41.7479 57.0934 53.7212 45.12 53.7212 30.4025C53.7212 15.685 41.7477 3.71166 27.0304 3.71166Z" fill="#3F3D56"/>
</svg>
