<svg width="162" height="180" viewBox="0 0 162 180" fill="none" xmlns="http://www.w3.org/2000/svg">
<g clip-path="url(#clip0_350_21453)">
<path d="M153.676 169.661C152.671 170.014 151.591 170.103 150.542 169.918C149.493 169.733 148.509 169.281 147.685 168.605C145.586 166.844 144.927 163.942 144.393 161.255L142.81 153.308L146.125 155.591C148.509 157.232 150.946 158.927 152.597 161.304C154.248 163.682 154.968 166.928 153.642 169.501" fill="#E6E6E6"/>
<path d="M153.393 179.283C153.728 176.839 154.073 174.364 153.838 171.893C153.629 169.699 152.96 167.557 151.597 165.8C150.874 164.869 149.994 164.071 148.996 163.443C148.736 163.279 148.497 163.691 148.756 163.854C150.482 164.945 151.816 166.555 152.568 168.454C153.398 170.564 153.531 172.865 153.387 175.107C153.3 176.463 153.117 177.81 152.932 179.156C152.917 179.217 152.926 179.281 152.957 179.336C152.988 179.39 153.039 179.431 153.099 179.449C153.16 179.466 153.225 179.457 153.279 179.426C153.334 179.395 153.375 179.343 153.392 179.283L153.393 179.283Z" fill="#F2F2F2"/>
<path d="M141.378 138.689H2.68945V0H141.378V138.689Z" fill="white"/>
<path d="M141.378 138.689H2.68945V0H141.378V138.689ZM4.73855 136.64H139.329V2.04912H4.73855V136.64Z" fill="#E5E5E5"/>
<path d="M116.809 21.6978H56.751V23.5686H116.809V21.6978Z" fill="#E5E5E5"/>
<path d="M116.809 26.562H56.751V28.4329H116.809V26.562Z" fill="#E5E5E5"/>
<path d="M116.809 31.4263H56.751V33.2971H116.809V31.4263Z" fill="#E5E5E5"/>
<path d="M116.809 63.4658H56.751V65.3367H116.809V63.4658Z" fill="#E5E5E5"/>
<path d="M116.809 68.3301H56.751V70.2009H116.809V68.3301Z" fill="#E5E5E5"/>
<path d="M116.809 73.1938H56.751V75.0647H116.809V73.1938Z" fill="#E5E5E5"/>
<path d="M116.809 105.233H56.751V107.104H116.809V105.233Z" fill="#E5E5E5"/>
<path d="M116.809 110.098H56.751V111.968H116.809V110.098Z" fill="#E5E5E5"/>
<path d="M116.809 114.962H56.751V116.833H116.809V114.962Z" fill="#E5E5E5"/>
<path d="M32.7082 36.6035C31.6822 36.0629 30.6112 35.6122 29.5074 35.2565L29.3666 33.6995L23.6582 33.0845L22.9327 35.0746L20.8841 35.8434C20.8107 35.8712 20.741 35.9076 20.6762 35.9517H20.6739C20.5596 36.029 20.4622 36.1287 20.3878 36.2449C20.3133 36.3611 20.2633 36.4912 20.2408 36.6274C20.219 36.7627 20.2241 36.9011 20.2561 37.0345L20.3643 37.4784C20.5202 37.5716 20.6805 37.6603 20.8407 37.7448L20.9425 37.7968C21.1764 37.9181 21.4147 38.0328 21.6594 38.1389C21.7092 38.1606 21.7633 38.1823 21.8131 38.2039C21.8174 38.2061 21.8196 38.2061 21.8239 38.2082C21.9387 38.2559 22.0535 38.3014 22.1704 38.3447C22.5545 38.4914 22.9464 38.6172 23.3441 38.7215C24.3593 38.9921 25.4055 39.1289 26.4561 39.1286C26.8394 39.1286 27.2184 39.1113 27.593 39.0745C28.4491 38.9955 29.2942 38.8248 30.1138 38.5656C30.1159 38.5656 30.1181 38.5634 30.1203 38.5634C30.638 38.3984 31.1438 38.198 31.6341 37.9635C31.6362 37.9614 31.6405 37.9614 31.6427 37.9592C31.7531 37.9072 31.8593 37.8509 31.9676 37.7968L32.0195 37.7708C32.1061 37.7253 32.1928 37.6798 32.2794 37.6322C32.496 37.5131 32.7082 37.3875 32.9182 37.2532C32.9767 37.2185 33.033 37.1817 33.0915 37.1428C33.1738 37.0886 33.256 37.0323 33.3362 36.9738C33.1347 36.8439 32.9247 36.7205 32.7082 36.6035Z" fill="#3F3D56"/>
<path d="M21.9952 37.5631L21.6379 35.9497H20.7045C20.6951 35.9498 20.6857 35.9506 20.6764 35.9519H20.6741C20.3387 35.9803 20.0157 36.0919 19.7343 36.2767C19.5435 36.3985 19.3738 36.5507 19.2319 36.7271C19.5091 36.9372 19.7971 37.1321 20.0938 37.3183L20.1068 37.3248C20.1912 37.3768 20.2779 37.4288 20.3645 37.4786C20.5204 37.5717 20.6807 37.6605 20.8409 37.745L20.9427 37.797C21.1766 37.9182 21.4149 38.033 21.6596 38.1391C21.7094 38.1608 21.7635 38.1824 21.8133 38.2041C21.8176 38.2062 21.8198 38.2062 21.8241 38.2084C21.9389 38.2561 22.0537 38.3015 22.1706 38.3448L21.9952 37.5631Z" fill="#3F3D56"/>
<path d="M26.2885 32.1005C28.5591 32.1005 30.3998 30.2598 30.3998 27.9892C30.3998 25.7186 28.5591 23.8779 26.2885 23.8779C24.0179 23.8779 22.1772 25.7186 22.1772 27.9892C22.1772 30.2598 24.0179 32.1005 26.2885 32.1005Z" fill="#FFB8B8"/>
<path d="M23.528 25.9867C23.9536 26.4904 24.6738 26.6325 25.3382 26.6908C26.8915 26.7766 28.4493 26.6494 29.9682 26.3127C30.0623 27.2249 29.8057 28.2084 30.343 28.9588C30.5948 28.0503 30.7413 27.1159 30.7794 26.174C30.8195 25.7699 30.7668 25.362 30.6252 24.9813C30.5494 24.7906 30.4217 24.6249 30.2565 24.5031C30.0914 24.3813 29.8953 24.3083 29.6907 24.2924C29.997 24.06 30.3558 23.9067 30.7354 23.8458L29.43 23.1898L29.7652 22.8456L27.4018 22.701L28.0863 22.2661C27.0561 22.1245 26.0138 22.0916 24.9766 22.1679C24.492 22.1682 24.0165 22.3003 23.6013 22.5503C23.211 22.8293 22.9856 23.3839 23.2278 23.7936C22.9245 23.8434 22.639 23.9698 22.3982 24.1608C22.1574 24.3519 21.9694 24.6012 21.852 24.8852C21.7035 25.3367 21.6676 25.8176 21.7476 26.2861C21.8366 27.0378 22.0113 27.7768 22.2682 28.4888L23.528 25.9867Z" fill="#2F2E41"/>
<path d="M37.8492 23.5323C37.2724 21.8752 36.341 20.3638 35.12 19.1036C33.8991 17.8434 32.4179 16.8647 30.7798 16.2358C29.1418 15.6068 27.3862 15.3427 25.6356 15.462C23.885 15.5812 22.1815 16.0809 20.6438 16.9261C19.1062 17.7714 17.7714 18.9419 16.7326 20.356C15.6938 21.7701 14.9759 23.3938 14.6291 25.1139C14.2823 26.8339 14.3149 28.6089 14.7245 30.3151C15.1342 32.0213 15.9111 33.6176 17.0011 34.9926C17.1094 35.129 17.222 35.2655 17.3368 35.3976C17.3455 35.4062 17.3519 35.4149 17.3606 35.4236C17.6429 35.7488 17.9429 36.0582 18.2593 36.3504C18.3417 36.4262 18.4283 36.5042 18.5149 36.5778C18.6794 36.7251 18.8484 36.8658 19.0238 37.0001C19.0931 37.0543 19.1602 37.1084 19.2317 37.1604C19.5088 37.3704 19.7969 37.5653 20.0936 37.7516L20.1066 37.7581C20.191 37.81 20.2777 37.862 20.3643 37.9118C20.5202 38.0049 20.6805 38.0937 20.8407 38.1782L20.9425 38.2302C21.1764 38.3514 21.4146 38.4662 21.6593 38.5723C21.7091 38.594 21.7633 38.6156 21.8131 38.6373C21.8174 38.6395 21.8195 38.6395 21.8239 38.6416C21.9387 38.6893 22.0534 38.7348 22.1704 38.7781C22.5545 38.9248 22.9463 39.0506 23.3441 39.1549C24.3593 39.4254 25.4054 39.5623 26.4561 39.562C26.8394 39.562 27.2184 39.5447 27.593 39.5079C28.449 39.4289 29.2941 39.2582 30.1138 38.999C30.1159 38.999 30.1181 38.9968 30.1202 38.9968C30.638 38.8318 31.1438 38.6314 31.634 38.3969C31.6361 38.3948 31.6405 38.3948 31.6427 38.3926C31.7531 38.3406 31.8593 38.2843 31.9675 38.2302L32.0195 38.2042C32.1061 38.1587 32.1928 38.1132 32.2794 38.0656C32.4959 37.9465 32.7082 37.8209 32.9182 37.6866C32.9766 37.652 33.033 37.6151 33.0915 37.5762C33.1737 37.522 33.256 37.4657 33.3362 37.4072C33.4422 37.3336 33.5484 37.2578 33.6523 37.1799C33.6848 37.156 33.7195 37.1322 33.7519 37.1062C35.7808 35.5663 37.27 33.4235 38.006 30.985C38.7421 28.5465 38.6872 25.9377 37.8492 23.5323V23.5323ZM33.3535 36.58C33.282 36.6363 33.2084 36.6904 33.1347 36.7402C33.0632 36.7944 32.9919 36.8464 32.9182 36.894C32.8554 36.9395 32.7925 36.9828 32.7276 37.0239L32.7082 37.0369C32.6605 37.0694 32.6129 37.0997 32.5652 37.13C32.3854 37.2426 32.2035 37.3509 32.0195 37.4549L31.961 37.4874C31.8787 37.5329 31.7965 37.5762 31.7142 37.6195C31.7033 37.626 31.6903 37.6303 31.6795 37.6368L31.6665 37.6433C31.5626 37.6974 31.4564 37.7494 31.3503 37.7992C30.9409 37.9964 30.5191 38.1671 30.0878 38.3103C30.0314 38.3298 29.9752 38.3493 29.9189 38.3666C29.1431 38.6134 28.343 38.776 27.5324 38.8517C27.1772 38.8842 26.8177 38.9015 26.4561 38.9015C25.4624 38.9036 24.4728 38.7739 23.5131 38.516C23.0206 38.3875 22.5379 38.2239 22.0687 38.0266C22.0448 38.0158 22.0187 38.0071 21.9949 37.9963C21.969 37.9855 21.9451 37.9768 21.9214 37.966C21.8953 37.9551 21.8715 37.9443 21.8455 37.9313C21.642 37.8425 21.4405 37.7451 21.2435 37.6433L21.1483 37.5935C20.9078 37.4679 20.6718 37.3336 20.4422 37.1907C20.3751 37.1495 20.3058 37.1062 20.2408 37.0607C20.2236 37.0499 20.2083 37.0391 20.191 37.0283C20.0373 36.9265 19.8835 36.8204 19.7341 36.7099C19.6324 36.6341 19.5305 36.5583 19.4309 36.4804C19.2642 36.3548 19.1039 36.2205 18.948 36.0819C18.8657 36.0126 18.7856 35.9368 18.7077 35.8653C18.4006 35.5818 18.1099 35.2811 17.8371 34.9645C17.7461 34.8605 17.6573 34.7566 17.5728 34.6483C17.5536 34.6269 17.5356 34.6045 17.5187 34.5812C16.1116 32.8056 15.2653 30.6512 15.0877 28.3928C14.91 26.1343 15.409 23.8741 16.5211 21.9004C17.6332 19.9266 19.308 18.3289 21.3318 17.3109C23.3557 16.2929 25.6369 15.9007 27.8845 16.1844C30.1321 16.4681 32.2443 17.4149 33.9517 18.9039C35.659 20.3929 36.8842 22.3567 37.471 24.5449C38.0577 26.733 37.9794 29.0464 37.2461 31.1898C36.5128 33.3333 35.1576 35.2098 33.3535 36.58L33.3535 36.58Z" fill="#3F3D56"/>
<path d="M37.8492 65.2999C37.2723 63.6428 36.341 62.1314 35.12 60.8712C33.8991 59.611 32.4179 58.6323 30.7798 58.0033C29.1418 57.3744 27.3862 57.1103 25.6356 57.2295C23.885 57.3488 22.1815 57.8485 20.6438 58.6937C19.1062 59.539 17.7714 60.7095 16.7326 62.1236C15.6938 63.5377 14.9759 65.1614 14.6291 66.8814C14.2823 68.6015 14.3149 70.3765 14.7245 72.0827C15.1342 73.7888 15.9111 75.3851 17.0011 76.7602C17.1094 76.8966 17.222 77.033 17.3367 77.1651C17.3454 77.1738 17.3518 77.1825 17.3605 77.1911C17.6428 77.5164 17.9429 77.8258 18.2593 78.118C18.3416 78.1938 18.4282 78.2717 18.5148 78.3454C18.6794 78.4926 18.8483 78.6334 19.0237 78.7677C19.3662 79.0376 19.7233 79.2885 20.0935 79.5191L20.1065 79.5256C20.3468 79.6751 20.5915 79.8136 20.8407 79.9458L20.9424 79.9977C21.1763 80.119 21.4145 80.2338 21.6592 80.3399C21.709 80.3616 21.7631 80.3832 21.813 80.4049C21.8173 80.407 21.8195 80.407 21.8238 80.4092C22.3183 80.6148 22.8262 80.7863 23.3441 80.9224C24.3592 81.193 25.4054 81.3299 26.456 81.3296C26.8393 81.3296 27.2182 81.3122 27.5929 81.2754C28.4489 81.1964 29.294 81.0258 30.1137 80.7665C30.1159 80.7665 30.118 80.7643 30.1201 80.7643C30.6379 80.5994 31.1437 80.399 31.6339 80.1645C31.636 80.1623 31.6405 80.1623 31.6426 80.1601C31.753 80.1082 31.8591 80.0519 31.9674 79.9977L32.0194 79.9717C32.106 79.9263 32.1926 79.8808 32.2792 79.8331C32.4958 79.714 32.708 79.5884 32.9181 79.4542C32.9766 79.4195 33.0329 79.3827 33.0913 79.3437C33.2819 79.2181 33.4703 79.0838 33.6522 78.9474C33.6848 78.9236 33.7193 78.8998 33.7519 78.8738C35.7807 77.3337 37.2699 75.1909 38.0059 72.7525C38.7419 70.3141 38.6871 67.7052 37.8492 65.2999V65.2999Z" fill="white"/>
<path d="M30.4374 74.2382C31.436 74.2382 32.2455 73.4287 32.2455 72.4301C32.2455 71.4316 31.436 70.6221 30.4374 70.6221C29.4389 70.6221 28.6294 71.4316 28.6294 72.4301C28.6294 73.4287 29.4389 74.2382 30.4374 74.2382Z" fill="#2F2E41"/>
<path d="M30.9408 70.672C31.2538 70.672 31.5613 70.7533 31.8335 70.9077C32.1056 71.0622 32.333 71.2847 32.4934 71.5534C32.6538 71.8221 32.7418 72.1278 32.7486 72.4407C32.7555 72.7536 32.681 73.0628 32.5325 73.3383C32.6892 73.1422 32.8034 72.9156 32.8677 72.6729C32.932 72.4302 32.945 72.1768 32.906 71.9288C32.8669 71.6808 32.7766 71.4437 32.6409 71.2325C32.5051 71.0213 32.3269 70.8407 32.1175 70.7023C31.9081 70.5638 31.6722 70.4704 31.4247 70.4282C31.1772 70.3859 30.9237 70.3956 30.6802 70.4567C30.4367 70.5179 30.2086 70.629 30.0105 70.7832C29.8123 70.9373 29.6484 71.1311 29.5293 71.352C29.6983 71.1398 29.913 70.9684 30.1575 70.8507C30.4019 70.733 30.6697 70.6719 30.941 70.672L30.9408 70.672Z" fill="#2F2E41"/>
<path d="M27.0584 72.4264C29.9917 72.4264 32.3697 70.0484 32.3697 67.115C32.3697 64.1817 29.9917 61.8037 27.0584 61.8037C24.125 61.8037 21.7471 64.1817 21.7471 67.115C21.7471 70.0484 24.125 72.4264 27.0584 72.4264Z" fill="#2F2E41"/>
<path d="M22.8901 63.82C23.8053 62.7907 25.0846 62.1573 26.4579 62.0534C27.8313 61.9494 29.1913 62.3832 30.2509 63.263C30.2076 63.2216 30.1643 63.18 30.1195 63.14C29.0703 62.2 27.6907 61.7154 26.2841 61.7927C24.8776 61.8699 23.5594 62.5028 22.6195 63.552C21.6795 64.6012 21.1949 65.9808 21.2722 67.3873C21.3494 68.7939 21.9823 70.1121 23.0315 71.052C23.0416 71.061 23.0517 71.07 23.0618 71.079C23.1069 71.1191 23.1532 71.157 23.1994 71.1953C22.2015 70.246 21.6115 68.9462 21.5538 67.5701C21.4962 66.194 21.9754 64.8494 22.8903 63.82L22.8901 63.82Z" fill="#2F2E41"/>
<path d="M27.0135 72.3816C28.9028 72.3816 30.4343 70.85 30.4343 68.9608C30.4343 67.0716 28.9028 65.54 27.0135 65.54C25.1243 65.54 23.5928 67.0716 23.5928 68.9608C23.5928 70.85 25.1243 72.3816 27.0135 72.3816Z" fill="#A0616A"/>
<path d="M33.1348 77.8733V79.021C32.9247 79.1553 32.7125 79.2809 32.4959 79.4C32.4093 79.4476 32.3227 79.4931 32.2361 79.5386L32.1841 79.5646C32.0758 79.6187 31.9696 79.675 31.8592 79.727C31.8571 79.7292 31.8527 79.7292 31.8506 79.7313C31.3604 79.9658 30.8546 80.1663 30.3368 80.3312C30.3347 80.3312 30.3325 80.3334 30.3303 80.3334C29.5107 80.5927 28.6656 80.7633 27.8096 80.8423C27.4349 80.8791 27.0559 80.8964 26.6726 80.8964C25.622 80.8967 24.5759 80.7599 23.5608 80.4893C23.0429 80.3531 22.5349 80.1817 22.0405 79.9761C22.0362 79.9739 22.0339 79.9739 22.0296 79.9717C21.9798 79.9501 21.9257 79.9284 21.8759 79.9068C21.6312 79.8006 21.3929 79.6859 21.159 79.5646L21.0573 79.5126C20.8082 79.3805 20.5635 79.2419 20.3232 79.0925L20.3102 79.086C19.94 78.8554 19.5829 78.6045 19.2404 78.3345C19.0649 78.2003 18.8961 78.0595 18.7314 77.9123C18.6448 77.8386 18.5582 77.7607 18.476 77.6849C18.1596 77.3927 17.8595 77.0832 17.5771 76.758C17.6146 76.5324 17.6696 76.3101 17.7418 76.0932L17.7439 76.091C17.7569 76.054 17.772 76.0179 17.7894 75.9827C17.8013 75.9516 17.8151 75.9213 17.8305 75.8918C18.2182 75.1663 18.9199 74.9865 19.7904 74.9476C20.282 74.9259 20.8255 74.9497 21.3995 74.9432C21.7027 74.9411 22.0166 74.9302 22.3307 74.9021C24.3122 74.7223 23.9527 73.5529 24.0415 72.9227C24.1303 72.3121 24.6804 72.8405 24.7171 72.8751L24.7193 72.8773C25.8406 73.402 27.0812 73.6195 28.3142 73.5074C28.5264 73.4815 28.7386 73.4663 28.9508 73.4598C29.5096 73.4533 29.3883 73.6136 29.1956 73.7457C29.1021 73.8072 29.0044 73.8622 28.9032 73.9103C28.9032 73.9103 28.8144 74.4516 28.7235 75.2616C28.6369 76.0368 30.1225 76.4007 30.2459 76.4288C30.2484 76.4305 30.2515 76.4313 30.2545 76.431C30.797 76.2903 31.3682 76.3053 31.9026 76.4743H31.9047C32.2101 76.5866 32.4825 76.7734 32.6973 77.0177C32.9121 77.262 33.0625 77.5561 33.1348 77.8733Z" fill="#008375"/>
<path d="M22.0621 79.2658C22.0621 79.4261 22.0579 79.5798 22.0513 79.7249C22.0492 79.8116 22.0449 79.896 22.0405 79.9761C22.0362 79.974 22.034 79.974 22.0296 79.9718C21.9798 79.9502 21.9257 79.9285 21.8759 79.9068C21.6312 79.8007 21.393 79.686 21.1591 79.5647L21.0574 79.5127C20.8082 79.3806 20.5635 79.242 20.3232 79.0926C20.3296 79.0168 20.3405 78.941 20.3513 78.8652C20.3751 78.6984 20.3947 78.5295 20.4077 78.3628C20.4928 77.1913 20.2805 76.0173 19.7905 74.9498V74.9476C19.7471 74.861 19.7212 74.8134 19.7212 74.8134C19.7212 74.8134 20.3513 74.272 21.25 74.8134C21.3074 74.8471 21.3581 74.8912 21.3995 74.9433C21.9409 75.5822 22.0881 77.7304 22.0621 79.2658Z" fill="#2F2E41"/>
<path d="M31.8959 78.9714C31.8873 79.2139 31.8743 79.4673 31.8591 79.725V79.7272C31.857 79.7293 31.8526 79.7293 31.8505 79.7315C31.3603 79.966 30.8545 80.1664 30.3367 80.3314C30.3346 80.3314 30.3324 80.3335 30.3302 80.3335L30.3064 79.725L30.3042 79.6449L30.1895 76.6823C30.1864 76.6153 30.197 76.5483 30.2205 76.4854C30.244 76.4225 30.2801 76.3651 30.3264 76.3165C30.3727 76.2679 30.4285 76.2293 30.4902 76.2028C30.5519 76.1764 30.6183 76.1627 30.6854 76.1626H31.7833C31.8375 76.1626 31.8765 76.273 31.9025 76.4723V76.4744C31.9557 77.306 31.9536 78.1401 31.8959 78.9714Z" fill="#2F2E41"/>
<path d="M24.0879 64.6846V68.1062H24.8801L25.8882 67.026L25.7532 68.1062H29.255L29.0384 67.026L29.4715 68.1062H30.0298V64.6846H24.0879Z" fill="#2F2E41"/>
<path d="M23.5479 68.7357C23.697 68.7357 23.8179 68.5141 23.8179 68.2407C23.8179 67.9672 23.697 67.7456 23.5479 67.7456C23.3987 67.7456 23.2778 67.9672 23.2778 68.2407C23.2778 68.5141 23.3987 68.7357 23.5479 68.7357Z" fill="#A0616A"/>
<path d="M30.4795 68.7357C30.6287 68.7357 30.7496 68.5141 30.7496 68.2407C30.7496 67.9672 30.6287 67.7456 30.4795 67.7456C30.3304 67.7456 30.2095 67.9672 30.2095 68.2407C30.2095 68.5141 30.3304 68.7357 30.4795 68.7357Z" fill="#A0616A"/>
<path d="M33.8691 78.5145C33.6872 78.6509 33.4988 78.7852 33.3082 78.9108C33.2498 78.9498 33.1935 78.9866 33.135 79.0213C32.9249 79.1555 32.7127 79.2811 32.4961 79.4002C32.4095 79.4479 32.3229 79.4934 32.2363 79.5388V77.1523C32.2363 77.1523 32.5827 77.4295 33.135 77.8908C33.2043 77.9493 33.2758 78.0099 33.3516 78.0749C33.5118 78.2092 33.6851 78.3564 33.8691 78.5145Z" fill="#008375"/>
<path d="M37.8492 65.2999C37.2723 63.6428 36.341 62.1314 35.12 60.8712C33.8991 59.611 32.4179 58.6323 30.7798 58.0033C29.1418 57.3744 27.3862 57.1103 25.6356 57.2295C23.885 57.3488 22.1815 57.8485 20.6438 58.6937C19.1062 59.539 17.7714 60.7095 16.7326 62.1236C15.6938 63.5377 14.9759 65.1614 14.6291 66.8814C14.2823 68.6015 14.3149 70.3765 14.7245 72.0827C15.1342 73.7888 15.9111 75.3851 17.0011 76.7602C17.1094 76.8966 17.222 77.033 17.3367 77.1651C17.3454 77.1738 17.3518 77.1825 17.3605 77.1911C17.6428 77.5164 17.9429 77.8258 18.2593 78.118C18.3416 78.1938 18.4282 78.2717 18.5148 78.3454C18.6794 78.4926 18.8483 78.6334 19.0237 78.7677C19.3662 79.0376 19.7233 79.2885 20.0935 79.5191L20.1065 79.5256C20.3468 79.6751 20.5915 79.8136 20.8407 79.9458L20.9424 79.9977C21.1763 80.119 21.4145 80.2338 21.6592 80.3399C21.709 80.3616 21.7631 80.3832 21.813 80.4049C21.8173 80.407 21.8195 80.407 21.8238 80.4092C22.3183 80.6148 22.8262 80.7863 23.3441 80.9224C24.3592 81.193 25.4054 81.3299 26.456 81.3296C26.8393 81.3296 27.2182 81.3122 27.5929 81.2754C28.4489 81.1964 29.294 81.0258 30.1137 80.7665C30.1159 80.7665 30.118 80.7643 30.1201 80.7643C30.6379 80.5994 31.1437 80.399 31.6339 80.1645C31.636 80.1623 31.6405 80.1623 31.6426 80.1601C31.753 80.1082 31.8591 80.0519 31.9674 79.9977L32.0194 79.9717C32.106 79.9263 32.1926 79.8808 32.2792 79.8331C32.4958 79.714 32.708 79.5884 32.9181 79.4542C32.9766 79.4195 33.0329 79.3827 33.0913 79.3437C33.2819 79.2181 33.4703 79.0838 33.6522 78.9474C33.6848 78.9236 33.7193 78.8998 33.7519 78.8738C35.7807 77.3337 37.2699 75.1909 38.0059 72.7525C38.7419 70.3141 38.6871 67.7052 37.8492 65.2999V65.2999ZM33.3534 78.3475C33.2819 78.4039 33.2083 78.458 33.1347 78.5078C33.0632 78.5619 32.9917 78.6139 32.9181 78.6615C32.8553 78.707 32.7925 78.7503 32.7275 78.7915C32.6734 78.8283 32.6192 78.863 32.5651 78.8976C32.3854 79.0102 32.2035 79.1185 32.0194 79.2224L31.9609 79.2549C31.8786 79.3004 31.7963 79.3437 31.7141 79.387C31.7032 79.3935 31.6902 79.3978 31.6794 79.4043L31.6664 79.4108C31.5624 79.465 31.4564 79.517 31.3502 79.5668C30.9407 79.764 30.519 79.9347 30.0877 80.0778C30.0314 80.0973 29.975 80.1168 29.9188 80.1341C29.143 80.3809 28.3429 80.5435 27.5323 80.6192C27.1771 80.6517 26.8176 80.669 26.456 80.669C25.4622 80.6711 24.4726 80.5415 23.513 80.2836C23.0204 80.155 22.5377 79.9915 22.0685 79.7942C22.0187 79.7747 21.9689 79.753 21.9212 79.7335C21.8953 79.7227 21.8714 79.7119 21.8454 79.6989C21.6419 79.6101 21.4405 79.5126 21.2434 79.4108L21.1482 79.361C20.9078 79.2354 20.6717 79.1012 20.4421 78.9582C20.3577 78.9063 20.2733 78.8521 20.191 78.7958C19.9311 78.6247 19.6777 78.4406 19.4308 78.2479C19.2641 78.1223 19.1039 77.988 18.9479 77.8494C18.8656 77.7802 18.7855 77.7044 18.7075 77.6329C18.4005 77.3493 18.1098 77.0486 17.837 76.732C17.746 76.6281 17.6572 76.5241 17.5727 76.4158C17.5535 76.3944 17.5354 76.372 17.5186 76.3487C16.1115 74.5732 15.2652 72.4188 15.0875 70.1603C14.9099 67.9018 15.4089 65.6416 16.521 63.6679C17.6331 61.6942 19.3079 60.0965 21.3317 59.0784C23.3556 58.0604 25.6367 57.6683 27.8844 57.952C30.132 58.2357 32.2442 59.1824 33.9515 60.6714C35.6589 62.1605 36.8841 64.1243 37.4708 66.3124C38.0576 68.5006 37.9793 70.8139 37.246 72.9574C36.5126 75.1009 35.1575 76.9774 33.3534 78.3475V78.3475Z" fill="#3F3D56"/>
<path d="M26.5241 116.455C29.1346 116.455 31.2508 114.339 31.2508 111.729C31.2508 109.118 29.1346 107.002 26.5241 107.002C23.9136 107.002 21.7974 109.118 21.7974 111.729C21.7974 114.339 23.9136 116.455 26.5241 116.455Z" fill="#2F2E41"/>
<path d="M22.835 109.18C23.5988 108.416 23.7536 107.333 23.1807 106.76C22.6079 106.187 21.5243 106.342 20.7605 107.106C19.9966 107.87 19.8418 108.953 20.4147 109.526C20.9876 110.099 22.0712 109.944 22.835 109.18Z" fill="#2F2E41"/>
<path d="M31.4509 107.679C31.7691 106.934 31.2219 105.986 30.2285 105.562C29.2351 105.138 28.1718 105.398 27.8536 106.143C27.5353 106.888 28.0826 107.836 29.076 108.26C30.0694 108.684 31.1326 108.424 31.4509 107.679Z" fill="#2F2E41"/>
<path d="M32.1783 120.898L31.6214 120.021C31.3851 119.493 30.9492 119.081 30.4092 118.874C29.8693 118.666 29.2692 118.682 28.7404 118.916C28.2117 119.15 27.7974 119.585 27.5883 120.124C27.3792 120.663 27.3923 121.263 27.6248 121.793L27.7831 122.361L27.9634 123.005C28.693 122.913 29.4129 122.756 30.1145 122.536C30.1166 122.535 30.1185 122.534 30.12 122.533C30.6386 122.369 31.1449 122.168 31.6351 121.932C31.6378 121.93 31.6405 121.93 31.6433 121.927C31.7524 121.875 31.8589 121.82 31.9681 121.766C31.9859 121.758 32.0033 121.749 32.02 121.738C32.1073 121.695 32.1947 121.648 32.2794 121.602C32.3667 121.555 32.4513 121.506 32.5332 121.455L32.1783 120.898Z" fill="#CACACA"/>
<path d="M26.6741 116.869C28.8896 116.869 30.6856 115.073 30.6856 112.857C30.6856 110.642 28.8896 108.846 26.6741 108.846C24.4586 108.846 22.6626 110.642 22.6626 112.857C22.6626 115.073 24.4586 116.869 26.6741 116.869Z" fill="#FFB6B6"/>
<path d="M32.4675 120.726C32.025 119.99 31.4757 119.324 30.8376 118.749C30.4006 118.359 29.835 118.143 29.2489 118.143H23.5979C23.2723 118.143 22.9501 118.21 22.6513 118.339C22.3524 118.468 22.0833 118.657 21.8604 118.895C21.6376 119.132 21.4658 119.413 21.3557 119.719C21.2455 120.026 21.1994 120.351 21.2202 120.676C21.2325 120.86 21.2655 121.041 21.3185 121.217C21.3588 121.344 21.409 121.469 21.4686 121.588L21.7471 122.145C21.7689 122.153 21.7908 122.164 21.8125 122.172C21.818 122.175 21.8208 122.175 21.8234 122.178C21.9381 122.224 22.0528 122.271 22.1701 122.314C22.5543 122.461 22.9462 122.587 23.3441 122.691C23.9846 122.863 24.6384 122.981 25.2986 123.043C25.6836 123.079 26.0685 123.098 26.4562 123.098C26.8411 123.098 27.2178 123.079 27.5945 123.043C27.7174 123.032 27.8402 123.019 27.9631 123.005C28.6927 122.913 29.4126 122.756 30.1142 122.536C30.1163 122.535 30.1182 122.534 30.1197 122.533C30.6383 122.369 31.1446 122.168 31.6349 121.932C31.6375 121.929 31.6402 121.929 31.643 121.927C31.7522 121.875 31.8587 121.82 31.9678 121.766C31.9857 121.758 32.003 121.749 32.0197 121.738C32.107 121.695 32.1944 121.648 32.2791 121.602C32.3664 121.555 32.451 121.506 32.5329 121.454C32.6203 121.408 32.7022 121.356 32.7868 121.304C32.6831 121.1 32.5766 120.908 32.4675 120.726Z" fill="#CACACA"/>
<path d="M24.6217 118.875C24.0987 118.63 23.5002 118.602 22.957 118.798C22.4137 118.993 21.9699 119.396 21.7226 119.918L21.2202 120.676L20.98 121.039L20.6143 121.591C20.6906 121.632 20.7644 121.673 20.8409 121.714L20.9418 121.766C21.1766 121.886 21.414 122 21.6598 122.107C21.687 122.121 21.7172 122.131 21.7471 122.145C21.769 122.153 21.7909 122.164 21.8126 122.172C21.8181 122.175 21.8209 122.175 21.8235 122.178C21.9381 122.224 22.0529 122.271 22.1702 122.314C22.5544 122.461 22.9463 122.587 23.3442 122.691C23.9846 122.863 24.6385 122.981 25.2987 123.043L25.4898 122.396L25.6755 121.779C25.9202 121.254 25.9467 120.654 25.7492 120.109C25.5516 119.565 25.1461 119.121 24.6217 118.875Z" fill="#CACACA"/>
<path d="M22.459 110.334C23.3757 110.966 24.4637 111.302 25.577 111.298C25.1799 111.573 24.7278 111.759 24.2519 111.843C25.7321 112.161 27.262 112.169 28.7457 111.868C29.0755 111.815 29.3937 111.706 29.6864 111.545C29.8322 111.464 29.9593 111.352 30.0594 111.219C30.1594 111.085 30.2302 110.931 30.267 110.769C30.3656 110.205 29.9268 109.694 29.4707 109.349C28.7723 108.829 27.9672 108.471 27.1134 108.3C26.2597 108.129 25.3787 108.151 24.5341 108.362C23.9715 108.475 23.4594 108.765 23.0721 109.188C22.8847 109.404 22.7716 109.674 22.7494 109.959C22.7273 110.244 22.7973 110.528 22.9491 110.77L22.459 110.334Z" fill="#2F2E41"/>
<path d="M37.851 107.068C37.2743 105.41 36.343 103.899 35.122 102.639C33.9011 101.378 32.4199 100.399 30.7817 99.7702C29.1436 99.1411 27.3879 98.8769 25.6372 98.9961C23.8864 99.1153 22.1827 99.615 20.645 100.46C19.1072 101.306 17.7723 102.476 16.7335 103.89C15.6946 105.305 14.9768 106.928 14.63 108.649C14.2832 110.369 14.3159 112.144 14.7257 113.85C15.1355 115.557 15.9126 117.153 17.0027 118.528C17.1091 118.664 17.2239 118.801 17.3385 118.932C17.3451 118.942 17.3524 118.951 17.3604 118.959C17.6431 119.284 17.9438 119.593 18.2612 119.885C18.3431 119.961 18.4277 120.04 18.5151 120.114C18.6788 120.261 18.8481 120.401 19.0255 120.534C19.0938 120.589 19.162 120.644 19.2331 120.695C19.5087 120.906 19.7981 121.1 20.093 121.288C20.098 121.288 20.1029 121.29 20.1066 121.293C20.1912 121.345 20.2786 121.397 20.366 121.446C20.4478 121.495 20.5324 121.544 20.6144 121.591C20.6908 121.632 20.7645 121.673 20.841 121.714L20.9419 121.766C21.1768 121.886 21.4142 122 21.66 122.107C21.6872 122.12 21.7173 122.131 21.7473 122.145C21.7692 122.153 21.791 122.164 21.8128 122.172C21.8182 122.175 21.821 122.175 21.8237 122.178C21.9383 122.224 22.0531 122.271 22.1704 122.314C22.5545 122.461 22.9464 122.587 23.3443 122.691C23.9848 122.863 24.6386 122.981 25.2988 123.043C25.6838 123.079 26.0688 123.098 26.4564 123.098C26.8414 123.098 27.218 123.079 27.5947 123.043C27.7176 123.032 27.8404 123.019 27.9633 123.005C28.6929 122.913 29.4128 122.756 30.1144 122.535C30.1165 122.535 30.1184 122.534 30.1199 122.533C30.6385 122.369 31.1449 122.168 31.6351 121.932C31.6378 121.929 31.6404 121.929 31.6432 121.927C31.7524 121.875 31.8589 121.82 31.9681 121.766C31.9859 121.758 32.0032 121.748 32.0199 121.738C32.1072 121.695 32.1947 121.648 32.2793 121.602C32.3666 121.555 32.4512 121.506 32.5331 121.454C32.6205 121.408 32.7024 121.356 32.787 121.304C32.8308 121.277 32.8744 121.25 32.9181 121.222C32.9782 121.187 33.0327 121.151 33.0928 121.11C33.1747 121.059 33.2566 121.001 33.3357 120.944C33.4422 120.87 33.5487 120.794 33.6524 120.715C33.6874 120.692 33.7211 120.667 33.7534 120.641C35.7807 119.1 37.2688 116.957 38.0047 114.519C38.7407 112.081 38.6869 109.473 37.851 107.068L37.851 107.068ZM33.3549 120.114C33.2838 120.171 33.2101 120.226 33.1366 120.275C33.0627 120.33 32.9918 120.382 32.9181 120.431C32.8553 120.474 32.7925 120.518 32.7271 120.559C32.7211 120.564 32.7147 120.569 32.7079 120.573C32.6615 120.605 32.6123 120.635 32.5659 120.665C32.5331 120.685 32.5005 120.706 32.4677 120.726C32.3721 120.786 32.2765 120.843 32.1783 120.898C32.1264 120.93 32.0718 120.96 32.0199 120.99C32.0009 121.001 31.9817 121.012 31.9626 121.023C31.878 121.069 31.7961 121.11 31.7141 121.154C31.7033 121.162 31.6896 121.165 31.6815 121.173C31.6764 121.173 31.6715 121.175 31.6678 121.179C31.564 121.233 31.4575 121.285 31.3512 121.334C30.9413 121.532 30.519 121.702 30.0871 121.845C30.0326 121.864 29.9753 121.886 29.9206 121.902C29.2244 122.123 28.5086 122.277 27.7831 122.361C27.7012 122.372 27.6166 122.38 27.532 122.388C27.1771 122.421 26.8195 122.437 26.4564 122.437C26.1342 122.437 25.8094 122.424 25.49 122.396C24.8223 122.341 24.1609 122.226 23.5136 122.052C23.0209 121.924 22.5383 121.76 22.0695 121.561C22.0448 121.55 22.0203 121.542 21.9958 121.531C21.9685 121.52 21.9466 121.512 21.9221 121.501C21.8948 121.49 21.8729 121.479 21.8456 121.465C21.6681 121.389 21.4907 121.304 21.3188 121.217C21.2941 121.203 21.2696 121.192 21.2451 121.179L21.1495 121.13C21.0922 121.1 21.0349 121.069 20.9802 121.039C20.7973 120.941 20.6171 120.835 20.4425 120.726C20.3769 120.685 20.306 120.641 20.2404 120.597L20.1912 120.564C20.0383 120.461 19.8856 120.357 19.7354 120.245C19.6343 120.169 19.5306 120.095 19.4324 120.016C19.2659 119.89 19.1047 119.756 18.9492 119.617C18.8672 119.549 18.7854 119.472 18.709 119.402C18.4016 119.118 18.1108 118.817 17.8382 118.501C17.748 118.397 17.6579 118.293 17.5733 118.184C17.5542 118.162 17.5378 118.14 17.5186 118.116C16.1113 116.34 15.2647 114.185 15.0868 111.927C14.909 109.668 15.4079 107.407 16.5201 105.433C17.6322 103.459 19.3071 101.861 21.3312 100.843C23.3552 99.8247 25.6367 99.4324 27.8846 99.716C30.1326 99.9997 32.2451 100.946 33.9527 102.436C35.6604 103.925 36.8858 105.889 37.4727 108.077C38.0596 110.266 37.9813 112.579 37.248 114.723C36.5146 116.867 35.1593 118.744 33.3549 120.114H33.3549Z" fill="#3F3D56"/>
<path d="M46.6393 48.1253C42.4386 44.5806 37.2981 42.3334 31.8434 41.657C26.3887 40.9805 20.8551 41.9041 15.9157 44.3154C10.9764 46.7266 6.84438 50.5215 4.02249 55.2382C1.2006 59.955 -0.189489 65.3903 0.0213649 70.8827C0.232219 76.3751 2.03493 81.6878 5.21013 86.1744C8.38533 90.6609 12.7961 94.1279 17.9058 96.1533C23.0154 98.1788 28.6037 98.6754 33.9904 97.5828C39.3772 96.4901 44.3302 93.8554 48.2469 89.9991L83.026 119.346C83.5555 119.791 84.2398 120.008 84.929 119.949C85.6181 119.89 86.2559 119.561 86.7025 119.032C87.149 118.504 87.3679 117.82 87.3112 117.131C87.2544 116.442 86.9267 115.803 86.3998 115.355L86.3959 115.352L51.6168 86.0053C55.657 80.2067 57.3862 73.1083 56.4655 66.1012C55.5447 59.094 52.0405 52.6833 46.6393 48.1253ZM44.3973 83.1794C41.6878 86.3905 38.087 88.7259 34.0502 89.8905C30.0135 91.0551 25.722 90.9965 21.7185 89.7221C17.7151 88.4477 14.1794 86.0148 11.5587 82.7309C8.9379 79.4471 7.34978 75.4599 6.99511 71.2735C6.64044 67.0871 7.53515 62.8895 9.5661 59.2116C11.597 55.5336 14.673 52.5406 18.405 50.6108C22.137 48.6811 26.3575 47.9013 30.5327 48.3702C34.7078 48.8391 38.6502 50.5355 41.8612 53.245C46.1671 56.8782 48.8533 62.0732 49.3289 67.687C49.8045 73.3008 48.0305 78.8736 44.3973 83.1794Z" fill="#3F3D56"/>
<path opacity="0.3" d="M14.463 85.7153C10.3878 82.2764 7.75488 77.4306 7.08709 72.1403C6.4193 66.85 7.76546 61.502 10.8583 57.1582C10.4521 57.5672 10.0594 57.9956 9.6803 58.4434C7.88129 60.5754 6.51983 63.0409 5.67366 65.6991C4.8275 68.3573 4.51319 71.1562 4.74868 73.9358C4.98417 76.7155 5.76486 79.4216 7.04616 81.8996C8.32746 84.3775 10.0843 86.5788 12.2163 88.3779C14.3484 90.1769 16.8139 91.5383 19.4721 92.3845C22.1303 93.2307 24.9291 93.545 27.7088 93.3095C30.4885 93.074 33.1946 92.2933 35.6725 91.012C38.1505 89.7307 40.3518 87.9739 42.1508 85.8418C42.5291 85.3935 42.8853 84.9344 43.2195 84.4645C39.458 88.2439 34.4126 90.4706 29.0854 90.7023C23.7581 90.9341 18.5385 89.1539 14.463 85.7153Z" fill="black"/>
<path d="M116.754 120.443C117.026 120.111 117.221 119.724 117.327 119.309C117.433 118.893 117.446 118.459 117.366 118.038C117.287 117.617 117.115 117.218 116.865 116.871C116.614 116.523 116.29 116.234 115.916 116.025L109.577 90.0771L104.952 91.5534L111.798 117.324C111.488 117.976 111.428 118.719 111.629 119.412C111.831 120.105 112.279 120.7 112.89 121.085C113.501 121.469 114.232 121.616 114.944 121.498C115.656 121.38 116.3 121.004 116.754 120.443H116.754Z" fill="#FFB6B6"/>
<path d="M113.478 103.845L110.098 106.761L105.37 110.837L103.281 100.152L103.063 99.0411L102.891 98.1593L107.682 89.814L111.676 90.043L111.949 90.0594L111.954 90.1197L112.017 90.6794L112.836 98.0444L112.855 98.2221L113.478 103.845Z" fill="#3F3D56"/>
<path d="M91.3872 176.372L88.0406 176.372L86.4482 163.463L91.388 163.463L91.3872 176.372Z" fill="#FFB6B6"/>
<path d="M92.2408 179.616L81.4492 179.616V179.48C81.4493 178.366 81.8919 177.297 82.6796 176.51C83.4673 175.722 84.5356 175.279 85.6496 175.279H85.6499L92.241 175.28L92.2408 179.616Z" fill="#2F2E41"/>
<path d="M126.33 176.645L122.983 176.645L121.391 163.736L126.331 163.736L126.33 176.645Z" fill="#FFB6B6"/>
<path d="M127.184 179.889L116.392 179.889V179.753C116.392 178.639 116.835 177.57 117.622 176.783C118.41 175.995 119.478 175.552 120.592 175.552H120.593L127.184 175.553L127.184 179.889Z" fill="#2F2E41"/>
<path d="M129.005 171.507L119.996 172.872L106.89 128.516L92.9703 173.145L82.8696 171.78L95.9732 119.911V115.816L97.7476 109.674L97.562 108.012L96.2707 96.3849L95.7111 91.3427L95.6749 91.017C95.6444 90.7437 95.7168 90.4688 95.878 90.2459C96.0391 90.023 96.2774 89.8681 96.5465 89.8112L100.751 88.9268H107.622L111.676 90.0433L111.954 90.1197L112.08 90.1552L112.017 90.6794L111.067 98.6452L111.015 99.082L110.098 106.761L109.896 108.446C117.812 114.178 118.085 119.911 118.085 119.911L129.005 171.507Z" fill="#2F2E41"/>
<path d="M103.356 85.4729C107.059 85.4729 110.061 82.471 110.061 78.7679C110.061 75.0649 107.059 72.063 103.356 72.063C99.6528 72.063 96.6509 75.0649 96.6509 78.7679C96.6509 82.471 99.6528 85.4729 103.356 85.4729Z" fill="#FFB6B6"/>
<path d="M110.398 106.905L97.1348 108.64L97.3826 110.534L110.646 108.8L110.398 106.905Z" fill="#3F3D56"/>
<path d="M79.3436 109.211C79.4704 109.293 79.5906 109.385 79.703 109.486L92.8219 106.141L93.7169 102.977L98.6698 103.703L97.6299 109.46C97.5459 109.925 97.3133 110.35 96.967 110.672C96.6208 110.993 96.1795 111.194 95.7095 111.243L80.3916 112.857C80.142 113.382 79.7382 113.819 79.234 114.11C78.7298 114.401 78.1491 114.531 77.5691 114.483C76.9891 114.436 76.4374 114.213 75.9872 113.844C75.537 113.475 75.2098 112.978 75.049 112.419C74.8883 111.86 74.9016 111.265 75.0872 110.713C75.2728 110.162 75.6219 109.68 76.0881 109.331C76.5543 108.983 77.1155 108.785 77.6971 108.764C78.2786 108.742 78.8529 108.898 79.3436 109.211Z" fill="#FFB6B6"/>
<path d="M99.5224 91.52L97.2019 89.7455C96.5745 89.5076 95.7149 90.1837 95.564 90.8375L92.2881 104.214L99.1129 109.128L100.068 107.626L99.5224 91.52Z" fill="#3F3D56"/>
<g opacity="0.2">
<path d="M112.836 98.0446C112.257 98.2745 111.667 98.475 111.067 98.6452C110.876 98.7026 110.68 98.7572 110.486 98.809C109.208 99.1635 107.895 99.3759 106.571 99.4424C106.001 99.4665 105.43 99.451 104.862 99.396C104.253 99.3352 103.65 99.2164 103.063 99.0411C103.044 99.0356 103.022 99.0301 103.003 99.0247C101.782 98.6781 100.663 98.0422 99.7407 97.1711C99.5346 96.9704 99.3422 96.756 99.1648 96.5295C98.655 95.9052 98.281 95.1815 98.0667 94.4045C97.8523 93.6275 97.8024 92.8144 97.9199 92.017C97.9427 91.8725 97.9738 91.7294 98.0128 91.5884C98.1156 91.2042 98.2517 90.8297 98.4195 90.4691C98.4932 90.2999 98.5752 90.1334 98.6625 89.9696L101.747 88.9268H107.622L111.676 90.0433L111.949 90.0597L111.954 90.1197L112.08 90.1552L112.017 90.6794L112.836 98.0446Z" fill="black"/>
</g>
<path d="M98.218 73.2168C96.9641 73.0631 95.588 73.1718 94.6107 73.9723C93.6334 74.7728 93.3179 76.4368 94.2433 77.2969C95.0625 78.0583 96.3435 77.8792 97.4407 78.0957C98.386 78.3076 99.2328 78.8304 99.8457 79.5806C100.459 80.3307 100.802 81.2648 100.821 82.2333C100.805 85.0108 98.1395 87.1141 97.6607 89.85C97.3339 91.7173 98.1214 93.6823 99.4829 95.0013C100.844 96.3202 102.716 97.033 104.602 97.2261C106.487 97.4192 108.394 97.1243 110.227 96.6398C112.067 96.1533 113.879 95.4631 115.423 94.35C116.967 93.2369 118.233 91.6677 118.729 89.8299C119.225 87.992 118.869 85.8849 117.591 84.4738C116.128 82.858 113.694 82.3023 112.429 80.5275C111.01 78.538 111.535 75.7048 110.387 73.5479C109.621 72.1078 108.169 71.1256 106.622 70.6082C105.075 70.0907 103.423 69.9886 101.792 69.9385C100.935 69.9122 100.052 69.9034 99.2533 70.2158C98.4548 70.5283 97.7528 71.2404 97.7114 72.0969C97.67 72.9534 98.218 73.2168 98.218 73.2168Z" fill="#2F2E41"/>
<path d="M160.99 180H56.98C56.9076 180 56.8382 179.971 56.787 179.92C56.7358 179.869 56.707 179.799 56.707 179.727C56.707 179.655 56.7358 179.585 56.787 179.534C56.8382 179.483 56.9076 179.454 56.98 179.454H160.99C161.062 179.454 161.131 179.483 161.183 179.534C161.234 179.585 161.263 179.655 161.263 179.727C161.263 179.799 161.234 179.869 161.183 179.92C161.131 179.971 161.062 180 160.99 180Z" fill="#CACACA"/>
</g>
<defs>
<clipPath id="clip0_350_21453">
<rect width="161.262" height="180" fill="white"/>
</clipPath>
</defs>
</svg>
