<svg width="230" height="160" viewBox="0 0 230 160" fill="none" xmlns="http://www.w3.org/2000/svg">
<g clip-path="url(#clip0_311_21413)">
<path d="M45.8194 160C71.1247 160 91.6388 158.442 91.6388 156.52C91.6388 154.598 71.1247 153.04 45.8194 153.04C20.514 153.04 0 154.598 0 156.52C0 158.442 20.514 160 45.8194 160Z" fill="#E6E6E6"/>
<path d="M35.0234 35.5012C42.9974 32.1096 52.9291 34.2585 62.6284 35.7499C62.7187 33.9438 63.8127 31.7457 62.6667 30.4857C61.2744 28.9548 61.4026 27.3464 62.2404 25.7286C64.3829 21.5919 61.3133 17.1901 58.214 13.5301C57.5155 12.707 56.6326 12.0602 55.6372 11.6424C54.6417 11.2246 53.5618 11.0475 52.485 11.1255L46.7438 11.5355C45.3468 11.6353 44.0135 12.1594 42.9224 13.0376C41.8314 13.9159 41.0345 15.1064 40.6386 16.4499C39.2677 18.3143 38.5339 20.1736 38.9959 22.0232C36.9425 23.4264 36.5976 25.1203 37.5203 27.0298C38.3027 28.2321 38.2943 29.4024 37.4847 30.5404C36.4213 31.9911 35.6069 33.6088 35.0748 35.3271L35.0234 35.5012Z" fill="black"/>
<path d="M224.518 138.317H61.9987C60.5534 138.317 59.1673 137.743 58.1454 136.721C57.1234 135.699 56.5493 134.313 56.5493 132.868C115.462 126.021 173.268 126.021 229.967 132.868C229.967 134.313 229.393 135.699 228.371 136.721C227.349 137.743 225.963 138.317 224.518 138.317Z" fill="black"/>
<path d="M229.967 133.189L56.5493 132.868L76.6478 99.05L76.744 98.8897V24.3586C76.7439 23.4539 76.922 22.5581 77.2682 21.7223C77.6144 20.8865 78.1218 20.1271 78.7614 19.4874C79.4011 18.8478 80.1605 18.3403 80.9963 17.9942C81.8321 17.648 82.728 17.4699 83.6326 17.47H201.922C202.827 17.4699 203.723 17.648 204.558 17.9942C205.394 18.3403 206.154 18.8478 206.793 19.4874C207.433 20.1271 207.94 20.8865 208.286 21.7223C208.633 22.5581 208.811 23.4539 208.811 24.3586V99.4026L229.967 133.189Z" fill="#3F3D56"/>
<path d="M83.4755 22.2782C82.8806 22.2789 82.3103 22.5155 81.8896 22.9361C81.469 23.3568 81.2324 23.9271 81.2317 24.522V92.4787C81.2324 93.0736 81.469 93.6439 81.8897 94.0646C82.3103 94.4852 82.8806 94.7219 83.4755 94.7226H203.041C203.636 94.7218 204.206 94.4852 204.627 94.0646C205.047 93.6439 205.284 93.0736 205.285 92.4787V24.522C205.284 23.9272 205.047 23.3568 204.627 22.9362C204.206 22.5155 203.636 22.2789 203.041 22.2782H83.4755Z" fill="white"/>
<path d="M83.9765 103.698C83.7927 103.698 83.6127 103.751 83.458 103.85C83.3032 103.95 83.1799 104.091 83.1028 104.258L76.9098 117.721C76.8424 117.867 76.8129 118.028 76.8241 118.189C76.8352 118.35 76.8867 118.506 76.9737 118.642C77.0607 118.777 77.1804 118.889 77.3219 118.966C77.4634 119.044 77.6221 119.084 77.7834 119.084H208.018C208.182 119.084 208.343 119.043 208.487 118.963C208.63 118.883 208.75 118.768 208.836 118.628C208.922 118.489 208.972 118.33 208.979 118.166C208.986 118.002 208.952 117.839 208.878 117.693L202.147 104.23C202.067 104.069 201.945 103.935 201.793 103.841C201.641 103.747 201.465 103.697 201.287 103.698H83.9765Z" fill="black"/>
<path d="M142.777 21.1563C143.574 21.1563 144.22 20.5105 144.22 19.7138C144.22 18.9172 143.574 18.2714 142.777 18.2714C141.981 18.2714 141.335 18.9172 141.335 19.7138C141.335 20.5105 141.981 21.1563 142.777 21.1563Z" fill="white"/>
<path d="M129.976 121.649C129.765 121.649 129.559 121.719 129.392 121.847C129.224 121.976 129.103 122.156 129.048 122.36L127.494 128.13C127.456 128.273 127.451 128.422 127.479 128.567C127.508 128.712 127.57 128.848 127.659 128.965C127.749 129.082 127.865 129.177 127.997 129.243C128.13 129.308 128.275 129.342 128.423 129.342H157.966C158.119 129.342 158.27 129.305 158.406 129.235C158.543 129.165 158.66 129.063 158.749 128.938C158.838 128.813 158.896 128.669 158.918 128.517C158.939 128.365 158.924 128.211 158.874 128.066L156.877 122.296C156.812 122.107 156.689 121.943 156.526 121.827C156.363 121.711 156.168 121.649 155.968 121.649H129.976Z" fill="black"/>
<path d="M208.811 97.7678V99.0499H76.6477L76.7472 98.8898V97.7678H208.811Z" fill="black"/>
<path d="M205.124 44.877C217.517 44.877 227.563 34.831 227.563 22.4385C227.563 10.0461 217.517 0 205.124 0C192.732 0 182.686 10.0461 182.686 22.4385C182.686 34.831 192.732 44.877 205.124 44.877Z" fill="#008375"/>
<path d="M214.42 32.2153H195.828C195.488 32.215 195.162 32.0798 194.922 31.8394C194.682 31.599 194.546 31.2731 194.546 30.9331V19.7138C194.547 19.3739 194.682 19.048 194.922 18.8076C195.162 18.5672 195.488 18.432 195.828 18.4316H214.42C214.76 18.432 215.086 18.5672 215.327 18.8076C215.567 19.048 215.702 19.3739 215.702 19.7138V30.9331C215.702 31.2731 215.567 31.599 215.327 31.8394C215.086 32.0798 214.76 32.215 214.42 32.2153ZM195.828 19.7138V30.9331H214.421L214.42 19.7138L195.828 19.7138Z" fill="white"/>
<path d="M210.894 19.7139H199.354V14.5851C199.354 10.8703 201.781 8.17407 205.124 8.17407C208.468 8.17407 210.894 10.8703 210.894 14.5851L210.894 19.7139ZM200.637 18.4317H209.612V14.5851C209.612 11.5654 207.767 9.45628 205.124 9.45628C202.482 9.45628 200.637 11.5654 200.637 14.5851L200.637 18.4317Z" fill="white"/>
<path d="M205.124 26.2851C205.832 26.2851 206.406 25.711 206.406 25.0029C206.406 24.2948 205.832 23.7207 205.124 23.7207C204.416 23.7207 203.842 24.2948 203.842 25.0029C203.842 25.711 204.416 26.2851 205.124 26.2851Z" fill="white"/>
<path d="M189.46 71.6724H97.0559C96.6022 71.6719 96.1673 71.4915 95.8465 71.1707C95.5257 70.8499 95.3453 70.4149 95.3447 69.9613V47.0397C95.3453 46.586 95.5257 46.1511 95.8465 45.8303C96.1673 45.5095 96.6022 45.329 97.0559 45.3285H189.46C189.914 45.329 190.349 45.5095 190.67 45.8303C190.99 46.1511 191.171 46.586 191.171 47.0397V69.9613C191.171 70.4149 190.99 70.8499 190.67 71.1707C190.349 71.4915 189.914 71.6719 189.46 71.6724ZM97.0559 46.013C96.7837 46.0133 96.5227 46.1215 96.3302 46.314C96.1378 46.5065 96.0295 46.7675 96.0292 47.0397V69.9613C96.0295 70.2335 96.1378 70.4944 96.3302 70.6869C96.5227 70.8794 96.7837 70.9877 97.0559 70.988H189.46C189.732 70.9877 189.993 70.8794 190.186 70.6869C190.378 70.4944 190.487 70.2335 190.487 69.9613V47.0397C190.487 46.7675 190.378 46.5065 190.186 46.314C189.993 46.1215 189.732 46.0133 189.46 46.013L97.0559 46.013Z" fill="#E6E6E6"/>
<path d="M111.414 64.5913C115.263 64.5913 118.384 61.4706 118.384 57.6209C118.384 53.7712 115.263 50.6504 111.414 50.6504C107.564 50.6504 104.443 53.7712 104.443 57.6209C104.443 61.4706 107.564 64.5913 111.414 64.5913Z" fill="#E6E6E6"/>
<path d="M127.512 52.9739C127.359 52.9736 127.208 53.0035 127.067 53.0618C126.926 53.1201 126.798 53.2056 126.69 53.3135C126.581 53.4214 126.496 53.5496 126.437 53.6906C126.379 53.8317 126.349 53.9829 126.349 54.1356C126.349 54.2883 126.379 54.4396 126.437 54.5806C126.496 54.7217 126.581 54.8498 126.69 54.9578C126.798 55.0657 126.926 55.1512 127.067 55.2095C127.208 55.2677 127.359 55.2976 127.512 55.2974H182.28C182.588 55.2974 182.884 55.175 183.102 54.9571C183.32 54.7392 183.442 54.4437 183.442 54.1356C183.442 53.8275 183.32 53.532 183.102 53.3141C182.884 53.0963 182.588 52.9739 182.28 52.9739H127.512Z" fill="#E6E6E6"/>
<path d="M127.512 59.9445C127.204 59.9445 126.908 60.0669 126.691 60.2847C126.473 60.5026 126.35 60.7981 126.35 61.1062C126.35 61.4143 126.473 61.7098 126.691 61.9277C126.908 62.1456 127.204 62.2679 127.512 62.2679H151.079C151.387 62.2679 151.683 62.1456 151.9 61.9277C152.118 61.7098 152.241 61.4143 152.241 61.1062C152.241 60.7981 152.118 60.5026 151.9 60.2847C151.683 60.0669 151.387 59.9445 151.079 59.9445H127.512Z" fill="#E6E6E6"/>
<path d="M76.4205 60.4143L59.3388 69.4957L59.1226 61.9279C64.6979 60.9972 70.0023 59.3767 74.9069 56.7385L76.6934 52.3248C76.8881 51.8438 77.2045 51.4218 77.6115 51.1C78.0186 50.7783 78.5023 50.5679 79.0152 50.4896C79.5281 50.4113 80.0526 50.4677 80.5371 50.6533C81.0216 50.8389 81.4496 51.1473 81.7789 51.5482C82.2607 52.1348 82.5016 52.8826 82.4527 53.6402C82.4038 54.3977 82.0687 55.1084 81.5154 55.6281L76.4205 60.4143Z" fill="#FFB8B8"/>
<path d="M34.6829 112.847C34.5583 112.39 34.5318 111.912 34.6053 111.444C34.6787 110.976 34.8504 110.529 35.109 110.132L38.8613 104.373C39.7489 103.011 41.1107 102.027 42.6826 101.612C44.2545 101.198 45.9244 101.382 47.3684 102.129C45.7914 104.813 46.0112 107.168 47.913 109.214C44.9607 110.656 42.2321 112.516 39.8117 114.737C39.3698 115.039 38.8623 115.23 38.3316 115.295C37.8008 115.361 37.2621 115.298 36.7603 115.113C36.2586 114.928 35.8082 114.626 35.4469 114.232C35.0855 113.838 34.8236 113.363 34.6829 112.847Z" fill="black"/>
<path d="M77.1983 105.317C76.6305 106.264 75.8289 107.048 74.8706 107.596C73.9123 108.143 72.8294 108.435 71.7258 108.443L46.7977 108.632L45.7166 102.362L56.7439 99.1184L47.4463 91.983L57.6088 80.0907L76.0671 97.2945C77.1459 98.3 77.8469 99.6454 78.0528 101.106C78.2587 102.566 77.957 104.053 77.1983 105.317Z" fill="black"/>
<path d="M42.9058 148.201H37.0677C31.826 112.271 26.4905 76.241 42.2571 62.7928L60.8523 65.82L58.4739 81.6043L48.0951 93.4966L42.9058 148.201Z" fill="black"/>
<path d="M48.0377 156.34C47.5807 156.465 47.1024 156.491 46.6344 156.418C46.1664 156.345 45.7193 156.173 45.3224 155.914L38.9835 155.062C37.6214 154.175 36.6375 152.813 36.2227 151.241C35.8079 149.669 35.9917 147.999 36.7386 146.555C39.4231 148.132 41.7779 147.912 43.8243 146.01C45.2702 148.93 47.6525 148.752 49.9277 151.211C50.2289 151.653 50.4203 152.161 50.4857 152.691C50.5511 153.222 50.4888 153.761 50.3039 154.263C50.119 154.765 49.8168 155.215 49.4226 155.576C49.0284 155.938 48.5536 156.2 48.0377 156.34Z" fill="black"/>
<path d="M56.744 38.792L45.9329 36.1973C47.7284 32.5219 47.8763 28.4323 47.014 24.0888L54.3656 23.8726C54.5959 29.2739 55.2928 34.32 56.744 38.792Z" fill="#FFB8B8"/>
<path d="M59.7153 72.3304C51.8452 77.6933 46.2844 72.5138 42.0408 64.5227C42.6305 59.6328 41.6757 53.781 39.9074 47.4226C39.121 44.6182 39.4146 41.6207 40.7303 39.0221C42.0459 36.4236 44.2881 34.4127 47.014 33.3865L56.3116 37.2785C64.2063 43.7136 65.7602 50.6842 62.7983 58.036L59.7153 72.3304Z" fill="#008375"/>
<path d="M37.0677 44.1976L28.4187 48.7382L43.7706 57.8196L45.9067 63.0887C46.0493 63.4404 46.1188 63.8174 46.1109 64.1968C46.103 64.5762 46.0179 64.9501 45.8608 65.2955C45.7037 65.641 45.4779 65.9508 45.1972 66.2061C44.9164 66.4614 44.5866 66.6569 44.2279 66.7806C43.8201 66.9213 43.3852 66.9656 42.9574 66.9101C42.5296 66.8546 42.1205 66.7009 41.7621 66.4609C41.4036 66.2209 41.1056 65.9011 40.8913 65.5267C40.6771 65.1523 40.5524 64.7334 40.5271 64.3028L40.311 60.6305L20.799 54.1916C20.1416 53.9746 19.5422 53.6109 19.0461 53.128C18.5501 52.6451 18.1705 52.0556 17.936 51.4043C17.5942 50.4548 17.5768 49.4189 17.8865 48.4585C18.1962 47.4981 18.8156 46.6675 19.6477 46.0966L35.3379 35.3324L37.0677 44.1976Z" fill="#FFB8B8"/>
<path d="M45.7166 45.0625C42.1094 43.4817 38.8294 45.1989 34.6892 46.576L34.0405 35.1162C38.1515 32.9251 42.0711 32.3343 45.7166 34.0351L45.7166 45.0625Z" fill="#008375"/>
<path d="M50.0317 29.5491C53.8438 29.5491 56.9342 26.4587 56.9342 22.6465C56.9342 18.8344 53.8438 15.744 50.0317 15.744C46.2195 15.744 43.1292 18.8344 43.1292 22.6465C43.1292 26.4587 46.2195 29.5491 50.0317 29.5491Z" fill="#FFB8B8"/>
<path d="M58.2892 21.7756C51.4551 22.4449 46.2476 21.3272 42.9194 18.1448V15.5819H57.7092L58.2892 21.7756Z" fill="black"/>
</g>
<defs>
<clipPath id="clip0_311_21413">
<rect width="229.967" height="160" fill="white"/>
</clipPath>
</defs>
</svg>
