<svg width="23" height="24" viewBox="0 0 23 24" fill="none" xmlns="http://www.w3.org/2000/svg">
<path d="M11.4002 22.1158C16.6971 22.1158 21.0846 17.7376 21.0846 12.4315C21.0846 7.13457 16.6971 2.74707 11.3908 2.74707C6.09394 2.74707 1.71582 7.13457 1.71582 12.4315C1.71582 17.7376 6.10332 22.1158 11.4002 22.1158ZM11.4002 20.2128C7.08769 20.2128 3.62832 16.7439 3.62832 12.4315C3.62832 8.11894 7.07832 4.65957 11.3908 4.65957C15.7033 4.65957 19.1815 8.11894 19.1815 12.4315C19.1815 16.7439 15.7128 20.2128 11.4002 20.2128ZM11.3439 9.35645C12.0471 9.35645 12.6096 8.78457 12.6096 8.09083C12.6096 7.37833 12.0471 6.81583 11.3439 6.81583C10.6408 6.81583 10.0783 7.37833 10.0783 8.09083C10.0783 8.78457 10.6408 9.35645 11.3439 9.35645ZM9.75956 17.5876H13.5376C13.9502 17.5876 14.2783 17.2876 14.2783 16.8658C14.2783 16.4721 13.9502 16.1628 13.5376 16.1628H12.4876V11.7283C12.4876 11.1752 12.2158 10.8096 11.6908 10.8096H9.92832C9.50645 10.8096 9.18769 11.1283 9.18769 11.5221C9.18769 11.9439 9.50645 12.2439 9.92832 12.2439H10.8752V16.1628H9.75956C9.34706 16.1628 9.01894 16.4721 9.01894 16.8658C9.01894 17.2876 9.34706 17.5876 9.75956 17.5876Z" fill="#CACACA"/>
</svg>
