<svg width="56" height="56" viewBox="0 0 56 56" fill="none" xmlns="http://www.w3.org/2000/svg">
<path d="M27.9824 27.3789C29.0898 27.3789 29.8105 26.6055 29.8105 25.4453V10.0117C29.8105 8.85156 29.0898 8.06055 27.9824 8.06055C26.8926 8.06055 26.1543 8.85156 26.1543 10.0117V25.4453C26.1543 26.6055 26.8926 27.3789 27.9824 27.3789ZM27.9824 45.4844C37.9492 45.4844 46.1758 37.2578 46.1758 27.3086C46.1758 22 43.8203 17.3594 40.5332 14.2656C38.7051 12.4727 36.1211 14.8809 38.002 16.7793C40.7969 19.416 42.5195 23.1426 42.5371 27.3086C42.5547 35.377 36.0508 41.8633 27.9824 41.8633C19.9141 41.8633 13.4629 35.377 13.4629 27.3086C13.4629 23.125 15.1855 19.3984 17.9805 16.7617C19.8613 14.8457 17.2773 12.4551 15.4492 14.248C12.1445 17.3418 9.80664 22 9.80664 27.3086C9.80664 37.2578 18.0332 45.4844 27.9824 45.4844Z" fill="#008375"/>
</svg>
