<svg width="30" height="30" viewBox="0 0 30 30" fill="none" xmlns="http://www.w3.org/2000/svg">
<path d="M9.80929 22.486C10.2387 22.486 10.54 22.2976 10.9996 21.8456L14.8869 17.9885C14.9245 17.9508 14.9622 17.9207 14.9999 17.9207C15.03 17.9207 15.0677 17.9508 15.1053 17.9885L18.9926 21.8456C19.4521 22.2976 19.7535 22.486 20.1829 22.486C20.7554 22.486 21.1396 22.049 21.1396 21.4464C21.1396 21.13 21.0191 20.7533 20.8835 20.3766L16.1826 7.59982C15.9114 6.86907 15.5272 6.48486 14.9999 6.48486C14.4725 6.48486 14.0808 6.86154 13.8096 7.59982L9.10868 20.3766C8.97307 20.7533 8.85254 21.13 8.85254 21.4464C8.85254 22.049 9.23675 22.486 9.80929 22.486ZM10.6078 20.2787C10.5852 20.2636 10.5852 20.2335 10.6003 20.1883L14.917 8.57164C14.9396 8.51137 14.9622 8.48877 14.9999 8.48877C15.03 8.48877 15.0526 8.51137 15.0752 8.57164L19.3919 20.1883C19.4069 20.2335 19.3994 20.2636 19.3843 20.2787C19.3617 20.2937 19.3316 20.2862 19.309 20.2561L15.4745 16.3763C15.3012 16.2031 15.1505 16.1428 14.9999 16.1428C14.8492 16.1428 14.691 16.2031 14.5177 16.3763L10.6907 20.2561C10.6606 20.2862 10.6304 20.2862 10.6078 20.2787Z" fill="#1C1C1E"/>
</svg>
