<svg width="40" height="40" viewBox="0 0 40 40" fill="none" xmlns="http://www.w3.org/2000/svg">
<path d="M11.3486 31.2584H28.638C31.3626 31.2584 32.7814 29.8521 32.7814 27.1652V11.8848C32.7814 9.19781 31.3626 7.79156 28.638 7.79156H11.3486C8.63658 7.79156 7.21777 9.18526 7.21777 11.8848V27.1652C7.21777 29.8521 8.63658 31.2584 11.3486 31.2584ZM11.3361 28.7598C10.2939 28.7598 9.71638 28.2199 9.71638 27.1149V15.5636C9.71638 14.4587 10.2939 13.9188 11.3361 13.9188H28.6505C29.6927 13.9188 30.2702 14.4587 30.2702 15.5636V27.1149C30.2702 28.2199 29.6927 28.7598 28.6505 28.7598H11.3361ZM17.5763 18.2505H18.3171C18.7691 18.2505 18.9198 18.1124 18.9198 17.673V16.9322C18.9198 16.4802 18.7691 16.3421 18.3171 16.3421H17.5763C17.1243 16.3421 16.9736 16.4802 16.9736 16.9322V17.673C16.9736 18.1124 17.1243 18.2505 17.5763 18.2505ZM21.6821 18.2505H22.4229C22.8623 18.2505 23.013 18.1124 23.013 17.673V16.9322C23.013 16.4802 22.8623 16.3421 22.4229 16.3421H21.6821C21.23 16.3421 21.0794 16.4802 21.0794 16.9322V17.673C21.0794 18.1124 21.23 18.2505 21.6821 18.2505ZM25.7752 18.2505H26.516C26.9681 18.2505 27.1187 18.1124 27.1187 17.673V16.9322C27.1187 16.4802 26.9681 16.3421 26.516 16.3421H25.7752C25.3358 16.3421 25.1851 16.4802 25.1851 16.9322V17.673C25.1851 18.1124 25.3358 18.2505 25.7752 18.2505ZM13.4831 22.2935H14.2114C14.6634 22.2935 14.814 22.1554 14.814 21.7034V20.9626C14.814 20.5232 14.6634 20.385 14.2114 20.385H13.4831C13.0311 20.385 12.8804 20.5232 12.8804 20.9626V21.7034C12.8804 22.1554 13.0311 22.2935 13.4831 22.2935ZM17.5763 22.2935H18.3171C18.7691 22.2935 18.9198 22.1554 18.9198 21.7034V20.9626C18.9198 20.5232 18.7691 20.385 18.3171 20.385H17.5763C17.1243 20.385 16.9736 20.5232 16.9736 20.9626V21.7034C16.9736 22.1554 17.1243 22.2935 17.5763 22.2935ZM21.6821 22.2935H22.4229C22.8623 22.2935 23.013 22.1554 23.013 21.7034V20.9626C23.013 20.5232 22.8623 20.385 22.4229 20.385H21.6821C21.23 20.385 21.0794 20.5232 21.0794 20.9626V21.7034C21.0794 22.1554 21.23 22.2935 21.6821 22.2935ZM25.7752 22.2935H26.516C26.9681 22.2935 27.1187 22.1554 27.1187 21.7034V20.9626C27.1187 20.5232 26.9681 20.385 26.516 20.385H25.7752C25.3358 20.385 25.1851 20.5232 25.1851 20.9626V21.7034C25.1851 22.1554 25.3358 22.2935 25.7752 22.2935ZM13.4831 26.3239H14.2114C14.6634 26.3239 14.814 26.1858 14.814 25.7464V25.0056C14.814 24.5536 14.6634 24.4154 14.2114 24.4154H13.4831C13.0311 24.4154 12.8804 24.5536 12.8804 25.0056V25.7464C12.8804 26.1858 13.0311 26.3239 13.4831 26.3239ZM17.5763 26.3239H18.3171C18.7691 26.3239 18.9198 26.1858 18.9198 25.7464V25.0056C18.9198 24.5536 18.7691 24.4154 18.3171 24.4154H17.5763C17.1243 24.4154 16.9736 24.5536 16.9736 25.0056V25.7464C16.9736 26.1858 17.1243 26.3239 17.5763 26.3239ZM21.6821 26.3239H22.4229C22.8623 26.3239 23.013 26.1858 23.013 25.7464V25.0056C23.013 24.5536 22.8623 24.4154 22.4229 24.4154H21.6821C21.23 24.4154 21.0794 24.5536 21.0794 25.0056V25.7464C21.0794 26.1858 21.23 26.3239 21.6821 26.3239Z" fill="#636569"/>
</svg>
