<svg width="286" height="180" viewBox="0 0 286 180" fill="none" xmlns="http://www.w3.org/2000/svg">
<g clip-path="url(#clip0_186_12686)">
<path d="M208.227 43.8359C208.227 61.1053 181.233 112.034 165.756 139.816C164.706 141.701 163.171 143.271 161.311 144.364C159.451 145.457 157.333 146.034 155.175 146.034C153.018 146.034 150.899 145.457 149.039 144.364C147.179 143.271 145.645 141.701 144.595 139.816C129.118 112.034 102.124 61.1053 102.124 43.8359C102.124 19.626 125.876 0 155.175 0C184.475 0 208.227 19.626 208.227 43.8359Z" fill="#008375"/>
<path d="M155.424 72.2297C171.381 72.2297 184.316 59.2943 184.316 43.3378C184.316 27.3813 171.381 14.4459 155.424 14.4459C139.468 14.4459 126.532 27.3813 126.532 43.3378C126.532 59.2943 139.468 72.2297 155.424 72.2297Z" fill="white"/>
<path d="M34.8604 69.4796C44.4177 69.4796 52.1654 61.7319 52.1654 52.1746C52.1654 42.6172 44.4177 34.8695 34.8604 34.8695C25.303 34.8695 17.5553 42.6172 17.5553 52.1746C17.5553 61.7319 25.303 69.4796 34.8604 69.4796Z" fill="#FF6584"/>
<path d="M155.175 180C178.31 180 197.065 178.552 197.065 176.766C197.065 174.98 178.31 173.533 155.175 173.533C132.04 173.533 113.286 174.98 113.286 176.766C113.286 178.552 132.04 180 155.175 180Z" fill="#008375"/>
<path opacity="0.4" d="M31.3369 67.5637C32.2177 62.1363 28.5319 57.0226 23.1045 56.1418C17.6771 55.2611 12.5634 58.9469 11.6826 64.3742C10.8019 69.8016 14.4876 74.9154 19.915 75.7961C25.3424 76.6769 30.4562 72.9911 31.3369 67.5637Z" fill="#008375"/>
<path d="M254.433 117.326C176.031 87.9359 80.4091 116.589 25.2007 175.199C24.8869 175.528 24.5731 175.862 24.2692 176.196H23.4274C23.7163 175.862 24.0152 175.528 24.3091 175.199C80.6632 112.13 175.015 86.9944 254.433 117.326Z" fill="#3F3D56"/>
<path d="M275.858 127.074C268.928 123.379 261.772 120.123 254.433 117.326C261.791 120.077 268.95 123.334 275.858 127.074Z" fill="#3F3D56"/>
<path opacity="0.4" d="M232.949 97.7518C238.979 97.7518 243.868 92.8631 243.868 86.8325C243.868 80.802 238.979 75.9133 232.949 75.9133C226.918 75.9133 222.029 80.802 222.029 86.8325C222.029 92.8631 226.918 97.7518 232.949 97.7518Z" fill="#008375"/>
<path d="M234.164 170.821C235.008 173.94 237.898 175.872 237.898 175.872C237.898 175.872 239.421 172.747 238.577 169.628C237.733 166.508 234.843 164.577 234.843 164.577C234.843 164.577 233.321 167.702 234.164 170.821Z" fill="#3F3D56"/>
<path d="M235.404 170.151C237.72 172.405 238.003 175.87 238.003 175.87C238.003 175.87 234.531 175.68 232.216 173.426C229.9 171.172 229.618 167.707 229.618 167.707C229.618 167.707 233.089 167.897 235.404 170.151Z" fill="#008375"/>
<path d="M1.67368 127.451V132.263L1.43457 132.522V127.401C1.51427 127.416 1.59399 127.436 1.67368 127.451Z" fill="#3F3D56"/>
<path d="M17.0063 175.197C16.9366 175.312 16.8618 175.426 16.7871 175.541H1.43457V127.69L1.67368 127.451L3.71105 129.767V126.38H10.1868V137.129L16.7273 144.557L16.7871 144.626C16.8668 144.875 16.9415 145.125 17.0163 145.374C17.0168 145.377 17.0185 145.381 17.0212 145.384C18.0021 148.523 18.8071 151.714 19.4322 154.943C20.8569 162.559 20.6427 169.543 17.0063 175.197Z" fill="#CCCCCC"/>
<path d="M6.82529 153.901H2.70349V157.335H6.82529V153.901Z" fill="#3F3D56"/>
<path d="M6.82529 160.083H2.70349V163.518H6.82529V160.083Z" fill="#3F3D56"/>
<path d="M133.793 147.374L131.732 143.94L150.967 127.452C165.188 120.608 182.329 122.583 200.429 127.452V132.261L182.568 151.496L161.959 155.618L133.793 147.374Z" fill="#3F3D56"/>
<path d="M208.943 137.128C212.359 133.328 212.834 129.715 208.943 126.379H202.468V129.769L200.429 127.452L183.942 143.94L181.194 146.687L177.759 160.427L183.942 175.54H215.542V144.627L208.943 137.128Z" fill="#CCCCCC"/>
<path d="M131.732 143.939H183.942V175.54H131.732C125.416 168.706 128.697 156.251 131.732 143.939Z" fill="#F2F2F2"/>
<path d="M176.729 153.901H165.737V163.518H176.729V153.901Z" fill="#3F3D56"/>
<path d="M161.272 153.557H151.654V175.54H161.272V153.557Z" fill="#CCCCCC"/>
<path d="M140.663 156.992V153.557H136.542V156.992H140.319H140.663Z" fill="#3F3D56"/>
<path d="M140.319 159.74H136.542V163.175H140.663V159.74H140.319Z" fill="#3F3D56"/>
<path d="M147.533 153.557H143.411V156.992H147.533V153.557Z" fill="#3F3D56"/>
<path d="M147.533 159.74H143.411V163.175H147.533V159.74Z" fill="#3F3D56"/>
<path d="M198.712 157.336V153.901H194.59V157.336H198.368H198.712Z" fill="#3F3D56"/>
<path d="M198.368 160.083H194.59V163.518H198.712V160.083H198.368Z" fill="#3F3D56"/>
<path d="M205.581 153.901H201.46V157.335H205.581V153.901Z" fill="#3F3D56"/>
<path d="M205.581 160.083H201.46V163.518H205.581V160.083Z" fill="#3F3D56"/>
<path d="M40.8302 89.6694L37.3955 86.9212L56.6305 69.747H105.405V84.8604L73.8047 106.157L40.8302 89.6694Z" fill="#3F3D56"/>
<path d="M114.298 79.3807V70.09H107.822V72.3655L105.405 69.7468L89.6046 86.921L83.4222 91.0431L73.8356 161.082L88.293 175.54H121.892C127.04 149.643 131.123 123.039 121.892 87.6079L114.298 79.3807Z" fill="#CCCCCC"/>
<path d="M37.3953 86.9212H89.6048V175.54H37.3953C31.6821 141.112 28.8919 109.186 37.3953 86.9212Z" fill="#F2F2F2"/>
<path d="M67.2783 153.901H57.6608V175.54H67.2783V153.901Z" fill="#CCCCCC"/>
<path d="M47.3563 160.083V156.649H43.2347V160.083H47.0131H47.3563Z" fill="#3F3D56"/>
<path d="M47.0131 162.831H43.2347V166.266H47.3563V162.831H47.0131Z" fill="#3F3D56"/>
<path d="M54.2259 156.648H50.1041V160.083H54.2259V156.648Z" fill="#3F3D56"/>
<path d="M75.1786 162.831H71.4003V166.266H75.5218V162.831H75.1786Z" fill="#3F3D56"/>
<path d="M82.3916 156.648H78.2698V160.083H82.3916V156.648Z" fill="#3F3D56"/>
<path d="M82.3916 162.831H78.2698V166.266H82.3916V162.831Z" fill="#3F3D56"/>
<path d="M104.374 91.3865V87.9518H100.253V91.3865H104.031H104.374Z" fill="#3F3D56"/>
<path d="M104.031 94.1347H100.253V97.5694H104.374V94.1347H104.031Z" fill="#3F3D56"/>
<path d="M111.244 87.9517H107.122V91.3865H111.244V87.9517Z" fill="#3F3D56"/>
<path d="M111.244 94.1344H107.122V97.5692H111.244V94.1344Z" fill="#3F3D56"/>
<path d="M104.374 110.622V107.187H100.253V110.622H104.031H104.374Z" fill="#3F3D56"/>
<path d="M104.031 113.37H100.253V116.804H104.374V113.37H104.031Z" fill="#3F3D56"/>
<path d="M111.244 107.187H107.122V110.622H111.244V107.187Z" fill="#3F3D56"/>
<path d="M111.244 113.369H107.122V116.804H111.244V113.369Z" fill="#3F3D56"/>
<path d="M104.374 129.857V126.422H100.253V129.857H104.031H104.374Z" fill="#3F3D56"/>
<path d="M104.031 132.605H100.253V136.039H104.374V132.605H104.031Z" fill="#3F3D56"/>
<path d="M111.244 126.422H107.122V129.857H111.244V126.422Z" fill="#3F3D56"/>
<path d="M111.244 132.605H107.122V136.039H111.244V132.605Z" fill="#3F3D56"/>
<path d="M104.374 149.092V145.657H100.253V149.092H104.031H104.374Z" fill="#3F3D56"/>
<path d="M104.031 151.84H100.253V155.274H104.374V151.84H104.031Z" fill="#3F3D56"/>
<path d="M111.244 145.657H107.122V149.092H111.244V145.657Z" fill="#3F3D56"/>
<path d="M111.244 151.84H107.122V155.274H111.244V151.84Z" fill="#3F3D56"/>
<path d="M43.2345 91.3865H83.0786V99.6301C70.3073 96.1055 56.9894 96.3583 43.2345 99.6301V91.3865Z" fill="#3F3D56"/>
<path d="M43.2345 107.874C55.6703 111.538 68.9516 111.538 83.0786 107.874V116.117H43.2345V107.874Z" fill="#3F3D56"/>
<path d="M43.2345 124.361H83.0786V132.605C69.4998 128.269 56.2045 128.064 43.2345 132.605V124.361Z" fill="#3F3D56"/>
<path d="M43.2345 140.848C56.2289 145.856 69.5222 145.648 83.0786 140.848V149.092H43.2345V140.848Z" fill="#3F3D56"/>
<path d="M257.377 126.526H285.372V140.016L282.871 140.798L274.553 143.395L261.501 140.371L248.465 137.35L241.581 135.756L238.144 134.484C241.003 130.561 246.204 127.475 257.377 126.526Z" fill="#3F3D56"/>
<path d="M285.372 134.484V175.541H238.144C238.129 175.515 238.119 175.492 238.104 175.467V175.465C238.093 175.436 238.079 175.408 238.064 175.381C237.327 173.898 236.666 172.417 236.082 170.941C231.125 158.449 231.663 146.286 238.144 134.484H285.372Z" fill="#F2F2F2"/>
<path d="M268.027 153.901H258.409V175.54H268.027V153.901Z" fill="#CCCCCC"/>
<path d="M248.105 160.083V156.649H243.983V160.083H247.762H248.105Z" fill="#3F3D56"/>
<path d="M247.762 162.831H243.983V166.266H248.105V162.831H247.762Z" fill="#3F3D56"/>
<path d="M254.975 156.648H250.853V160.083H254.975V156.648Z" fill="#3F3D56"/>
<path d="M254.975 162.831H250.853V166.266H254.975V162.831Z" fill="#3F3D56"/>
<path d="M276.27 160.083V156.649H272.149V160.083H275.927H276.27Z" fill="#3F3D56"/>
<path d="M275.927 162.831H272.149V166.266H276.27V162.831H275.927Z" fill="#3F3D56"/>
<path d="M283.14 156.648H279.018V160.083H283.14V156.648Z" fill="#3F3D56"/>
<path d="M283.14 162.831H279.018V166.266H283.14V162.831Z" fill="#3F3D56"/>
<path d="M248.466 110.586H254.387C260.227 110.586 265.827 112.906 269.957 117.035C274.086 121.164 276.406 126.765 276.406 132.604H248.466V110.586Z" fill="#3F3D56"/>
<path d="M69.1376 50.8098H75.0583C80.898 50.8098 86.4984 53.1296 90.6277 57.2589C94.7569 61.3881 97.0767 66.9886 97.0767 72.8282H69.1376V50.8098Z" fill="#3F3D56"/>
<path d="M163.783 106.103H169.704C175.544 106.103 181.144 108.423 185.273 112.552C189.403 116.681 191.722 122.282 191.722 128.121H163.783V106.103Z" fill="#3F3D56"/>
<path d="M276.406 140.848H248.466V149.092H276.406V140.848Z" fill="#3F3D56"/>
<path d="M285.372 175.199H1.43469V176.196H285.372V175.199Z" fill="#3F3D56"/>
<path d="M27.622 135.844H26.6257V175.197H27.622V135.844Z" fill="#3F3D56"/>
<path d="M36.8165 140.859C36.88 154.62 27.1986 165.82 27.1986 165.82C27.1986 165.82 14.8004 154.471 17.351 140.949C19.9162 127.349 27.911 116.046 26.9689 115.988C26.9689 115.988 36.7531 127.099 36.8165 140.859Z" fill="#008375"/>
<path d="M127.249 135.844H126.253V175.197H127.249V135.844Z" fill="#3F3D56"/>
<path d="M136.444 140.859C137.342 154.591 126.826 165.82 126.826 165.82C126.826 165.82 117.042 154.71 116.978 140.949C116.915 127.188 126.596 115.988 126.596 115.988C125.652 119.76 135.717 129.749 136.444 140.859Z" fill="#008375"/>
<path d="M62.5225 71.8755L105.797 69.7584L123.951 84.9112L120.742 87.8089L91.9947 87.1618L62.5225 71.8755Z" fill="#3F3D56"/>
<path d="M19.3426 142.196L17.0113 144.303L16.7274 144.557L16.1346 145.095L1.43463 144.766V127.401C0.956423 127.296 0.47821 127.197 0 127.102L1.19055 127.042L1.43463 127.246L3.71112 129.144L10.1869 134.554L17.4198 140.592L19.3426 142.196Z" fill="#3F3D56"/>
<path d="M157.168 129.161L200.443 127.044L218.597 142.197L215.387 145.094L186.641 144.447L157.168 129.161Z" fill="#3F3D56"/>
</g>
<defs>
<clipPath id="clip0_186_12686">
<rect width="285.372" height="180" fill="white"/>
</clipPath>
</defs>
</svg>
