<svg width="30" height="30" viewBox="0 0 30 30" fill="none" xmlns="http://www.w3.org/2000/svg">
<rect width="30" height="30" rx="7" fill="#008375"/>
<path d="M7.53442 19.2163H8.93565V20.3539C8.93565 21.9661 9.78693 22.8098 11.4217 22.8098H22.4583C24.0855 22.8098 24.9443 21.9661 24.9443 20.3539V12.6622C24.9443 11.05 24.0855 10.2063 22.4583 10.2063H21.057V9.07628C21.057 7.46411 20.2057 6.62036 18.5785 6.62036H7.53442C5.89966 6.62036 5.05591 7.46411 5.05591 9.07628V16.7604C5.05591 18.3801 5.89966 19.2163 7.53442 19.2163ZM7.63236 17.7172C6.93928 17.7172 6.55507 17.3556 6.55507 16.6248V9.21188C6.55507 8.48113 6.93928 8.12706 7.63236 8.12706H18.4806C19.1661 8.12706 19.5579 8.48113 19.5579 9.21188V10.2063H11.4217C9.78693 10.2063 8.93565 11.05 8.93565 12.6622V17.7172H7.63236ZM11.5196 21.3031C10.819 21.3031 10.4423 20.9415 10.4423 20.2183V12.7978C10.4423 12.0746 10.819 11.713 11.5196 11.713H22.3603C23.0534 11.713 23.4376 12.0746 23.4376 12.7978V20.2183C23.4376 20.9415 23.0534 21.3031 22.3603 21.3031H11.5196Z" fill="white"/>
</svg>
