<svg width="29" height="28" viewBox="0 0 29 28" fill="none" xmlns="http://www.w3.org/2000/svg">
<path d="M22.3282 21.5833C21.3598 23.03 20.3332 24.4417 18.7698 24.465C17.2065 24.5 16.7048 23.5433 14.9315 23.5433C13.1465 23.5433 12.5982 24.4417 11.1165 24.5C9.58816 24.5583 8.43316 22.96 7.45316 21.5483C5.45816 18.6667 3.92982 13.3583 5.98316 9.78833C6.99816 8.015 8.81816 6.895 10.7898 6.86C12.2832 6.83666 13.7065 7.875 14.6282 7.875C15.5382 7.875 17.2648 6.62666 19.0732 6.81333C19.8315 6.84833 21.9548 7.11666 23.3198 9.12333C23.2148 9.19333 20.7882 10.6167 20.8115 13.5683C20.8465 17.0917 23.9032 18.27 23.9382 18.2817C23.9032 18.3633 23.4482 19.9617 22.3282 21.5833ZM15.6665 2.91666C16.5182 1.94833 17.9298 1.21333 19.0965 1.16666C19.2482 2.53166 18.6998 3.90833 17.8832 4.88833C17.0782 5.88 15.7482 6.65 14.4415 6.545C14.2665 5.20333 14.9198 3.80333 15.6665 2.91666Z" fill="black"/>
</svg>
