<svg width="40" height="40" viewBox="0 0 40 40" fill="none" xmlns="http://www.w3.org/2000/svg">
<path d="M11.3496 31.2584H28.639C31.3636 31.2584 32.7824 29.8521 32.7824 27.1652V11.8848C32.7824 9.19782 31.3636 7.79157 28.639 7.79157H11.3496C8.63756 7.79157 7.21875 9.18527 7.21875 11.8848V27.1652C7.21875 29.8521 8.63756 31.2584 11.3496 31.2584ZM11.3371 28.7598C10.2949 28.7598 9.71735 28.2199 9.71735 27.115V15.5636C9.71735 14.4587 10.2949 13.9188 11.3371 13.9188H28.6515C29.6936 13.9188 30.2712 14.4587 30.2712 15.5636V27.115C30.2712 28.2199 29.6936 28.7598 28.6515 28.7598H11.3371ZM17.5773 18.2506H18.3181C18.7701 18.2506 18.9208 18.1124 18.9208 17.673V16.9322C18.9208 16.4802 18.7701 16.3421 18.3181 16.3421H17.5773C17.1253 16.3421 16.9746 16.4802 16.9746 16.9322V17.673C16.9746 18.1124 17.1253 18.2506 17.5773 18.2506ZM21.683 18.2506H22.4238C22.8633 18.2506 23.014 18.1124 23.014 17.673V16.9322C23.014 16.4802 22.8633 16.3421 22.4238 16.3421H21.683C21.231 16.3421 21.0804 16.4802 21.0804 16.9322V17.673C21.0804 18.1124 21.231 18.2506 21.683 18.2506ZM25.7762 18.2506H26.517C26.969 18.2506 27.1197 18.1124 27.1197 17.673V16.9322C27.1197 16.4802 26.969 16.3421 26.517 16.3421H25.7762C25.3368 16.3421 25.1861 16.4802 25.1861 16.9322V17.673C25.1861 18.1124 25.3368 18.2506 25.7762 18.2506ZM13.4841 22.2935H14.2123C14.6643 22.2935 14.815 22.1554 14.815 21.7034V20.9626C14.815 20.5232 14.6643 20.385 14.2123 20.385H13.4841C13.0321 20.385 12.8814 20.5232 12.8814 20.9626V21.7034C12.8814 22.1554 13.0321 22.2935 13.4841 22.2935ZM17.5773 22.2935H18.3181C18.7701 22.2935 18.9208 22.1554 18.9208 21.7034V20.9626C18.9208 20.5232 18.7701 20.385 18.3181 20.385H17.5773C17.1253 20.385 16.9746 20.5232 16.9746 20.9626V21.7034C16.9746 22.1554 17.1253 22.2935 17.5773 22.2935ZM21.683 22.2935H22.4238C22.8633 22.2935 23.014 22.1554 23.014 21.7034V20.9626C23.014 20.5232 22.8633 20.385 22.4238 20.385H21.683C21.231 20.385 21.0804 20.5232 21.0804 20.9626V21.7034C21.0804 22.1554 21.231 22.2935 21.683 22.2935ZM25.7762 22.2935H26.517C26.969 22.2935 27.1197 22.1554 27.1197 21.7034V20.9626C27.1197 20.5232 26.969 20.385 26.517 20.385H25.7762C25.3368 20.385 25.1861 20.5232 25.1861 20.9626V21.7034C25.1861 22.1554 25.3368 22.2935 25.7762 22.2935ZM13.4841 26.3239H14.2123C14.6643 26.3239 14.815 26.1858 14.815 25.7464V25.0056C14.815 24.5536 14.6643 24.4155 14.2123 24.4155H13.4841C13.0321 24.4155 12.8814 24.5536 12.8814 25.0056V25.7464C12.8814 26.1858 13.0321 26.3239 13.4841 26.3239ZM17.5773 26.3239H18.3181C18.7701 26.3239 18.9208 26.1858 18.9208 25.7464V25.0056C18.9208 24.5536 18.7701 24.4155 18.3181 24.4155H17.5773C17.1253 24.4155 16.9746 24.5536 16.9746 25.0056V25.7464C16.9746 26.1858 17.1253 26.3239 17.5773 26.3239ZM21.683 26.3239H22.4238C22.8633 26.3239 23.014 26.1858 23.014 25.7464V25.0056C23.014 24.5536 22.8633 24.4155 22.4238 24.4155H21.683C21.231 24.4155 21.0804 24.5536 21.0804 25.0056V25.7464C21.0804 26.1858 21.231 26.3239 21.683 26.3239Z" fill="#008375"/>
</svg>
