<svg width="38" height="38" viewBox="0 0 38 38" fill="none" xmlns="http://www.w3.org/2000/svg">
<path d="M18.8453 30.6323C25.5577 30.6323 31.098 25.092 31.098 18.3915C31.098 11.691 25.5458 6.15063 18.8335 6.15063C12.133 6.15063 6.60449 11.691 6.60449 18.3915C6.60449 25.092 12.1448 30.6323 18.8453 30.6323ZM18.8453 28.1936C13.4115 28.1936 9.06686 23.8253 9.06686 18.3915C9.06686 12.9577 13.4115 8.60117 18.8335 8.60117C24.2673 8.60117 28.6356 12.9577 28.6475 18.3915C28.6593 23.8253 24.2791 28.1936 18.8453 28.1936ZM15.0807 23.9436C15.6135 23.9436 15.9686 23.6714 16.1699 22.9966L16.8802 20.8894H20.7868L21.5089 22.9966C21.6984 23.6595 22.0535 23.9436 22.5981 23.9436C23.2492 23.9436 23.6517 23.5411 23.6517 22.9374C23.6517 22.7361 23.6043 22.523 23.4978 22.2034L20.5027 13.9758C20.2186 13.1471 19.6503 12.7446 18.8216 12.7446C18.0048 12.7446 17.4602 13.1471 17.1761 13.9758L14.1692 22.2034C14.0626 22.523 14.0153 22.7361 14.0153 22.9374C14.0153 23.553 14.4296 23.9436 15.0807 23.9436ZM17.3774 19.232L18.7743 14.982H18.9045L20.2896 19.232H17.3774Z" fill="#CACACA"/>
</svg>
